  0
SECTION
  2
HEADER
  9
$ANGBASE
  50
0.0
  9
$ANGDIR
  70
1
  9
$MEASUREMENT
  70
0
  0
ENDSEC
  0
SECTION
  2
TABLES
  0
TABLE
  2
LTYPE
  70
4
  0
LTYPE
  5
40F
  2
CONTINUOUS
  70
0
  3
Solid line
  72
65
  73
0
  40
0.0
  0
LTYPE
  5
410
  2
DASHDOT
 70
0
  3
Dash Dot ____ _ ____ _
 72
65
 73
4
 40
2.0
 49
1.25
 49
-0.25
 49
0.25
 49
-0.25
  0
LTYPE
  5
411
  2
DASHED
 70
0
  3
Dashed __ __ __ __ __
 72
65
 73
2
 40
0.75
 49
0.5
 49
-0.25
  0
LTYPE
  5
43B
  2
DOTTED
 70
0
  3
Dotted .  .  .  .
 72
65
 73
2
 40
0.2
 49
0.0
 49
-0.2
  0
ENDTAB
  0
TABLE
  2
STYLE
  70
4
  0
STYLE
  2
KICAD
  70
0
  40
0
  41
1
  42
1
  50
0
  71
0
  3
isocp.shx
  0
STYLE
  2
KICADB
  70
0
  40
0
  41
1
  42
1
  50
0
  71
0
  3
isocp.shx
  0
STYLE
  2
KICADI
  70
0
  40
0
  41
1
  42
1
  50
15
  71
0
  3
isocp.shx
  0
STYLE
  2
KICADBI
  70
0
  40
0
  41
1
  42
1
  50
15
  71
0
  3
isocp.shx
  0
ENDTAB
  0
TABLE
  2
LAYER
  70
1
  0
LAYER
  2
BLACK
  70
0
  62
7
  6
CONTINUOUS
  0
ENDTAB
  0
ENDSEC
  0
SECTION
  2
ENTITIES
0
LINE
8
BLACK
6
CONTINUOUS
10
2.2196594094488189
20
-9.1503897244094485
11
2.2292071259842521
21
-9.1534919685039373
0
LINE
8
BLACK
6
CONTINUOUS
10
2.2292071259842521
20
-9.1534919685039373
11
2.2381519685039368
21
-9.1580496062992118
0
LINE
8
BLACK
6
CONTINUOUS
10
2.2381519685039368
20
-9.1580496062992118
11
2.2462737401574802
21
-9.1639503937007873
0
LINE
8
BLACK
6
CONTINUOUS
10
2.2462737401574802
20
-9.1639503937007873
11
2.2533724409448816
21
-9.1710490944881879
0
LINE
8
BLACK
6
CONTINUOUS
10
2.2533724409448816
20
-9.1710490944881879
11
2.2592732283464567
21
-9.1791708661417317
0
LINE
8
BLACK
6
CONTINUOUS
10
2.2592732283464567
20
-9.1791708661417317
11
2.2638308661417321
21
-9.1881157086614174
0
LINE
8
BLACK
6
CONTINUOUS
10
2.2638308661417321
20
-9.1881157086614174
11
2.2669331102362205
21
-9.1976634251968505
0
LINE
8
BLACK
6
CONTINUOUS
10
2.2669331102362205
20
-9.1976634251968505
11
2.2685035826771651
21
-9.207578897637795
0
LINE
8
BLACK
6
CONTINUOUS
10
2.2685035826771651
20
-9.207578897637795
11
2.2685035826771651
21
-9.217617952755905
0
LINE
8
BLACK
6
CONTINUOUS
10
2.2685035826771651
20
-9.217617952755905
11
2.2669331102362205
21
-9.2275334251968495
0
LINE
8
BLACK
6
CONTINUOUS
10
2.2669331102362205
20
-9.2275334251968495
11
2.2638308661417321
21
-9.2370811417322827
0
LINE
8
BLACK
6
CONTINUOUS
10
2.2638308661417321
20
-9.2370811417322827
11
2.2592732283464567
21
-9.2460259842519683
0
LINE
8
BLACK
6
CONTINUOUS
10
2.2592732283464567
20
-9.2460259842519683
11
2.2533724409448816
21
-9.2541477559055121
0
LINE
8
BLACK
6
CONTINUOUS
10
2.2533724409448816
20
-9.2541477559055121
11
2.2462737401574802
21
-9.2612464566929127
0
LINE
8
BLACK
6
CONTINUOUS
10
2.2462737401574802
20
-9.2612464566929127
11
2.2381519685039368
21
-9.2671472440944882
0
LINE
8
BLACK
6
CONTINUOUS
10
2.2381519685039368
20
-9.2671472440944882
11
2.2292071259842521
21
-9.2717048818897627
0
LINE
8
BLACK
6
CONTINUOUS
10
2.2292071259842521
20
-9.2717048818897627
11
2.2196594094488189
21
-9.2748071259842515
0
LINE
8
BLACK
6
CONTINUOUS
10
2.2196594094488189
20
-9.2748071259842515
11
2.209743937007874
21
-9.2763775984251975
0
LINE
8
BLACK
6
CONTINUOUS
10
2.209743937007874
20
-9.2763775984251975
11
2.1997048818897635
21
-9.2763775984251975
0
LINE
8
BLACK
6
CONTINUOUS
10
2.1997048818897635
20
-9.2763775984251975
11
2.1897894094488191
21
-9.2748071259842515
0
LINE
8
BLACK
6
CONTINUOUS
10
2.1897894094488191
20
-9.2748071259842515
11
2.1802416929133859
21
-9.2717048818897627
0
LINE
8
BLACK
6
CONTINUOUS
10
2.1802416929133859
20
-9.2717048818897627
11
2.1712968503937007
21
-9.2671472440944882
0
LINE
8
BLACK
6
CONTINUOUS
10
2.1712968503937007
20
-9.2671472440944882
11
2.1631750787401574
21
-9.2612464566929127
0
LINE
8
BLACK
6
CONTINUOUS
10
2.1631750787401574
20
-9.2612464566929127
11
2.1560763779527559
21
-9.2541477559055121
0
LINE
8
BLACK
6
CONTINUOUS
10
2.1560763779527559
20
-9.2541477559055121
11
2.1501755905511812
21
-9.2460259842519683
0
LINE
8
BLACK
6
CONTINUOUS
10
2.1501755905511812
20
-9.2460259842519683
11
2.1456179527559054
21
-9.2370811417322827
0
LINE
8
BLACK
6
CONTINUOUS
10
2.1456179527559054
20
-9.2370811417322827
11
2.1425157086614175
21
-9.2275334251968495
0
LINE
8
BLACK
6
CONTINUOUS
10
2.1425157086614175
20
-9.2275334251968495
11
2.1409452362204724
21
-9.217617952755905
0
LINE
8
BLACK
6
CONTINUOUS
10
2.1409452362204724
20
-9.217617952755905
11
2.1409452362204724
21
-9.2077183070866138
0
LINE
8
BLACK
6
CONTINUOUS
10
2.1409452362204724
20
-9.2077183070866138
11
2.1409452362204724
21
-9.207578897637795
0
LINE
8
BLACK
6
CONTINUOUS
10
2.1409452362204724
20
-9.207578897637795
11
2.1425157086614175
21
-9.1976634251968505
0
LINE
8
BLACK
6
CONTINUOUS
10
2.1425157086614175
20
-9.1976634251968505
11
2.1456179527559054
21
-9.1881157086614174
0
LINE
8
BLACK
6
CONTINUOUS
10
2.1456179527559054
20
-9.1881157086614174
11
2.1501755905511812
21
-9.1791708661417317
0
LINE
8
BLACK
6
CONTINUOUS
10
2.1501755905511812
20
-9.1791708661417317
11
2.1560763779527559
21
-9.1710490944881879
0
LINE
8
BLACK
6
CONTINUOUS
10
2.1560763779527559
20
-9.1710490944881879
11
2.1631750787401574
21
-9.1639503937007873
0
LINE
8
BLACK
6
CONTINUOUS
10
2.1631750787401574
20
-9.1639503937007873
11
2.1712968503937007
21
-9.1580496062992118
0
LINE
8
BLACK
6
CONTINUOUS
10
2.1712968503937007
20
-9.1580496062992118
11
2.1802416929133859
21
-9.1534919685039373
0
LINE
8
BLACK
6
CONTINUOUS
10
2.1802416929133859
20
-9.1534919685039373
11
2.1897894094488191
21
-9.1503897244094485
0
LINE
8
BLACK
6
CONTINUOUS
10
2.1897894094488191
20
-9.1503897244094485
11
2.1997048818897635
21
-9.1488192519685043
0
LINE
8
BLACK
6
CONTINUOUS
10
2.1997048818897635
20
-9.1488192519685043
11
2.209743937007874
21
-9.1488192519685043
0
LINE
8
BLACK
6
CONTINUOUS
10
2.209743937007874
20
-9.1488192519685043
11
2.2196594094488189
21
-9.1503897244094485
0
LINE
8
BLACK
6
CONTINUOUS
10
2.1427165354330708
20
-9.2174785433070863
11
2.1442433858267718
21
-9.2271186220472448
0
LINE
8
BLACK
6
CONTINUOUS
10
2.1442433858267718
20
-9.2271186220472448
11
2.1472594488188976
21
-9.2364011811023623
0
LINE
8
BLACK
6
CONTINUOUS
10
2.1472594488188976
20
-9.2364011811023623
11
2.1516905118110237
21
-9.2450976377952756
0
LINE
8
BLACK
6
CONTINUOUS
10
2.1516905118110237
20
-9.2450976377952756
11
2.1574274409448817
21
-9.2529938188976377
0
LINE
8
BLACK
6
CONTINUOUS
10
2.1574274409448817
20
-9.2529938188976377
11
2.1643290157480313
21
-9.2598953937007877
0
LINE
8
BLACK
6
CONTINUOUS
10
2.1643290157480313
20
-9.2598953937007877
11
2.1722251968503938
21
-9.2656323228346462
0
LINE
8
BLACK
6
CONTINUOUS
10
2.1722251968503938
20
-9.2656323228346462
11
2.1809216535433071
21
-9.2700633858267718
0
LINE
8
BLACK
6
CONTINUOUS
10
2.1809216535433071
20
-9.2700633858267718
11
2.1902042125984251
21
-9.2730794488188977
0
LINE
8
BLACK
6
CONTINUOUS
10
2.1902042125984251
20
-9.2730794488188977
11
2.1998442913385827
21
-9.2746062992125982
0
LINE
8
BLACK
6
CONTINUOUS
10
2.1998442913385827
20
-9.2746062992125982
11
2.2096045275590552
21
-9.2746062992125982
0
LINE
8
BLACK
6
CONTINUOUS
10
2.2096045275590552
20
-9.2746062992125982
11
2.2192446062992124
21
-9.2730794488188977
0
LINE
8
BLACK
6
CONTINUOUS
10
2.2192446062992124
20
-9.2730794488188977
11
2.2285271653543308
21
-9.2700633858267718
0
LINE
8
BLACK
6
CONTINUOUS
10
2.2285271653543308
20
-9.2700633858267718
11
2.2372236220472441
21
-9.2656323228346462
0
LINE
8
BLACK
6
CONTINUOUS
10
2.2372236220472441
20
-9.2656323228346462
11
2.2451198031496062
21
-9.2598953937007877
0
LINE
8
BLACK
6
CONTINUOUS
10
2.2451198031496062
20
-9.2598953937007877
11
2.2520213779527558
21
-9.2529938188976377
0
LINE
8
BLACK
6
CONTINUOUS
10
2.2520213779527558
20
-9.2529938188976377
11
2.2577583070866143
21
-9.2450976377952756
0
LINE
8
BLACK
6
CONTINUOUS
10
2.2577583070866143
20
-9.2450976377952756
11
2.2621893700787403
21
-9.2364011811023623
0
LINE
8
BLACK
6
CONTINUOUS
10
2.2621893700787403
20
-9.2364011811023623
11
2.2652054330708662
21
-9.2271186220472448
0
LINE
8
BLACK
6
CONTINUOUS
10
2.2652054330708662
20
-9.2271186220472448
11
2.2667322834645667
21
-9.2174785433070863
0
LINE
8
BLACK
6
CONTINUOUS
10
2.2667322834645667
20
-9.2174785433070863
11
2.2667322834645667
21
-9.2077183070866138
0
LINE
8
BLACK
6
CONTINUOUS
10
2.2667322834645667
20
-9.2077183070866138
11
2.2652054330708662
21
-9.1980782283464571
0
LINE
8
BLACK
6
CONTINUOUS
10
2.2652054330708662
20
-9.1980782283464571
11
2.2621893700787403
21
-9.1887956692913377
0
LINE
8
BLACK
6
CONTINUOUS
10
2.2621893700787403
20
-9.1887956692913377
11
2.2577583070866143
21
-9.1800992125984244
0
LINE
8
BLACK
6
CONTINUOUS
10
2.2577583070866143
20
-9.1800992125984244
11
2.2520213779527558
21
-9.1722030314960623
0
LINE
8
BLACK
6
CONTINUOUS
10
2.2520213779527558
20
-9.1722030314960623
11
2.2451198031496062
21
-9.1653014566929123
0
LINE
8
BLACK
6
CONTINUOUS
10
2.2451198031496062
20
-9.1653014566929123
11
2.2372236220472441
21
-9.1595645275590556
0
LINE
8
BLACK
6
CONTINUOUS
10
2.2372236220472441
20
-9.1595645275590556
11
2.2285271653543308
21
-9.1551334645669282
0
LINE
8
BLACK
6
CONTINUOUS
10
2.2285271653543308
20
-9.1551334645669282
11
2.2192446062992124
21
-9.1521174015748024
0
LINE
8
BLACK
6
CONTINUOUS
10
2.2192446062992124
20
-9.1521174015748024
11
2.2096045275590552
21
-9.1505905511811019
0
LINE
8
BLACK
6
CONTINUOUS
10
2.2096045275590552
20
-9.1505905511811019
11
2.1998442913385827
21
-9.1505905511811019
0
LINE
8
BLACK
6
CONTINUOUS
10
2.1998442913385827
20
-9.1505905511811019
11
2.1902042125984251
21
-9.1521174015748024
0
LINE
8
BLACK
6
CONTINUOUS
10
2.1902042125984251
20
-9.1521174015748024
11
2.1809216535433071
21
-9.1551334645669282
0
LINE
8
BLACK
6
CONTINUOUS
10
2.1809216535433071
20
-9.1551334645669282
11
2.1722251968503938
21
-9.1595645275590556
0
LINE
8
BLACK
6
CONTINUOUS
10
2.1722251968503938
20
-9.1595645275590556
11
2.1643290157480313
21
-9.1653014566929123
0
LINE
8
BLACK
6
CONTINUOUS
10
2.1643290157480313
20
-9.1653014566929123
11
2.1574274409448817
21
-9.1722030314960623
0
LINE
8
BLACK
6
CONTINUOUS
10
2.1574274409448817
20
-9.1722030314960623
11
2.1516905118110237
21
-9.1800992125984244
0
LINE
8
BLACK
6
CONTINUOUS
10
2.1516905118110237
20
-9.1800992125984244
11
2.1472594488188976
21
-9.1887956692913377
0
LINE
8
BLACK
6
CONTINUOUS
10
2.1472594488188976
20
-9.1887956692913377
11
2.1442433858267718
21
-9.1980782283464571
0
LINE
8
BLACK
6
CONTINUOUS
10
2.1442433858267718
20
-9.1980782283464571
11
2.1427165354330708
21
-9.2077183070866138
0
LINE
8
BLACK
6
CONTINUOUS
10
2.1427165354330708
20
-9.2077183070866138
11
2.1427165354330708
21
-9.2174785433070863
0
LINE
8
BLACK
6
CONTINUOUS
10
7.8102105905511809
20
-9.1503897244094485
11
7.8197583070866141
21
-9.1534919685039373
0
LINE
8
BLACK
6
CONTINUOUS
10
7.8197583070866141
20
-9.1534919685039373
11
7.8287031496062989
21
-9.1580496062992118
0
LINE
8
BLACK
6
CONTINUOUS
10
7.8287031496062989
20
-9.1580496062992118
11
7.8368249212598426
21
-9.1639503937007873
0
LINE
8
BLACK
6
CONTINUOUS
10
7.8368249212598426
20
-9.1639503937007873
11
7.8439236220472441
21
-9.1710490944881879
0
LINE
8
BLACK
6
CONTINUOUS
10
7.8439236220472441
20
-9.1710490944881879
11
7.8498244094488188
21
-9.1791708661417317
0
LINE
8
BLACK
6
CONTINUOUS
10
7.8498244094488188
20
-9.1791708661417317
11
7.8543820472440942
21
-9.1881157086614174
0
LINE
8
BLACK
6
CONTINUOUS
10
7.8543820472440942
20
-9.1881157086614174
11
7.8574842913385821
21
-9.1976634251968505
0
LINE
8
BLACK
6
CONTINUOUS
10
7.8574842913385821
20
-9.1976634251968505
11
7.8590547637795272
21
-9.207578897637795
0
LINE
8
BLACK
6
CONTINUOUS
10
7.8590547637795272
20
-9.207578897637795
11
7.8590547637795272
21
-9.217617952755905
0
LINE
8
BLACK
6
CONTINUOUS
10
7.8590547637795272
20
-9.217617952755905
11
7.8574842913385821
21
-9.2275334251968495
0
LINE
8
BLACK
6
CONTINUOUS
10
7.8574842913385821
20
-9.2275334251968495
11
7.8543820472440942
21
-9.2370811417322827
0
LINE
8
BLACK
6
CONTINUOUS
10
7.8543820472440942
20
-9.2370811417322827
11
7.8498244094488188
21
-9.2460259842519683
0
LINE
8
BLACK
6
CONTINUOUS
10
7.8498244094488188
20
-9.2460259842519683
11
7.8439236220472441
21
-9.2541477559055121
0
LINE
8
BLACK
6
CONTINUOUS
10
7.8439236220472441
20
-9.2541477559055121
11
7.8368249212598426
21
-9.2612464566929127
0
LINE
8
BLACK
6
CONTINUOUS
10
7.8368249212598426
20
-9.2612464566929127
11
7.8287031496062989
21
-9.2671472440944882
0
LINE
8
BLACK
6
CONTINUOUS
10
7.8287031496062989
20
-9.2671472440944882
11
7.8197583070866141
21
-9.2717048818897627
0
LINE
8
BLACK
6
CONTINUOUS
10
7.8197583070866141
20
-9.2717048818897627
11
7.8102105905511809
21
-9.2748071259842515
0
LINE
8
BLACK
6
CONTINUOUS
10
7.8102105905511809
20
-9.2748071259842515
11
7.8002951181102365
21
-9.2763775984251975
0
LINE
8
BLACK
6
CONTINUOUS
10
7.8002951181102365
20
-9.2763775984251975
11
7.7902560629921256
21
-9.2763775984251975
0
LINE
8
BLACK
6
CONTINUOUS
10
7.7902560629921256
20
-9.2763775984251975
11
7.7803405905511811
21
-9.2748071259842515
0
LINE
8
BLACK
6
CONTINUOUS
10
7.7803405905511811
20
-9.2748071259842515
11
7.7707928740157479
21
-9.2717048818897627
0
LINE
8
BLACK
6
CONTINUOUS
10
7.7707928740157479
20
-9.2717048818897627
11
7.7618480314960632
21
-9.2671472440944882
0
LINE
8
BLACK
6
CONTINUOUS
10
7.7618480314960632
20
-9.2671472440944882
11
7.7537262598425194
21
-9.2612464566929127
0
LINE
8
BLACK
6
CONTINUOUS
10
7.7537262598425194
20
-9.2612464566929127
11
7.7466275590551179
21
-9.2541477559055121
0
LINE
8
BLACK
6
CONTINUOUS
10
7.7466275590551179
20
-9.2541477559055121
11
7.7407267716535433
21
-9.2460259842519683
0
LINE
8
BLACK
6
CONTINUOUS
10
7.7407267716535433
20
-9.2460259842519683
11
7.7361691338582679
21
-9.2370811417322827
0
LINE
8
BLACK
6
CONTINUOUS
10
7.7361691338582679
20
-9.2370811417322827
11
7.7330668897637791
21
-9.2275334251968495
0
LINE
8
BLACK
6
CONTINUOUS
10
7.7330668897637791
20
-9.2275334251968495
11
7.7314964173228349
21
-9.217617952755905
0
LINE
8
BLACK
6
CONTINUOUS
10
7.7314964173228349
20
-9.217617952755905
11
7.7314964173228349
21
-9.2077183070866138
0
LINE
8
BLACK
6
CONTINUOUS
10
7.7314964173228349
20
-9.2077183070866138
11
7.7314964173228349
21
-9.207578897637795
0
LINE
8
BLACK
6
CONTINUOUS
10
7.7314964173228349
20
-9.207578897637795
11
7.7330668897637791
21
-9.1976634251968505
0
LINE
8
BLACK
6
CONTINUOUS
10
7.7330668897637791
20
-9.1976634251968505
11
7.7361691338582679
21
-9.1881157086614174
0
LINE
8
BLACK
6
CONTINUOUS
10
7.7361691338582679
20
-9.1881157086614174
11
7.7407267716535433
21
-9.1791708661417317
0
LINE
8
BLACK
6
CONTINUOUS
10
7.7407267716535433
20
-9.1791708661417317
11
7.7466275590551179
21
-9.1710490944881879
0
LINE
8
BLACK
6
CONTINUOUS
10
7.7466275590551179
20
-9.1710490944881879
11
7.7537262598425194
21
-9.1639503937007873
0
LINE
8
BLACK
6
CONTINUOUS
10
7.7537262598425194
20
-9.1639503937007873
11
7.7618480314960632
21
-9.1580496062992118
0
LINE
8
BLACK
6
CONTINUOUS
10
7.7618480314960632
20
-9.1580496062992118
11
7.7707928740157479
21
-9.1534919685039373
0
LINE
8
BLACK
6
CONTINUOUS
10
7.7707928740157479
20
-9.1534919685039373
11
7.7803405905511811
21
-9.1503897244094485
0
LINE
8
BLACK
6
CONTINUOUS
10
7.7803405905511811
20
-9.1503897244094485
11
7.7902560629921256
21
-9.1488192519685043
0
LINE
8
BLACK
6
CONTINUOUS
10
7.7902560629921256
20
-9.1488192519685043
11
7.8002951181102365
21
-9.1488192519685043
0
LINE
8
BLACK
6
CONTINUOUS
10
7.8002951181102365
20
-9.1488192519685043
11
7.8102105905511809
21
-9.1503897244094485
0
LINE
8
BLACK
6
CONTINUOUS
10
7.7332677165354333
20
-9.2174785433070863
11
7.7347945669291338
21
-9.2271186220472448
0
LINE
8
BLACK
6
CONTINUOUS
10
7.7347945669291338
20
-9.2271186220472448
11
7.7378106299212597
21
-9.2364011811023623
0
LINE
8
BLACK
6
CONTINUOUS
10
7.7378106299212597
20
-9.2364011811023623
11
7.7422416929133853
21
-9.2450976377952756
0
LINE
8
BLACK
6
CONTINUOUS
10
7.7422416929133853
20
-9.2450976377952756
11
7.7479786220472437
21
-9.2529938188976377
0
LINE
8
BLACK
6
CONTINUOUS
10
7.7479786220472437
20
-9.2529938188976377
11
7.7548801968503938
21
-9.2598953937007877
0
LINE
8
BLACK
6
CONTINUOUS
10
7.7548801968503938
20
-9.2598953937007877
11
7.7627763779527559
21
-9.2656323228346462
0
LINE
8
BLACK
6
CONTINUOUS
10
7.7627763779527559
20
-9.2656323228346462
11
7.7714728346456692
21
-9.2700633858267718
0
LINE
8
BLACK
6
CONTINUOUS
10
7.7714728346456692
20
-9.2700633858267718
11
7.7807553937007876
21
-9.2730794488188977
0
LINE
8
BLACK
6
CONTINUOUS
10
7.7807553937007876
20
-9.2730794488188977
11
7.7903954724409443
21
-9.2746062992125982
0
LINE
8
BLACK
6
CONTINUOUS
10
7.7903954724409443
20
-9.2746062992125982
11
7.8001557086614168
21
-9.2746062992125982
0
LINE
8
BLACK
6
CONTINUOUS
10
7.8001557086614168
20
-9.2746062992125982
11
7.8097957874015744
21
-9.2730794488188977
0
LINE
8
BLACK
6
CONTINUOUS
10
7.8097957874015744
20
-9.2730794488188977
11
7.8190783464566929
21
-9.2700633858267718
0
LINE
8
BLACK
6
CONTINUOUS
10
7.8190783464566929
20
-9.2700633858267718
11
7.8277748031496062
21
-9.2656323228346462
0
LINE
8
BLACK
6
CONTINUOUS
10
7.8277748031496062
20
-9.2656323228346462
11
7.8356709842519683
21
-9.2598953937007877
0
LINE
8
BLACK
6
CONTINUOUS
10
7.8356709842519683
20
-9.2598953937007877
11
7.8425725590551183
21
-9.2529938188976377
0
LINE
8
BLACK
6
CONTINUOUS
10
7.8425725590551183
20
-9.2529938188976377
11
7.8483094881889759
21
-9.2450976377952756
0
LINE
8
BLACK
6
CONTINUOUS
10
7.8483094881889759
20
-9.2450976377952756
11
7.8527405511811024
21
-9.2364011811023623
0
LINE
8
BLACK
6
CONTINUOUS
10
7.8527405511811024
20
-9.2364011811023623
11
7.8557566141732282
21
-9.2271186220472448
0
LINE
8
BLACK
6
CONTINUOUS
10
7.8557566141732282
20
-9.2271186220472448
11
7.8572834645669287
21
-9.2174785433070863
0
LINE
8
BLACK
6
CONTINUOUS
10
7.8572834645669287
20
-9.2174785433070863
11
7.8572834645669287
21
-9.2077183070866138
0
LINE
8
BLACK
6
CONTINUOUS
10
7.8572834645669287
20
-9.2077183070866138
11
7.8557566141732282
21
-9.1980782283464571
0
LINE
8
BLACK
6
CONTINUOUS
10
7.8557566141732282
20
-9.1980782283464571
11
7.8527405511811024
21
-9.1887956692913377
0
LINE
8
BLACK
6
CONTINUOUS
10
7.8527405511811024
20
-9.1887956692913377
11
7.8483094881889759
21
-9.1800992125984244
0
LINE
8
BLACK
6
CONTINUOUS
10
7.8483094881889759
20
-9.1800992125984244
11
7.8425725590551183
21
-9.1722030314960623
0
LINE
8
BLACK
6
CONTINUOUS
10
7.8425725590551183
20
-9.1722030314960623
11
7.8356709842519683
21
-9.1653014566929123
0
LINE
8
BLACK
6
CONTINUOUS
10
7.8356709842519683
20
-9.1653014566929123
11
7.8277748031496062
21
-9.1595645275590556
0
LINE
8
BLACK
6
CONTINUOUS
10
7.8277748031496062
20
-9.1595645275590556
11
7.8190783464566929
21
-9.1551334645669282
0
LINE
8
BLACK
6
CONTINUOUS
10
7.8190783464566929
20
-9.1551334645669282
11
7.8097957874015744
21
-9.1521174015748024
0
LINE
8
BLACK
6
CONTINUOUS
10
7.8097957874015744
20
-9.1521174015748024
11
7.8001557086614168
21
-9.1505905511811019
0
LINE
8
BLACK
6
CONTINUOUS
10
7.8001557086614168
20
-9.1505905511811019
11
7.7903954724409443
21
-9.1505905511811019
0
LINE
8
BLACK
6
CONTINUOUS
10
7.7903954724409443
20
-9.1505905511811019
11
7.7807553937007876
21
-9.1521174015748024
0
LINE
8
BLACK
6
CONTINUOUS
10
7.7807553937007876
20
-9.1521174015748024
11
7.7714728346456692
21
-9.1551334645669282
0
LINE
8
BLACK
6
CONTINUOUS
10
7.7714728346456692
20
-9.1551334645669282
11
7.7627763779527559
21
-9.1595645275590556
0
LINE
8
BLACK
6
CONTINUOUS
10
7.7627763779527559
20
-9.1595645275590556
11
7.7548801968503938
21
-9.1653014566929123
0
LINE
8
BLACK
6
CONTINUOUS
10
7.7548801968503938
20
-9.1653014566929123
11
7.7479786220472437
21
-9.1722030314960623
0
LINE
8
BLACK
6
CONTINUOUS
10
7.7479786220472437
20
-9.1722030314960623
11
7.7422416929133853
21
-9.1800992125984244
0
LINE
8
BLACK
6
CONTINUOUS
10
7.7422416929133853
20
-9.1800992125984244
11
7.7378106299212597
21
-9.1887956692913377
0
LINE
8
BLACK
6
CONTINUOUS
10
7.7378106299212597
20
-9.1887956692913377
11
7.7347945669291338
21
-9.1980782283464571
0
LINE
8
BLACK
6
CONTINUOUS
10
7.7347945669291338
20
-9.1980782283464571
11
7.7332677165354333
21
-9.2077183070866138
0
LINE
8
BLACK
6
CONTINUOUS
10
7.7332677165354333
20
-9.2077183070866138
11
7.7332677165354333
21
-9.2174785433070863
0
LINE
8
BLACK
6
CONTINUOUS
10
13.4401318503937013
20
-9.1503897244094485
11
13.4496795669291327
21
-9.1534919685039373
0
LINE
8
BLACK
6
CONTINUOUS
10
13.4496795669291327
20
-9.1534919685039373
11
13.4586244094488183
21
-9.1580496062992118
0
LINE
8
BLACK
6
CONTINUOUS
10
13.4586244094488183
20
-9.1580496062992118
11
13.4667461811023621
21
-9.1639503937007873
0
LINE
8
BLACK
6
CONTINUOUS
10
13.4667461811023621
20
-9.1639503937007873
11
13.4738448818897627
21
-9.1710490944881879
0
LINE
8
BLACK
6
CONTINUOUS
10
13.4738448818897627
20
-9.1710490944881879
11
13.4797456692913382
21
-9.1791708661417317
0
LINE
8
BLACK
6
CONTINUOUS
10
13.4797456692913382
20
-9.1791708661417317
11
13.4843033070866145
21
-9.1881157086614174
0
LINE
8
BLACK
6
CONTINUOUS
10
13.4843033070866145
20
-9.1881157086614174
11
13.4874055511811015
21
-9.1976634251968505
0
LINE
8
BLACK
6
CONTINUOUS
10
13.4874055511811015
20
-9.1976634251968505
11
13.4889760236220475
21
-9.207578897637795
0
LINE
8
BLACK
6
CONTINUOUS
10
13.4889760236220475
20
-9.207578897637795
11
13.4889760236220475
21
-9.217617952755905
0
LINE
8
BLACK
6
CONTINUOUS
10
13.4889760236220475
20
-9.217617952755905
11
13.4874055511811015
21
-9.2275334251968495
0
LINE
8
BLACK
6
CONTINUOUS
10
13.4874055511811015
20
-9.2275334251968495
11
13.4843033070866145
21
-9.2370811417322827
0
LINE
8
BLACK
6
CONTINUOUS
10
13.4843033070866145
20
-9.2370811417322827
11
13.4797456692913382
21
-9.2460259842519683
0
LINE
8
BLACK
6
CONTINUOUS
10
13.4797456692913382
20
-9.2460259842519683
11
13.4738448818897627
21
-9.2541477559055121
0
LINE
8
BLACK
6
CONTINUOUS
10
13.4738448818897627
20
-9.2541477559055121
11
13.4667461811023621
21
-9.2612464566929127
0
LINE
8
BLACK
6
CONTINUOUS
10
13.4667461811023621
20
-9.2612464566929127
11
13.4586244094488183
21
-9.2671472440944882
0
LINE
8
BLACK
6
CONTINUOUS
10
13.4586244094488183
20
-9.2671472440944882
11
13.4496795669291327
21
-9.2717048818897627
0
LINE
8
BLACK
6
CONTINUOUS
10
13.4496795669291327
20
-9.2717048818897627
11
13.4401318503937013
21
-9.2748071259842515
0
LINE
8
BLACK
6
CONTINUOUS
10
13.4401318503937013
20
-9.2748071259842515
11
13.430216377952755
21
-9.2763775984251975
0
LINE
8
BLACK
6
CONTINUOUS
10
13.430216377952755
20
-9.2763775984251975
11
13.420177322834645
21
-9.2763775984251975
0
LINE
8
BLACK
6
CONTINUOUS
10
13.420177322834645
20
-9.2763775984251975
11
13.4102618503937006
21
-9.2748071259842515
0
LINE
8
BLACK
6
CONTINUOUS
10
13.4102618503937006
20
-9.2748071259842515
11
13.4007141338582674
21
-9.2717048818897627
0
LINE
8
BLACK
6
CONTINUOUS
10
13.4007141338582674
20
-9.2717048818897627
11
13.3917692913385817
21
-9.2671472440944882
0
LINE
8
BLACK
6
CONTINUOUS
10
13.3917692913385817
20
-9.2671472440944882
11
13.3836475196850397
21
-9.2612464566929127
0
LINE
8
BLACK
6
CONTINUOUS
10
13.3836475196850397
20
-9.2612464566929127
11
13.3765488188976374
21
-9.2541477559055121
0
LINE
8
BLACK
6
CONTINUOUS
10
13.3765488188976374
20
-9.2541477559055121
11
13.3706480314960618
21
-9.2460259842519683
0
LINE
8
BLACK
6
CONTINUOUS
10
13.3706480314960618
20
-9.2460259842519683
11
13.3660903937007873
21
-9.2370811417322827
0
LINE
8
BLACK
6
CONTINUOUS
10
13.3660903937007873
20
-9.2370811417322827
11
13.3629881496062985
21
-9.2275334251968495
0
LINE
8
BLACK
6
CONTINUOUS
10
13.3629881496062985
20
-9.2275334251968495
11
13.3614176771653543
21
-9.217617952755905
0
LINE
8
BLACK
6
CONTINUOUS
10
13.3614176771653543
20
-9.217617952755905
11
13.3614176771653543
21
-9.2077183070866138
0
LINE
8
BLACK
6
CONTINUOUS
10
13.3614176771653543
20
-9.2077183070866138
11
13.3614176771653543
21
-9.207578897637795
0
LINE
8
BLACK
6
CONTINUOUS
10
13.3614176771653543
20
-9.207578897637795
11
13.3629881496062985
21
-9.1976634251968505
0
LINE
8
BLACK
6
CONTINUOUS
10
13.3629881496062985
20
-9.1976634251968505
11
13.3660903937007873
21
-9.1881157086614174
0
LINE
8
BLACK
6
CONTINUOUS
10
13.3660903937007873
20
-9.1881157086614174
11
13.3706480314960618
21
-9.1791708661417317
0
LINE
8
BLACK
6
CONTINUOUS
10
13.3706480314960618
20
-9.1791708661417317
11
13.3765488188976374
21
-9.1710490944881879
0
LINE
8
BLACK
6
CONTINUOUS
10
13.3765488188976374
20
-9.1710490944881879
11
13.3836475196850397
21
-9.1639503937007873
0
LINE
8
BLACK
6
CONTINUOUS
10
13.3836475196850397
20
-9.1639503937007873
11
13.3917692913385817
21
-9.1580496062992118
0
LINE
8
BLACK
6
CONTINUOUS
10
13.3917692913385817
20
-9.1580496062992118
11
13.4007141338582674
21
-9.1534919685039373
0
LINE
8
BLACK
6
CONTINUOUS
10
13.4007141338582674
20
-9.1534919685039373
11
13.4102618503937006
21
-9.1503897244094485
0
LINE
8
BLACK
6
CONTINUOUS
10
13.4102618503937006
20
-9.1503897244094485
11
13.420177322834645
21
-9.1488192519685043
0
LINE
8
BLACK
6
CONTINUOUS
10
13.420177322834645
20
-9.1488192519685043
11
13.430216377952755
21
-9.1488192519685043
0
LINE
8
BLACK
6
CONTINUOUS
10
13.430216377952755
20
-9.1488192519685043
11
13.4401318503937013
21
-9.1503897244094485
0
LINE
8
BLACK
6
CONTINUOUS
10
13.3631889763779519
20
-9.2174785433070863
11
13.3647158267716524
21
-9.2271186220472448
0
LINE
8
BLACK
6
CONTINUOUS
10
13.3647158267716524
20
-9.2271186220472448
11
13.36773188976378
21
-9.2364011811023623
0
LINE
8
BLACK
6
CONTINUOUS
10
13.36773188976378
20
-9.2364011811023623
11
13.3721629527559056
21
-9.2450976377952756
0
LINE
8
BLACK
6
CONTINUOUS
10
13.3721629527559056
20
-9.2450976377952756
11
13.3778998818897641
21
-9.2529938188976377
0
LINE
8
BLACK
6
CONTINUOUS
10
13.3778998818897641
20
-9.2529938188976377
11
13.3848014566929123
21
-9.2598953937007877
0
LINE
8
BLACK
6
CONTINUOUS
10
13.3848014566929123
20
-9.2598953937007877
11
13.3926976377952744
21
-9.2656323228346462
0
LINE
8
BLACK
6
CONTINUOUS
10
13.3926976377952744
20
-9.2656323228346462
11
13.4013940944881895
21
-9.2700633858267718
0
LINE
8
BLACK
6
CONTINUOUS
10
13.4013940944881895
20
-9.2700633858267718
11
13.4106766535433071
21
-9.2730794488188977
0
LINE
8
BLACK
6
CONTINUOUS
10
13.4106766535433071
20
-9.2730794488188977
11
13.4203167322834638
21
-9.2746062992125982
0
LINE
8
BLACK
6
CONTINUOUS
10
13.4203167322834638
20
-9.2746062992125982
11
13.4300769685039363
21
-9.2746062992125982
0
LINE
8
BLACK
6
CONTINUOUS
10
13.4300769685039363
20
-9.2746062992125982
11
13.4397170472440948
21
-9.2730794488188977
0
LINE
8
BLACK
6
CONTINUOUS
10
13.4397170472440948
20
-9.2730794488188977
11
13.4489996062992123
21
-9.2700633858267718
0
LINE
8
BLACK
6
CONTINUOUS
10
13.4489996062992123
20
-9.2700633858267718
11
13.4576960629921256
21
-9.2656323228346462
0
LINE
8
BLACK
6
CONTINUOUS
10
13.4576960629921256
20
-9.2656323228346462
11
13.4655922440944877
21
-9.2598953937007877
0
LINE
8
BLACK
6
CONTINUOUS
10
13.4655922440944877
20
-9.2598953937007877
11
13.4724938188976378
21
-9.2529938188976377
0
LINE
8
BLACK
6
CONTINUOUS
10
13.4724938188976378
20
-9.2529938188976377
11
13.4782307480314962
21
-9.2450976377952756
0
LINE
8
BLACK
6
CONTINUOUS
10
13.4782307480314962
20
-9.2450976377952756
11
13.4826618110236218
21
-9.2364011811023623
0
LINE
8
BLACK
6
CONTINUOUS
10
13.4826618110236218
20
-9.2364011811023623
11
13.4856778740157477
21
-9.2271186220472448
0
LINE
8
BLACK
6
CONTINUOUS
10
13.4856778740157477
20
-9.2271186220472448
11
13.4872047244094482
21
-9.2174785433070863
0
LINE
8
BLACK
6
CONTINUOUS
10
13.4872047244094482
20
-9.2174785433070863
11
13.4872047244094482
21
-9.2077183070866138
0
LINE
8
BLACK
6
CONTINUOUS
10
13.4872047244094482
20
-9.2077183070866138
11
13.4856778740157477
21
-9.1980782283464571
0
LINE
8
BLACK
6
CONTINUOUS
10
13.4856778740157477
20
-9.1980782283464571
11
13.4826618110236218
21
-9.1887956692913377
0
LINE
8
BLACK
6
CONTINUOUS
10
13.4826618110236218
20
-9.1887956692913377
11
13.4782307480314962
21
-9.1800992125984244
0
LINE
8
BLACK
6
CONTINUOUS
10
13.4782307480314962
20
-9.1800992125984244
11
13.4724938188976378
21
-9.1722030314960623
0
LINE
8
BLACK
6
CONTINUOUS
10
13.4724938188976378
20
-9.1722030314960623
11
13.4655922440944877
21
-9.1653014566929123
0
LINE
8
BLACK
6
CONTINUOUS
10
13.4655922440944877
20
-9.1653014566929123
11
13.4576960629921256
21
-9.1595645275590556
0
LINE
8
BLACK
6
CONTINUOUS
10
13.4576960629921256
20
-9.1595645275590556
11
13.4489996062992123
21
-9.1551334645669282
0
LINE
8
BLACK
6
CONTINUOUS
10
13.4489996062992123
20
-9.1551334645669282
11
13.4397170472440948
21
-9.1521174015748024
0
LINE
8
BLACK
6
CONTINUOUS
10
13.4397170472440948
20
-9.1521174015748024
11
13.4300769685039363
21
-9.1505905511811019
0
LINE
8
BLACK
6
CONTINUOUS
10
13.4300769685039363
20
-9.1505905511811019
11
13.4203167322834638
21
-9.1505905511811019
0
LINE
8
BLACK
6
CONTINUOUS
10
13.4203167322834638
20
-9.1505905511811019
11
13.4106766535433071
21
-9.1521174015748024
0
LINE
8
BLACK
6
CONTINUOUS
10
13.4106766535433071
20
-9.1521174015748024
11
13.4013940944881895
21
-9.1551334645669282
0
LINE
8
BLACK
6
CONTINUOUS
10
13.4013940944881895
20
-9.1551334645669282
11
13.3926976377952744
21
-9.1595645275590556
0
LINE
8
BLACK
6
CONTINUOUS
10
13.3926976377952744
20
-9.1595645275590556
11
13.3848014566929123
21
-9.1653014566929123
0
LINE
8
BLACK
6
CONTINUOUS
10
13.3848014566929123
20
-9.1653014566929123
11
13.3778998818897641
21
-9.1722030314960623
0
LINE
8
BLACK
6
CONTINUOUS
10
13.3778998818897641
20
-9.1722030314960623
11
13.3721629527559056
21
-9.1800992125984244
0
LINE
8
BLACK
6
CONTINUOUS
10
13.3721629527559056
20
-9.1800992125984244
11
13.36773188976378
21
-9.1887956692913377
0
LINE
8
BLACK
6
CONTINUOUS
10
13.36773188976378
20
-9.1887956692913377
11
13.3647158267716524
21
-9.1980782283464571
0
LINE
8
BLACK
6
CONTINUOUS
10
13.3647158267716524
20
-9.1980782283464571
11
13.3631889763779519
21
-9.2077183070866138
0
LINE
8
BLACK
6
CONTINUOUS
10
13.3631889763779519
20
-9.2077183070866138
11
13.3631889763779519
21
-9.2174785433070863
0
LINE
8
BLACK
6
CONTINUOUS
10
6.6841968503937004
20
-6.1398925984251971
11
6.6852622047244097
21
-6.1409579527559055
0
LINE
8
BLACK
6
CONTINUOUS
10
6.6852622047244097
20
-6.1409579527559055
11
6.6854120472440943
21
-6.1417112598425199
0
LINE
8
BLACK
6
CONTINUOUS
10
6.6854120472440943
20
-6.1417112598425199
11
6.6854120472440943
21
-6.7716325196850393
0
LINE
8
BLACK
6
CONTINUOUS
10
6.6854120472440943
20
-6.7716325196850393
11
6.6852622047244097
21
-6.7723858267716537
0
LINE
8
BLACK
6
CONTINUOUS
10
6.6852622047244097
20
-6.7723858267716537
11
6.6841968503937004
21
-6.7734511811023621
0
LINE
8
BLACK
6
CONTINUOUS
10
6.6841968503937004
20
-6.7734511811023621
11
6.6834435433070869
21
-6.7736010236220467
0
LINE
8
BLACK
6
CONTINUOUS
10
6.6834435433070869
20
-6.7736010236220467
11
6.0535222834645666
21
-6.7736010236220467
0
LINE
8
BLACK
6
CONTINUOUS
10
6.0535222834645666
20
-6.7736010236220467
11
6.0527689763779522
21
-6.7734511811023621
0
LINE
8
BLACK
6
CONTINUOUS
10
6.0527689763779522
20
-6.7734511811023621
11
6.0517036220472438
21
-6.7723858267716537
0
LINE
8
BLACK
6
CONTINUOUS
10
6.0517036220472438
20
-6.7723858267716537
11
6.0515537795275591
21
-6.7716325196850393
0
LINE
8
BLACK
6
CONTINUOUS
10
6.0515537795275591
20
-6.7716325196850393
11
6.0515537795275591
21
-6.1417112598425199
0
LINE
8
BLACK
6
CONTINUOUS
10
6.0515537795275591
20
-6.1417112598425199
11
6.0517036220472438
21
-6.1409579527559055
0
LINE
8
BLACK
6
CONTINUOUS
10
6.0517036220472438
20
-6.1409579527559055
11
6.0527689763779522
21
-6.1398925984251971
0
LINE
8
BLACK
6
CONTINUOUS
10
6.0527689763779522
20
-6.1398925984251971
11
6.0535222834645666
21
-6.1397427559055116
0
LINE
8
BLACK
6
CONTINUOUS
10
6.0535222834645666
20
-6.1397427559055116
11
6.6834435433070869
21
-6.1397427559055116
0
LINE
8
BLACK
6
CONTINUOUS
10
6.6834435433070869
20
-6.1397427559055116
11
6.6841968503937004
21
-6.1398925984251971
0
LINE
8
BLACK
6
CONTINUOUS
10
6.0554907874015749
20
-6.1436797637795273
11
6.0554907874015749
21
-6.769664015748031
0
LINE
8
BLACK
6
CONTINUOUS
10
6.0554907874015749
20
-6.769664015748031
11
6.6814750393700786
21
-6.769664015748031
0
LINE
8
BLACK
6
CONTINUOUS
10
6.6814750393700786
20
-6.769664015748031
11
6.6814750393700786
21
-6.1436797637795273
0
LINE
8
BLACK
6
CONTINUOUS
10
6.6814750393700786
20
-6.1436797637795273
11
6.0554907874015749
21
-6.1436797637795273
0
LINE
8
BLACK
6
CONTINUOUS
10
8.1471889763779526
20
-6.1398925984251971
11
8.1482543307086619
21
-6.1409579527559055
0
LINE
8
BLACK
6
CONTINUOUS
10
8.1482543307086619
20
-6.1409579527559055
11
8.1484041732283465
21
-6.1417112598425199
0
LINE
8
BLACK
6
CONTINUOUS
10
8.1484041732283465
20
-6.1417112598425199
11
8.1484041732283465
21
-6.7716325196850393
0
LINE
8
BLACK
6
CONTINUOUS
10
8.1484041732283465
20
-6.7716325196850393
11
8.1482543307086619
21
-6.7723858267716537
0
LINE
8
BLACK
6
CONTINUOUS
10
8.1482543307086619
20
-6.7723858267716537
11
8.1471889763779526
21
-6.7734511811023621
0
LINE
8
BLACK
6
CONTINUOUS
10
8.1471889763779526
20
-6.7734511811023621
11
8.1464356692913391
21
-6.7736010236220467
0
LINE
8
BLACK
6
CONTINUOUS
10
8.1464356692913391
20
-6.7736010236220467
11
7.5165144094488188
21
-6.7736010236220467
0
LINE
8
BLACK
6
CONTINUOUS
10
7.5165144094488188
20
-6.7736010236220467
11
7.5157611023622044
21
-6.7734511811023621
0
LINE
8
BLACK
6
CONTINUOUS
10
7.5157611023622044
20
-6.7734511811023621
11
7.514695748031496
21
-6.7723858267716537
0
LINE
8
BLACK
6
CONTINUOUS
10
7.514695748031496
20
-6.7723858267716537
11
7.5145459055118105
21
-6.7716325196850393
0
LINE
8
BLACK
6
CONTINUOUS
10
7.5145459055118105
20
-6.7716325196850393
11
7.5145459055118105
21
-6.1417112598425199
0
LINE
8
BLACK
6
CONTINUOUS
10
7.5145459055118105
20
-6.1417112598425199
11
7.514695748031496
21
-6.1409579527559055
0
LINE
8
BLACK
6
CONTINUOUS
10
7.514695748031496
20
-6.1409579527559055
11
7.5157611023622044
21
-6.1398925984251971
0
LINE
8
BLACK
6
CONTINUOUS
10
7.5157611023622044
20
-6.1398925984251971
11
7.5165144094488188
21
-6.1397427559055116
0
LINE
8
BLACK
6
CONTINUOUS
10
7.5165144094488188
20
-6.1397427559055116
11
8.1464356692913391
21
-6.1397427559055116
0
LINE
8
BLACK
6
CONTINUOUS
10
8.1464356692913391
20
-6.1397427559055116
11
8.1471889763779526
21
-6.1398925984251971
0
LINE
8
BLACK
6
CONTINUOUS
10
7.5184829133858262
20
-6.1436797637795273
11
7.5184829133858262
21
-6.769664015748031
0
LINE
8
BLACK
6
CONTINUOUS
10
7.5184829133858262
20
-6.769664015748031
11
8.1444671653543299
21
-6.769664015748031
0
LINE
8
BLACK
6
CONTINUOUS
10
8.1444671653543299
20
-6.769664015748031
11
8.1444671653543299
21
-6.1436797637795273
0
LINE
8
BLACK
6
CONTINUOUS
10
8.1444671653543299
20
-6.1436797637795273
11
7.5184829133858262
21
-6.1436797637795273
0
LINE
8
BLACK
6
CONTINUOUS
10
9.1314409448818896
20
-5.4312311811023619
11
9.1325062992125989
21
-5.4322965354330703
0
LINE
8
BLACK
6
CONTINUOUS
10
9.1325062992125989
20
-5.4322965354330703
11
9.1326561417322836
21
-5.4330498425196847
0
LINE
8
BLACK
6
CONTINUOUS
10
9.1326561417322836
20
-5.4330498425196847
11
9.1326561417322836
21
-6.0629711023622042
0
LINE
8
BLACK
6
CONTINUOUS
10
9.1326561417322836
20
-6.0629711023622042
11
9.1325062992125989
21
-6.0637244094488185
0
LINE
8
BLACK
6
CONTINUOUS
10
9.1325062992125989
20
-6.0637244094488185
11
9.1314409448818896
21
-6.0647897637795278
0
LINE
8
BLACK
6
CONTINUOUS
10
9.1314409448818896
20
-6.0647897637795278
11
9.1306876377952761
21
-6.0649396062992125
0
LINE
8
BLACK
6
CONTINUOUS
10
9.1306876377952761
20
-6.0649396062992125
11
8.5007663779527558
21
-6.0649396062992125
0
LINE
8
BLACK
6
CONTINUOUS
10
8.5007663779527558
20
-6.0649396062992125
11
8.5000130708661423
21
-6.0647897637795278
0
LINE
8
BLACK
6
CONTINUOUS
10
8.5000130708661423
20
-6.0647897637795278
11
8.498947716535433
21
-6.0637244094488185
0
LINE
8
BLACK
6
CONTINUOUS
10
8.498947716535433
20
-6.0637244094488185
11
8.4987978740157484
21
-6.0629711023622042
0
LINE
8
BLACK
6
CONTINUOUS
10
8.4987978740157484
20
-6.0629711023622042
11
8.4987978740157484
21
-5.4330498425196847
0
LINE
8
BLACK
6
CONTINUOUS
10
8.4987978740157484
20
-5.4330498425196847
11
8.498947716535433
21
-5.4322965354330703
0
LINE
8
BLACK
6
CONTINUOUS
10
8.498947716535433
20
-5.4322965354330703
11
8.5000130708661423
21
-5.4312311811023619
0
LINE
8
BLACK
6
CONTINUOUS
10
8.5000130708661423
20
-5.4312311811023619
11
8.5007663779527558
21
-5.4310813385826773
0
LINE
8
BLACK
6
CONTINUOUS
10
8.5007663779527558
20
-5.4310813385826773
11
9.1306876377952761
21
-5.4310813385826773
0
LINE
8
BLACK
6
CONTINUOUS
10
9.1306876377952761
20
-5.4310813385826773
11
9.1314409448818896
21
-5.4312311811023619
0
LINE
8
BLACK
6
CONTINUOUS
10
8.5027348818897632
20
-5.435018346456693
11
8.5027348818897632
21
-6.0610025984251967
0
LINE
8
BLACK
6
CONTINUOUS
10
8.5027348818897632
20
-6.0610025984251967
11
9.1287191338582669
21
-6.0610025984251967
0
LINE
8
BLACK
6
CONTINUOUS
10
9.1287191338582669
20
-6.0610025984251967
11
9.1287191338582669
21
-5.435018346456693
0
LINE
8
BLACK
6
CONTINUOUS
10
9.1287191338582669
20
-5.435018346456693
11
8.5027348818897632
21
-5.435018346456693
0
LINE
8
BLACK
6
CONTINUOUS
10
2.2198891732283466
20
-5.2517948818897633
11
2.2295837795275588
21
-5.2549448425196852
0
LINE
8
BLACK
6
CONTINUOUS
10
2.2295837795275588
20
-5.2549448425196852
11
2.2386662598425198
21
-5.2595725984251969
0
LINE
8
BLACK
6
CONTINUOUS
10
2.2386662598425198
20
-5.2595725984251969
11
2.2469129527559053
21
-5.2655641732283467
0
LINE
8
BLACK
6
CONTINUOUS
10
2.2469129527559053
20
-5.2655641732283467
11
2.254120866141732
21
-5.2727720866141734
0
LINE
8
BLACK
6
CONTINUOUS
10
2.254120866141732
20
-5.2727720866141734
11
2.2601124409448818
21
-5.2810187795275585
0
LINE
8
BLACK
6
CONTINUOUS
10
2.2601124409448818
20
-5.2810187795275585
11
2.2647401968503935
21
-5.2901012598425199
0
LINE
8
BLACK
6
CONTINUOUS
10
2.2647401968503935
20
-5.2901012598425199
11
2.267890157480315
21
-5.2997958661417321
0
LINE
8
BLACK
6
CONTINUOUS
10
2.267890157480315
20
-5.2997958661417321
11
2.2694848031496062
21
-5.3098638582677165
0
LINE
8
BLACK
6
CONTINUOUS
10
2.2694848031496062
20
-5.3098638582677165
11
2.2694848031496062
21
-5.320057401574803
0
LINE
8
BLACK
6
CONTINUOUS
10
2.2694848031496062
20
-5.320057401574803
11
2.267890157480315
21
-5.3301253937007873
0
LINE
8
BLACK
6
CONTINUOUS
10
2.267890157480315
20
-5.3301253937007873
11
2.2647401968503935
21
-5.3398199999999996
0
LINE
8
BLACK
6
CONTINUOUS
10
2.2647401968503935
20
-5.3398199999999996
11
2.2601124409448818
21
-5.3489024803149601
0
LINE
8
BLACK
6
CONTINUOUS
10
2.2601124409448818
20
-5.3489024803149601
11
2.254120866141732
21
-5.3571491732283461
0
LINE
8
BLACK
6
CONTINUOUS
10
2.254120866141732
20
-5.3571491732283461
11
2.2469129527559053
21
-5.3643570866141728
0
LINE
8
BLACK
6
CONTINUOUS
10
2.2469129527559053
20
-5.3643570866141728
11
2.2386662598425198
21
-5.3703486614173226
0
LINE
8
BLACK
6
CONTINUOUS
10
2.2386662598425198
20
-5.3703486614173226
11
2.2295837795275588
21
-5.3749764173228343
0
LINE
8
BLACK
6
CONTINUOUS
10
2.2295837795275588
20
-5.3749764173228343
11
2.2198891732283466
21
-5.3781263779527562
0
LINE
8
BLACK
6
CONTINUOUS
10
2.2198891732283466
20
-5.3781263779527562
11
2.2098211811023623
21
-5.3797210236220474
0
LINE
8
BLACK
6
CONTINUOUS
10
2.2098211811023623
20
-5.3797210236220474
11
2.1996276377952757
21
-5.3797210236220474
0
LINE
8
BLACK
6
CONTINUOUS
10
2.1996276377952757
20
-5.3797210236220474
11
2.1895596456692914
21
-5.3781263779527562
0
LINE
8
BLACK
6
CONTINUOUS
10
2.1895596456692914
20
-5.3781263779527562
11
2.1798650393700787
21
-5.3749764173228343
0
LINE
8
BLACK
6
CONTINUOUS
10
2.1798650393700787
20
-5.3749764173228343
11
2.1707825590551182
21
-5.3703486614173226
0
LINE
8
BLACK
6
CONTINUOUS
10
2.1707825590551182
20
-5.3703486614173226
11
2.1625358661417322
21
-5.3643570866141728
0
LINE
8
BLACK
6
CONTINUOUS
10
2.1625358661417322
20
-5.3643570866141728
11
2.1553279527559055
21
-5.3571491732283461
0
LINE
8
BLACK
6
CONTINUOUS
10
2.1553279527559055
20
-5.3571491732283461
11
2.1493363779527557
21
-5.3489024803149601
0
LINE
8
BLACK
6
CONTINUOUS
10
2.1493363779527557
20
-5.3489024803149601
11
2.144708622047244
21
-5.3398199999999996
0
LINE
8
BLACK
6
CONTINUOUS
10
2.144708622047244
20
-5.3398199999999996
11
2.141558661417323
21
-5.3301253937007873
0
LINE
8
BLACK
6
CONTINUOUS
10
2.141558661417323
20
-5.3301253937007873
11
2.1399640157480313
21
-5.320057401574803
0
LINE
8
BLACK
6
CONTINUOUS
10
2.1399640157480313
20
-5.320057401574803
11
2.1399640157480313
21
-5.3101579527559055
0
LINE
8
BLACK
6
CONTINUOUS
10
2.1399640157480313
20
-5.3101579527559055
11
2.1399640157480313
21
-5.3098638582677165
0
LINE
8
BLACK
6
CONTINUOUS
10
2.1399640157480313
20
-5.3098638582677165
11
2.141558661417323
21
-5.2997958661417321
0
LINE
8
BLACK
6
CONTINUOUS
10
2.141558661417323
20
-5.2997958661417321
11
2.144708622047244
21
-5.2901012598425199
0
LINE
8
BLACK
6
CONTINUOUS
10
2.144708622047244
20
-5.2901012598425199
11
2.1493363779527557
21
-5.2810187795275585
0
LINE
8
BLACK
6
CONTINUOUS
10
2.1493363779527557
20
-5.2810187795275585
11
2.1553279527559055
21
-5.2727720866141734
0
LINE
8
BLACK
6
CONTINUOUS
10
2.1553279527559055
20
-5.2727720866141734
11
2.1625358661417322
21
-5.2655641732283467
0
LINE
8
BLACK
6
CONTINUOUS
10
2.1625358661417322
20
-5.2655641732283467
11
2.1707825590551182
21
-5.2595725984251969
0
LINE
8
BLACK
6
CONTINUOUS
10
2.1707825590551182
20
-5.2595725984251969
11
2.1798650393700787
21
-5.2549448425196852
0
LINE
8
BLACK
6
CONTINUOUS
10
2.1798650393700787
20
-5.2549448425196852
11
2.1895596456692914
21
-5.2517948818897633
0
LINE
8
BLACK
6
CONTINUOUS
10
2.1895596456692914
20
-5.2517948818897633
11
2.1996276377952757
21
-5.250200236220472
0
LINE
8
BLACK
6
CONTINUOUS
10
2.1996276377952757
20
-5.250200236220472
11
2.2098211811023623
21
-5.250200236220472
0
LINE
8
BLACK
6
CONTINUOUS
10
2.2098211811023623
20
-5.250200236220472
11
2.2198891732283466
21
-5.2517948818897633
0
LINE
8
BLACK
6
CONTINUOUS
10
2.1437007874015745
20
-5.3197633070866139
11
2.1452033858267714
21
-5.3292503543307088
0
LINE
8
BLACK
6
CONTINUOUS
10
2.1452033858267714
20
-5.3292503543307088
11
2.1481716141732283
21
-5.338385590551181
0
LINE
8
BLACK
6
CONTINUOUS
10
2.1481716141732283
20
-5.338385590551181
11
2.1525323228346456
21
-5.3469439763779523
0
LINE
8
BLACK
6
CONTINUOUS
10
2.1525323228346456
20
-5.3469439763779523
11
2.158178188976378
21
-5.3547148425196847
0
LINE
8
BLACK
6
CONTINUOUS
10
2.158178188976378
20
-5.3547148425196847
11
2.1649701968503936
21
-5.3615068503937007
0
LINE
8
BLACK
6
CONTINUOUS
10
2.1649701968503936
20
-5.3615068503937007
11
2.172741062992126
21
-5.3671527165354327
0
LINE
8
BLACK
6
CONTINUOUS
10
2.172741062992126
20
-5.3671527165354327
11
2.1812994488188977
21
-5.3715134251968504
0
LINE
8
BLACK
6
CONTINUOUS
10
2.1812994488188977
20
-5.3715134251968504
11
2.1904346850393699
21
-5.3744816535433069
0
LINE
8
BLACK
6
CONTINUOUS
10
2.1904346850393699
20
-5.3744816535433069
11
2.1999217322834643
21
-5.3759842519685037
0
LINE
8
BLACK
6
CONTINUOUS
10
2.1999217322834643
20
-5.3759842519685037
11
2.2095270866141732
21
-5.3759842519685037
0
LINE
8
BLACK
6
CONTINUOUS
10
2.2095270866141732
20
-5.3759842519685037
11
2.2190141338582676
21
-5.3744816535433069
0
LINE
8
BLACK
6
CONTINUOUS
10
2.2190141338582676
20
-5.3744816535433069
11
2.2281493700787403
21
-5.3715134251968504
0
LINE
8
BLACK
6
CONTINUOUS
10
2.2281493700787403
20
-5.3715134251968504
11
2.236707755905512
21
-5.3671527165354327
0
LINE
8
BLACK
6
CONTINUOUS
10
2.236707755905512
20
-5.3671527165354327
11
2.2444786220472439
21
-5.3615068503937007
0
LINE
8
BLACK
6
CONTINUOUS
10
2.2444786220472439
20
-5.3615068503937007
11
2.2512706299212599
21
-5.3547148425196847
0
LINE
8
BLACK
6
CONTINUOUS
10
2.2512706299212599
20
-5.3547148425196847
11
2.2569164960629919
21
-5.3469439763779523
0
LINE
8
BLACK
6
CONTINUOUS
10
2.2569164960629919
20
-5.3469439763779523
11
2.2612772047244092
21
-5.338385590551181
0
LINE
8
BLACK
6
CONTINUOUS
10
2.2612772047244092
20
-5.338385590551181
11
2.2642454330708661
21
-5.3292503543307088
0
LINE
8
BLACK
6
CONTINUOUS
10
2.2642454330708661
20
-5.3292503543307088
11
2.265748031496063
21
-5.3197633070866139
0
LINE
8
BLACK
6
CONTINUOUS
10
2.265748031496063
20
-5.3197633070866139
11
2.265748031496063
21
-5.3101579527559055
0
LINE
8
BLACK
6
CONTINUOUS
10
2.265748031496063
20
-5.3101579527559055
11
2.2642454330708661
21
-5.3006709055118106
0
LINE
8
BLACK
6
CONTINUOUS
10
2.2642454330708661
20
-5.3006709055118106
11
2.2612772047244092
21
-5.2915356692913385
0
LINE
8
BLACK
6
CONTINUOUS
10
2.2612772047244092
20
-5.2915356692913385
11
2.2569164960629919
21
-5.2829772834645672
0
LINE
8
BLACK
6
CONTINUOUS
10
2.2569164960629919
20
-5.2829772834645672
11
2.2512706299212599
21
-5.2752064173228348
0
LINE
8
BLACK
6
CONTINUOUS
10
2.2512706299212599
20
-5.2752064173228348
11
2.2444786220472439
21
-5.2684144094488188
0
LINE
8
BLACK
6
CONTINUOUS
10
2.2444786220472439
20
-5.2684144094488188
11
2.236707755905512
21
-5.2627685433070868
0
LINE
8
BLACK
6
CONTINUOUS
10
2.236707755905512
20
-5.2627685433070868
11
2.2281493700787403
21
-5.2584078346456691
0
LINE
8
BLACK
6
CONTINUOUS
10
2.2281493700787403
20
-5.2584078346456691
11
2.2190141338582676
21
-5.2554396062992126
0
LINE
8
BLACK
6
CONTINUOUS
10
2.2190141338582676
20
-5.2554396062992126
11
2.2095270866141732
21
-5.2539370078740157
0
LINE
8
BLACK
6
CONTINUOUS
10
2.2095270866141732
20
-5.2539370078740157
11
2.1999217322834643
21
-5.2539370078740157
0
LINE
8
BLACK
6
CONTINUOUS
10
2.1999217322834643
20
-5.2539370078740157
11
2.1904346850393699
21
-5.2554396062992126
0
LINE
8
BLACK
6
CONTINUOUS
10
2.1904346850393699
20
-5.2554396062992126
11
2.1812994488188977
21
-5.2584078346456691
0
LINE
8
BLACK
6
CONTINUOUS
10
2.1812994488188977
20
-5.2584078346456691
11
2.172741062992126
21
-5.2627685433070868
0
LINE
8
BLACK
6
CONTINUOUS
10
2.172741062992126
20
-5.2627685433070868
11
2.1649701968503936
21
-5.2684144094488188
0
LINE
8
BLACK
6
CONTINUOUS
10
2.1649701968503936
20
-5.2684144094488188
11
2.158178188976378
21
-5.2752064173228348
0
LINE
8
BLACK
6
CONTINUOUS
10
2.158178188976378
20
-5.2752064173228348
11
2.1525323228346456
21
-5.2829772834645672
0
LINE
8
BLACK
6
CONTINUOUS
10
2.1525323228346456
20
-5.2829772834645672
11
2.1481716141732283
21
-5.2915356692913385
0
LINE
8
BLACK
6
CONTINUOUS
10
2.1481716141732283
20
-5.2915356692913385
11
2.1452033858267714
21
-5.3006709055118106
0
LINE
8
BLACK
6
CONTINUOUS
10
2.1452033858267714
20
-5.3006709055118106
11
2.1437007874015745
21
-5.3101579527559055
0
LINE
8
BLACK
6
CONTINUOUS
10
2.1437007874015745
20
-5.3101579527559055
11
2.1437007874015745
21
-5.3197633070866139
0
LINE
8
BLACK
6
CONTINUOUS
10
13.4401318503937013
20
-5.2527519291338578
11
13.4496795669291327
21
-5.2558541732283466
0
LINE
8
BLACK
6
CONTINUOUS
10
13.4496795669291327
20
-5.2558541732283466
11
13.4586244094488183
21
-5.260411811023622
0
LINE
8
BLACK
6
CONTINUOUS
10
13.4586244094488183
20
-5.260411811023622
11
13.4667461811023621
21
-5.2663125984251966
0
LINE
8
BLACK
6
CONTINUOUS
10
13.4667461811023621
20
-5.2663125984251966
11
13.4738448818897627
21
-5.2734112992125981
0
LINE
8
BLACK
6
CONTINUOUS
10
13.4738448818897627
20
-5.2734112992125981
11
13.4797456692913382
21
-5.2815330708661419
0
LINE
8
BLACK
6
CONTINUOUS
10
13.4797456692913382
20
-5.2815330708661419
11
13.4843033070866145
21
-5.2904779133858266
0
LINE
8
BLACK
6
CONTINUOUS
10
13.4843033070866145
20
-5.2904779133858266
11
13.4874055511811015
21
-5.3000256299212598
0
LINE
8
BLACK
6
CONTINUOUS
10
13.4874055511811015
20
-5.3000256299212598
11
13.4889760236220475
21
-5.3099411023622043
0
LINE
8
BLACK
6
CONTINUOUS
10
13.4889760236220475
20
-5.3099411023622043
11
13.4889760236220475
21
-5.3199801574803152
0
LINE
8
BLACK
6
CONTINUOUS
10
13.4889760236220475
20
-5.3199801574803152
11
13.4874055511811015
21
-5.3298956299212596
0
LINE
8
BLACK
6
CONTINUOUS
10
13.4874055511811015
20
-5.3298956299212596
11
13.4843033070866145
21
-5.3394433464566928
0
LINE
8
BLACK
6
CONTINUOUS
10
13.4843033070866145
20
-5.3394433464566928
11
13.4797456692913382
21
-5.3483881889763776
0
LINE
8
BLACK
6
CONTINUOUS
10
13.4797456692913382
20
-5.3483881889763776
11
13.4738448818897627
21
-5.3565099606299214
0
LINE
8
BLACK
6
CONTINUOUS
10
13.4738448818897627
20
-5.3565099606299214
11
13.4667461811023621
21
-5.3636086614173228
0
LINE
8
BLACK
6
CONTINUOUS
10
13.4667461811023621
20
-5.3636086614173228
11
13.4586244094488183
21
-5.3695094488188975
0
LINE
8
BLACK
6
CONTINUOUS
10
13.4586244094488183
20
-5.3695094488188975
11
13.4496795669291327
21
-5.3740670866141729
0
LINE
8
BLACK
6
CONTINUOUS
10
13.4496795669291327
20
-5.3740670866141729
11
13.4401318503937013
21
-5.3771693307086617
0
LINE
8
BLACK
6
CONTINUOUS
10
13.4401318503937013
20
-5.3771693307086617
11
13.430216377952755
21
-5.3787398031496059
0
LINE
8
BLACK
6
CONTINUOUS
10
13.430216377952755
20
-5.3787398031496059
11
13.420177322834645
21
-5.3787398031496059
0
LINE
8
BLACK
6
CONTINUOUS
10
13.420177322834645
20
-5.3787398031496059
11
13.4102618503937006
21
-5.3771693307086617
0
LINE
8
BLACK
6
CONTINUOUS
10
13.4102618503937006
20
-5.3771693307086617
11
13.4007141338582674
21
-5.3740670866141729
0
LINE
8
BLACK
6
CONTINUOUS
10
13.4007141338582674
20
-5.3740670866141729
11
13.3917692913385817
21
-5.3695094488188975
0
LINE
8
BLACK
6
CONTINUOUS
10
13.3917692913385817
20
-5.3695094488188975
11
13.3836475196850397
21
-5.3636086614173228
0
LINE
8
BLACK
6
CONTINUOUS
10
13.3836475196850397
20
-5.3636086614173228
11
13.3765488188976374
21
-5.3565099606299214
0
LINE
8
BLACK
6
CONTINUOUS
10
13.3765488188976374
20
-5.3565099606299214
11
13.3706480314960618
21
-5.3483881889763776
0
LINE
8
BLACK
6
CONTINUOUS
10
13.3706480314960618
20
-5.3483881889763776
11
13.3660903937007873
21
-5.3394433464566928
0
LINE
8
BLACK
6
CONTINUOUS
10
13.3660903937007873
20
-5.3394433464566928
11
13.3629881496062985
21
-5.3298956299212596
0
LINE
8
BLACK
6
CONTINUOUS
10
13.3629881496062985
20
-5.3298956299212596
11
13.3614176771653543
21
-5.3199801574803152
0
LINE
8
BLACK
6
CONTINUOUS
10
13.3614176771653543
20
-5.3199801574803152
11
13.3614176771653543
21
-5.3100805118110239
0
LINE
8
BLACK
6
CONTINUOUS
10
13.3614176771653543
20
-5.3100805118110239
11
13.3614176771653543
21
-5.3099411023622043
0
LINE
8
BLACK
6
CONTINUOUS
10
13.3614176771653543
20
-5.3099411023622043
11
13.3629881496062985
21
-5.3000256299212598
0
LINE
8
BLACK
6
CONTINUOUS
10
13.3629881496062985
20
-5.3000256299212598
11
13.3660903937007873
21
-5.2904779133858266
0
LINE
8
BLACK
6
CONTINUOUS
10
13.3660903937007873
20
-5.2904779133858266
11
13.3706480314960618
21
-5.2815330708661419
0
LINE
8
BLACK
6
CONTINUOUS
10
13.3706480314960618
20
-5.2815330708661419
11
13.3765488188976374
21
-5.2734112992125981
0
LINE
8
BLACK
6
CONTINUOUS
10
13.3765488188976374
20
-5.2734112992125981
11
13.3836475196850397
21
-5.2663125984251966
0
LINE
8
BLACK
6
CONTINUOUS
10
13.3836475196850397
20
-5.2663125984251966
11
13.3917692913385817
21
-5.260411811023622
0
LINE
8
BLACK
6
CONTINUOUS
10
13.3917692913385817
20
-5.260411811023622
11
13.4007141338582674
21
-5.2558541732283466
0
LINE
8
BLACK
6
CONTINUOUS
10
13.4007141338582674
20
-5.2558541732283466
11
13.4102618503937006
21
-5.2527519291338578
0
LINE
8
BLACK
6
CONTINUOUS
10
13.4102618503937006
20
-5.2527519291338578
11
13.420177322834645
21
-5.2511814566929136
0
LINE
8
BLACK
6
CONTINUOUS
10
13.420177322834645
20
-5.2511814566929136
11
13.430216377952755
21
-5.2511814566929136
0
LINE
8
BLACK
6
CONTINUOUS
10
13.430216377952755
20
-5.2511814566929136
11
13.4401318503937013
21
-5.2527519291338578
0
LINE
8
BLACK
6
CONTINUOUS
10
13.3631889763779519
20
-5.3198407480314955
11
13.3647158267716524
21
-5.3294808267716531
0
LINE
8
BLACK
6
CONTINUOUS
10
13.3647158267716524
20
-5.3294808267716531
11
13.36773188976378
21
-5.3387633858267716
0
LINE
8
BLACK
6
CONTINUOUS
10
13.36773188976378
20
-5.3387633858267716
11
13.3721629527559056
21
-5.3474598425196849
0
LINE
8
BLACK
6
CONTINUOUS
10
13.3721629527559056
20
-5.3474598425196849
11
13.3778998818897641
21
-5.355356023622047
0
LINE
8
BLACK
6
CONTINUOUS
10
13.3778998818897641
20
-5.355356023622047
11
13.3848014566929123
21
-5.362257598425197
0
LINE
8
BLACK
6
CONTINUOUS
10
13.3848014566929123
20
-5.362257598425197
11
13.3926976377952744
21
-5.3679945275590546
0
LINE
8
BLACK
6
CONTINUOUS
10
13.3926976377952744
20
-5.3679945275590546
11
13.4013940944881895
21
-5.3724255905511811
0
LINE
8
BLACK
6
CONTINUOUS
10
13.4013940944881895
20
-5.3724255905511811
11
13.4106766535433071
21
-5.3754416535433069
0
LINE
8
BLACK
6
CONTINUOUS
10
13.4106766535433071
20
-5.3754416535433069
11
13.4203167322834638
21
-5.3769685039370074
0
LINE
8
BLACK
6
CONTINUOUS
10
13.4203167322834638
20
-5.3769685039370074
11
13.4300769685039363
21
-5.3769685039370074
0
LINE
8
BLACK
6
CONTINUOUS
10
13.4300769685039363
20
-5.3769685039370074
11
13.4397170472440948
21
-5.3754416535433069
0
LINE
8
BLACK
6
CONTINUOUS
10
13.4397170472440948
20
-5.3754416535433069
11
13.4489996062992123
21
-5.3724255905511811
0
LINE
8
BLACK
6
CONTINUOUS
10
13.4489996062992123
20
-5.3724255905511811
11
13.4576960629921256
21
-5.3679945275590546
0
LINE
8
BLACK
6
CONTINUOUS
10
13.4576960629921256
20
-5.3679945275590546
11
13.4655922440944877
21
-5.362257598425197
0
LINE
8
BLACK
6
CONTINUOUS
10
13.4655922440944877
20
-5.362257598425197
11
13.4724938188976378
21
-5.355356023622047
0
LINE
8
BLACK
6
CONTINUOUS
10
13.4724938188976378
20
-5.355356023622047
11
13.4782307480314962
21
-5.3474598425196849
0
LINE
8
BLACK
6
CONTINUOUS
10
13.4782307480314962
20
-5.3474598425196849
11
13.4826618110236218
21
-5.3387633858267716
0
LINE
8
BLACK
6
CONTINUOUS
10
13.4826618110236218
20
-5.3387633858267716
11
13.4856778740157477
21
-5.3294808267716531
0
LINE
8
BLACK
6
CONTINUOUS
10
13.4856778740157477
20
-5.3294808267716531
11
13.4872047244094482
21
-5.3198407480314955
0
LINE
8
BLACK
6
CONTINUOUS
10
13.4872047244094482
20
-5.3198407480314955
11
13.4872047244094482
21
-5.3100805118110239
0
LINE
8
BLACK
6
CONTINUOUS
10
13.4872047244094482
20
-5.3100805118110239
11
13.4856778740157477
21
-5.3004404330708663
0
LINE
8
BLACK
6
CONTINUOUS
10
13.4856778740157477
20
-5.3004404330708663
11
13.4826618110236218
21
-5.2911578740157479
0
LINE
8
BLACK
6
CONTINUOUS
10
13.4826618110236218
20
-5.2911578740157479
11
13.4782307480314962
21
-5.2824614173228346
0
LINE
8
BLACK
6
CONTINUOUS
10
13.4782307480314962
20
-5.2824614173228346
11
13.4724938188976378
21
-5.2745652362204725
0
LINE
8
BLACK
6
CONTINUOUS
10
13.4724938188976378
20
-5.2745652362204725
11
13.4655922440944877
21
-5.2676636614173225
0
LINE
8
BLACK
6
CONTINUOUS
10
13.4655922440944877
20
-5.2676636614173225
11
13.4576960629921256
21
-5.2619267322834649
0
LINE
8
BLACK
6
CONTINUOUS
10
13.4576960629921256
20
-5.2619267322834649
11
13.4489996062992123
21
-5.2574956692913384
0
LINE
8
BLACK
6
CONTINUOUS
10
13.4489996062992123
20
-5.2574956692913384
11
13.4397170472440948
21
-5.2544796062992125
0
LINE
8
BLACK
6
CONTINUOUS
10
13.4397170472440948
20
-5.2544796062992125
11
13.4300769685039363
21
-5.252952755905512
0
LINE
8
BLACK
6
CONTINUOUS
10
13.4300769685039363
20
-5.252952755905512
11
13.4203167322834638
21
-5.252952755905512
0
LINE
8
BLACK
6
CONTINUOUS
10
13.4203167322834638
20
-5.252952755905512
11
13.4106766535433071
21
-5.2544796062992125
0
LINE
8
BLACK
6
CONTINUOUS
10
13.4106766535433071
20
-5.2544796062992125
11
13.4013940944881895
21
-5.2574956692913384
0
LINE
8
BLACK
6
CONTINUOUS
10
13.4013940944881895
20
-5.2574956692913384
11
13.3926976377952744
21
-5.2619267322834649
0
LINE
8
BLACK
6
CONTINUOUS
10
13.3926976377952744
20
-5.2619267322834649
11
13.3848014566929123
21
-5.2676636614173225
0
LINE
8
BLACK
6
CONTINUOUS
10
13.3848014566929123
20
-5.2676636614173225
11
13.3778998818897641
21
-5.2745652362204725
0
LINE
8
BLACK
6
CONTINUOUS
10
13.3778998818897641
20
-5.2745652362204725
11
13.3721629527559056
21
-5.2824614173228346
0
LINE
8
BLACK
6
CONTINUOUS
10
13.3721629527559056
20
-5.2824614173228346
11
13.36773188976378
21
-5.2911578740157479
0
LINE
8
BLACK
6
CONTINUOUS
10
13.36773188976378
20
-5.2911578740157479
11
13.3647158267716524
21
-5.3004404330708663
0
LINE
8
BLACK
6
CONTINUOUS
10
13.3647158267716524
20
-5.3004404330708663
11
13.3631889763779519
21
-5.3100805118110239
0
LINE
8
BLACK
6
CONTINUOUS
10
13.3631889763779519
20
-5.3100805118110239
11
13.3631889763779519
21
-5.3198407480314955
0
LINE
8
BLACK
6
CONTINUOUS
10
8.5015196850393693
20
-4.4863492913385823
11
8.5025850393700786
21
-4.4874146456692916
0
LINE
8
BLACK
6
CONTINUOUS
10
8.5025850393700786
20
-4.4874146456692916
11
8.5027348818897632
21
-4.4881679527559051
0
LINE
8
BLACK
6
CONTINUOUS
10
8.5027348818897632
20
-4.4881679527559051
11
8.5027348818897632
21
-5.1180892125984254
0
LINE
8
BLACK
6
CONTINUOUS
10
8.5027348818897632
20
-5.1180892125984254
11
8.5025850393700786
21
-5.1188425196850389
0
LINE
8
BLACK
6
CONTINUOUS
10
8.5025850393700786
20
-5.1188425196850389
11
8.5015196850393693
21
-5.1199078740157482
0
LINE
8
BLACK
6
CONTINUOUS
10
8.5015196850393693
20
-5.1199078740157482
11
8.5007663779527558
21
-5.1200577165354328
0
LINE
8
BLACK
6
CONTINUOUS
10
8.5007663779527558
20
-5.1200577165354328
11
7.8708451181102363
21
-5.1200577165354328
0
LINE
8
BLACK
6
CONTINUOUS
10
7.8708451181102363
20
-5.1200577165354328
11
7.870091811023622
21
-5.1199078740157482
0
LINE
8
BLACK
6
CONTINUOUS
10
7.870091811023622
20
-5.1199078740157482
11
7.8690264566929136
21
-5.1188425196850389
0
LINE
8
BLACK
6
CONTINUOUS
10
7.8690264566929136
20
-5.1188425196850389
11
7.868876614173228
21
-5.1180892125984254
0
LINE
8
BLACK
6
CONTINUOUS
10
7.868876614173228
20
-5.1180892125984254
11
7.868876614173228
21
-4.4881679527559051
0
LINE
8
BLACK
6
CONTINUOUS
10
7.868876614173228
20
-4.4881679527559051
11
7.8690264566929136
21
-4.4874146456692916
0
LINE
8
BLACK
6
CONTINUOUS
10
7.8690264566929136
20
-4.4874146456692916
11
7.870091811023622
21
-4.4863492913385823
0
LINE
8
BLACK
6
CONTINUOUS
10
7.870091811023622
20
-4.4863492913385823
11
7.8708451181102363
21
-4.4861994488188977
0
LINE
8
BLACK
6
CONTINUOUS
10
7.8708451181102363
20
-4.4861994488188977
11
8.5007663779527558
21
-4.4861994488188977
0
LINE
8
BLACK
6
CONTINUOUS
10
8.5007663779527558
20
-4.4861994488188977
11
8.5015196850393693
21
-4.4863492913385823
0
LINE
8
BLACK
6
CONTINUOUS
10
7.8728136220472438
20
-4.4901364566929134
11
7.8728136220472438
21
-5.1161207086614171
0
LINE
8
BLACK
6
CONTINUOUS
10
7.8728136220472438
20
-5.1161207086614171
11
8.4987978740157484
21
-5.1161207086614171
0
LINE
8
BLACK
6
CONTINUOUS
10
8.4987978740157484
20
-5.1161207086614171
11
8.4987978740157484
21
-4.4901364566929134
0
LINE
8
BLACK
6
CONTINUOUS
10
8.4987978740157484
20
-4.4901364566929134
11
7.8728136220472438
21
-4.4901364566929134
0
LINE
8
BLACK
6
CONTINUOUS
10
11.8479763779527563
20
-4.2501288188976378
11
11.8490417322834638
21
-4.2511941732283463
0
LINE
8
BLACK
6
CONTINUOUS
10
11.8490417322834638
20
-4.2511941732283463
11
11.8491915748031502
21
-4.2519474803149606
0
LINE
8
BLACK
6
CONTINUOUS
10
11.8491915748031502
20
-4.2519474803149606
11
11.8491915748031502
21
-4.8818687401574801
0
LINE
8
BLACK
6
CONTINUOUS
10
11.8491915748031502
20
-4.8818687401574801
11
11.8490417322834638
21
-4.8826220472440944
0
LINE
8
BLACK
6
CONTINUOUS
10
11.8490417322834638
20
-4.8826220472440944
11
11.8479763779527563
21
-4.8836874015748029
0
LINE
8
BLACK
6
CONTINUOUS
10
11.8479763779527563
20
-4.8836874015748029
11
11.847223070866141
21
-4.8838372440944884
0
LINE
8
BLACK
6
CONTINUOUS
10
11.847223070866141
20
-4.8838372440944884
11
11.2173018110236224
21
-4.8838372440944884
0
LINE
8
BLACK
6
CONTINUOUS
10
11.2173018110236224
20
-4.8838372440944884
11
11.2165485039370072
21
-4.8836874015748029
0
LINE
8
BLACK
6
CONTINUOUS
10
11.2165485039370072
20
-4.8836874015748029
11
11.2154831496062997
21
-4.8826220472440944
0
LINE
8
BLACK
6
CONTINUOUS
10
11.2154831496062997
20
-4.8826220472440944
11
11.2153333070866132
21
-4.8818687401574801
0
LINE
8
BLACK
6
CONTINUOUS
10
11.2153333070866132
20
-4.8818687401574801
11
11.2153333070866132
21
-4.2519474803149606
0
LINE
8
BLACK
6
CONTINUOUS
10
11.2153333070866132
20
-4.2519474803149606
11
11.2154831496062997
21
-4.2511941732283463
0
LINE
8
BLACK
6
CONTINUOUS
10
11.2154831496062997
20
-4.2511941732283463
11
11.2165485039370072
21
-4.2501288188976378
0
LINE
8
BLACK
6
CONTINUOUS
10
11.2165485039370072
20
-4.2501288188976378
11
11.2173018110236224
21
-4.2499789763779523
0
LINE
8
BLACK
6
CONTINUOUS
10
11.2173018110236224
20
-4.2499789763779523
11
11.847223070866141
21
-4.2499789763779523
0
LINE
8
BLACK
6
CONTINUOUS
10
11.847223070866141
20
-4.2499789763779523
11
11.8479763779527563
21
-4.2501288188976378
0
LINE
8
BLACK
6
CONTINUOUS
10
11.2192703149606299
20
-4.253915984251968
11
11.2192703149606299
21
-4.8799002362204726
0
LINE
8
BLACK
6
CONTINUOUS
10
11.2192703149606299
20
-4.8799002362204726
11
11.8452545669291336
21
-4.8799002362204726
0
LINE
8
BLACK
6
CONTINUOUS
10
11.8452545669291336
20
-4.8799002362204726
11
11.8452545669291336
21
-4.253915984251968
0
LINE
8
BLACK
6
CONTINUOUS
10
11.8452545669291336
20
-4.253915984251968
11
11.2192703149606299
21
-4.253915984251968
0
LINE
8
BLACK
6
CONTINUOUS
10
9.5251417322834637
20
-4.0926485039370082
11
9.526207086614173
21
-4.0937138582677166
0
LINE
8
BLACK
6
CONTINUOUS
10
9.526207086614173
20
-4.0937138582677166
11
9.5263569291338577
21
-4.094467165354331
0
LINE
8
BLACK
6
CONTINUOUS
10
9.5263569291338577
20
-4.094467165354331
11
9.5263569291338577
21
-4.7243884251968504
0
LINE
8
BLACK
6
CONTINUOUS
10
9.5263569291338577
20
-4.7243884251968504
11
9.526207086614173
21
-4.7251417322834648
0
LINE
8
BLACK
6
CONTINUOUS
10
9.526207086614173
20
-4.7251417322834648
11
9.5251417322834637
21
-4.7262070866141732
0
LINE
8
BLACK
6
CONTINUOUS
10
9.5251417322834637
20
-4.7262070866141732
11
9.5243884251968502
21
-4.7263569291338579
0
LINE
8
BLACK
6
CONTINUOUS
10
9.5243884251968502
20
-4.7263569291338579
11
8.8944671653543299
21
-4.7263569291338579
0
LINE
8
BLACK
6
CONTINUOUS
10
8.8944671653543299
20
-4.7263569291338579
11
8.8937138582677164
21
-4.7262070866141732
0
LINE
8
BLACK
6
CONTINUOUS
10
8.8937138582677164
20
-4.7262070866141732
11
8.8926485039370071
21
-4.7251417322834648
0
LINE
8
BLACK
6
CONTINUOUS
10
8.8926485039370071
20
-4.7251417322834648
11
8.8924986614173225
21
-4.7243884251968504
0
LINE
8
BLACK
6
CONTINUOUS
10
8.8924986614173225
20
-4.7243884251968504
11
8.8924986614173225
21
-4.094467165354331
0
LINE
8
BLACK
6
CONTINUOUS
10
8.8924986614173225
20
-4.094467165354331
11
8.8926485039370071
21
-4.0937138582677166
0
LINE
8
BLACK
6
CONTINUOUS
10
8.8926485039370071
20
-4.0937138582677166
11
8.8937138582677164
21
-4.0926485039370082
0
LINE
8
BLACK
6
CONTINUOUS
10
8.8937138582677164
20
-4.0926485039370082
11
8.8944671653543299
21
-4.0924986614173227
0
LINE
8
BLACK
6
CONTINUOUS
10
8.8944671653543299
20
-4.0924986614173227
11
9.5243884251968502
21
-4.0924986614173227
0
LINE
8
BLACK
6
CONTINUOUS
10
9.5243884251968502
20
-4.0924986614173227
11
9.5251417322834637
21
-4.0926485039370082
0
LINE
8
BLACK
6
CONTINUOUS
10
8.8964356692913391
20
-4.0964356692913384
11
8.8964356692913391
21
-4.7224199212598421
0
LINE
8
BLACK
6
CONTINUOUS
10
8.8964356692913391
20
-4.7224199212598421
11
9.5224199212598428
21
-4.7224199212598421
0
LINE
8
BLACK
6
CONTINUOUS
10
9.5224199212598428
20
-4.7224199212598421
11
9.5224199212598428
21
-4.0964356692913384
0
LINE
8
BLACK
6
CONTINUOUS
10
9.5224199212598428
20
-4.0964356692913384
11
8.8964356692913391
21
-4.0964356692913384
0
LINE
8
BLACK
6
CONTINUOUS
10
10.745614173228347
20
-4.0926485039370082
11
10.7466795275590545
21
-4.0937138582677166
0
LINE
8
BLACK
6
CONTINUOUS
10
10.7466795275590545
20
-4.0937138582677166
11
10.7468293700787392
21
-4.094467165354331
0
LINE
8
BLACK
6
CONTINUOUS
10
10.7468293700787392
20
-4.094467165354331
11
10.7468293700787392
21
-4.7243884251968504
0
LINE
8
BLACK
6
CONTINUOUS
10
10.7468293700787392
20
-4.7243884251968504
11
10.7466795275590545
21
-4.7251417322834648
0
LINE
8
BLACK
6
CONTINUOUS
10
10.7466795275590545
20
-4.7251417322834648
11
10.745614173228347
21
-4.7262070866141732
0
LINE
8
BLACK
6
CONTINUOUS
10
10.745614173228347
20
-4.7262070866141732
11
10.7448608661417317
21
-4.7263569291338579
0
LINE
8
BLACK
6
CONTINUOUS
10
10.7448608661417317
20
-4.7263569291338579
11
10.1149396062992132
21
-4.7263569291338579
0
LINE
8
BLACK
6
CONTINUOUS
10
10.1149396062992132
20
-4.7263569291338579
11
10.1141862992125979
21
-4.7262070866141732
0
LINE
8
BLACK
6
CONTINUOUS
10
10.1141862992125979
20
-4.7262070866141732
11
10.1131209448818904
21
-4.7251417322834648
0
LINE
8
BLACK
6
CONTINUOUS
10
10.1131209448818904
20
-4.7251417322834648
11
10.112971102362204
21
-4.7243884251968504
0
LINE
8
BLACK
6
CONTINUOUS
10
10.112971102362204
20
-4.7243884251968504
11
10.112971102362204
21
-4.094467165354331
0
LINE
8
BLACK
6
CONTINUOUS
10
10.112971102362204
20
-4.094467165354331
11
10.1131209448818904
21
-4.0937138582677166
0
LINE
8
BLACK
6
CONTINUOUS
10
10.1131209448818904
20
-4.0937138582677166
11
10.1141862992125979
21
-4.0926485039370082
0
LINE
8
BLACK
6
CONTINUOUS
10
10.1141862992125979
20
-4.0926485039370082
11
10.1149396062992132
21
-4.0924986614173227
0
LINE
8
BLACK
6
CONTINUOUS
10
10.1149396062992132
20
-4.0924986614173227
11
10.7448608661417317
21
-4.0924986614173227
0
LINE
8
BLACK
6
CONTINUOUS
10
10.7448608661417317
20
-4.0924986614173227
11
10.745614173228347
21
-4.0926485039370082
0
LINE
8
BLACK
6
CONTINUOUS
10
10.1169081102362206
20
-4.0964356692913384
11
10.1169081102362206
21
-4.7224199212598421
0
LINE
8
BLACK
6
CONTINUOUS
10
10.1169081102362206
20
-4.7224199212598421
11
10.7428923622047243
21
-4.7224199212598421
0
LINE
8
BLACK
6
CONTINUOUS
10
10.7428923622047243
20
-4.7224199212598421
11
10.7428923622047243
21
-4.0964356692913384
0
LINE
8
BLACK
6
CONTINUOUS
10
10.7428923622047243
20
-4.0964356692913384
11
10.1169081102362206
21
-4.0964356692913384
0
LINE
8
BLACK
6
CONTINUOUS
10
7.5109685039370078
20
-3.777687874015748
11
7.5120338582677162
21
-3.7787532283464564
0
LINE
8
BLACK
6
CONTINUOUS
10
7.5120338582677162
20
-3.7787532283464564
11
7.5121837007874017
21
-3.7795065354330708
0
LINE
8
BLACK
6
CONTINUOUS
10
7.5121837007874017
20
-3.7795065354330708
11
7.5121837007874017
21
-4.4094277952755903
0
LINE
8
BLACK
6
CONTINUOUS
10
7.5121837007874017
20
-4.4094277952755903
11
7.5120338582677162
21
-4.4101811023622046
0
LINE
8
BLACK
6
CONTINUOUS
10
7.5120338582677162
20
-4.4101811023622046
11
7.5109685039370078
21
-4.411246456692913
0
LINE
8
BLACK
6
CONTINUOUS
10
7.5109685039370078
20
-4.411246456692913
11
7.5102151968503934
21
-4.4113962992125986
0
LINE
8
BLACK
6
CONTINUOUS
10
7.5102151968503934
20
-4.4113962992125986
11
6.880293937007874
21
-4.4113962992125986
0
LINE
8
BLACK
6
CONTINUOUS
10
6.880293937007874
20
-4.4113962992125986
11
6.8795406299212596
21
-4.411246456692913
0
LINE
8
BLACK
6
CONTINUOUS
10
6.8795406299212596
20
-4.411246456692913
11
6.8784752755905512
21
-4.4101811023622046
0
LINE
8
BLACK
6
CONTINUOUS
10
6.8784752755905512
20
-4.4101811023622046
11
6.8783254330708656
21
-4.4094277952755903
0
LINE
8
BLACK
6
CONTINUOUS
10
6.8783254330708656
20
-4.4094277952755903
11
6.8783254330708656
21
-3.7795065354330708
0
LINE
8
BLACK
6
CONTINUOUS
10
6.8783254330708656
20
-3.7795065354330708
11
6.8784752755905512
21
-3.7787532283464564
0
LINE
8
BLACK
6
CONTINUOUS
10
6.8784752755905512
20
-3.7787532283464564
11
6.8795406299212596
21
-3.777687874015748
0
LINE
8
BLACK
6
CONTINUOUS
10
6.8795406299212596
20
-3.777687874015748
11
6.880293937007874
21
-3.7775380314960629
0
LINE
8
BLACK
6
CONTINUOUS
10
6.880293937007874
20
-3.7775380314960629
11
7.5102151968503934
21
-3.7775380314960629
0
LINE
8
BLACK
6
CONTINUOUS
10
7.5102151968503934
20
-3.7775380314960629
11
7.5109685039370078
21
-3.777687874015748
0
LINE
8
BLACK
6
CONTINUOUS
10
6.8822624409448814
20
-3.7814750393700787
11
6.8822624409448814
21
-4.4074592913385828
0
LINE
8
BLACK
6
CONTINUOUS
10
6.8822624409448814
20
-4.4074592913385828
11
7.508246692913386
21
-4.4074592913385828
0
LINE
8
BLACK
6
CONTINUOUS
10
7.508246692913386
20
-4.4074592913385828
11
7.508246692913386
21
-3.7814750393700787
0
LINE
8
BLACK
6
CONTINUOUS
10
7.508246692913386
20
-3.7814750393700787
11
6.8822624409448814
21
-3.7814750393700787
0
LINE
8
BLACK
6
CONTINUOUS
10
4.1739606299212602
20
-3.7383177952755906
11
4.1750259842519686
21
-3.739383149606299
0
LINE
8
BLACK
6
CONTINUOUS
10
4.1750259842519686
20
-3.739383149606299
11
4.1751758267716532
21
-3.7401364566929134
0
LINE
8
BLACK
6
CONTINUOUS
10
4.1751758267716532
20
-3.7401364566929134
11
4.1751758267716532
21
-4.3700577165354328
0
LINE
8
BLACK
6
CONTINUOUS
10
4.1751758267716532
20
-4.3700577165354328
11
4.1750259842519686
21
-4.3708110236220472
0
LINE
8
BLACK
6
CONTINUOUS
10
4.1750259842519686
20
-4.3708110236220472
11
4.1739606299212602
21
-4.3718763779527556
0
LINE
8
BLACK
6
CONTINUOUS
10
4.1739606299212602
20
-4.3718763779527556
11
4.1732073228346458
21
-4.3720262204724412
0
LINE
8
BLACK
6
CONTINUOUS
10
4.1732073228346458
20
-4.3720262204724412
11
3.5432860629921259
21
-4.3720262204724412
0
LINE
8
BLACK
6
CONTINUOUS
10
3.5432860629921259
20
-4.3720262204724412
11
3.5425327559055115
21
-4.3718763779527556
0
LINE
8
BLACK
6
CONTINUOUS
10
3.5425327559055115
20
-4.3718763779527556
11
3.5414674015748031
21
-4.3708110236220472
0
LINE
8
BLACK
6
CONTINUOUS
10
3.5414674015748031
20
-4.3708110236220472
11
3.541317559055118
21
-4.3700577165354328
0
LINE
8
BLACK
6
CONTINUOUS
10
3.541317559055118
20
-4.3700577165354328
11
3.541317559055118
21
-3.7401364566929134
0
LINE
8
BLACK
6
CONTINUOUS
10
3.541317559055118
20
-3.7401364566929134
11
3.5414674015748031
21
-3.739383149606299
0
LINE
8
BLACK
6
CONTINUOUS
10
3.5414674015748031
20
-3.739383149606299
11
3.5425327559055115
21
-3.7383177952755906
0
LINE
8
BLACK
6
CONTINUOUS
10
3.5425327559055115
20
-3.7383177952755906
11
3.5432860629921259
21
-3.7381679527559055
0
LINE
8
BLACK
6
CONTINUOUS
10
3.5432860629921259
20
-3.7381679527559055
11
4.1732073228346458
21
-3.7381679527559055
0
LINE
8
BLACK
6
CONTINUOUS
10
4.1732073228346458
20
-3.7381679527559055
11
4.1739606299212602
21
-3.7383177952755906
0
LINE
8
BLACK
6
CONTINUOUS
10
3.5452545669291338
20
-3.7421049606299213
11
3.5452545669291338
21
-4.3680892125984254
0
LINE
8
BLACK
6
CONTINUOUS
10
3.5452545669291338
20
-4.3680892125984254
11
4.1712388188976375
21
-4.3680892125984254
0
LINE
8
BLACK
6
CONTINUOUS
10
4.1712388188976375
20
-4.3680892125984254
11
4.1712388188976375
21
-3.7421049606299213
0
LINE
8
BLACK
6
CONTINUOUS
10
4.1712388188976375
20
-3.7421049606299213
11
3.5452545669291338
21
-3.7421049606299213
0
LINE
8
BLACK
6
CONTINUOUS
10
8.6198267716535426
20
-3.3841839370078741
11
8.6208921259842519
21
-3.3852492913385825
0
LINE
8
BLACK
6
CONTINUOUS
10
8.6208921259842519
20
-3.3852492913385825
11
8.6210419685039366
21
-3.3860025984251969
0
LINE
8
BLACK
6
CONTINUOUS
10
8.6210419685039366
20
-3.3860025984251969
11
8.6210419685039366
21
-4.0159238582677164
0
LINE
8
BLACK
6
CONTINUOUS
10
8.6210419685039366
20
-4.0159238582677164
11
8.6208921259842519
21
-4.0166771653543307
0
LINE
8
BLACK
6
CONTINUOUS
10
8.6208921259842519
20
-4.0166771653543307
11
8.6198267716535426
21
-4.0177425196850391
0
LINE
8
BLACK
6
CONTINUOUS
10
8.6198267716535426
20
-4.0177425196850391
11
8.6190734645669291
21
-4.0178923622047247
0
LINE
8
BLACK
6
CONTINUOUS
10
8.6190734645669291
20
-4.0178923622047247
11
7.9891522047244097
21
-4.0178923622047247
0
LINE
8
BLACK
6
CONTINUOUS
10
7.9891522047244097
20
-4.0178923622047247
11
7.9883988976377953
21
-4.0177425196850391
0
LINE
8
BLACK
6
CONTINUOUS
10
7.9883988976377953
20
-4.0177425196850391
11
7.987333543307086
21
-4.0166771653543307
0
LINE
8
BLACK
6
CONTINUOUS
10
7.987333543307086
20
-4.0166771653543307
11
7.9871837007874014
21
-4.0159238582677164
0
LINE
8
BLACK
6
CONTINUOUS
10
7.9871837007874014
20
-4.0159238582677164
11
7.9871837007874014
21
-3.3860025984251969
0
LINE
8
BLACK
6
CONTINUOUS
10
7.9871837007874014
20
-3.3860025984251969
11
7.987333543307086
21
-3.3852492913385825
0
LINE
8
BLACK
6
CONTINUOUS
10
7.987333543307086
20
-3.3852492913385825
11
7.9883988976377953
21
-3.3841839370078741
0
LINE
8
BLACK
6
CONTINUOUS
10
7.9883988976377953
20
-3.3841839370078741
11
7.9891522047244097
21
-3.384034094488189
0
LINE
8
BLACK
6
CONTINUOUS
10
7.9891522047244097
20
-3.384034094488189
11
8.6190734645669291
21
-3.384034094488189
0
LINE
8
BLACK
6
CONTINUOUS
10
8.6190734645669291
20
-3.384034094488189
11
8.6198267716535426
21
-3.3841839370078741
0
LINE
8
BLACK
6
CONTINUOUS
10
7.9911207086614171
20
-3.3879711023622048
11
7.9911207086614171
21
-4.0139553543307089
0
LINE
8
BLACK
6
CONTINUOUS
10
7.9911207086614171
20
-4.0139553543307089
11
8.6171049606299217
21
-4.0139553543307089
0
LINE
8
BLACK
6
CONTINUOUS
10
8.6171049606299217
20
-4.0139553543307089
11
8.6171049606299217
21
-3.3879711023622048
0
LINE
8
BLACK
6
CONTINUOUS
10
8.6171049606299217
20
-3.3879711023622048
11
7.9911207086614171
21
-3.3879711023622048
0
LINE
8
BLACK
6
CONTINUOUS
10
5.3456141732283466
20
-3.3052469291338582
11
5.3466795275590551
21
-3.3063122834645671
0
LINE
8
BLACK
6
CONTINUOUS
10
5.3466795275590551
20
-3.3063122834645671
11
5.3468293700787397
21
-3.307065590551181
0
LINE
8
BLACK
6
CONTINUOUS
10
5.3468293700787397
20
-3.307065590551181
11
5.3468293700787397
21
-3.9369868503937009
0
LINE
8
BLACK
6
CONTINUOUS
10
5.3468293700787397
20
-3.9369868503937009
11
5.3466795275590551
21
-3.9377401574803148
0
LINE
8
BLACK
6
CONTINUOUS
10
5.3466795275590551
20
-3.9377401574803148
11
5.3456141732283466
21
-3.9388055118110237
0
LINE
8
BLACK
6
CONTINUOUS
10
5.3456141732283466
20
-3.9388055118110237
11
5.3448608661417323
21
-3.9389553543307088
0
LINE
8
BLACK
6
CONTINUOUS
10
5.3448608661417323
20
-3.9389553543307088
11
4.7149396062992128
21
-3.9389553543307088
0
LINE
8
BLACK
6
CONTINUOUS
10
4.7149396062992128
20
-3.9389553543307088
11
4.7141862992125985
21
-3.9388055118110237
0
LINE
8
BLACK
6
CONTINUOUS
10
4.7141862992125985
20
-3.9388055118110237
11
4.71312094488189
21
-3.9377401574803148
0
LINE
8
BLACK
6
CONTINUOUS
10
4.71312094488189
20
-3.9377401574803148
11
4.7129711023622045
21
-3.9369868503937009
0
LINE
8
BLACK
6
CONTINUOUS
10
4.7129711023622045
20
-3.9369868503937009
11
4.7129711023622045
21
-3.307065590551181
0
LINE
8
BLACK
6
CONTINUOUS
10
4.7129711023622045
20
-3.307065590551181
11
4.71312094488189
21
-3.3063122834645671
0
LINE
8
BLACK
6
CONTINUOUS
10
4.71312094488189
20
-3.3063122834645671
11
4.7141862992125985
21
-3.3052469291338582
0
LINE
8
BLACK
6
CONTINUOUS
10
4.7141862992125985
20
-3.3052469291338582
11
4.7149396062992128
21
-3.3050970866141731
0
LINE
8
BLACK
6
CONTINUOUS
10
4.7149396062992128
20
-3.3050970866141731
11
5.3448608661417323
21
-3.3050970866141731
0
LINE
8
BLACK
6
CONTINUOUS
10
5.3448608661417323
20
-3.3050970866141731
11
5.3456141732283466
21
-3.3052469291338582
0
LINE
8
BLACK
6
CONTINUOUS
10
4.7169081102362203
20
-3.3090340944881889
11
4.7169081102362203
21
-3.935018346456693
0
LINE
8
BLACK
6
CONTINUOUS
10
4.7169081102362203
20
-3.935018346456693
11
5.342892362204724
21
-3.935018346456693
0
LINE
8
BLACK
6
CONTINUOUS
10
5.342892362204724
20
-3.935018346456693
11
5.342892362204724
21
-3.3090340944881889
0
LINE
8
BLACK
6
CONTINUOUS
10
5.342892362204724
20
-3.3090340944881889
11
4.7169081102362203
21
-3.3090340944881889
0
LINE
8
BLACK
6
CONTINUOUS
10
6.5330157480314961
20
-3.3052469291338582
11
6.5340811023622045
21
-3.3063122834645671
0
LINE
8
BLACK
6
CONTINUOUS
10
6.5340811023622045
20
-3.3063122834645671
11
6.53423094488189
21
-3.307065590551181
0
LINE
8
BLACK
6
CONTINUOUS
10
6.53423094488189
20
-3.307065590551181
11
6.53423094488189
21
-3.9369868503937009
0
LINE
8
BLACK
6
CONTINUOUS
10
6.53423094488189
20
-3.9369868503937009
11
6.5340811023622045
21
-3.9377401574803148
0
LINE
8
BLACK
6
CONTINUOUS
10
6.5340811023622045
20
-3.9377401574803148
11
6.5330157480314961
21
-3.9388055118110237
0
LINE
8
BLACK
6
CONTINUOUS
10
6.5330157480314961
20
-3.9388055118110237
11
6.5322624409448817
21
-3.9389553543307088
0
LINE
8
BLACK
6
CONTINUOUS
10
6.5322624409448817
20
-3.9389553543307088
11
5.9023411811023623
21
-3.9389553543307088
0
LINE
8
BLACK
6
CONTINUOUS
10
5.9023411811023623
20
-3.9389553543307088
11
5.9015878740157479
21
-3.9388055118110237
0
LINE
8
BLACK
6
CONTINUOUS
10
5.9015878740157479
20
-3.9388055118110237
11
5.9005225196850395
21
-3.9377401574803148
0
LINE
8
BLACK
6
CONTINUOUS
10
5.9005225196850395
20
-3.9377401574803148
11
5.900372677165354
21
-3.9369868503937009
0
LINE
8
BLACK
6
CONTINUOUS
10
5.900372677165354
20
-3.9369868503937009
11
5.900372677165354
21
-3.307065590551181
0
LINE
8
BLACK
6
CONTINUOUS
10
5.900372677165354
20
-3.307065590551181
11
5.9005225196850395
21
-3.3063122834645671
0
LINE
8
BLACK
6
CONTINUOUS
10
5.9005225196850395
20
-3.3063122834645671
11
5.9015878740157479
21
-3.3052469291338582
0
LINE
8
BLACK
6
CONTINUOUS
10
5.9015878740157479
20
-3.3052469291338582
11
5.9023411811023623
21
-3.3050970866141731
0
LINE
8
BLACK
6
CONTINUOUS
10
5.9023411811023623
20
-3.3050970866141731
11
6.5322624409448817
21
-3.3050970866141731
0
LINE
8
BLACK
6
CONTINUOUS
10
6.5322624409448817
20
-3.3050970866141731
11
6.5330157480314961
21
-3.3052469291338582
0
LINE
8
BLACK
6
CONTINUOUS
10
5.9043096850393697
20
-3.3090340944881889
11
5.9043096850393697
21
-3.935018346456693
0
LINE
8
BLACK
6
CONTINUOUS
10
5.9043096850393697
20
-3.935018346456693
11
6.5302939370078743
21
-3.935018346456693
0
LINE
8
BLACK
6
CONTINUOUS
10
6.5302939370078743
20
-3.935018346456693
11
6.5302939370078743
21
-3.3090340944881889
0
LINE
8
BLACK
6
CONTINUOUS
10
6.5302939370078743
20
-3.3090340944881889
11
5.9043096850393697
21
-3.3090340944881889
0
LINE
8
BLACK
6
CONTINUOUS
10
11.8479763779527563
20
-3.0296563779527559
11
11.8490417322834638
21
-3.0307217322834643
0
LINE
8
BLACK
6
CONTINUOUS
10
11.8490417322834638
20
-3.0307217322834643
11
11.8491915748031502
21
-3.0314750393700787
0
LINE
8
BLACK
6
CONTINUOUS
10
11.8491915748031502
20
-3.0314750393700787
11
11.8491915748031502
21
-3.6613962992125981
0
LINE
8
BLACK
6
CONTINUOUS
10
11.8491915748031502
20
-3.6613962992125981
11
11.8490417322834638
21
-3.6621496062992125
0
LINE
8
BLACK
6
CONTINUOUS
10
11.8490417322834638
20
-3.6621496062992125
11
11.8479763779527563
21
-3.6632149606299214
0
LINE
8
BLACK
6
CONTINUOUS
10
11.8479763779527563
20
-3.6632149606299214
11
11.847223070866141
21
-3.663364803149606
0
LINE
8
BLACK
6
CONTINUOUS
10
11.847223070866141
20
-3.663364803149606
11
11.2173018110236224
21
-3.663364803149606
0
LINE
8
BLACK
6
CONTINUOUS
10
11.2173018110236224
20
-3.663364803149606
11
11.2165485039370072
21
-3.6632149606299214
0
LINE
8
BLACK
6
CONTINUOUS
10
11.2165485039370072
20
-3.6632149606299214
11
11.2154831496062997
21
-3.6621496062992125
0
LINE
8
BLACK
6
CONTINUOUS
10
11.2154831496062997
20
-3.6621496062992125
11
11.2153333070866132
21
-3.6613962992125981
0
LINE
8
BLACK
6
CONTINUOUS
10
11.2153333070866132
20
-3.6613962992125981
11
11.2153333070866132
21
-3.0314750393700787
0
LINE
8
BLACK
6
CONTINUOUS
10
11.2153333070866132
20
-3.0314750393700787
11
11.2154831496062997
21
-3.0307217322834643
0
LINE
8
BLACK
6
CONTINUOUS
10
11.2154831496062997
20
-3.0307217322834643
11
11.2165485039370072
21
-3.0296563779527559
0
LINE
8
BLACK
6
CONTINUOUS
10
11.2165485039370072
20
-3.0296563779527559
11
11.2173018110236224
21
-3.0295065354330708
0
LINE
8
BLACK
6
CONTINUOUS
10
11.2173018110236224
20
-3.0295065354330708
11
11.847223070866141
21
-3.0295065354330708
0
LINE
8
BLACK
6
CONTINUOUS
10
11.847223070866141
20
-3.0295065354330708
11
11.8479763779527563
21
-3.0296563779527559
0
LINE
8
BLACK
6
CONTINUOUS
10
11.2192703149606299
20
-3.0334435433070865
11
11.2192703149606299
21
-3.6594277952755903
0
LINE
8
BLACK
6
CONTINUOUS
10
11.2192703149606299
20
-3.6594277952755903
11
11.8452545669291336
21
-3.6594277952755903
0
LINE
8
BLACK
6
CONTINUOUS
10
11.8452545669291336
20
-3.6594277952755903
11
11.8452545669291336
21
-3.0334435433070865
0
LINE
8
BLACK
6
CONTINUOUS
10
11.8452545669291336
20
-3.0334435433070865
11
11.2192703149606299
21
-3.0334435433070865
0
LINE
8
BLACK
6
CONTINUOUS
10
9.6038818897637785
20
-2.9115461417322832
11
9.6049472440944879
21
-2.9126114960629921
0
LINE
8
BLACK
6
CONTINUOUS
10
9.6049472440944879
20
-2.9126114960629921
11
9.6050970866141725
21
-2.9133648031496064
0
LINE
8
BLACK
6
CONTINUOUS
10
9.6050970866141725
20
-2.9133648031496064
11
9.6050970866141725
21
-3.5432860629921259
0
LINE
8
BLACK
6
CONTINUOUS
10
9.6050970866141725
20
-3.5432860629921259
11
9.6049472440944879
21
-3.5440393700787403
0
LINE
8
BLACK
6
CONTINUOUS
10
9.6049472440944879
20
-3.5440393700787403
11
9.6038818897637785
21
-3.5451047244094487
0
LINE
8
BLACK
6
CONTINUOUS
10
9.6038818897637785
20
-3.5451047244094487
11
9.6031285826771651
21
-3.5452545669291338
0
LINE
8
BLACK
6
CONTINUOUS
10
9.6031285826771651
20
-3.5452545669291338
11
8.9732073228346447
21
-3.5452545669291338
0
LINE
8
BLACK
6
CONTINUOUS
10
8.9732073228346447
20
-3.5452545669291338
11
8.9724540157480313
21
-3.5451047244094487
0
LINE
8
BLACK
6
CONTINUOUS
10
8.9724540157480313
20
-3.5451047244094487
11
8.9713886614173219
21
-3.5440393700787403
0
LINE
8
BLACK
6
CONTINUOUS
10
8.9713886614173219
20
-3.5440393700787403
11
8.9712388188976373
21
-3.5432860629921259
0
LINE
8
BLACK
6
CONTINUOUS
10
8.9712388188976373
20
-3.5432860629921259
11
8.9712388188976373
21
-2.9133648031496064
0
LINE
8
BLACK
6
CONTINUOUS
10
8.9712388188976373
20
-2.9133648031496064
11
8.9713886614173219
21
-2.9126114960629921
0
LINE
8
BLACK
6
CONTINUOUS
10
8.9713886614173219
20
-2.9126114960629921
11
8.9724540157480313
21
-2.9115461417322832
0
LINE
8
BLACK
6
CONTINUOUS
10
8.9724540157480313
20
-2.9115461417322832
11
8.9732073228346447
21
-2.9113962992125986
0
LINE
8
BLACK
6
CONTINUOUS
10
8.9732073228346447
20
-2.9113962992125986
11
9.6031285826771651
21
-2.9113962992125986
0
LINE
8
BLACK
6
CONTINUOUS
10
9.6031285826771651
20
-2.9113962992125986
11
9.6038818897637785
21
-2.9115461417322832
0
LINE
8
BLACK
6
CONTINUOUS
10
8.9751758267716539
20
-2.9153333070866143
11
8.9751758267716539
21
-3.541317559055118
0
LINE
8
BLACK
6
CONTINUOUS
10
8.9751758267716539
20
-3.541317559055118
11
9.6011600787401576
21
-3.541317559055118
0
LINE
8
BLACK
6
CONTINUOUS
10
9.6011600787401576
20
-3.541317559055118
11
9.6011600787401576
21
-2.9153333070866143
0
LINE
8
BLACK
6
CONTINUOUS
10
9.6011600787401576
20
-2.9153333070866143
11
8.9751758267716539
21
-2.9153333070866143
0
LINE
8
BLACK
6
CONTINUOUS
10
10.745614173228347
20
-2.9115461417322832
11
10.7466795275590545
21
-2.9126114960629921
0
LINE
8
BLACK
6
CONTINUOUS
10
10.7466795275590545
20
-2.9126114960629921
11
10.7468293700787392
21
-2.9133648031496064
0
LINE
8
BLACK
6
CONTINUOUS
10
10.7468293700787392
20
-2.9133648031496064
11
10.7468293700787392
21
-3.5432860629921259
0
LINE
8
BLACK
6
CONTINUOUS
10
10.7468293700787392
20
-3.5432860629921259
11
10.7466795275590545
21
-3.5440393700787403
0
LINE
8
BLACK
6
CONTINUOUS
10
10.7466795275590545
20
-3.5440393700787403
11
10.745614173228347
21
-3.5451047244094487
0
LINE
8
BLACK
6
CONTINUOUS
10
10.745614173228347
20
-3.5451047244094487
11
10.7448608661417317
21
-3.5452545669291338
0
LINE
8
BLACK
6
CONTINUOUS
10
10.7448608661417317
20
-3.5452545669291338
11
10.1149396062992132
21
-3.5452545669291338
0
LINE
8
BLACK
6
CONTINUOUS
10
10.1149396062992132
20
-3.5452545669291338
11
10.1141862992125979
21
-3.5451047244094487
0
LINE
8
BLACK
6
CONTINUOUS
10
10.1141862992125979
20
-3.5451047244094487
11
10.1131209448818904
21
-3.5440393700787403
0
LINE
8
BLACK
6
CONTINUOUS
10
10.1131209448818904
20
-3.5440393700787403
11
10.112971102362204
21
-3.5432860629921259
0
LINE
8
BLACK
6
CONTINUOUS
10
10.112971102362204
20
-3.5432860629921259
11
10.112971102362204
21
-2.9133648031496064
0
LINE
8
BLACK
6
CONTINUOUS
10
10.112971102362204
20
-2.9133648031496064
11
10.1131209448818904
21
-2.9126114960629921
0
LINE
8
BLACK
6
CONTINUOUS
10
10.1131209448818904
20
-2.9126114960629921
11
10.1141862992125979
21
-2.9115461417322832
0
LINE
8
BLACK
6
CONTINUOUS
10
10.1141862992125979
20
-2.9115461417322832
11
10.1149396062992132
21
-2.9113962992125986
0
LINE
8
BLACK
6
CONTINUOUS
10
10.1149396062992132
20
-2.9113962992125986
11
10.7448608661417317
21
-2.9113962992125986
0
LINE
8
BLACK
6
CONTINUOUS
10
10.7448608661417317
20
-2.9113962992125986
11
10.745614173228347
21
-2.9115461417322832
0
LINE
8
BLACK
6
CONTINUOUS
10
10.1169081102362206
20
-2.9153333070866143
11
10.1169081102362206
21
-3.541317559055118
0
LINE
8
BLACK
6
CONTINUOUS
10
10.1169081102362206
20
-3.541317559055118
11
10.7428923622047243
21
-3.541317559055118
0
LINE
8
BLACK
6
CONTINUOUS
10
10.7428923622047243
20
-3.541317559055118
11
10.7428923622047243
21
-2.9153333070866143
0
LINE
8
BLACK
6
CONTINUOUS
10
10.7428923622047243
20
-2.9153333070866143
11
10.1169081102362206
21
-2.9153333070866143
0
LINE
8
BLACK
6
CONTINUOUS
10
8.698173228346457
20
-2.2422548031496063
11
8.6992385826771645
21
-2.2433201574803148
0
LINE
8
BLACK
6
CONTINUOUS
10
8.6992385826771645
20
-2.2433201574803148
11
8.699388425196851
21
-2.2440734645669291
0
LINE
8
BLACK
6
CONTINUOUS
10
8.699388425196851
20
-2.2440734645669291
11
8.699388425196851
21
-2.8739947244094486
0
LINE
8
BLACK
6
CONTINUOUS
10
8.699388425196851
20
-2.8739947244094486
11
8.6992385826771645
21
-2.8747480314960629
0
LINE
8
BLACK
6
CONTINUOUS
10
8.6992385826771645
20
-2.8747480314960629
11
8.698173228346457
21
-2.8758133858267714
0
LINE
8
BLACK
6
CONTINUOUS
10
8.698173228346457
20
-2.8758133858267714
11
8.6974199212598418
21
-2.8759632283464565
0
LINE
8
BLACK
6
CONTINUOUS
10
8.6974199212598418
20
-2.8759632283464565
11
8.0674986614173232
21
-2.8759632283464565
0
LINE
8
BLACK
6
CONTINUOUS
10
8.0674986614173232
20
-2.8759632283464565
11
8.0667453543307079
21
-2.8758133858267714
0
LINE
8
BLACK
6
CONTINUOUS
10
8.0667453543307079
20
-2.8758133858267714
11
8.0656800000000004
21
-2.8747480314960629
0
LINE
8
BLACK
6
CONTINUOUS
10
8.0656800000000004
20
-2.8747480314960629
11
8.065530157480314
21
-2.8739947244094486
0
LINE
8
BLACK
6
CONTINUOUS
10
8.065530157480314
20
-2.8739947244094486
11
8.065530157480314
21
-2.2440734645669291
0
LINE
8
BLACK
6
CONTINUOUS
10
8.065530157480314
20
-2.2440734645669291
11
8.0656800000000004
21
-2.2433201574803148
0
LINE
8
BLACK
6
CONTINUOUS
10
8.0656800000000004
20
-2.2433201574803148
11
8.0667453543307079
21
-2.2422548031496063
0
LINE
8
BLACK
6
CONTINUOUS
10
8.0667453543307079
20
-2.2422548031496063
11
8.0674986614173232
21
-2.2421049606299213
0
LINE
8
BLACK
6
CONTINUOUS
10
8.0674986614173232
20
-2.2421049606299213
11
8.6974199212598418
21
-2.2421049606299213
0
LINE
8
BLACK
6
CONTINUOUS
10
8.6974199212598418
20
-2.2421049606299213
11
8.698173228346457
21
-2.2422548031496063
0
LINE
8
BLACK
6
CONTINUOUS
10
8.0694671653543306
20
-2.246041968503937
11
8.0694671653543306
21
-2.8720262204724407
0
LINE
8
BLACK
6
CONTINUOUS
10
8.0694671653543306
20
-2.8720262204724407
11
8.6954514173228343
21
-2.8720262204724407
0
LINE
8
BLACK
6
CONTINUOUS
10
8.6954514173228343
20
-2.8720262204724407
11
8.6954514173228343
21
-2.246041968503937
0
LINE
8
BLACK
6
CONTINUOUS
10
8.6954514173228343
20
-2.246041968503937
11
8.0694671653543306
21
-2.246041968503937
0
LINE
8
BLACK
6
CONTINUOUS
10
3.4424645669291336
20
-1.6320185826771654
11
3.4435299212598425
21
-1.633083937007874
0
LINE
8
BLACK
6
CONTINUOUS
10
3.4435299212598425
20
-1.633083937007874
11
3.4436797637795276
21
-1.6338372440944882
0
LINE
8
BLACK
6
CONTINUOUS
10
3.4436797637795276
20
-1.6338372440944882
11
3.4436797637795276
21
-2.2637585039370078
0
LINE
8
BLACK
6
CONTINUOUS
10
3.4436797637795276
20
-2.2637585039370078
11
3.4435299212598425
21
-2.2645118110236222
0
LINE
8
BLACK
6
CONTINUOUS
10
3.4435299212598425
20
-2.2645118110236222
11
3.4424645669291336
21
-2.2655771653543306
0
LINE
8
BLACK
6
CONTINUOUS
10
3.4424645669291336
20
-2.2655771653543306
11
3.4417112598425197
21
-2.2657270078740157
0
LINE
8
BLACK
6
CONTINUOUS
10
3.4417112598425197
20
-2.2657270078740157
11
2.8117899999999998
21
-2.2657270078740157
0
LINE
8
BLACK
6
CONTINUOUS
10
2.8117899999999998
20
-2.2657270078740157
11
2.8110366929133859
21
-2.2655771653543306
0
LINE
8
BLACK
6
CONTINUOUS
10
2.8110366929133859
20
-2.2655771653543306
11
2.809971338582677
21
-2.2645118110236222
0
LINE
8
BLACK
6
CONTINUOUS
10
2.809971338582677
20
-2.2645118110236222
11
2.8098214960629919
21
-2.2637585039370078
0
LINE
8
BLACK
6
CONTINUOUS
10
2.8098214960629919
20
-2.2637585039370078
11
2.8098214960629919
21
-1.6338372440944882
0
LINE
8
BLACK
6
CONTINUOUS
10
2.8098214960629919
20
-1.6338372440944882
11
2.809971338582677
21
-1.633083937007874
0
LINE
8
BLACK
6
CONTINUOUS
10
2.809971338582677
20
-1.633083937007874
11
2.8110366929133859
21
-1.6320185826771654
0
LINE
8
BLACK
6
CONTINUOUS
10
2.8110366929133859
20
-1.6320185826771654
11
2.8117899999999998
21
-1.6318687401574803
0
LINE
8
BLACK
6
CONTINUOUS
10
2.8117899999999998
20
-1.6318687401574803
11
3.4417112598425197
21
-1.6318687401574803
0
LINE
8
BLACK
6
CONTINUOUS
10
3.4417112598425197
20
-1.6318687401574803
11
3.4424645669291336
21
-1.6320185826771654
0
LINE
8
BLACK
6
CONTINUOUS
10
2.8137585039370077
20
-1.635805748031496
11
2.8137585039370077
21
-2.26179
0
LINE
8
BLACK
6
CONTINUOUS
10
2.8137585039370077
20
-2.26179
11
3.4397427559055118
21
-2.26179
0
LINE
8
BLACK
6
CONTINUOUS
10
3.4397427559055118
20
-2.26179
11
3.4397427559055118
21
-1.635805748031496
0
LINE
8
BLACK
6
CONTINUOUS
10
3.4397427559055118
20
-1.635805748031496
11
2.8137585039370077
21
-1.635805748031496
0
LINE
8
BLACK
6
CONTINUOUS
10
4.6235669291338581
20
-1.6320185826771654
11
4.6246322834645666
21
-1.633083937007874
0
LINE
8
BLACK
6
CONTINUOUS
10
4.6246322834645666
20
-1.633083937007874
11
4.6247821259842521
21
-1.6338372440944882
0
LINE
8
BLACK
6
CONTINUOUS
10
4.6247821259842521
20
-1.6338372440944882
11
4.6247821259842521
21
-2.2637585039370078
0
LINE
8
BLACK
6
CONTINUOUS
10
4.6247821259842521
20
-2.2637585039370078
11
4.6246322834645666
21
-2.2645118110236222
0
LINE
8
BLACK
6
CONTINUOUS
10
4.6246322834645666
20
-2.2645118110236222
11
4.6235669291338581
21
-2.2655771653543306
0
LINE
8
BLACK
6
CONTINUOUS
10
4.6235669291338581
20
-2.2655771653543306
11
4.6228136220472438
21
-2.2657270078740157
0
LINE
8
BLACK
6
CONTINUOUS
10
4.6228136220472438
20
-2.2657270078740157
11
3.9928923622047243
21
-2.2657270078740157
0
LINE
8
BLACK
6
CONTINUOUS
10
3.9928923622047243
20
-2.2657270078740157
11
3.99213905511811
21
-2.2655771653543306
0
LINE
8
BLACK
6
CONTINUOUS
10
3.99213905511811
20
-2.2655771653543306
11
3.9910737007874015
21
-2.2645118110236222
0
LINE
8
BLACK
6
CONTINUOUS
10
3.9910737007874015
20
-2.2645118110236222
11
3.9909238582677165
21
-2.2637585039370078
0
LINE
8
BLACK
6
CONTINUOUS
10
3.9909238582677165
20
-2.2637585039370078
11
3.9909238582677165
21
-1.6338372440944882
0
LINE
8
BLACK
6
CONTINUOUS
10
3.9909238582677165
20
-1.6338372440944882
11
3.9910737007874015
21
-1.633083937007874
0
LINE
8
BLACK
6
CONTINUOUS
10
3.9910737007874015
20
-1.633083937007874
11
3.99213905511811
21
-1.6320185826771654
0
LINE
8
BLACK
6
CONTINUOUS
10
3.99213905511811
20
-1.6320185826771654
11
3.9928923622047243
21
-1.6318687401574803
0
LINE
8
BLACK
6
CONTINUOUS
10
3.9928923622047243
20
-1.6318687401574803
11
4.6228136220472438
21
-1.6318687401574803
0
LINE
8
BLACK
6
CONTINUOUS
10
4.6228136220472438
20
-1.6318687401574803
11
4.6235669291338581
21
-1.6320185826771654
0
LINE
8
BLACK
6
CONTINUOUS
10
3.9948608661417322
20
-1.635805748031496
11
3.9948608661417322
21
-2.26179
0
LINE
8
BLACK
6
CONTINUOUS
10
3.9948608661417322
20
-2.26179
11
4.6208451181102363
21
-2.26179
0
LINE
8
BLACK
6
CONTINUOUS
10
4.6208451181102363
20
-2.26179
11
4.6208451181102363
21
-1.635805748031496
0
LINE
8
BLACK
6
CONTINUOUS
10
4.6208451181102363
20
-1.635805748031496
11
3.9948608661417322
21
-1.635805748031496
0
LINE
8
BLACK
6
CONTINUOUS
10
5.8046692913385822
20
-1.6320185826771654
11
5.8057346456692915
21
-1.633083937007874
0
LINE
8
BLACK
6
CONTINUOUS
10
5.8057346456692915
20
-1.633083937007874
11
5.8058844881889762
21
-1.6338372440944882
0
LINE
8
BLACK
6
CONTINUOUS
10
5.8058844881889762
20
-1.6338372440944882
11
5.8058844881889762
21
-2.2637585039370078
0
LINE
8
BLACK
6
CONTINUOUS
10
5.8058844881889762
20
-2.2637585039370078
11
5.8057346456692915
21
-2.2645118110236222
0
LINE
8
BLACK
6
CONTINUOUS
10
5.8057346456692915
20
-2.2645118110236222
11
5.8046692913385822
21
-2.2655771653543306
0
LINE
8
BLACK
6
CONTINUOUS
10
5.8046692913385822
20
-2.2655771653543306
11
5.8039159842519688
21
-2.2657270078740157
0
LINE
8
BLACK
6
CONTINUOUS
10
5.8039159842519688
20
-2.2657270078740157
11
5.1739947244094484
21
-2.2657270078740157
0
LINE
8
BLACK
6
CONTINUOUS
10
5.1739947244094484
20
-2.2657270078740157
11
5.1732414173228349
21
-2.2655771653543306
0
LINE
8
BLACK
6
CONTINUOUS
10
5.1732414173228349
20
-2.2655771653543306
11
5.1721760629921256
21
-2.2645118110236222
0
LINE
8
BLACK
6
CONTINUOUS
10
5.1721760629921256
20
-2.2645118110236222
11
5.172026220472441
21
-2.2637585039370078
0
LINE
8
BLACK
6
CONTINUOUS
10
5.172026220472441
20
-2.2637585039370078
11
5.172026220472441
21
-1.6338372440944882
0
LINE
8
BLACK
6
CONTINUOUS
10
5.172026220472441
20
-1.6338372440944882
11
5.1721760629921256
21
-1.633083937007874
0
LINE
8
BLACK
6
CONTINUOUS
10
5.1721760629921256
20
-1.633083937007874
11
5.1732414173228349
21
-1.6320185826771654
0
LINE
8
BLACK
6
CONTINUOUS
10
5.1732414173228349
20
-1.6320185826771654
11
5.1739947244094484
21
-1.6318687401574803
0
LINE
8
BLACK
6
CONTINUOUS
10
5.1739947244094484
20
-1.6318687401574803
11
5.8039159842519688
21
-1.6318687401574803
0
LINE
8
BLACK
6
CONTINUOUS
10
5.8039159842519688
20
-1.6318687401574803
11
5.8046692913385822
21
-1.6320185826771654
0
LINE
8
BLACK
6
CONTINUOUS
10
5.1759632283464567
20
-1.635805748031496
11
5.1759632283464567
21
-2.26179
0
LINE
8
BLACK
6
CONTINUOUS
10
5.1759632283464567
20
-2.26179
11
5.8019474803149604
21
-2.26179
0
LINE
8
BLACK
6
CONTINUOUS
10
5.8019474803149604
20
-2.26179
11
5.8019474803149604
21
-1.635805748031496
0
LINE
8
BLACK
6
CONTINUOUS
10
5.8019474803149604
20
-1.635805748031496
11
5.1759632283464567
21
-1.635805748031496
0
LINE
8
BLACK
6
CONTINUOUS
10
6.9857716535433072
20
-1.6320185826771654
11
6.9868370078740156
21
-1.633083937007874
0
LINE
8
BLACK
6
CONTINUOUS
10
6.9868370078740156
20
-1.633083937007874
11
6.9869868503937003
21
-1.6338372440944882
0
LINE
8
BLACK
6
CONTINUOUS
10
6.9869868503937003
20
-1.6338372440944882
11
6.9869868503937003
21
-2.2637585039370078
0
LINE
8
BLACK
6
CONTINUOUS
10
6.9869868503937003
20
-2.2637585039370078
11
6.9868370078740156
21
-2.2645118110236222
0
LINE
8
BLACK
6
CONTINUOUS
10
6.9868370078740156
20
-2.2645118110236222
11
6.9857716535433072
21
-2.2655771653543306
0
LINE
8
BLACK
6
CONTINUOUS
10
6.9857716535433072
20
-2.2655771653543306
11
6.9850183464566928
21
-2.2657270078740157
0
LINE
8
BLACK
6
CONTINUOUS
10
6.9850183464566928
20
-2.2657270078740157
11
6.3550970866141734
21
-2.2657270078740157
0
LINE
8
BLACK
6
CONTINUOUS
10
6.3550970866141734
20
-2.2657270078740157
11
6.354343779527559
21
-2.2655771653543306
0
LINE
8
BLACK
6
CONTINUOUS
10
6.354343779527559
20
-2.2655771653543306
11
6.3532784251968506
21
-2.2645118110236222
0
LINE
8
BLACK
6
CONTINUOUS
10
6.3532784251968506
20
-2.2645118110236222
11
6.3531285826771651
21
-2.2637585039370078
0
LINE
8
BLACK
6
CONTINUOUS
10
6.3531285826771651
20
-2.2637585039370078
11
6.3531285826771651
21
-1.6338372440944882
0
LINE
8
BLACK
6
CONTINUOUS
10
6.3531285826771651
20
-1.6338372440944882
11
6.3532784251968506
21
-1.633083937007874
0
LINE
8
BLACK
6
CONTINUOUS
10
6.3532784251968506
20
-1.633083937007874
11
6.354343779527559
21
-1.6320185826771654
0
LINE
8
BLACK
6
CONTINUOUS
10
6.354343779527559
20
-1.6320185826771654
11
6.3550970866141734
21
-1.6318687401574803
0
LINE
8
BLACK
6
CONTINUOUS
10
6.3550970866141734
20
-1.6318687401574803
11
6.9850183464566928
21
-1.6318687401574803
0
LINE
8
BLACK
6
CONTINUOUS
10
6.9850183464566928
20
-1.6318687401574803
11
6.9857716535433072
21
-1.6320185826771654
0
LINE
8
BLACK
6
CONTINUOUS
10
6.3570655905511808
20
-1.635805748031496
11
6.3570655905511808
21
-2.26179
0
LINE
8
BLACK
6
CONTINUOUS
10
6.3570655905511808
20
-2.26179
11
6.9830498425196845
21
-2.26179
0
LINE
8
BLACK
6
CONTINUOUS
10
6.9830498425196845
20
-2.26179
11
6.9830498425196845
21
-1.635805748031496
0
LINE
8
BLACK
6
CONTINUOUS
10
6.9830498425196845
20
-1.635805748031496
11
6.3570655905511808
21
-1.635805748031496
0
LINE
8
BLACK
6
CONTINUOUS
10
2.2198891732283466
20
-1.3541570866141732
11
2.2295837795275588
21
-1.3573070472440945
0
LINE
8
BLACK
6
CONTINUOUS
10
2.2295837795275588
20
-1.3573070472440945
11
2.2386662598425198
21
-1.3619348031496064
0
LINE
8
BLACK
6
CONTINUOUS
10
2.2386662598425198
20
-1.3619348031496064
11
2.2469129527559053
21
-1.367926377952756
0
LINE
8
BLACK
6
CONTINUOUS
10
2.2469129527559053
20
-1.367926377952756
11
2.254120866141732
21
-1.3751342913385827
0
LINE
8
BLACK
6
CONTINUOUS
10
2.254120866141732
20
-1.3751342913385827
11
2.2601124409448818
21
-1.3833809842519684
0
LINE
8
BLACK
6
CONTINUOUS
10
2.2601124409448818
20
-1.3833809842519684
11
2.2647401968503935
21
-1.3924634645669292
0
LINE
8
BLACK
6
CONTINUOUS
10
2.2647401968503935
20
-1.3924634645669292
11
2.267890157480315
21
-1.4021580708661416
0
LINE
8
BLACK
6
CONTINUOUS
10
2.267890157480315
20
-1.4021580708661416
11
2.2694848031496062
21
-1.4122260629921259
0
LINE
8
BLACK
6
CONTINUOUS
10
2.2694848031496062
20
-1.4122260629921259
11
2.2694848031496062
21
-1.4224196062992125
0
LINE
8
BLACK
6
CONTINUOUS
10
2.2694848031496062
20
-1.4224196062992125
11
2.267890157480315
21
-1.4324875984251968
0
LINE
8
BLACK
6
CONTINUOUS
10
2.267890157480315
20
-1.4324875984251968
11
2.2647401968503935
21
-1.4421822047244095
0
LINE
8
BLACK
6
CONTINUOUS
10
2.2647401968503935
20
-1.4421822047244095
11
2.2601124409448818
21
-1.45126468503937
0
LINE
8
BLACK
6
CONTINUOUS
10
2.2601124409448818
20
-1.45126468503937
11
2.254120866141732
21
-1.4595113779527558
0
LINE
8
BLACK
6
CONTINUOUS
10
2.254120866141732
20
-1.4595113779527558
11
2.2469129527559053
21
-1.4667192913385827
0
LINE
8
BLACK
6
CONTINUOUS
10
2.2469129527559053
20
-1.4667192913385827
11
2.2386662598425198
21
-1.4727108661417323
0
LINE
8
BLACK
6
CONTINUOUS
10
2.2386662598425198
20
-1.4727108661417323
11
2.2295837795275588
21
-1.477338622047244
0
LINE
8
BLACK
6
CONTINUOUS
10
2.2295837795275588
20
-1.477338622047244
11
2.2198891732283466
21
-1.4804885826771652
0
LINE
8
BLACK
6
CONTINUOUS
10
2.2198891732283466
20
-1.4804885826771652
11
2.2098211811023623
21
-1.4820832283464567
0
LINE
8
BLACK
6
CONTINUOUS
10
2.2098211811023623
20
-1.4820832283464567
11
2.1996276377952757
21
-1.4820832283464567
0
LINE
8
BLACK
6
CONTINUOUS
10
2.1996276377952757
20
-1.4820832283464567
11
2.1895596456692914
21
-1.4804885826771652
0
LINE
8
BLACK
6
CONTINUOUS
10
2.1895596456692914
20
-1.4804885826771652
11
2.1798650393700787
21
-1.477338622047244
0
LINE
8
BLACK
6
CONTINUOUS
10
2.1798650393700787
20
-1.477338622047244
11
2.1707825590551182
21
-1.4727108661417323
0
LINE
8
BLACK
6
CONTINUOUS
10
2.1707825590551182
20
-1.4727108661417323
11
2.1625358661417322
21
-1.4667192913385827
0
LINE
8
BLACK
6
CONTINUOUS
10
2.1625358661417322
20
-1.4667192913385827
11
2.1553279527559055
21
-1.4595113779527558
0
LINE
8
BLACK
6
CONTINUOUS
10
2.1553279527559055
20
-1.4595113779527558
11
2.1493363779527557
21
-1.45126468503937
0
LINE
8
BLACK
6
CONTINUOUS
10
2.1493363779527557
20
-1.45126468503937
11
2.144708622047244
21
-1.4421822047244095
0
LINE
8
BLACK
6
CONTINUOUS
10
2.144708622047244
20
-1.4421822047244095
11
2.141558661417323
21
-1.4324875984251968
0
LINE
8
BLACK
6
CONTINUOUS
10
2.141558661417323
20
-1.4324875984251968
11
2.1399640157480313
21
-1.4224196062992125
0
LINE
8
BLACK
6
CONTINUOUS
10
2.1399640157480313
20
-1.4224196062992125
11
2.1399640157480313
21
-1.412520157480315
0
LINE
8
BLACK
6
CONTINUOUS
10
2.1399640157480313
20
-1.412520157480315
11
2.1399640157480313
21
-1.4122260629921259
0
LINE
8
BLACK
6
CONTINUOUS
10
2.1399640157480313
20
-1.4122260629921259
11
2.141558661417323
21
-1.4021580708661416
0
LINE
8
BLACK
6
CONTINUOUS
10
2.141558661417323
20
-1.4021580708661416
11
2.144708622047244
21
-1.3924634645669292
0
LINE
8
BLACK
6
CONTINUOUS
10
2.144708622047244
20
-1.3924634645669292
11
2.1493363779527557
21
-1.3833809842519684
0
LINE
8
BLACK
6
CONTINUOUS
10
2.1493363779527557
20
-1.3833809842519684
11
2.1553279527559055
21
-1.3751342913385827
0
LINE
8
BLACK
6
CONTINUOUS
10
2.1553279527559055
20
-1.3751342913385827
11
2.1625358661417322
21
-1.367926377952756
0
LINE
8
BLACK
6
CONTINUOUS
10
2.1625358661417322
20
-1.367926377952756
11
2.1707825590551182
21
-1.3619348031496064
0
LINE
8
BLACK
6
CONTINUOUS
10
2.1707825590551182
20
-1.3619348031496064
11
2.1798650393700787
21
-1.3573070472440945
0
LINE
8
BLACK
6
CONTINUOUS
10
2.1798650393700787
20
-1.3573070472440945
11
2.1895596456692914
21
-1.3541570866141732
0
LINE
8
BLACK
6
CONTINUOUS
10
2.1895596456692914
20
-1.3541570866141732
11
2.1996276377952757
21
-1.3525624409448818
0
LINE
8
BLACK
6
CONTINUOUS
10
2.1996276377952757
20
-1.3525624409448818
11
2.2098211811023623
21
-1.3525624409448818
0
LINE
8
BLACK
6
CONTINUOUS
10
2.2098211811023623
20
-1.3525624409448818
11
2.2198891732283466
21
-1.3541570866141732
0
LINE
8
BLACK
6
CONTINUOUS
10
2.1437007874015745
20
-1.4221255118110236
11
2.1452033858267714
21
-1.4316125590551181
0
LINE
8
BLACK
6
CONTINUOUS
10
2.1452033858267714
20
-1.4316125590551181
11
2.1481716141732283
21
-1.4407477952755905
0
LINE
8
BLACK
6
CONTINUOUS
10
2.1481716141732283
20
-1.4407477952755905
11
2.1525323228346456
21
-1.4493061811023622
0
LINE
8
BLACK
6
CONTINUOUS
10
2.1525323228346456
20
-1.4493061811023622
11
2.158178188976378
21
-1.4570770472440944
0
LINE
8
BLACK
6
CONTINUOUS
10
2.158178188976378
20
-1.4570770472440944
11
2.1649701968503936
21
-1.4638690551181102
0
LINE
8
BLACK
6
CONTINUOUS
10
2.1649701968503936
20
-1.4638690551181102
11
2.172741062992126
21
-1.4695149212598424
0
LINE
8
BLACK
6
CONTINUOUS
10
2.172741062992126
20
-1.4695149212598424
11
2.1812994488188977
21
-1.4738756299212599
0
LINE
8
BLACK
6
CONTINUOUS
10
2.1812994488188977
20
-1.4738756299212599
11
2.1904346850393699
21
-1.4768438582677166
0
LINE
8
BLACK
6
CONTINUOUS
10
2.1904346850393699
20
-1.4768438582677166
11
2.1999217322834643
21
-1.4783464566929134
0
LINE
8
BLACK
6
CONTINUOUS
10
2.1999217322834643
20
-1.4783464566929134
11
2.2095270866141732
21
-1.4783464566929134
0
LINE
8
BLACK
6
CONTINUOUS
10
2.2095270866141732
20
-1.4783464566929134
11
2.2190141338582676
21
-1.4768438582677166
0
LINE
8
BLACK
6
CONTINUOUS
10
2.2190141338582676
20
-1.4768438582677166
11
2.2281493700787403
21
-1.4738756299212599
0
LINE
8
BLACK
6
CONTINUOUS
10
2.2281493700787403
20
-1.4738756299212599
11
2.236707755905512
21
-1.4695149212598424
0
LINE
8
BLACK
6
CONTINUOUS
10
2.236707755905512
20
-1.4695149212598424
11
2.2444786220472439
21
-1.4638690551181102
0
LINE
8
BLACK
6
CONTINUOUS
10
2.2444786220472439
20
-1.4638690551181102
11
2.2512706299212599
21
-1.4570770472440944
0
LINE
8
BLACK
6
CONTINUOUS
10
2.2512706299212599
20
-1.4570770472440944
11
2.2569164960629919
21
-1.4493061811023622
0
LINE
8
BLACK
6
CONTINUOUS
10
2.2569164960629919
20
-1.4493061811023622
11
2.2612772047244092
21
-1.4407477952755905
0
LINE
8
BLACK
6
CONTINUOUS
10
2.2612772047244092
20
-1.4407477952755905
11
2.2642454330708661
21
-1.4316125590551181
0
LINE
8
BLACK
6
CONTINUOUS
10
2.2642454330708661
20
-1.4316125590551181
11
2.265748031496063
21
-1.4221255118110236
0
LINE
8
BLACK
6
CONTINUOUS
10
2.265748031496063
20
-1.4221255118110236
11
2.265748031496063
21
-1.412520157480315
0
LINE
8
BLACK
6
CONTINUOUS
10
2.265748031496063
20
-1.412520157480315
11
2.2642454330708661
21
-1.4030331102362203
0
LINE
8
BLACK
6
CONTINUOUS
10
2.2642454330708661
20
-1.4030331102362203
11
2.2612772047244092
21
-1.3938978740157479
0
LINE
8
BLACK
6
CONTINUOUS
10
2.2612772047244092
20
-1.3938978740157479
11
2.2569164960629919
21
-1.3853394881889765
0
LINE
8
BLACK
6
CONTINUOUS
10
2.2569164960629919
20
-1.3853394881889765
11
2.2512706299212599
21
-1.3775686220472441
0
LINE
8
BLACK
6
CONTINUOUS
10
2.2512706299212599
20
-1.3775686220472441
11
2.2444786220472439
21
-1.3707766141732283
0
LINE
8
BLACK
6
CONTINUOUS
10
2.2444786220472439
20
-1.3707766141732283
11
2.236707755905512
21
-1.365130748031496
0
LINE
8
BLACK
6
CONTINUOUS
10
2.236707755905512
20
-1.365130748031496
11
2.2281493700787403
21
-1.3607700393700788
0
LINE
8
BLACK
6
CONTINUOUS
10
2.2281493700787403
20
-1.3607700393700788
11
2.2190141338582676
21
-1.3578018110236221
0
LINE
8
BLACK
6
CONTINUOUS
10
2.2190141338582676
20
-1.3578018110236221
11
2.2095270866141732
21
-1.3562992125984252
0
LINE
8
BLACK
6
CONTINUOUS
10
2.2095270866141732
20
-1.3562992125984252
11
2.1999217322834643
21
-1.3562992125984252
0
LINE
8
BLACK
6
CONTINUOUS
10
2.1999217322834643
20
-1.3562992125984252
11
2.1904346850393699
21
-1.3578018110236221
0
LINE
8
BLACK
6
CONTINUOUS
10
2.1904346850393699
20
-1.3578018110236221
11
2.1812994488188977
21
-1.3607700393700788
0
LINE
8
BLACK
6
CONTINUOUS
10
2.1812994488188977
20
-1.3607700393700788
11
2.172741062992126
21
-1.365130748031496
0
LINE
8
BLACK
6
CONTINUOUS
10
2.172741062992126
20
-1.365130748031496
11
2.1649701968503936
21
-1.3707766141732283
0
LINE
8
BLACK
6
CONTINUOUS
10
2.1649701968503936
20
-1.3707766141732283
11
2.158178188976378
21
-1.3775686220472441
0
LINE
8
BLACK
6
CONTINUOUS
10
2.158178188976378
20
-1.3775686220472441
11
2.1525323228346456
21
-1.3853394881889765
0
LINE
8
BLACK
6
CONTINUOUS
10
2.1525323228346456
20
-1.3853394881889765
11
2.1481716141732283
21
-1.3938978740157479
0
LINE
8
BLACK
6
CONTINUOUS
10
2.1481716141732283
20
-1.3938978740157479
11
2.1452033858267714
21
-1.4030331102362203
0
LINE
8
BLACK
6
CONTINUOUS
10
2.1452033858267714
20
-1.4030331102362203
11
2.1437007874015745
21
-1.412520157480315
0
LINE
8
BLACK
6
CONTINUOUS
10
2.1437007874015745
20
-1.412520157480315
11
2.1437007874015745
21
-1.4221255118110236
0
LINE
8
BLACK
6
CONTINUOUS
10
7.8102105905511809
20
-1.3551141338582677
11
7.8197583070866141
21
-1.3582163779527558
0
LINE
8
BLACK
6
CONTINUOUS
10
7.8197583070866141
20
-1.3582163779527558
11
7.8287031496062989
21
-1.3627740157480315
0
LINE
8
BLACK
6
CONTINUOUS
10
7.8287031496062989
20
-1.3627740157480315
11
7.8368249212598426
21
-1.3686748031496063
0
LINE
8
BLACK
6
CONTINUOUS
10
7.8368249212598426
20
-1.3686748031496063
11
7.8439236220472441
21
-1.3757735039370078
0
LINE
8
BLACK
6
CONTINUOUS
10
7.8439236220472441
20
-1.3757735039370078
11
7.8498244094488188
21
-1.3838952755905511
0
LINE
8
BLACK
6
CONTINUOUS
10
7.8498244094488188
20
-1.3838952755905511
11
7.8543820472440942
21
-1.3928401181102361
0
LINE
8
BLACK
6
CONTINUOUS
10
7.8543820472440942
20
-1.3928401181102361
11
7.8574842913385821
21
-1.4023878346456693
0
LINE
8
BLACK
6
CONTINUOUS
10
7.8574842913385821
20
-1.4023878346456693
11
7.8590547637795272
21
-1.4123033070866142
0
LINE
8
BLACK
6
CONTINUOUS
10
7.8590547637795272
20
-1.4123033070866142
11
7.8590547637795272
21
-1.4223423622047244
0
LINE
8
BLACK
6
CONTINUOUS
10
7.8590547637795272
20
-1.4223423622047244
11
7.8574842913385821
21
-1.4322578346456694
0
LINE
8
BLACK
6
CONTINUOUS
10
7.8574842913385821
20
-1.4322578346456694
11
7.8543820472440942
21
-1.4418055511811023
0
LINE
8
BLACK
6
CONTINUOUS
10
7.8543820472440942
20
-1.4418055511811023
11
7.8498244094488188
21
-1.4507503937007873
0
LINE
8
BLACK
6
CONTINUOUS
10
7.8498244094488188
20
-1.4507503937007873
11
7.8439236220472441
21
-1.4588721653543306
0
LINE
8
BLACK
6
CONTINUOUS
10
7.8439236220472441
20
-1.4588721653543306
11
7.8368249212598426
21
-1.4659708661417323
0
LINE
8
BLACK
6
CONTINUOUS
10
7.8368249212598426
20
-1.4659708661417323
11
7.8287031496062989
21
-1.471871653543307
0
LINE
8
BLACK
6
CONTINUOUS
10
7.8287031496062989
20
-1.471871653543307
11
7.8197583070866141
21
-1.4764292913385826
0
LINE
8
BLACK
6
CONTINUOUS
10
7.8197583070866141
20
-1.4764292913385826
11
7.8102105905511809
21
-1.4795315354330709
0
LINE
8
BLACK
6
CONTINUOUS
10
7.8102105905511809
20
-1.4795315354330709
11
7.8002951181102365
21
-1.4811020078740158
0
LINE
8
BLACK
6
CONTINUOUS
10
7.8002951181102365
20
-1.4811020078740158
11
7.7902560629921256
21
-1.4811020078740158
0
LINE
8
BLACK
6
CONTINUOUS
10
7.7902560629921256
20
-1.4811020078740158
11
7.7803405905511811
21
-1.4795315354330709
0
LINE
8
BLACK
6
CONTINUOUS
10
7.7803405905511811
20
-1.4795315354330709
11
7.7707928740157479
21
-1.4764292913385826
0
LINE
8
BLACK
6
CONTINUOUS
10
7.7707928740157479
20
-1.4764292913385826
11
7.7618480314960632
21
-1.471871653543307
0
LINE
8
BLACK
6
CONTINUOUS
10
7.7618480314960632
20
-1.471871653543307
11
7.7537262598425194
21
-1.4659708661417323
0
LINE
8
BLACK
6
CONTINUOUS
10
7.7537262598425194
20
-1.4659708661417323
11
7.7466275590551179
21
-1.4588721653543306
0
LINE
8
BLACK
6
CONTINUOUS
10
7.7466275590551179
20
-1.4588721653543306
11
7.7407267716535433
21
-1.4507503937007873
0
LINE
8
BLACK
6
CONTINUOUS
10
7.7407267716535433
20
-1.4507503937007873
11
7.7361691338582679
21
-1.4418055511811023
0
LINE
8
BLACK
6
CONTINUOUS
10
7.7361691338582679
20
-1.4418055511811023
11
7.7330668897637791
21
-1.4322578346456694
0
LINE
8
BLACK
6
CONTINUOUS
10
7.7330668897637791
20
-1.4322578346456694
11
7.7314964173228349
21
-1.4223423622047244
0
LINE
8
BLACK
6
CONTINUOUS
10
7.7314964173228349
20
-1.4223423622047244
11
7.7314964173228349
21
-1.412442716535433
0
LINE
8
BLACK
6
CONTINUOUS
10
7.7314964173228349
20
-1.412442716535433
11
7.7314964173228349
21
-1.4123033070866142
0
LINE
8
BLACK
6
CONTINUOUS
10
7.7314964173228349
20
-1.4123033070866142
11
7.7330668897637791
21
-1.4023878346456693
0
LINE
8
BLACK
6
CONTINUOUS
10
7.7330668897637791
20
-1.4023878346456693
11
7.7361691338582679
21
-1.3928401181102361
0
LINE
8
BLACK
6
CONTINUOUS
10
7.7361691338582679
20
-1.3928401181102361
11
7.7407267716535433
21
-1.3838952755905511
0
LINE
8
BLACK
6
CONTINUOUS
10
7.7407267716535433
20
-1.3838952755905511
11
7.7466275590551179
21
-1.3757735039370078
0
LINE
8
BLACK
6
CONTINUOUS
10
7.7466275590551179
20
-1.3757735039370078
11
7.7537262598425194
21
-1.3686748031496063
0
LINE
8
BLACK
6
CONTINUOUS
10
7.7537262598425194
20
-1.3686748031496063
11
7.7618480314960632
21
-1.3627740157480315
0
LINE
8
BLACK
6
CONTINUOUS
10
7.7618480314960632
20
-1.3627740157480315
11
7.7707928740157479
21
-1.3582163779527558
0
LINE
8
BLACK
6
CONTINUOUS
10
7.7707928740157479
20
-1.3582163779527558
11
7.7803405905511811
21
-1.3551141338582677
0
LINE
8
BLACK
6
CONTINUOUS
10
7.7803405905511811
20
-1.3551141338582677
11
7.7902560629921256
21
-1.3535436614173229
0
LINE
8
BLACK
6
CONTINUOUS
10
7.7902560629921256
20
-1.3535436614173229
11
7.8002951181102365
21
-1.3535436614173229
0
LINE
8
BLACK
6
CONTINUOUS
10
7.8002951181102365
20
-1.3535436614173229
11
7.8102105905511809
21
-1.3551141338582677
0
LINE
8
BLACK
6
CONTINUOUS
10
7.7332677165354333
20
-1.4222029527559055
11
7.7347945669291338
21
-1.4318430314960631
0
LINE
8
BLACK
6
CONTINUOUS
10
7.7347945669291338
20
-1.4318430314960631
11
7.7378106299212597
21
-1.4411255905511811
0
LINE
8
BLACK
6
CONTINUOUS
10
7.7378106299212597
20
-1.4411255905511811
11
7.7422416929133853
21
-1.4498220472440944
0
LINE
8
BLACK
6
CONTINUOUS
10
7.7422416929133853
20
-1.4498220472440944
11
7.7479786220472437
21
-1.4577182283464567
0
LINE
8
BLACK
6
CONTINUOUS
10
7.7479786220472437
20
-1.4577182283464567
11
7.7548801968503938
21
-1.4646198031496063
0
LINE
8
BLACK
6
CONTINUOUS
10
7.7548801968503938
20
-1.4646198031496063
11
7.7627763779527559
21
-1.4703567322834645
0
LINE
8
BLACK
6
CONTINUOUS
10
7.7627763779527559
20
-1.4703567322834645
11
7.7714728346456692
21
-1.4747877952755906
0
LINE
8
BLACK
6
CONTINUOUS
10
7.7714728346456692
20
-1.4747877952755906
11
7.7807553937007876
21
-1.4778038582677164
0
LINE
8
BLACK
6
CONTINUOUS
10
7.7807553937007876
20
-1.4778038582677164
11
7.7903954724409443
21
-1.4793307086614174
0
LINE
8
BLACK
6
CONTINUOUS
10
7.7903954724409443
20
-1.4793307086614174
11
7.8001557086614168
21
-1.4793307086614174
0
LINE
8
BLACK
6
CONTINUOUS
10
7.8001557086614168
20
-1.4793307086614174
11
7.8097957874015744
21
-1.4778038582677164
0
LINE
8
BLACK
6
CONTINUOUS
10
7.8097957874015744
20
-1.4778038582677164
11
7.8190783464566929
21
-1.4747877952755906
0
LINE
8
BLACK
6
CONTINUOUS
10
7.8190783464566929
20
-1.4747877952755906
11
7.8277748031496062
21
-1.4703567322834645
0
LINE
8
BLACK
6
CONTINUOUS
10
7.8277748031496062
20
-1.4703567322834645
11
7.8356709842519683
21
-1.4646198031496063
0
LINE
8
BLACK
6
CONTINUOUS
10
7.8356709842519683
20
-1.4646198031496063
11
7.8425725590551183
21
-1.4577182283464567
0
LINE
8
BLACK
6
CONTINUOUS
10
7.8425725590551183
20
-1.4577182283464567
11
7.8483094881889759
21
-1.4498220472440944
0
LINE
8
BLACK
6
CONTINUOUS
10
7.8483094881889759
20
-1.4498220472440944
11
7.8527405511811024
21
-1.4411255905511811
0
LINE
8
BLACK
6
CONTINUOUS
10
7.8527405511811024
20
-1.4411255905511811
11
7.8557566141732282
21
-1.4318430314960631
0
LINE
8
BLACK
6
CONTINUOUS
10
7.8557566141732282
20
-1.4318430314960631
11
7.8572834645669287
21
-1.4222029527559055
0
LINE
8
BLACK
6
CONTINUOUS
10
7.8572834645669287
20
-1.4222029527559055
11
7.8572834645669287
21
-1.412442716535433
0
LINE
8
BLACK
6
CONTINUOUS
10
7.8572834645669287
20
-1.412442716535433
11
7.8557566141732282
21
-1.4028026377952756
0
LINE
8
BLACK
6
CONTINUOUS
10
7.8557566141732282
20
-1.4028026377952756
11
7.8527405511811024
21
-1.3935200787401574
0
LINE
8
BLACK
6
CONTINUOUS
10
7.8527405511811024
20
-1.3935200787401574
11
7.8483094881889759
21
-1.3848236220472441
0
LINE
8
BLACK
6
CONTINUOUS
10
7.8483094881889759
20
-1.3848236220472441
11
7.8425725590551183
21
-1.376927440944882
0
LINE
8
BLACK
6
CONTINUOUS
10
7.8425725590551183
20
-1.376927440944882
11
7.8356709842519683
21
-1.3700258661417322
0
LINE
8
BLACK
6
CONTINUOUS
10
7.8356709842519683
20
-1.3700258661417322
11
7.8277748031496062
21
-1.3642889370078739
0
LINE
8
BLACK
6
CONTINUOUS
10
7.8277748031496062
20
-1.3642889370078739
11
7.8190783464566929
21
-1.3598578740157481
0
LINE
8
BLACK
6
CONTINUOUS
10
7.8190783464566929
20
-1.3598578740157481
11
7.8097957874015744
21
-1.356841811023622
0
LINE
8
BLACK
6
CONTINUOUS
10
7.8097957874015744
20
-1.356841811023622
11
7.8001557086614168
21
-1.3553149606299213
0
LINE
8
BLACK
6
CONTINUOUS
10
7.8001557086614168
20
-1.3553149606299213
11
7.7903954724409443
21
-1.3553149606299213
0
LINE
8
BLACK
6
CONTINUOUS
10
7.7903954724409443
20
-1.3553149606299213
11
7.7807553937007876
21
-1.356841811023622
0
LINE
8
BLACK
6
CONTINUOUS
10
7.7807553937007876
20
-1.356841811023622
11
7.7714728346456692
21
-1.3598578740157481
0
LINE
8
BLACK
6
CONTINUOUS
10
7.7714728346456692
20
-1.3598578740157481
11
7.7627763779527559
21
-1.3642889370078739
0
LINE
8
BLACK
6
CONTINUOUS
10
7.7627763779527559
20
-1.3642889370078739
11
7.7548801968503938
21
-1.3700258661417322
0
LINE
8
BLACK
6
CONTINUOUS
10
7.7548801968503938
20
-1.3700258661417322
11
7.7479786220472437
21
-1.376927440944882
0
LINE
8
BLACK
6
CONTINUOUS
10
7.7479786220472437
20
-1.376927440944882
11
7.7422416929133853
21
-1.3848236220472441
0
LINE
8
BLACK
6
CONTINUOUS
10
7.7422416929133853
20
-1.3848236220472441
11
7.7378106299212597
21
-1.3935200787401574
0
LINE
8
BLACK
6
CONTINUOUS
10
7.7378106299212597
20
-1.3935200787401574
11
7.7347945669291338
21
-1.4028026377952756
0
LINE
8
BLACK
6
CONTINUOUS
10
7.7347945669291338
20
-1.4028026377952756
11
7.7332677165354333
21
-1.412442716535433
0
LINE
8
BLACK
6
CONTINUOUS
10
7.7332677165354333
20
-1.412442716535433
11
7.7332677165354333
21
-1.4222029527559055
0
LINE
8
BLACK
6
CONTINUOUS
10
13.4401318503937013
20
-1.3551141338582677
11
13.4496795669291327
21
-1.3582163779527558
0
LINE
8
BLACK
6
CONTINUOUS
10
13.4496795669291327
20
-1.3582163779527558
11
13.4586244094488183
21
-1.3627740157480315
0
LINE
8
BLACK
6
CONTINUOUS
10
13.4586244094488183
20
-1.3627740157480315
11
13.4667461811023621
21
-1.3686748031496063
0
LINE
8
BLACK
6
CONTINUOUS
10
13.4667461811023621
20
-1.3686748031496063
11
13.4738448818897627
21
-1.3757735039370078
0
LINE
8
BLACK
6
CONTINUOUS
10
13.4738448818897627
20
-1.3757735039370078
11
13.4797456692913382
21
-1.3838952755905511
0
LINE
8
BLACK
6
CONTINUOUS
10
13.4797456692913382
20
-1.3838952755905511
11
13.4843033070866145
21
-1.3928401181102361
0
LINE
8
BLACK
6
CONTINUOUS
10
13.4843033070866145
20
-1.3928401181102361
11
13.4874055511811015
21
-1.4023878346456693
0
LINE
8
BLACK
6
CONTINUOUS
10
13.4874055511811015
20
-1.4023878346456693
11
13.4889760236220475
21
-1.4123033070866142
0
LINE
8
BLACK
6
CONTINUOUS
10
13.4889760236220475
20
-1.4123033070866142
11
13.4889760236220475
21
-1.4223423622047244
0
LINE
8
BLACK
6
CONTINUOUS
10
13.4889760236220475
20
-1.4223423622047244
11
13.4874055511811015
21
-1.4322578346456694
0
LINE
8
BLACK
6
CONTINUOUS
10
13.4874055511811015
20
-1.4322578346456694
11
13.4843033070866145
21
-1.4418055511811023
0
LINE
8
BLACK
6
CONTINUOUS
10
13.4843033070866145
20
-1.4418055511811023
11
13.4797456692913382
21
-1.4507503937007873
0
LINE
8
BLACK
6
CONTINUOUS
10
13.4797456692913382
20
-1.4507503937007873
11
13.4738448818897627
21
-1.4588721653543306
0
LINE
8
BLACK
6
CONTINUOUS
10
13.4738448818897627
20
-1.4588721653543306
11
13.4667461811023621
21
-1.4659708661417323
0
LINE
8
BLACK
6
CONTINUOUS
10
13.4667461811023621
20
-1.4659708661417323
11
13.4586244094488183
21
-1.471871653543307
0
LINE
8
BLACK
6
CONTINUOUS
10
13.4586244094488183
20
-1.471871653543307
11
13.4496795669291327
21
-1.4764292913385826
0
LINE
8
BLACK
6
CONTINUOUS
10
13.4496795669291327
20
-1.4764292913385826
11
13.4401318503937013
21
-1.4795315354330709
0
LINE
8
BLACK
6
CONTINUOUS
10
13.4401318503937013
20
-1.4795315354330709
11
13.430216377952755
21
-1.4811020078740158
0
LINE
8
BLACK
6
CONTINUOUS
10
13.430216377952755
20
-1.4811020078740158
11
13.420177322834645
21
-1.4811020078740158
0
LINE
8
BLACK
6
CONTINUOUS
10
13.420177322834645
20
-1.4811020078740158
11
13.4102618503937006
21
-1.4795315354330709
0
LINE
8
BLACK
6
CONTINUOUS
10
13.4102618503937006
20
-1.4795315354330709
11
13.4007141338582674
21
-1.4764292913385826
0
LINE
8
BLACK
6
CONTINUOUS
10
13.4007141338582674
20
-1.4764292913385826
11
13.3917692913385817
21
-1.471871653543307
0
LINE
8
BLACK
6
CONTINUOUS
10
13.3917692913385817
20
-1.471871653543307
11
13.3836475196850397
21
-1.4659708661417323
0
LINE
8
BLACK
6
CONTINUOUS
10
13.3836475196850397
20
-1.4659708661417323
11
13.3765488188976374
21
-1.4588721653543306
0
LINE
8
BLACK
6
CONTINUOUS
10
13.3765488188976374
20
-1.4588721653543306
11
13.3706480314960618
21
-1.4507503937007873
0
LINE
8
BLACK
6
CONTINUOUS
10
13.3706480314960618
20
-1.4507503937007873
11
13.3660903937007873
21
-1.4418055511811023
0
LINE
8
BLACK
6
CONTINUOUS
10
13.3660903937007873
20
-1.4418055511811023
11
13.3629881496062985
21
-1.4322578346456694
0
LINE
8
BLACK
6
CONTINUOUS
10
13.3629881496062985
20
-1.4322578346456694
11
13.3614176771653543
21
-1.4223423622047244
0
LINE
8
BLACK
6
CONTINUOUS
10
13.3614176771653543
20
-1.4223423622047244
11
13.3614176771653543
21
-1.412442716535433
0
LINE
8
BLACK
6
CONTINUOUS
10
13.3614176771653543
20
-1.412442716535433
11
13.3614176771653543
21
-1.4123033070866142
0
LINE
8
BLACK
6
CONTINUOUS
10
13.3614176771653543
20
-1.4123033070866142
11
13.3629881496062985
21
-1.4023878346456693
0
LINE
8
BLACK
6
CONTINUOUS
10
13.3629881496062985
20
-1.4023878346456693
11
13.3660903937007873
21
-1.3928401181102361
0
LINE
8
BLACK
6
CONTINUOUS
10
13.3660903937007873
20
-1.3928401181102361
11
13.3706480314960618
21
-1.3838952755905511
0
LINE
8
BLACK
6
CONTINUOUS
10
13.3706480314960618
20
-1.3838952755905511
11
13.3765488188976374
21
-1.3757735039370078
0
LINE
8
BLACK
6
CONTINUOUS
10
13.3765488188976374
20
-1.3757735039370078
11
13.3836475196850397
21
-1.3686748031496063
0
LINE
8
BLACK
6
CONTINUOUS
10
13.3836475196850397
20
-1.3686748031496063
11
13.3917692913385817
21
-1.3627740157480315
0
LINE
8
BLACK
6
CONTINUOUS
10
13.3917692913385817
20
-1.3627740157480315
11
13.4007141338582674
21
-1.3582163779527558
0
LINE
8
BLACK
6
CONTINUOUS
10
13.4007141338582674
20
-1.3582163779527558
11
13.4102618503937006
21
-1.3551141338582677
0
LINE
8
BLACK
6
CONTINUOUS
10
13.4102618503937006
20
-1.3551141338582677
11
13.420177322834645
21
-1.3535436614173229
0
LINE
8
BLACK
6
CONTINUOUS
10
13.420177322834645
20
-1.3535436614173229
11
13.430216377952755
21
-1.3535436614173229
0
LINE
8
BLACK
6
CONTINUOUS
10
13.430216377952755
20
-1.3535436614173229
11
13.4401318503937013
21
-1.3551141338582677
0
LINE
8
BLACK
6
CONTINUOUS
10
13.3631889763779519
20
-1.4222029527559055
11
13.3647158267716524
21
-1.4318430314960631
0
LINE
8
BLACK
6
CONTINUOUS
10
13.3647158267716524
20
-1.4318430314960631
11
13.36773188976378
21
-1.4411255905511811
0
LINE
8
BLACK
6
CONTINUOUS
10
13.36773188976378
20
-1.4411255905511811
11
13.3721629527559056
21
-1.4498220472440944
0
LINE
8
BLACK
6
CONTINUOUS
10
13.3721629527559056
20
-1.4498220472440944
11
13.3778998818897641
21
-1.4577182283464567
0
LINE
8
BLACK
6
CONTINUOUS
10
13.3778998818897641
20
-1.4577182283464567
11
13.3848014566929123
21
-1.4646198031496063
0
LINE
8
BLACK
6
CONTINUOUS
10
13.3848014566929123
20
-1.4646198031496063
11
13.3926976377952744
21
-1.4703567322834645
0
LINE
8
BLACK
6
CONTINUOUS
10
13.3926976377952744
20
-1.4703567322834645
11
13.4013940944881895
21
-1.4747877952755906
0
LINE
8
BLACK
6
CONTINUOUS
10
13.4013940944881895
20
-1.4747877952755906
11
13.4106766535433071
21
-1.4778038582677164
0
LINE
8
BLACK
6
CONTINUOUS
10
13.4106766535433071
20
-1.4778038582677164
11
13.4203167322834638
21
-1.4793307086614174
0
LINE
8
BLACK
6
CONTINUOUS
10
13.4203167322834638
20
-1.4793307086614174
11
13.4300769685039363
21
-1.4793307086614174
0
LINE
8
BLACK
6
CONTINUOUS
10
13.4300769685039363
20
-1.4793307086614174
11
13.4397170472440948
21
-1.4778038582677164
0
LINE
8
BLACK
6
CONTINUOUS
10
13.4397170472440948
20
-1.4778038582677164
11
13.4489996062992123
21
-1.4747877952755906
0
LINE
8
BLACK
6
CONTINUOUS
10
13.4489996062992123
20
-1.4747877952755906
11
13.4576960629921256
21
-1.4703567322834645
0
LINE
8
BLACK
6
CONTINUOUS
10
13.4576960629921256
20
-1.4703567322834645
11
13.4655922440944877
21
-1.4646198031496063
0
LINE
8
BLACK
6
CONTINUOUS
10
13.4655922440944877
20
-1.4646198031496063
11
13.4724938188976378
21
-1.4577182283464567
0
LINE
8
BLACK
6
CONTINUOUS
10
13.4724938188976378
20
-1.4577182283464567
11
13.4782307480314962
21
-1.4498220472440944
0
LINE
8
BLACK
6
CONTINUOUS
10
13.4782307480314962
20
-1.4498220472440944
11
13.4826618110236218
21
-1.4411255905511811
0
LINE
8
BLACK
6
CONTINUOUS
10
13.4826618110236218
20
-1.4411255905511811
11
13.4856778740157477
21
-1.4318430314960631
0
LINE
8
BLACK
6
CONTINUOUS
10
13.4856778740157477
20
-1.4318430314960631
11
13.4872047244094482
21
-1.4222029527559055
0
LINE
8
BLACK
6
CONTINUOUS
10
13.4872047244094482
20
-1.4222029527559055
11
13.4872047244094482
21
-1.412442716535433
0
LINE
8
BLACK
6
CONTINUOUS
10
13.4872047244094482
20
-1.412442716535433
11
13.4856778740157477
21
-1.4028026377952756
0
LINE
8
BLACK
6
CONTINUOUS
10
13.4856778740157477
20
-1.4028026377952756
11
13.4826618110236218
21
-1.3935200787401574
0
LINE
8
BLACK
6
CONTINUOUS
10
13.4826618110236218
20
-1.3935200787401574
11
13.4782307480314962
21
-1.3848236220472441
0
LINE
8
BLACK
6
CONTINUOUS
10
13.4782307480314962
20
-1.3848236220472441
11
13.4724938188976378
21
-1.376927440944882
0
LINE
8
BLACK
6
CONTINUOUS
10
13.4724938188976378
20
-1.376927440944882
11
13.4655922440944877
21
-1.3700258661417322
0
LINE
8
BLACK
6
CONTINUOUS
10
13.4655922440944877
20
-1.3700258661417322
11
13.4576960629921256
21
-1.3642889370078739
0
LINE
8
BLACK
6
CONTINUOUS
10
13.4576960629921256
20
-1.3642889370078739
11
13.4489996062992123
21
-1.3598578740157481
0
LINE
8
BLACK
6
CONTINUOUS
10
13.4489996062992123
20
-1.3598578740157481
11
13.4397170472440948
21
-1.356841811023622
0
LINE
8
BLACK
6
CONTINUOUS
10
13.4397170472440948
20
-1.356841811023622
11
13.4300769685039363
21
-1.3553149606299213
0
LINE
8
BLACK
6
CONTINUOUS
10
13.4300769685039363
20
-1.3553149606299213
11
13.4203167322834638
21
-1.3553149606299213
0
LINE
8
BLACK
6
CONTINUOUS
10
13.4203167322834638
20
-1.3553149606299213
11
13.4106766535433071
21
-1.356841811023622
0
LINE
8
BLACK
6
CONTINUOUS
10
13.4106766535433071
20
-1.356841811023622
11
13.4013940944881895
21
-1.3598578740157481
0
LINE
8
BLACK
6
CONTINUOUS
10
13.4013940944881895
20
-1.3598578740157481
11
13.3926976377952744
21
-1.3642889370078739
0
LINE
8
BLACK
6
CONTINUOUS
10
13.3926976377952744
20
-1.3642889370078739
11
13.3848014566929123
21
-1.3700258661417322
0
LINE
8
BLACK
6
CONTINUOUS
10
13.3848014566929123
20
-1.3700258661417322
11
13.3778998818897641
21
-1.376927440944882
0
LINE
8
BLACK
6
CONTINUOUS
10
13.3778998818897641
20
-1.376927440944882
11
13.3721629527559056
21
-1.3848236220472441
0
LINE
8
BLACK
6
CONTINUOUS
10
13.3721629527559056
20
-1.3848236220472441
11
13.36773188976378
21
-1.3935200787401574
0
LINE
8
BLACK
6
CONTINUOUS
10
13.36773188976378
20
-1.3935200787401574
11
13.3647158267716524
21
-1.4028026377952756
0
LINE
8
BLACK
6
CONTINUOUS
10
13.3647158267716524
20
-1.4028026377952756
11
13.3631889763779519
21
-1.412442716535433
0
LINE
8
BLACK
6
CONTINUOUS
10
13.3631889763779519
20
-1.412442716535433
11
13.3631889763779519
21
-1.4222029527559055
0
LINE
8
BLACK
6
CONTINUOUS
10
13.4645669291338574
20
-1.1791338582677164
11
13.4809852755905517
21
-1.1798129133858268
0
LINE
8
BLACK
6
CONTINUOUS
10
13.4809852755905517
20
-1.1798129133858268
11
13.4972914566929134
21
-1.1818454724409448
0
LINE
8
BLACK
6
CONTINUOUS
10
13.4972914566929134
20
-1.1818454724409448
11
13.5133740944881886
21
-1.1852176771653542
0
LINE
8
BLACK
6
CONTINUOUS
10
13.5133740944881886
20
-1.1852176771653542
11
13.5291233070866141
21
-1.1899064173228346
0
LINE
8
BLACK
6
CONTINUOUS
10
13.5291233070866141
20
-1.1899064173228346
11
13.5444315748031485
21
-1.1958797244094488
0
LINE
8
BLACK
6
CONTINUOUS
10
13.5444315748031485
20
-1.1958797244094488
11
13.5591942519685045
21
-1.2030967716535432
0
LINE
8
BLACK
6
CONTINUOUS
10
13.5591942519685045
20
-1.2030967716535432
11
13.5733105511811019
21
-1.2115082283464567
0
LINE
8
BLACK
6
CONTINUOUS
10
13.5733105511811019
20
-1.2115082283464567
11
13.5866840157480304
21
-1.2210566929133857
0
LINE
8
BLACK
6
CONTINUOUS
10
13.5866840157480304
20
-1.2210566929133857
11
13.5992233070866142
21
-1.2316769291338583
0
LINE
8
BLACK
6
CONTINUOUS
10
13.5992233070866142
20
-1.2316769291338583
11
13.6108427559055123
21
-1.2432963779527559
0
LINE
8
BLACK
6
CONTINUOUS
10
13.6108427559055123
20
-1.2432963779527559
11
13.6214629921259842
21
-1.2558356692913386
0
LINE
8
BLACK
6
CONTINUOUS
10
13.6214629921259842
20
-1.2558356692913386
11
13.6310114566929137
21
-1.2692091338582676
0
LINE
8
BLACK
6
CONTINUOUS
10
13.6310114566929137
20
-1.2692091338582676
11
13.6394229133858271
21
-1.2833254330708661
0
LINE
8
BLACK
6
CONTINUOUS
10
13.6394229133858271
20
-1.2833254330708661
11
13.6466399606299209
21
-1.2980881102362205
0
LINE
8
BLACK
6
CONTINUOUS
10
13.6466399606299209
20
-1.2980881102362205
11
13.6526132677165357
21
-1.3133963779527558
0
LINE
8
BLACK
6
CONTINUOUS
10
13.6526132677165357
20
-1.3133963779527558
11
13.6573020078740157
21
-1.3291455905511811
0
LINE
8
BLACK
6
CONTINUOUS
10
13.6573020078740157
20
-1.3291455905511811
11
13.6606742125984244
21
-1.3452282283464567
0
LINE
8
BLACK
6
CONTINUOUS
10
13.6606742125984244
20
-1.3452282283464567
11
13.6627067716535429
21
-1.3615344094488189
0
LINE
8
BLACK
6
CONTINUOUS
10
13.6627067716535429
20
-1.3615344094488189
11
13.6633858267716537
21
-1.3779527559055118
0
LINE
8
BLACK
6
CONTINUOUS
10
13.6633858267716537
20
-1.3779527559055118
11
13.6633858267716537
21
-9.2519685039370074
0
LINE
8
BLACK
6
CONTINUOUS
10
13.6633858267716537
20
-9.2519685039370074
11
13.6627067716535429
21
-9.2683868503936999
0
LINE
8
BLACK
6
CONTINUOUS
10
13.6627067716535429
20
-9.2683868503936999
11
13.6606742125984244
21
-9.2846930314960634
0
LINE
8
BLACK
6
CONTINUOUS
10
13.6606742125984244
20
-9.2846930314960634
11
13.6573020078740157
21
-9.3007756692913386
0
LINE
8
BLACK
6
CONTINUOUS
10
13.6573020078740157
20
-9.3007756692913386
11
13.6526132677165357
21
-9.3165248818897641
0
LINE
8
BLACK
6
CONTINUOUS
10
13.6526132677165357
20
-9.3165248818897641
11
13.6466399606299209
21
-9.3318331496062985
0
LINE
8
BLACK
6
CONTINUOUS
10
13.6466399606299209
20
-9.3318331496062985
11
13.6394229133858271
21
-9.3465958267716527
0
LINE
8
BLACK
6
CONTINUOUS
10
13.6394229133858271
20
-9.3465958267716527
11
13.6310114566929137
21
-9.3607121259842518
0
LINE
8
BLACK
6
CONTINUOUS
10
13.6310114566929137
20
-9.3607121259842518
11
13.6214629921259842
21
-9.3740855905511804
0
LINE
8
BLACK
6
CONTINUOUS
10
13.6214629921259842
20
-9.3740855905511804
11
13.6108427559055123
21
-9.3866248818897642
0
LINE
8
BLACK
6
CONTINUOUS
10
13.6108427559055123
20
-9.3866248818897642
11
13.5992233070866142
21
-9.3982443307086605
0
LINE
8
BLACK
6
CONTINUOUS
10
13.5992233070866142
20
-9.3982443307086605
11
13.5866840157480304
21
-9.4088645669291342
0
LINE
8
BLACK
6
CONTINUOUS
10
13.5866840157480304
20
-9.4088645669291342
11
13.5733105511811019
21
-9.4184130314960619
0
LINE
8
BLACK
6
CONTINUOUS
10
13.5733105511811019
20
-9.4184130314960619
11
13.5591942519685045
21
-9.4268244881889753
0
LINE
8
BLACK
6
CONTINUOUS
10
13.5591942519685045
20
-9.4268244881889753
11
13.5444315748031485
21
-9.4340415354330709
0
LINE
8
BLACK
6
CONTINUOUS
10
13.5444315748031485
20
-9.4340415354330709
11
13.5291233070866141
21
-9.4400148425196857
0
LINE
8
BLACK
6
CONTINUOUS
10
13.5291233070866141
20
-9.4400148425196857
11
13.5133740944881886
21
-9.4447035826771657
0
LINE
8
BLACK
6
CONTINUOUS
10
13.5133740944881886
20
-9.4447035826771657
11
13.4972914566929134
21
-9.4480757874015744
0
LINE
8
BLACK
6
CONTINUOUS
10
13.4972914566929134
20
-9.4480757874015744
11
13.4809852755905517
21
-9.4501083464566928
0
LINE
8
BLACK
6
CONTINUOUS
10
13.4809852755905517
20
-9.4501083464566928
11
13.4645669291338574
21
-9.4507874015748037
0
LINE
8
BLACK
6
CONTINUOUS
10
13.4645669291338574
20
-9.4507874015748037
11
2.1653543307086616
21
-9.4507874015748037
0
LINE
8
BLACK
6
CONTINUOUS
10
2.1653543307086616
20
-9.4507874015748037
11
2.1489359842519686
21
-9.4501083464566928
0
LINE
8
BLACK
6
CONTINUOUS
10
2.1489359842519686
20
-9.4501083464566928
11
2.132629803149606
21
-9.4480757874015744
0
LINE
8
BLACK
6
CONTINUOUS
10
2.132629803149606
20
-9.4480757874015744
11
2.1165471653543309
21
-9.4447035826771657
0
LINE
8
BLACK
6
CONTINUOUS
10
2.1165471653543309
20
-9.4447035826771657
11
2.1007979527559053
21
-9.4400148425196857
0
LINE
8
BLACK
6
CONTINUOUS
10
2.1007979527559053
20
-9.4400148425196857
11
2.08548968503937
21
-9.4340415354330709
0
LINE
8
BLACK
6
CONTINUOUS
10
2.08548968503937
20
-9.4340415354330709
11
2.0707270078740159
21
-9.4268244881889753
0
LINE
8
BLACK
6
CONTINUOUS
10
2.0707270078740159
20
-9.4268244881889753
11
2.0566107086614172
21
-9.4184130314960619
0
LINE
8
BLACK
6
CONTINUOUS
10
2.0566107086614172
20
-9.4184130314960619
11
2.0432372440944881
21
-9.4088645669291342
0
LINE
8
BLACK
6
CONTINUOUS
10
2.0432372440944881
20
-9.4088645669291342
11
2.0306979527559053
21
-9.3982443307086605
0
LINE
8
BLACK
6
CONTINUOUS
10
2.0306979527559053
20
-9.3982443307086605
11
2.0190785039370076
21
-9.3866248818897642
0
LINE
8
BLACK
6
CONTINUOUS
10
2.0190785039370076
20
-9.3866248818897642
11
2.0084582677165352
21
-9.3740855905511804
0
LINE
8
BLACK
6
CONTINUOUS
10
2.0084582677165352
20
-9.3740855905511804
11
1.9989098031496062
21
-9.3607121259842518
0
LINE
8
BLACK
6
CONTINUOUS
10
1.9989098031496062
20
-9.3607121259842518
11
1.9904983464566928
21
-9.3465958267716527
0
LINE
8
BLACK
6
CONTINUOUS
10
1.9904983464566928
20
-9.3465958267716527
11
1.9832812992125983
21
-9.3318331496062985
0
LINE
8
BLACK
6
CONTINUOUS
10
1.9832812992125983
20
-9.3318331496062985
11
1.9773079921259842
21
-9.3165248818897641
0
LINE
8
BLACK
6
CONTINUOUS
10
1.9773079921259842
20
-9.3165248818897641
11
1.972619251968504
21
-9.3007756692913386
0
LINE
8
BLACK
6
CONTINUOUS
10
1.972619251968504
20
-9.3007756692913386
11
1.9692470472440944
21
-9.2846930314960634
0
LINE
8
BLACK
6
CONTINUOUS
10
1.9692470472440944
20
-9.2846930314960634
11
1.9672144881889764
21
-9.2683868503936999
0
LINE
8
BLACK
6
CONTINUOUS
10
1.9672144881889764
20
-9.2683868503936999
11
1.9665354330708662
21
-9.2519685039370074
0
LINE
8
BLACK
6
CONTINUOUS
10
1.9665354330708662
20
-9.2519685039370074
11
1.9665354330708662
21
-1.3779527559055118
0
LINE
8
BLACK
6
CONTINUOUS
10
1.9665354330708662
20
-1.3779527559055118
11
1.9672144881889764
21
-1.3615344094488189
0
LINE
8
BLACK
6
CONTINUOUS
10
1.9672144881889764
20
-1.3615344094488189
11
1.9692470472440944
21
-1.3452282283464567
0
LINE
8
BLACK
6
CONTINUOUS
10
1.9692470472440944
20
-1.3452282283464567
11
1.972619251968504
21
-1.3291455905511811
0
LINE
8
BLACK
6
CONTINUOUS
10
1.972619251968504
20
-1.3291455905511811
11
1.9773079921259842
21
-1.3133963779527558
0
LINE
8
BLACK
6
CONTINUOUS
10
1.9773079921259842
20
-1.3133963779527558
11
1.9832812992125983
21
-1.2980881102362205
0
LINE
8
BLACK
6
CONTINUOUS
10
1.9832812992125983
20
-1.2980881102362205
11
1.9904983464566928
21
-1.2833254330708661
0
LINE
8
BLACK
6
CONTINUOUS
10
1.9904983464566928
20
-1.2833254330708661
11
1.9989098031496062
21
-1.2692091338582676
0
LINE
8
BLACK
6
CONTINUOUS
10
1.9989098031496062
20
-1.2692091338582676
11
2.0084582677165352
21
-1.2558356692913386
0
LINE
8
BLACK
6
CONTINUOUS
10
2.0084582677165352
20
-1.2558356692913386
11
2.0190785039370076
21
-1.2432963779527559
0
LINE
8
BLACK
6
CONTINUOUS
10
2.0190785039370076
20
-1.2432963779527559
11
2.0306979527559053
21
-1.2316769291338583
0
LINE
8
BLACK
6
CONTINUOUS
10
2.0306979527559053
20
-1.2316769291338583
11
2.0432372440944881
21
-1.2210566929133857
0
LINE
8
BLACK
6
CONTINUOUS
10
2.0432372440944881
20
-1.2210566929133857
11
2.0566107086614172
21
-1.2115082283464567
0
LINE
8
BLACK
6
CONTINUOUS
10
2.0566107086614172
20
-1.2115082283464567
11
2.0707270078740159
21
-1.2030967716535432
0
LINE
8
BLACK
6
CONTINUOUS
10
2.0707270078740159
20
-1.2030967716535432
11
2.08548968503937
21
-1.1958797244094488
0
LINE
8
BLACK
6
CONTINUOUS
10
2.08548968503937
20
-1.1958797244094488
11
2.1007979527559053
21
-1.1899064173228346
0
LINE
8
BLACK
6
CONTINUOUS
10
2.1007979527559053
20
-1.1899064173228346
11
2.1165471653543309
21
-1.1852176771653542
0
LINE
8
BLACK
6
CONTINUOUS
10
2.1165471653543309
20
-1.1852176771653542
11
2.132629803149606
21
-1.1818454724409448
0
LINE
8
BLACK
6
CONTINUOUS
10
2.132629803149606
20
-1.1818454724409448
11
2.1489359842519686
21
-1.1798129133858268
0
LINE
8
BLACK
6
CONTINUOUS
10
2.1489359842519686
20
-1.1798129133858268
11
2.1653543307086616
21
-1.1791338582677164
0
LINE
8
BLACK
6
CONTINUOUS
10
2.1653543307086616
20
-1.1791338582677164
11
13.4645669291338574
21
-1.1791338582677164
0
LINE
8
BLACK
6
CONTINUOUS
10
2.1653543307086616
20
-1.1830708661417322
11
2.156845590551181
21
-1.1830708661417322
0
LINE
8
BLACK
6
CONTINUOUS
10
2.156845590551181
20
-1.1830708661417322
11
2.1398929133858267
21
-1.1845540157480314
0
LINE
8
BLACK
6
CONTINUOUS
10
2.1398929133858267
20
-1.1845540157480314
11
2.1231339763779529
21
-1.187509094488189
0
LINE
8
BLACK
6
CONTINUOUS
10
2.1231339763779529
20
-1.187509094488189
11
2.1066963779527557
21
-1.1919135039370079
0
LINE
8
BLACK
6
CONTINUOUS
10
2.1066963779527557
20
-1.1919135039370079
11
2.0907051968503936
21
-1.1977338188976379
0
LINE
8
BLACK
6
CONTINUOUS
10
2.0907051968503936
20
-1.1977338188976379
11
2.0752821653543307
21
-1.2049257086614173
0
LINE
8
BLACK
6
CONTINUOUS
10
2.0752821653543307
20
-1.2049257086614173
11
2.0605446062992128
21
-1.2134344488188975
0
LINE
8
BLACK
6
CONTINUOUS
10
2.0605446062992128
20
-1.2134344488188975
11
2.0466047244094487
21
-1.2231952755905511
0
LINE
8
BLACK
6
CONTINUOUS
10
2.0466047244094487
20
-1.2231952755905511
11
2.0335685826771654
21
-1.2341338582677166
0
LINE
8
BLACK
6
CONTINUOUS
10
2.0335685826771654
20
-1.2341338582677166
11
2.0215354330708659
21
-1.2461670078740157
0
LINE
8
BLACK
6
CONTINUOUS
10
2.0215354330708659
20
-1.2461670078740157
11
2.0105968503937008
21
-1.2592031496062992
0
LINE
8
BLACK
6
CONTINUOUS
10
2.0105968503937008
20
-1.2592031496062992
11
2.000836023622047
21
-1.273143031496063
0
LINE
8
BLACK
6
CONTINUOUS
10
2.000836023622047
20
-1.273143031496063
11
1.9923272834645669
21
-1.287880590551181
0
LINE
8
BLACK
6
CONTINUOUS
10
1.9923272834645669
20
-1.287880590551181
11
1.9851353937007874
21
-1.303303622047244
0
LINE
8
BLACK
6
CONTINUOUS
10
1.9851353937007874
20
-1.303303622047244
11
1.9793150787401574
21
-1.3192948031496063
0
LINE
8
BLACK
6
CONTINUOUS
10
1.9793150787401574
20
-1.3192948031496063
11
1.9749106692913385
21
-1.3357324015748031
0
LINE
8
BLACK
6
CONTINUOUS
10
1.9749106692913385
20
-1.3357324015748031
11
1.971955590551181
21
-1.3524913385826771
0
LINE
8
BLACK
6
CONTINUOUS
10
1.971955590551181
20
-1.3524913385826771
11
1.9704724409448819
21
-1.3694440157480314
0
LINE
8
BLACK
6
CONTINUOUS
10
1.9704724409448819
20
-1.3694440157480314
11
1.9704724409448819
21
-1.3779527559055118
0
LINE
8
BLACK
6
CONTINUOUS
10
1.9704724409448819
20
-1.3779527559055118
11
1.9704724409448819
21
-9.2519685039370074
0
LINE
8
BLACK
6
CONTINUOUS
10
1.9704724409448819
20
-9.2519685039370074
11
1.9704724409448819
21
-9.2604772440944885
0
LINE
8
BLACK
6
CONTINUOUS
10
1.9704724409448819
20
-9.2604772440944885
11
1.971955590551181
21
-9.2774299212598414
0
LINE
8
BLACK
6
CONTINUOUS
10
1.971955590551181
20
-9.2774299212598414
11
1.9749106692913385
21
-9.2941888582677166
0
LINE
8
BLACK
6
CONTINUOUS
10
1.9749106692913385
20
-9.2941888582677166
11
1.9793150787401574
21
-9.3106264566929138
0
LINE
8
BLACK
6
CONTINUOUS
10
1.9793150787401574
20
-9.3106264566929138
11
1.9851353937007874
21
-9.326617637795275
0
LINE
8
BLACK
6
CONTINUOUS
10
1.9851353937007874
20
-9.326617637795275
11
1.9923272834645669
21
-9.3420406692913378
0
LINE
8
BLACK
6
CONTINUOUS
10
1.9923272834645669
20
-9.3420406692913378
11
2.000836023622047
21
-9.3567782283464567
0
LINE
8
BLACK
6
CONTINUOUS
10
2.000836023622047
20
-9.3567782283464567
11
2.0105968503937008
21
-9.3707181102362203
0
LINE
8
BLACK
6
CONTINUOUS
10
2.0105968503937008
20
-9.3707181102362203
11
2.0215354330708659
21
-9.3837542519685044
0
LINE
8
BLACK
6
CONTINUOUS
10
2.0215354330708659
20
-9.3837542519685044
11
2.0335685826771654
21
-9.3957874015748022
0
LINE
8
BLACK
6
CONTINUOUS
10
2.0335685826771654
20
-9.3957874015748022
11
2.0466047244094487
21
-9.4067259842519686
0
LINE
8
BLACK
6
CONTINUOUS
10
2.0466047244094487
20
-9.4067259842519686
11
2.0605446062992128
21
-9.4164868110236224
0
LINE
8
BLACK
6
CONTINUOUS
10
2.0605446062992128
20
-9.4164868110236224
11
2.0752821653543307
21
-9.4249955511811017
0
LINE
8
BLACK
6
CONTINUOUS
10
2.0752821653543307
20
-9.4249955511811017
11
2.0907051968503936
21
-9.4321874409448814
0
LINE
8
BLACK
6
CONTINUOUS
10
2.0907051968503936
20
-9.4321874409448814
11
2.1066963779527557
21
-9.4380077559055113
0
LINE
8
BLACK
6
CONTINUOUS
10
2.1066963779527557
20
-9.4380077559055113
11
2.1231339763779529
21
-9.4424121653543303
0
LINE
8
BLACK
6
CONTINUOUS
10
2.1231339763779529
20
-9.4424121653543303
11
2.1398929133858267
21
-9.4453672440944878
0
LINE
8
BLACK
6
CONTINUOUS
10
2.1398929133858267
20
-9.4453672440944878
11
2.156845590551181
21
-9.4468503937007871
0
LINE
8
BLACK
6
CONTINUOUS
10
2.156845590551181
20
-9.4468503937007871
11
2.1653543307086616
21
-9.4468503937007871
0
LINE
8
BLACK
6
CONTINUOUS
10
2.1653543307086616
20
-9.4468503937007871
11
13.4645669291338574
21
-9.4468503937007871
0
LINE
8
BLACK
6
CONTINUOUS
10
13.4645669291338574
20
-9.4468503937007871
11
13.4730756692913385
21
-9.4468503937007871
0
LINE
8
BLACK
6
CONTINUOUS
10
13.4730756692913385
20
-9.4468503937007871
11
13.4900283464566932
21
-9.4453672440944878
0
LINE
8
BLACK
6
CONTINUOUS
10
13.4900283464566932
20
-9.4453672440944878
11
13.5067872834645666
21
-9.4424121653543303
0
LINE
8
BLACK
6
CONTINUOUS
10
13.5067872834645666
20
-9.4424121653543303
11
13.5232248818897638
21
-9.4380077559055113
0
LINE
8
BLACK
6
CONTINUOUS
10
13.5232248818897638
20
-9.4380077559055113
11
13.539216062992125
21
-9.4321874409448814
0
LINE
8
BLACK
6
CONTINUOUS
10
13.539216062992125
20
-9.4321874409448814
11
13.5546390944881878
21
-9.4249955511811017
0
LINE
8
BLACK
6
CONTINUOUS
10
13.5546390944881878
20
-9.4249955511811017
11
13.5693766535433067
21
-9.4164868110236224
0
LINE
8
BLACK
6
CONTINUOUS
10
13.5693766535433067
20
-9.4164868110236224
11
13.5833165354330703
21
-9.4067259842519686
0
LINE
8
BLACK
6
CONTINUOUS
10
13.5833165354330703
20
-9.4067259842519686
11
13.5963526771653545
21
-9.3957874015748022
0
LINE
8
BLACK
6
CONTINUOUS
10
13.5963526771653545
20
-9.3957874015748022
11
13.608385826771654
21
-9.3837542519685044
0
LINE
8
BLACK
6
CONTINUOUS
10
13.608385826771654
20
-9.3837542519685044
11
13.6193244094488186
21
-9.3707181102362203
0
LINE
8
BLACK
6
CONTINUOUS
10
13.6193244094488186
20
-9.3707181102362203
11
13.6290852362204724
21
-9.3567782283464567
0
LINE
8
BLACK
6
CONTINUOUS
10
13.6290852362204724
20
-9.3567782283464567
11
13.6375939763779517
21
-9.3420406692913378
0
LINE
8
BLACK
6
CONTINUOUS
10
13.6375939763779517
20
-9.3420406692913378
11
13.6447858661417314
21
-9.326617637795275
0
LINE
8
BLACK
6
CONTINUOUS
10
13.6447858661417314
20
-9.326617637795275
11
13.6506061811023613
21
-9.3106264566929138
0
LINE
8
BLACK
6
CONTINUOUS
10
13.6506061811023613
20
-9.3106264566929138
11
13.6550105905511803
21
-9.2941888582677166
0
LINE
8
BLACK
6
CONTINUOUS
10
13.6550105905511803
20
-9.2941888582677166
11
13.6579656692913378
21
-9.2774299212598414
0
LINE
8
BLACK
6
CONTINUOUS
10
13.6579656692913378
20
-9.2774299212598414
11
13.6594488188976371
21
-9.2604772440944885
0
LINE
8
BLACK
6
CONTINUOUS
10
13.6594488188976371
20
-9.2604772440944885
11
13.6594488188976371
21
-9.2519685039370074
0
LINE
8
BLACK
6
CONTINUOUS
10
13.6594488188976371
20
-9.2519685039370074
11
13.6594488188976371
21
-1.3779527559055118
0
LINE
8
BLACK
6
CONTINUOUS
10
13.6594488188976371
20
-1.3779527559055118
11
13.6594488188976371
21
-1.3694440157480314
0
LINE
8
BLACK
6
CONTINUOUS
10
13.6594488188976371
20
-1.3694440157480314
11
13.6579656692913378
21
-1.3524913385826771
0
LINE
8
BLACK
6
CONTINUOUS
10
13.6579656692913378
20
-1.3524913385826771
11
13.6550105905511803
21
-1.3357324015748031
0
LINE
8
BLACK
6
CONTINUOUS
10
13.6550105905511803
20
-1.3357324015748031
11
13.6506061811023613
21
-1.3192948031496063
0
LINE
8
BLACK
6
CONTINUOUS
10
13.6506061811023613
20
-1.3192948031496063
11
13.6447858661417314
21
-1.303303622047244
0
LINE
8
BLACK
6
CONTINUOUS
10
13.6447858661417314
20
-1.303303622047244
11
13.6375939763779517
21
-1.287880590551181
0
LINE
8
BLACK
6
CONTINUOUS
10
13.6375939763779517
20
-1.287880590551181
11
13.6290852362204724
21
-1.273143031496063
0
LINE
8
BLACK
6
CONTINUOUS
10
13.6290852362204724
20
-1.273143031496063
11
13.6193244094488186
21
-1.2592031496062992
0
LINE
8
BLACK
6
CONTINUOUS
10
13.6193244094488186
20
-1.2592031496062992
11
13.608385826771654
21
-1.2461670078740157
0
LINE
8
BLACK
6
CONTINUOUS
10
13.608385826771654
20
-1.2461670078740157
11
13.5963526771653545
21
-1.2341338582677166
0
LINE
8
BLACK
6
CONTINUOUS
10
13.5963526771653545
20
-1.2341338582677166
11
13.5833165354330703
21
-1.2231952755905511
0
LINE
8
BLACK
6
CONTINUOUS
10
13.5833165354330703
20
-1.2231952755905511
11
13.5693766535433067
21
-1.2134344488188975
0
LINE
8
BLACK
6
CONTINUOUS
10
13.5693766535433067
20
-1.2134344488188975
11
13.5546390944881878
21
-1.2049257086614173
0
LINE
8
BLACK
6
CONTINUOUS
10
13.5546390944881878
20
-1.2049257086614173
11
13.539216062992125
21
-1.1977338188976379
0
LINE
8
BLACK
6
CONTINUOUS
10
13.539216062992125
20
-1.1977338188976379
11
13.5232248818897638
21
-1.1919135039370079
0
LINE
8
BLACK
6
CONTINUOUS
10
13.5232248818897638
20
-1.1919135039370079
11
13.5067872834645666
21
-1.187509094488189
0
LINE
8
BLACK
6
CONTINUOUS
10
13.5067872834645666
20
-1.187509094488189
11
13.4900283464566932
21
-1.1845540157480314
0
LINE
8
BLACK
6
CONTINUOUS
10
13.4900283464566932
20
-1.1845540157480314
11
13.4730756692913385
21
-1.1830708661417322
0
LINE
8
BLACK
6
CONTINUOUS
10
13.4730756692913385
20
-1.1830708661417322
11
13.4645669291338574
21
-1.1830708661417322
0
LINE
8
BLACK
6
CONTINUOUS
10
13.4645669291338574
20
-1.1830708661417322
11
2.1653543307086616
21
-1.1830708661417322
  0
ENDSEC
  0
EOF
