  0
SECTION
  2
HEADER
  9
$ANGBASE
  50
0.0
  9
$ANGDIR
  70
1
  9
$MEASUREMENT
  70
1
  0
ENDSEC
  0
SECTION
  2
TABLES
  0
TABLE
  2
LTYPE
  70
4
  0
LTYPE
  5
40F
  2
CONTINUOUS
  70
0
  3
Solid line
  72
65
  73
0
  40
0.0
  0
LTYPE
  5
410
  2
DASHDOT
 70
0
  3
Dash Dot ____ _ ____ _
 72
65
 73
4
 40
2.0
 49
1.25
 49
-0.25
 49
0.25
 49
-0.25
  0
LTYPE
  5
411
  2
DASHED
 70
0
  3
Dashed __ __ __ __ __
 72
65
 73
2
 40
0.75
 49
0.5
 49
-0.25
  0
LTYPE
  5
43B
  2
DOTTED
 70
0
  3
Dotted .  .  .  .
 72
65
 73
2
 40
0.2
 49
0.0
 49
-0.2
  0
ENDTAB
  0
TABLE
  2
STYLE
  70
4
  0
STYLE
  2
KICAD
  70
0
  40
0
  41
1
  42
1
  50
0
  71
0
  3
isocp.shx
  0
STYLE
  2
KICADB
  70
0
  40
0
  41
1
  42
1
  50
0
  71
0
  3
isocp.shx
  0
STYLE
  2
KICADI
  70
0
  40
0
  41
1
  42
1
  50
15
  71
0
  3
isocp.shx
  0
STYLE
  2
KICADBI
  70
0
  40
0
  41
1
  42
1
  50
15
  71
0
  3
isocp.shx
  0
ENDTAB
  0
TABLE
  2
LAYER
  70
1
  0
LAYER
  2
BLACK
  70
0
  62
7
  6
CONTINUOUS
  0
ENDTAB
  0
ENDSEC
  0
SECTION
  2
ENTITIES
0
LINE
8
BLACK
6
CONTINUOUS
10
169.3391340000000014
20
-156.4638060000000053
11
169.3661939999999788
21
-156.4908659999999827
0
LINE
8
BLACK
6
CONTINUOUS
10
169.3661939999999788
20
-156.4908659999999827
11
169.3700000000000045
21
-156.5099999999999909
0
LINE
8
BLACK
6
CONTINUOUS
10
169.3700000000000045
20
-156.5099999999999909
11
169.3700000000000045
21
-170.5600000000000023
0
LINE
8
BLACK
6
CONTINUOUS
10
169.3700000000000045
20
-170.5600000000000023
11
169.3661939999999788
21
-170.5791339999999821
0
LINE
8
BLACK
6
CONTINUOUS
10
169.3661939999999788
20
-170.5791339999999821
11
169.3391340000000014
21
-170.6061939999999879
0
LINE
8
BLACK
6
CONTINUOUS
10
169.3391340000000014
20
-170.6061939999999879
11
169.3199999999999932
21
-170.6099999999999852
0
LINE
8
BLACK
6
CONTINUOUS
10
169.3199999999999932
20
-170.6099999999999852
11
155.2699999999999818
21
-170.6099999999999852
0
LINE
8
BLACK
6
CONTINUOUS
10
155.2699999999999818
20
-170.6099999999999852
11
155.250866000000002
21
-170.6061939999999879
0
LINE
8
BLACK
6
CONTINUOUS
10
155.250866000000002
20
-170.6061939999999879
11
155.2238059999999962
21
-170.5791339999999821
0
LINE
8
BLACK
6
CONTINUOUS
10
155.2238059999999962
20
-170.5791339999999821
11
155.2199999999999989
21
-170.5600000000000023
0
LINE
8
BLACK
6
CONTINUOUS
10
155.2199999999999989
20
-170.5600000000000023
11
155.2199999999999989
21
-156.5099999999999909
0
LINE
8
BLACK
6
CONTINUOUS
10
155.2199999999999989
20
-156.5099999999999909
11
155.2238059999999962
21
-156.4908659999999827
0
LINE
8
BLACK
6
CONTINUOUS
10
155.2238059999999962
20
-156.4908659999999827
11
155.250866000000002
21
-156.4638060000000053
0
LINE
8
BLACK
6
CONTINUOUS
10
155.250866000000002
20
-156.4638060000000053
11
155.2699999999999818
21
-156.4599999999999795
0
LINE
8
BLACK
6
CONTINUOUS
10
155.2699999999999818
20
-156.4599999999999795
11
169.3199999999999932
21
-156.4599999999999795
0
LINE
8
BLACK
6
CONTINUOUS
10
169.3199999999999932
20
-156.4599999999999795
11
169.3391340000000014
21
-156.4638060000000053
0
LINE
8
BLACK
6
CONTINUOUS
10
155.3199999999999932
20
-156.5600000000000023
11
155.3199999999999932
21
-170.5099999999999909
0
LINE
8
BLACK
6
CONTINUOUS
10
155.3199999999999932
20
-170.5099999999999909
11
169.2699999999999818
21
-170.5099999999999909
0
LINE
8
BLACK
6
CONTINUOUS
10
169.2699999999999818
20
-170.5099999999999909
11
169.2699999999999818
21
-156.5600000000000023
0
LINE
8
BLACK
6
CONTINUOUS
10
169.2699999999999818
20
-156.5600000000000023
11
155.3199999999999932
21
-156.5600000000000023
0
LINE
8
BLACK
6
CONTINUOUS
10
206.499133999999998
20
-156.4638060000000053
11
206.5261940000000038
21
-156.4908659999999827
0
LINE
8
BLACK
6
CONTINUOUS
10
206.5261940000000038
20
-156.4908659999999827
11
206.5300000000000011
21
-156.5099999999999909
0
LINE
8
BLACK
6
CONTINUOUS
10
206.5300000000000011
20
-156.5099999999999909
11
206.5300000000000011
21
-170.5600000000000023
0
LINE
8
BLACK
6
CONTINUOUS
10
206.5300000000000011
20
-170.5600000000000023
11
206.5261940000000038
21
-170.5791339999999821
0
LINE
8
BLACK
6
CONTINUOUS
10
206.5261940000000038
20
-170.5791339999999821
11
206.499133999999998
21
-170.6061939999999879
0
LINE
8
BLACK
6
CONTINUOUS
10
206.499133999999998
20
-170.6061939999999879
11
206.4799999999999898
21
-170.6099999999999852
0
LINE
8
BLACK
6
CONTINUOUS
10
206.4799999999999898
20
-170.6099999999999852
11
192.4299999999999784
21
-170.6099999999999852
0
LINE
8
BLACK
6
CONTINUOUS
10
192.4299999999999784
20
-170.6099999999999852
11
192.4108659999999986
21
-170.6061939999999879
0
LINE
8
BLACK
6
CONTINUOUS
10
192.4108659999999986
20
-170.6061939999999879
11
192.3838059999999928
21
-170.5791339999999821
0
LINE
8
BLACK
6
CONTINUOUS
10
192.3838059999999928
20
-170.5791339999999821
11
192.3799999999999955
21
-170.5600000000000023
0
LINE
8
BLACK
6
CONTINUOUS
10
192.3799999999999955
20
-170.5600000000000023
11
192.3799999999999955
21
-156.5099999999999909
0
LINE
8
BLACK
6
CONTINUOUS
10
192.3799999999999955
20
-156.5099999999999909
11
192.3838059999999928
21
-156.4908659999999827
0
LINE
8
BLACK
6
CONTINUOUS
10
192.3838059999999928
20
-156.4908659999999827
11
192.4108659999999986
21
-156.4638060000000053
0
LINE
8
BLACK
6
CONTINUOUS
10
192.4108659999999986
20
-156.4638060000000053
11
192.4299999999999784
21
-156.4599999999999795
0
LINE
8
BLACK
6
CONTINUOUS
10
192.4299999999999784
20
-156.4599999999999795
11
206.4799999999999898
21
-156.4599999999999795
0
LINE
8
BLACK
6
CONTINUOUS
10
206.4799999999999898
20
-156.4599999999999795
11
206.499133999999998
21
-156.4638060000000053
0
LINE
8
BLACK
6
CONTINUOUS
10
192.4799999999999898
20
-156.5600000000000023
11
192.4799999999999898
21
-170.5099999999999909
0
LINE
8
BLACK
6
CONTINUOUS
10
192.4799999999999898
20
-170.5099999999999909
11
206.4299999999999784
21
-170.5099999999999909
0
LINE
8
BLACK
6
CONTINUOUS
10
206.4299999999999784
20
-170.5099999999999909
11
206.4299999999999784
21
-156.5600000000000023
0
LINE
8
BLACK
6
CONTINUOUS
10
206.4299999999999784
20
-156.5600000000000023
11
192.4799999999999898
21
-156.5600000000000023
0
LINE
8
BLACK
6
CONTINUOUS
10
231.499133999999998
20
-138.4638060000000053
11
231.5261939999999754
21
-138.4908659999999827
0
LINE
8
BLACK
6
CONTINUOUS
10
231.5261939999999754
20
-138.4908659999999827
11
231.5300000000000011
21
-138.5099999999999909
0
LINE
8
BLACK
6
CONTINUOUS
10
231.5300000000000011
20
-138.5099999999999909
11
231.5300000000000011
21
-152.5600000000000023
0
LINE
8
BLACK
6
CONTINUOUS
10
231.5300000000000011
20
-152.5600000000000023
11
231.5261939999999754
21
-152.5791339999999821
0
LINE
8
BLACK
6
CONTINUOUS
10
231.5261939999999754
20
-152.5791339999999821
11
231.499133999999998
21
-152.6061939999999879
0
LINE
8
BLACK
6
CONTINUOUS
10
231.499133999999998
20
-152.6061939999999879
11
231.4799999999999898
21
-152.6099999999999852
0
LINE
8
BLACK
6
CONTINUOUS
10
231.4799999999999898
20
-152.6099999999999852
11
217.4299999999999784
21
-152.6099999999999852
0
LINE
8
BLACK
6
CONTINUOUS
10
217.4299999999999784
20
-152.6099999999999852
11
217.4108659999999986
21
-152.6061939999999879
0
LINE
8
BLACK
6
CONTINUOUS
10
217.4108659999999986
20
-152.6061939999999879
11
217.3838059999999928
21
-152.5791339999999821
0
LINE
8
BLACK
6
CONTINUOUS
10
217.3838059999999928
20
-152.5791339999999821
11
217.3799999999999955
21
-152.5600000000000023
0
LINE
8
BLACK
6
CONTINUOUS
10
217.3799999999999955
20
-152.5600000000000023
11
217.3799999999999955
21
-138.5099999999999909
0
LINE
8
BLACK
6
CONTINUOUS
10
217.3799999999999955
20
-138.5099999999999909
11
217.3838059999999928
21
-138.4908659999999827
0
LINE
8
BLACK
6
CONTINUOUS
10
217.3838059999999928
20
-138.4908659999999827
11
217.4108659999999986
21
-138.4638060000000053
0
LINE
8
BLACK
6
CONTINUOUS
10
217.4108659999999986
20
-138.4638060000000053
11
217.4299999999999784
21
-138.4599999999999795
0
LINE
8
BLACK
6
CONTINUOUS
10
217.4299999999999784
20
-138.4599999999999795
11
231.4799999999999898
21
-138.4599999999999795
0
LINE
8
BLACK
6
CONTINUOUS
10
231.4799999999999898
20
-138.4599999999999795
11
231.499133999999998
21
-138.4638060000000053
0
LINE
8
BLACK
6
CONTINUOUS
10
217.4799999999999898
20
-138.5600000000000023
11
217.4799999999999898
21
-152.5099999999999909
0
LINE
8
BLACK
6
CONTINUOUS
10
217.4799999999999898
20
-152.5099999999999909
11
231.4299999999999784
21
-152.5099999999999909
0
LINE
8
BLACK
6
CONTINUOUS
10
231.4299999999999784
20
-152.5099999999999909
11
231.4299999999999784
21
-138.5600000000000023
0
LINE
8
BLACK
6
CONTINUOUS
10
231.4299999999999784
20
-138.5600000000000023
11
217.4799999999999898
21
-138.5600000000000023
0
LINE
8
BLACK
6
CONTINUOUS
10
215.499133999999998
20
-114.4638059999999911
11
215.5261940000000038
21
-114.4908659999999969
0
LINE
8
BLACK
6
CONTINUOUS
10
215.5261940000000038
20
-114.4908659999999969
11
215.5300000000000011
21
-114.5099999999999909
0
LINE
8
BLACK
6
CONTINUOUS
10
215.5300000000000011
20
-114.5099999999999909
11
215.5300000000000011
21
-128.5600000000000023
0
LINE
8
BLACK
6
CONTINUOUS
10
215.5300000000000011
20
-128.5600000000000023
11
215.5261940000000038
21
-128.5791339999999821
0
LINE
8
BLACK
6
CONTINUOUS
10
215.5261940000000038
20
-128.5791339999999821
11
215.499133999999998
21
-128.6061939999999879
0
LINE
8
BLACK
6
CONTINUOUS
10
215.499133999999998
20
-128.6061939999999879
11
215.4799999999999898
21
-128.6099999999999852
0
LINE
8
BLACK
6
CONTINUOUS
10
215.4799999999999898
20
-128.6099999999999852
11
201.4299999999999784
21
-128.6099999999999852
0
LINE
8
BLACK
6
CONTINUOUS
10
201.4299999999999784
20
-128.6099999999999852
11
201.4108659999999986
21
-128.6061939999999879
0
LINE
8
BLACK
6
CONTINUOUS
10
201.4108659999999986
20
-128.6061939999999879
11
201.3838059999999928
21
-128.5791339999999821
0
LINE
8
BLACK
6
CONTINUOUS
10
201.3838059999999928
20
-128.5791339999999821
11
201.3799999999999955
21
-128.5600000000000023
0
LINE
8
BLACK
6
CONTINUOUS
10
201.3799999999999955
20
-128.5600000000000023
11
201.3799999999999955
21
-114.5099999999999909
0
LINE
8
BLACK
6
CONTINUOUS
10
201.3799999999999955
20
-114.5099999999999909
11
201.3838059999999928
21
-114.4908659999999969
0
LINE
8
BLACK
6
CONTINUOUS
10
201.3838059999999928
20
-114.4908659999999969
11
201.4108659999999986
21
-114.4638059999999911
0
LINE
8
BLACK
6
CONTINUOUS
10
201.4108659999999986
20
-114.4638059999999911
11
201.4299999999999784
21
-114.4599999999999937
0
LINE
8
BLACK
6
CONTINUOUS
10
201.4299999999999784
20
-114.4599999999999937
11
215.4799999999999898
21
-114.4599999999999937
0
LINE
8
BLACK
6
CONTINUOUS
10
215.4799999999999898
20
-114.4599999999999937
11
215.499133999999998
21
-114.4638059999999911
0
LINE
8
BLACK
6
CONTINUOUS
10
201.4799999999999898
20
-114.5599999999999881
11
201.4799999999999898
21
-128.5099999999999909
0
LINE
8
BLACK
6
CONTINUOUS
10
201.4799999999999898
20
-128.5099999999999909
11
215.4299999999999784
21
-128.5099999999999909
0
LINE
8
BLACK
6
CONTINUOUS
10
215.4299999999999784
20
-128.5099999999999909
11
215.4299999999999784
21
-114.5599999999999881
0
LINE
8
BLACK
6
CONTINUOUS
10
215.4299999999999784
20
-114.5599999999999881
11
201.4799999999999898
21
-114.5599999999999881
0
LINE
8
BLACK
6
CONTINUOUS
10
300.4991339999999695
20
-108.4638059999999911
11
300.5261939999999754
21
-108.4908659999999969
0
LINE
8
BLACK
6
CONTINUOUS
10
300.5261939999999754
20
-108.4908659999999969
11
300.5299999999999727
21
-108.5099999999999909
0
LINE
8
BLACK
6
CONTINUOUS
10
300.5299999999999727
20
-108.5099999999999909
11
300.5299999999999727
21
-122.5599999999999881
0
LINE
8
BLACK
6
CONTINUOUS
10
300.5299999999999727
20
-122.5599999999999881
11
300.5261939999999754
21
-122.5791339999999963
0
LINE
8
BLACK
6
CONTINUOUS
10
300.5261939999999754
20
-122.5791339999999963
11
300.4991339999999695
21
-122.6061939999999879
0
LINE
8
BLACK
6
CONTINUOUS
10
300.4991339999999695
20
-122.6061939999999879
11
300.4799999999999613
21
-122.6099999999999994
0
LINE
8
BLACK
6
CONTINUOUS
10
300.4799999999999613
20
-122.6099999999999994
11
286.4300000000000068
21
-122.6099999999999994
0
LINE
8
BLACK
6
CONTINUOUS
10
286.4300000000000068
20
-122.6099999999999994
11
286.4108659999999986
21
-122.6061939999999879
0
LINE
8
BLACK
6
CONTINUOUS
10
286.4108659999999986
20
-122.6061939999999879
11
286.3838059999999928
21
-122.5791339999999963
0
LINE
8
BLACK
6
CONTINUOUS
10
286.3838059999999928
20
-122.5791339999999963
11
286.3799999999999955
21
-122.5599999999999881
0
LINE
8
BLACK
6
CONTINUOUS
10
286.3799999999999955
20
-122.5599999999999881
11
286.3799999999999955
21
-108.5099999999999909
0
LINE
8
BLACK
6
CONTINUOUS
10
286.3799999999999955
20
-108.5099999999999909
11
286.3838059999999928
21
-108.4908659999999969
0
LINE
8
BLACK
6
CONTINUOUS
10
286.3838059999999928
20
-108.4908659999999969
11
286.4108659999999986
21
-108.4638059999999911
0
LINE
8
BLACK
6
CONTINUOUS
10
286.4108659999999986
20
-108.4638059999999911
11
286.4300000000000068
21
-108.4599999999999937
0
LINE
8
BLACK
6
CONTINUOUS
10
286.4300000000000068
20
-108.4599999999999937
11
300.4799999999999613
21
-108.4599999999999937
0
LINE
8
BLACK
6
CONTINUOUS
10
300.4799999999999613
20
-108.4599999999999937
11
300.4991339999999695
21
-108.4638059999999911
0
LINE
8
BLACK
6
CONTINUOUS
10
286.4799999999999613
20
-108.5599999999999881
11
286.4799999999999613
21
-122.5099999999999909
0
LINE
8
BLACK
6
CONTINUOUS
10
286.4799999999999613
20
-122.5099999999999909
11
300.4300000000000068
21
-122.5099999999999909
0
LINE
8
BLACK
6
CONTINUOUS
10
300.4300000000000068
20
-122.5099999999999909
11
300.4300000000000068
21
-108.5599999999999881
0
LINE
8
BLACK
6
CONTINUOUS
10
300.4300000000000068
20
-108.5599999999999881
11
286.4799999999999613
21
-108.5599999999999881
0
LINE
8
BLACK
6
CONTINUOUS
10
241.499133999999998
20
-104.4638059999999911
11
241.5261939999999754
21
-104.4908659999999969
0
LINE
8
BLACK
6
CONTINUOUS
10
241.5261939999999754
20
-104.4908659999999969
11
241.5300000000000011
21
-104.5099999999999909
0
LINE
8
BLACK
6
CONTINUOUS
10
241.5300000000000011
20
-104.5099999999999909
11
241.5300000000000011
21
-118.5599999999999881
0
LINE
8
BLACK
6
CONTINUOUS
10
241.5300000000000011
20
-118.5599999999999881
11
241.5261939999999754
21
-118.5791339999999963
0
LINE
8
BLACK
6
CONTINUOUS
10
241.5261939999999754
20
-118.5791339999999963
11
241.499133999999998
21
-118.6061939999999879
0
LINE
8
BLACK
6
CONTINUOUS
10
241.499133999999998
20
-118.6061939999999879
11
241.4799999999999898
21
-118.6099999999999994
0
LINE
8
BLACK
6
CONTINUOUS
10
241.4799999999999898
20
-118.6099999999999994
11
227.4299999999999784
21
-118.6099999999999994
0
LINE
8
BLACK
6
CONTINUOUS
10
227.4299999999999784
20
-118.6099999999999994
11
227.4108659999999986
21
-118.6061939999999879
0
LINE
8
BLACK
6
CONTINUOUS
10
227.4108659999999986
20
-118.6061939999999879
11
227.3838059999999928
21
-118.5791339999999963
0
LINE
8
BLACK
6
CONTINUOUS
10
227.3838059999999928
20
-118.5791339999999963
11
227.3799999999999955
21
-118.5599999999999881
0
LINE
8
BLACK
6
CONTINUOUS
10
227.3799999999999955
20
-118.5599999999999881
11
227.3799999999999955
21
-104.5099999999999909
0
LINE
8
BLACK
6
CONTINUOUS
10
227.3799999999999955
20
-104.5099999999999909
11
227.3838059999999928
21
-104.4908659999999969
0
LINE
8
BLACK
6
CONTINUOUS
10
227.3838059999999928
20
-104.4908659999999969
11
227.4108659999999986
21
-104.4638059999999911
0
LINE
8
BLACK
6
CONTINUOUS
10
227.4108659999999986
20
-104.4638059999999911
11
227.4299999999999784
21
-104.4599999999999937
0
LINE
8
BLACK
6
CONTINUOUS
10
227.4299999999999784
20
-104.4599999999999937
11
241.4799999999999898
21
-104.4599999999999937
0
LINE
8
BLACK
6
CONTINUOUS
10
241.4799999999999898
20
-104.4599999999999937
11
241.499133999999998
21
-104.4638059999999911
0
LINE
8
BLACK
6
CONTINUOUS
10
227.4799999999999898
20
-104.5600000000000023
11
227.4799999999999898
21
-118.5099999999999909
0
LINE
8
BLACK
6
CONTINUOUS
10
227.4799999999999898
20
-118.5099999999999909
11
241.4299999999999784
21
-118.5099999999999909
0
LINE
8
BLACK
6
CONTINUOUS
10
241.4299999999999784
20
-118.5099999999999909
11
241.4299999999999784
21
-104.5600000000000023
0
LINE
8
BLACK
6
CONTINUOUS
10
241.4299999999999784
20
-104.5600000000000023
11
227.4799999999999898
21
-104.5600000000000023
0
LINE
8
BLACK
6
CONTINUOUS
10
272.4991339999999695
20
-104.4638059999999911
11
272.5261939999999754
21
-104.4908659999999969
0
LINE
8
BLACK
6
CONTINUOUS
10
272.5261939999999754
20
-104.4908659999999969
11
272.5299999999999727
21
-104.5099999999999909
0
LINE
8
BLACK
6
CONTINUOUS
10
272.5299999999999727
20
-104.5099999999999909
11
272.5299999999999727
21
-118.5599999999999881
0
LINE
8
BLACK
6
CONTINUOUS
10
272.5299999999999727
20
-118.5599999999999881
11
272.5261939999999754
21
-118.5791339999999963
0
LINE
8
BLACK
6
CONTINUOUS
10
272.5261939999999754
20
-118.5791339999999963
11
272.4991339999999695
21
-118.6061939999999879
0
LINE
8
BLACK
6
CONTINUOUS
10
272.4991339999999695
20
-118.6061939999999879
11
272.4799999999999613
21
-118.6099999999999994
0
LINE
8
BLACK
6
CONTINUOUS
10
272.4799999999999613
20
-118.6099999999999994
11
258.4300000000000068
21
-118.6099999999999994
0
LINE
8
BLACK
6
CONTINUOUS
10
258.4300000000000068
20
-118.6099999999999994
11
258.4108659999999986
21
-118.6061939999999879
0
LINE
8
BLACK
6
CONTINUOUS
10
258.4108659999999986
20
-118.6061939999999879
11
258.3838059999999928
21
-118.5791339999999963
0
LINE
8
BLACK
6
CONTINUOUS
10
258.3838059999999928
20
-118.5791339999999963
11
258.3799999999999955
21
-118.5599999999999881
0
LINE
8
BLACK
6
CONTINUOUS
10
258.3799999999999955
20
-118.5599999999999881
11
258.3799999999999955
21
-104.5099999999999909
0
LINE
8
BLACK
6
CONTINUOUS
10
258.3799999999999955
20
-104.5099999999999909
11
258.3838059999999928
21
-104.4908659999999969
0
LINE
8
BLACK
6
CONTINUOUS
10
258.3838059999999928
20
-104.4908659999999969
11
258.4108659999999986
21
-104.4638059999999911
0
LINE
8
BLACK
6
CONTINUOUS
10
258.4108659999999986
20
-104.4638059999999911
11
258.4300000000000068
21
-104.4599999999999937
0
LINE
8
BLACK
6
CONTINUOUS
10
258.4300000000000068
20
-104.4599999999999937
11
272.4799999999999613
21
-104.4599999999999937
0
LINE
8
BLACK
6
CONTINUOUS
10
272.4799999999999613
20
-104.4599999999999937
11
272.4991339999999695
21
-104.4638059999999911
0
LINE
8
BLACK
6
CONTINUOUS
10
258.4799999999999613
20
-104.5600000000000023
11
258.4799999999999613
21
-118.5099999999999909
0
LINE
8
BLACK
6
CONTINUOUS
10
258.4799999999999613
20
-118.5099999999999909
11
272.4300000000000068
21
-118.5099999999999909
0
LINE
8
BLACK
6
CONTINUOUS
10
272.4300000000000068
20
-118.5099999999999909
11
272.4300000000000068
21
-104.5600000000000023
0
LINE
8
BLACK
6
CONTINUOUS
10
272.4300000000000068
20
-104.5600000000000023
11
258.4799999999999613
21
-104.5600000000000023
0
LINE
8
BLACK
6
CONTINUOUS
10
190.3391340000000014
20
-96.4638059999999911
11
190.3661939999999788
21
-96.4908659999999969
0
LINE
8
BLACK
6
CONTINUOUS
10
190.3661939999999788
20
-96.4908659999999969
11
190.3700000000000045
21
-96.5099999999999909
0
LINE
8
BLACK
6
CONTINUOUS
10
190.3700000000000045
20
-96.5099999999999909
11
190.3700000000000045
21
-110.5599999999999881
0
LINE
8
BLACK
6
CONTINUOUS
10
190.3700000000000045
20
-110.5599999999999881
11
190.3661939999999788
21
-110.5791339999999963
0
LINE
8
BLACK
6
CONTINUOUS
10
190.3661939999999788
20
-110.5791339999999963
11
190.3391340000000014
21
-110.6061939999999879
0
LINE
8
BLACK
6
CONTINUOUS
10
190.3391340000000014
20
-110.6061939999999879
11
190.3199999999999932
21
-110.6099999999999994
0
LINE
8
BLACK
6
CONTINUOUS
10
190.3199999999999932
20
-110.6099999999999994
11
176.2699999999999818
21
-110.6099999999999994
0
LINE
8
BLACK
6
CONTINUOUS
10
176.2699999999999818
20
-110.6099999999999994
11
176.250866000000002
21
-110.6061939999999879
0
LINE
8
BLACK
6
CONTINUOUS
10
176.250866000000002
20
-110.6061939999999879
11
176.2238059999999962
21
-110.5791339999999963
0
LINE
8
BLACK
6
CONTINUOUS
10
176.2238059999999962
20
-110.5791339999999963
11
176.2199999999999989
21
-110.5599999999999881
0
LINE
8
BLACK
6
CONTINUOUS
10
176.2199999999999989
20
-110.5599999999999881
11
176.2199999999999989
21
-96.5099999999999909
0
LINE
8
BLACK
6
CONTINUOUS
10
176.2199999999999989
20
-96.5099999999999909
11
176.2238059999999962
21
-96.4908659999999969
0
LINE
8
BLACK
6
CONTINUOUS
10
176.2238059999999962
20
-96.4908659999999969
11
176.250866000000002
21
-96.4638059999999911
0
LINE
8
BLACK
6
CONTINUOUS
10
176.250866000000002
20
-96.4638059999999911
11
176.2699999999999818
21
-96.4599999999999937
0
LINE
8
BLACK
6
CONTINUOUS
10
176.2699999999999818
20
-96.4599999999999937
11
190.3199999999999932
21
-96.4599999999999937
0
LINE
8
BLACK
6
CONTINUOUS
10
190.3199999999999932
20
-96.4599999999999937
11
190.3391340000000014
21
-96.4638059999999911
0
LINE
8
BLACK
6
CONTINUOUS
10
176.3199999999999932
20
-96.5600000000000023
11
176.3199999999999932
21
-110.5099999999999909
0
LINE
8
BLACK
6
CONTINUOUS
10
176.3199999999999932
20
-110.5099999999999909
11
190.2699999999999818
21
-110.5099999999999909
0
LINE
8
BLACK
6
CONTINUOUS
10
190.2699999999999818
20
-110.5099999999999909
11
190.2699999999999818
21
-96.5600000000000023
0
LINE
8
BLACK
6
CONTINUOUS
10
190.2699999999999818
20
-96.5600000000000023
11
176.3199999999999932
21
-96.5600000000000023
0
LINE
8
BLACK
6
CONTINUOUS
10
105.5791339999999963
20
-95.4638059999999911
11
105.6061940000000021
21
-95.4908659999999969
0
LINE
8
BLACK
6
CONTINUOUS
10
105.6061940000000021
20
-95.4908659999999969
11
105.6099999999999994
21
-95.5099999999999909
0
LINE
8
BLACK
6
CONTINUOUS
10
105.6099999999999994
20
-95.5099999999999909
11
105.6099999999999994
21
-109.5599999999999881
0
LINE
8
BLACK
6
CONTINUOUS
10
105.6099999999999994
20
-109.5599999999999881
11
105.6061940000000021
21
-109.5791339999999963
0
LINE
8
BLACK
6
CONTINUOUS
10
105.6061940000000021
20
-109.5791339999999963
11
105.5791339999999963
21
-109.6061940000000021
0
LINE
8
BLACK
6
CONTINUOUS
10
105.5791339999999963
20
-109.6061940000000021
11
105.5600000000000023
21
-109.6099999999999994
0
LINE
8
BLACK
6
CONTINUOUS
10
105.5600000000000023
20
-109.6099999999999994
11
91.5099999999999909
21
-109.6099999999999994
0
LINE
8
BLACK
6
CONTINUOUS
10
91.5099999999999909
20
-109.6099999999999994
11
91.4908659999999969
21
-109.6061940000000021
0
LINE
8
BLACK
6
CONTINUOUS
10
91.4908659999999969
20
-109.6061940000000021
11
91.4638059999999911
21
-109.5791339999999963
0
LINE
8
BLACK
6
CONTINUOUS
10
91.4638059999999911
20
-109.5791339999999963
11
91.4599999999999937
21
-109.5599999999999881
0
LINE
8
BLACK
6
CONTINUOUS
10
91.4599999999999937
20
-109.5599999999999881
11
91.4599999999999937
21
-95.5099999999999909
0
LINE
8
BLACK
6
CONTINUOUS
10
91.4599999999999937
20
-95.5099999999999909
11
91.4638059999999911
21
-95.4908659999999969
0
LINE
8
BLACK
6
CONTINUOUS
10
91.4638059999999911
20
-95.4908659999999969
11
91.4908659999999969
21
-95.4638059999999911
0
LINE
8
BLACK
6
CONTINUOUS
10
91.4908659999999969
20
-95.4638059999999911
11
91.5099999999999909
21
-95.4599999999999937
0
LINE
8
BLACK
6
CONTINUOUS
10
91.5099999999999909
20
-95.4599999999999937
11
105.5600000000000023
21
-95.4599999999999937
0
LINE
8
BLACK
6
CONTINUOUS
10
105.5600000000000023
20
-95.4599999999999937
11
105.5791339999999963
21
-95.4638059999999911
0
LINE
8
BLACK
6
CONTINUOUS
10
91.5600000000000023
20
-95.5600000000000023
11
91.5600000000000023
21
-109.5099999999999909
0
LINE
8
BLACK
6
CONTINUOUS
10
91.5600000000000023
20
-109.5099999999999909
11
105.5099999999999909
21
-109.5099999999999909
0
LINE
8
BLACK
6
CONTINUOUS
10
105.5099999999999909
20
-109.5099999999999909
11
105.5099999999999909
21
-95.5600000000000023
0
LINE
8
BLACK
6
CONTINUOUS
10
105.5099999999999909
20
-95.5600000000000023
11
91.5600000000000023
21
-95.5600000000000023
0
LINE
8
BLACK
6
CONTINUOUS
10
218.4791339999999877
20
-86.4938059999999922
11
218.5061939999999936
21
-86.5208659999999981
0
LINE
8
BLACK
6
CONTINUOUS
10
218.5061939999999936
20
-86.5208659999999981
11
218.5099999999999909
21
-86.539999999999992
0
LINE
8
BLACK
6
CONTINUOUS
10
218.5099999999999909
20
-86.539999999999992
11
218.5099999999999909
21
-100.539999999999992
0
LINE
8
BLACK
6
CONTINUOUS
10
218.5099999999999909
20
-100.539999999999992
11
218.5061939999999936
21
-100.5591340000000002
0
LINE
8
BLACK
6
CONTINUOUS
10
218.5061939999999936
20
-100.5591340000000002
11
218.4791339999999877
21
-100.5861939999999919
0
LINE
8
BLACK
6
CONTINUOUS
10
218.4791339999999877
20
-100.5861939999999919
11
218.4599999999999795
21
-100.5899999999999892
0
LINE
8
BLACK
6
CONTINUOUS
10
218.4599999999999795
20
-100.5899999999999892
11
204.4599999999999795
21
-100.5899999999999892
0
LINE
8
BLACK
6
CONTINUOUS
10
204.4599999999999795
20
-100.5899999999999892
11
204.4408659999999998
21
-100.5861939999999919
0
LINE
8
BLACK
6
CONTINUOUS
10
204.4408659999999998
20
-100.5861939999999919
11
204.4138059999999939
21
-100.5591340000000002
0
LINE
8
BLACK
6
CONTINUOUS
10
204.4138059999999939
20
-100.5591340000000002
11
204.4099999999999966
21
-100.539999999999992
0
LINE
8
BLACK
6
CONTINUOUS
10
204.4099999999999966
20
-100.539999999999992
11
204.4099999999999966
21
-86.539999999999992
0
LINE
8
BLACK
6
CONTINUOUS
10
204.4099999999999966
20
-86.539999999999992
11
204.4138059999999939
21
-86.5208659999999981
0
LINE
8
BLACK
6
CONTINUOUS
10
204.4138059999999939
20
-86.5208659999999981
11
204.4408659999999998
21
-86.4938059999999922
0
LINE
8
BLACK
6
CONTINUOUS
10
204.4408659999999998
20
-86.4938059999999922
11
204.4599999999999795
21
-86.4899999999999949
0
LINE
8
BLACK
6
CONTINUOUS
10
204.4599999999999795
20
-86.4899999999999949
11
218.4599999999999795
21
-86.4899999999999949
0
LINE
8
BLACK
6
CONTINUOUS
10
218.4599999999999795
20
-86.4899999999999949
11
218.4791339999999877
21
-86.4938059999999922
0
LINE
8
BLACK
6
CONTINUOUS
10
204.5099999999999909
20
-86.5899999999999892
11
204.5099999999999909
21
-100.4899999999999949
0
LINE
8
BLACK
6
CONTINUOUS
10
204.5099999999999909
20
-100.4899999999999949
11
218.4099999999999966
21
-100.4899999999999949
0
LINE
8
BLACK
6
CONTINUOUS
10
218.4099999999999966
20
-100.4899999999999949
11
218.4099999999999966
21
-86.5899999999999892
0
LINE
8
BLACK
6
CONTINUOUS
10
218.4099999999999966
20
-86.5899999999999892
11
204.5099999999999909
21
-86.5899999999999892
0
LINE
8
BLACK
6
CONTINUOUS
10
135.3391340000000014
20
-84.4638059999999911
11
135.3661940000000072
21
-84.4908659999999969
0
LINE
8
BLACK
6
CONTINUOUS
10
135.3661940000000072
20
-84.4908659999999969
11
135.3700000000000045
21
-84.5099999999999909
0
LINE
8
BLACK
6
CONTINUOUS
10
135.3700000000000045
20
-84.5099999999999909
11
135.3700000000000045
21
-98.5600000000000023
0
LINE
8
BLACK
6
CONTINUOUS
10
135.3700000000000045
20
-98.5600000000000023
11
135.3661940000000072
21
-98.5791339999999963
0
LINE
8
BLACK
6
CONTINUOUS
10
135.3661940000000072
20
-98.5791339999999963
11
135.3391340000000014
21
-98.6061940000000021
0
LINE
8
BLACK
6
CONTINUOUS
10
135.3391340000000014
20
-98.6061940000000021
11
135.3199999999999932
21
-98.6099999999999994
0
LINE
8
BLACK
6
CONTINUOUS
10
135.3199999999999932
20
-98.6099999999999994
11
121.269999999999996
21
-98.6099999999999994
0
LINE
8
BLACK
6
CONTINUOUS
10
121.269999999999996
20
-98.6099999999999994
11
121.2508659999999878
21
-98.6061940000000021
0
LINE
8
BLACK
6
CONTINUOUS
10
121.2508659999999878
20
-98.6061940000000021
11
121.2238059999999962
21
-98.5791339999999963
0
LINE
8
BLACK
6
CONTINUOUS
10
121.2238059999999962
20
-98.5791339999999963
11
121.2199999999999989
21
-98.5600000000000023
0
LINE
8
BLACK
6
CONTINUOUS
10
121.2199999999999989
20
-98.5600000000000023
11
121.2199999999999989
21
-84.5099999999999909
0
LINE
8
BLACK
6
CONTINUOUS
10
121.2199999999999989
20
-84.5099999999999909
11
121.2238059999999962
21
-84.4908659999999969
0
LINE
8
BLACK
6
CONTINUOUS
10
121.2238059999999962
20
-84.4908659999999969
11
121.2508659999999878
21
-84.4638059999999911
0
LINE
8
BLACK
6
CONTINUOUS
10
121.2508659999999878
20
-84.4638059999999911
11
121.269999999999996
21
-84.4599999999999937
0
LINE
8
BLACK
6
CONTINUOUS
10
121.269999999999996
20
-84.4599999999999937
11
135.3199999999999932
21
-84.4599999999999937
0
LINE
8
BLACK
6
CONTINUOUS
10
135.3199999999999932
20
-84.4599999999999937
11
135.3391340000000014
21
-84.4638059999999911
0
LINE
8
BLACK
6
CONTINUOUS
10
121.3199999999999932
20
-84.5600000000000023
11
121.3199999999999932
21
-98.5099999999999909
0
LINE
8
BLACK
6
CONTINUOUS
10
121.3199999999999932
20
-98.5099999999999909
11
135.2699999999999818
21
-98.5099999999999909
0
LINE
8
BLACK
6
CONTINUOUS
10
135.2699999999999818
20
-98.5099999999999909
11
135.2699999999999818
21
-84.5600000000000023
0
LINE
8
BLACK
6
CONTINUOUS
10
135.2699999999999818
20
-84.5600000000000023
11
121.3199999999999932
21
-84.5600000000000023
0
LINE
8
BLACK
6
CONTINUOUS
10
165.499133999999998
20
-84.4638059999999911
11
165.5261940000000038
21
-84.4908659999999969
0
LINE
8
BLACK
6
CONTINUOUS
10
165.5261940000000038
20
-84.4908659999999969
11
165.5300000000000011
21
-84.5099999999999909
0
LINE
8
BLACK
6
CONTINUOUS
10
165.5300000000000011
20
-84.5099999999999909
11
165.5300000000000011
21
-98.5600000000000023
0
LINE
8
BLACK
6
CONTINUOUS
10
165.5300000000000011
20
-98.5600000000000023
11
165.5261940000000038
21
-98.5791339999999963
0
LINE
8
BLACK
6
CONTINUOUS
10
165.5261940000000038
20
-98.5791339999999963
11
165.499133999999998
21
-98.6061940000000021
0
LINE
8
BLACK
6
CONTINUOUS
10
165.499133999999998
20
-98.6061940000000021
11
165.4799999999999898
21
-98.6099999999999994
0
LINE
8
BLACK
6
CONTINUOUS
10
165.4799999999999898
20
-98.6099999999999994
11
151.4300000000000068
21
-98.6099999999999994
0
LINE
8
BLACK
6
CONTINUOUS
10
151.4300000000000068
20
-98.6099999999999994
11
151.4108659999999986
21
-98.6061940000000021
0
LINE
8
BLACK
6
CONTINUOUS
10
151.4108659999999986
20
-98.6061940000000021
11
151.3838059999999928
21
-98.5791339999999963
0
LINE
8
BLACK
6
CONTINUOUS
10
151.3838059999999928
20
-98.5791339999999963
11
151.3799999999999955
21
-98.5600000000000023
0
LINE
8
BLACK
6
CONTINUOUS
10
151.3799999999999955
20
-98.5600000000000023
11
151.3799999999999955
21
-84.5099999999999909
0
LINE
8
BLACK
6
CONTINUOUS
10
151.3799999999999955
20
-84.5099999999999909
11
151.3838059999999928
21
-84.4908659999999969
0
LINE
8
BLACK
6
CONTINUOUS
10
151.3838059999999928
20
-84.4908659999999969
11
151.4108659999999986
21
-84.4638059999999911
0
LINE
8
BLACK
6
CONTINUOUS
10
151.4108659999999986
20
-84.4638059999999911
11
151.4300000000000068
21
-84.4599999999999937
0
LINE
8
BLACK
6
CONTINUOUS
10
151.4300000000000068
20
-84.4599999999999937
11
165.4799999999999898
21
-84.4599999999999937
0
LINE
8
BLACK
6
CONTINUOUS
10
165.4799999999999898
20
-84.4599999999999937
11
165.499133999999998
21
-84.4638059999999911
0
LINE
8
BLACK
6
CONTINUOUS
10
151.4799999999999898
20
-84.5600000000000023
11
151.4799999999999898
21
-98.5099999999999909
0
LINE
8
BLACK
6
CONTINUOUS
10
151.4799999999999898
20
-98.5099999999999909
11
165.4299999999999784
21
-98.5099999999999909
0
LINE
8
BLACK
6
CONTINUOUS
10
165.4299999999999784
20
-98.5099999999999909
11
165.4299999999999784
21
-84.5600000000000023
0
LINE
8
BLACK
6
CONTINUOUS
10
165.4299999999999784
20
-84.5600000000000023
11
151.4799999999999898
21
-84.5600000000000023
0
LINE
8
BLACK
6
CONTINUOUS
10
300.4991339999999695
20
-77.4638059999999911
11
300.5261939999999754
21
-77.4908659999999969
0
LINE
8
BLACK
6
CONTINUOUS
10
300.5261939999999754
20
-77.4908659999999969
11
300.5299999999999727
21
-77.5099999999999909
0
LINE
8
BLACK
6
CONTINUOUS
10
300.5299999999999727
20
-77.5099999999999909
11
300.5299999999999727
21
-91.5600000000000023
0
LINE
8
BLACK
6
CONTINUOUS
10
300.5299999999999727
20
-91.5600000000000023
11
300.5261939999999754
21
-91.5791339999999963
0
LINE
8
BLACK
6
CONTINUOUS
10
300.5261939999999754
20
-91.5791339999999963
11
300.4991339999999695
21
-91.6061940000000021
0
LINE
8
BLACK
6
CONTINUOUS
10
300.4991339999999695
20
-91.6061940000000021
11
300.4799999999999613
21
-91.6099999999999994
0
LINE
8
BLACK
6
CONTINUOUS
10
300.4799999999999613
20
-91.6099999999999994
11
286.4300000000000068
21
-91.6099999999999994
0
LINE
8
BLACK
6
CONTINUOUS
10
286.4300000000000068
20
-91.6099999999999994
11
286.4108659999999986
21
-91.6061940000000021
0
LINE
8
BLACK
6
CONTINUOUS
10
286.4108659999999986
20
-91.6061940000000021
11
286.3838059999999928
21
-91.5791339999999963
0
LINE
8
BLACK
6
CONTINUOUS
10
286.3838059999999928
20
-91.5791339999999963
11
286.3799999999999955
21
-91.5600000000000023
0
LINE
8
BLACK
6
CONTINUOUS
10
286.3799999999999955
20
-91.5600000000000023
11
286.3799999999999955
21
-77.5099999999999909
0
LINE
8
BLACK
6
CONTINUOUS
10
286.3799999999999955
20
-77.5099999999999909
11
286.3838059999999928
21
-77.4908659999999969
0
LINE
8
BLACK
6
CONTINUOUS
10
286.3838059999999928
20
-77.4908659999999969
11
286.4108659999999986
21
-77.4638059999999911
0
LINE
8
BLACK
6
CONTINUOUS
10
286.4108659999999986
20
-77.4638059999999911
11
286.4300000000000068
21
-77.4599999999999937
0
LINE
8
BLACK
6
CONTINUOUS
10
286.4300000000000068
20
-77.4599999999999937
11
300.4799999999999613
21
-77.4599999999999937
0
LINE
8
BLACK
6
CONTINUOUS
10
300.4799999999999613
20
-77.4599999999999937
11
300.4991339999999695
21
-77.4638059999999911
0
LINE
8
BLACK
6
CONTINUOUS
10
286.4799999999999613
20
-77.5600000000000023
11
286.4799999999999613
21
-91.5099999999999909
0
LINE
8
BLACK
6
CONTINUOUS
10
286.4799999999999613
20
-91.5099999999999909
11
300.4300000000000068
21
-91.5099999999999909
0
LINE
8
BLACK
6
CONTINUOUS
10
300.4300000000000068
20
-91.5099999999999909
11
300.4300000000000068
21
-77.5600000000000023
0
LINE
8
BLACK
6
CONTINUOUS
10
300.4300000000000068
20
-77.5600000000000023
11
286.4799999999999613
21
-77.5600000000000023
0
LINE
8
BLACK
6
CONTINUOUS
10
243.499133999999998
20
-74.4638059999999911
11
243.5261939999999754
21
-74.4908659999999969
0
LINE
8
BLACK
6
CONTINUOUS
10
243.5261939999999754
20
-74.4908659999999969
11
243.5300000000000011
21
-74.5099999999999909
0
LINE
8
BLACK
6
CONTINUOUS
10
243.5300000000000011
20
-74.5099999999999909
11
243.5300000000000011
21
-88.5600000000000023
0
LINE
8
BLACK
6
CONTINUOUS
10
243.5300000000000011
20
-88.5600000000000023
11
243.5261939999999754
21
-88.5791339999999963
0
LINE
8
BLACK
6
CONTINUOUS
10
243.5261939999999754
20
-88.5791339999999963
11
243.499133999999998
21
-88.6061940000000021
0
LINE
8
BLACK
6
CONTINUOUS
10
243.499133999999998
20
-88.6061940000000021
11
243.4799999999999898
21
-88.6099999999999994
0
LINE
8
BLACK
6
CONTINUOUS
10
243.4799999999999898
20
-88.6099999999999994
11
229.4299999999999784
21
-88.6099999999999994
0
LINE
8
BLACK
6
CONTINUOUS
10
229.4299999999999784
20
-88.6099999999999994
11
229.4108659999999986
21
-88.6061940000000021
0
LINE
8
BLACK
6
CONTINUOUS
10
229.4108659999999986
20
-88.6061940000000021
11
229.3838059999999928
21
-88.5791339999999963
0
LINE
8
BLACK
6
CONTINUOUS
10
229.3838059999999928
20
-88.5791339999999963
11
229.3799999999999955
21
-88.5600000000000023
0
LINE
8
BLACK
6
CONTINUOUS
10
229.3799999999999955
20
-88.5600000000000023
11
229.3799999999999955
21
-74.5099999999999909
0
LINE
8
BLACK
6
CONTINUOUS
10
229.3799999999999955
20
-74.5099999999999909
11
229.3838059999999928
21
-74.4908659999999969
0
LINE
8
BLACK
6
CONTINUOUS
10
229.3838059999999928
20
-74.4908659999999969
11
229.4108659999999986
21
-74.4638059999999911
0
LINE
8
BLACK
6
CONTINUOUS
10
229.4108659999999986
20
-74.4638059999999911
11
229.4299999999999784
21
-74.4599999999999937
0
LINE
8
BLACK
6
CONTINUOUS
10
229.4299999999999784
20
-74.4599999999999937
11
243.4799999999999898
21
-74.4599999999999937
0
LINE
8
BLACK
6
CONTINUOUS
10
243.4799999999999898
20
-74.4599999999999937
11
243.499133999999998
21
-74.4638059999999911
0
LINE
8
BLACK
6
CONTINUOUS
10
229.4799999999999898
20
-74.5600000000000023
11
229.4799999999999898
21
-88.5099999999999909
0
LINE
8
BLACK
6
CONTINUOUS
10
229.4799999999999898
20
-88.5099999999999909
11
243.4299999999999784
21
-88.5099999999999909
0
LINE
8
BLACK
6
CONTINUOUS
10
243.4299999999999784
20
-88.5099999999999909
11
243.4299999999999784
21
-74.5600000000000023
0
LINE
8
BLACK
6
CONTINUOUS
10
243.4299999999999784
20
-74.5600000000000023
11
229.4799999999999898
21
-74.5600000000000023
0
LINE
8
BLACK
6
CONTINUOUS
10
272.4991339999999695
20
-74.4638059999999911
11
272.5261939999999754
21
-74.4908659999999969
0
LINE
8
BLACK
6
CONTINUOUS
10
272.5261939999999754
20
-74.4908659999999969
11
272.5299999999999727
21
-74.5099999999999909
0
LINE
8
BLACK
6
CONTINUOUS
10
272.5299999999999727
20
-74.5099999999999909
11
272.5299999999999727
21
-88.5600000000000023
0
LINE
8
BLACK
6
CONTINUOUS
10
272.5299999999999727
20
-88.5600000000000023
11
272.5261939999999754
21
-88.5791339999999963
0
LINE
8
BLACK
6
CONTINUOUS
10
272.5261939999999754
20
-88.5791339999999963
11
272.4991339999999695
21
-88.6061940000000021
0
LINE
8
BLACK
6
CONTINUOUS
10
272.4991339999999695
20
-88.6061940000000021
11
272.4799999999999613
21
-88.6099999999999994
0
LINE
8
BLACK
6
CONTINUOUS
10
272.4799999999999613
20
-88.6099999999999994
11
258.4300000000000068
21
-88.6099999999999994
0
LINE
8
BLACK
6
CONTINUOUS
10
258.4300000000000068
20
-88.6099999999999994
11
258.4108659999999986
21
-88.6061940000000021
0
LINE
8
BLACK
6
CONTINUOUS
10
258.4108659999999986
20
-88.6061940000000021
11
258.3838059999999928
21
-88.5791339999999963
0
LINE
8
BLACK
6
CONTINUOUS
10
258.3838059999999928
20
-88.5791339999999963
11
258.3799999999999955
21
-88.5600000000000023
0
LINE
8
BLACK
6
CONTINUOUS
10
258.3799999999999955
20
-88.5600000000000023
11
258.3799999999999955
21
-74.5099999999999909
0
LINE
8
BLACK
6
CONTINUOUS
10
258.3799999999999955
20
-74.5099999999999909
11
258.3838059999999928
21
-74.4908659999999969
0
LINE
8
BLACK
6
CONTINUOUS
10
258.3838059999999928
20
-74.4908659999999969
11
258.4108659999999986
21
-74.4638059999999911
0
LINE
8
BLACK
6
CONTINUOUS
10
258.4108659999999986
20
-74.4638059999999911
11
258.4300000000000068
21
-74.4599999999999937
0
LINE
8
BLACK
6
CONTINUOUS
10
258.4300000000000068
20
-74.4599999999999937
11
272.4799999999999613
21
-74.4599999999999937
0
LINE
8
BLACK
6
CONTINUOUS
10
272.4799999999999613
20
-74.4599999999999937
11
272.4991339999999695
21
-74.4638059999999911
0
LINE
8
BLACK
6
CONTINUOUS
10
258.4799999999999613
20
-74.5600000000000023
11
258.4799999999999613
21
-88.5099999999999909
0
LINE
8
BLACK
6
CONTINUOUS
10
258.4799999999999613
20
-88.5099999999999909
11
272.4300000000000068
21
-88.5099999999999909
0
LINE
8
BLACK
6
CONTINUOUS
10
272.4300000000000068
20
-88.5099999999999909
11
272.4300000000000068
21
-74.5600000000000023
0
LINE
8
BLACK
6
CONTINUOUS
10
272.4300000000000068
20
-74.5600000000000023
11
258.4799999999999613
21
-74.5600000000000023
0
LINE
8
BLACK
6
CONTINUOUS
10
220.499133999999998
20
-57.4638059999999982
11
220.5261940000000038
21
-57.4908659999999969
0
LINE
8
BLACK
6
CONTINUOUS
10
220.5261940000000038
20
-57.4908659999999969
11
220.5300000000000011
21
-57.509999999999998
0
LINE
8
BLACK
6
CONTINUOUS
10
220.5300000000000011
20
-57.509999999999998
11
220.5300000000000011
21
-71.5600000000000023
0
LINE
8
BLACK
6
CONTINUOUS
10
220.5300000000000011
20
-71.5600000000000023
11
220.5261940000000038
21
-71.5791339999999963
0
LINE
8
BLACK
6
CONTINUOUS
10
220.5261940000000038
20
-71.5791339999999963
11
220.499133999999998
21
-71.6061940000000021
0
LINE
8
BLACK
6
CONTINUOUS
10
220.499133999999998
20
-71.6061940000000021
11
220.4799999999999898
21
-71.6099999999999994
0
LINE
8
BLACK
6
CONTINUOUS
10
220.4799999999999898
20
-71.6099999999999994
11
206.4199999999999875
21
-71.6099999999999994
0
LINE
8
BLACK
6
CONTINUOUS
10
206.4199999999999875
20
-71.6099999999999994
11
206.4008659999999793
21
-71.6061940000000021
0
LINE
8
BLACK
6
CONTINUOUS
10
206.4008659999999793
20
-71.6061940000000021
11
206.3738060000000019
21
-71.5791339999999963
0
LINE
8
BLACK
6
CONTINUOUS
10
206.3738060000000019
20
-71.5791339999999963
11
206.3700000000000045
21
-71.5600000000000023
0
LINE
8
BLACK
6
CONTINUOUS
10
206.3700000000000045
20
-71.5600000000000023
11
206.3700000000000045
21
-57.509999999999998
0
LINE
8
BLACK
6
CONTINUOUS
10
206.3700000000000045
20
-57.509999999999998
11
206.3738060000000019
21
-57.4908659999999969
0
LINE
8
BLACK
6
CONTINUOUS
10
206.3738060000000019
20
-57.4908659999999969
11
206.4008659999999793
21
-57.4638059999999982
0
LINE
8
BLACK
6
CONTINUOUS
10
206.4008659999999793
20
-57.4638059999999982
11
206.4199999999999875
21
-57.4600000000000009
0
LINE
8
BLACK
6
CONTINUOUS
10
206.4199999999999875
20
-57.4600000000000009
11
220.4799999999999898
21
-57.4600000000000009
0
LINE
8
BLACK
6
CONTINUOUS
10
220.4799999999999898
20
-57.4600000000000009
11
220.499133999999998
21
-57.4638059999999982
0
LINE
8
BLACK
6
CONTINUOUS
10
206.4699999999999989
20
-57.5599999999999952
11
206.4699999999999989
21
-71.5099999999999909
0
LINE
8
BLACK
6
CONTINUOUS
10
206.4699999999999989
20
-71.5099999999999909
11
220.4299999999999784
21
-71.5099999999999909
0
LINE
8
BLACK
6
CONTINUOUS
10
220.4299999999999784
20
-71.5099999999999909
11
220.4299999999999784
21
-57.5599999999999952
0
LINE
8
BLACK
6
CONTINUOUS
10
220.4299999999999784
20
-57.5599999999999952
11
206.4699999999999989
21
-57.5599999999999952
0
LINE
8
BLACK
6
CONTINUOUS
10
86.999133999999998
20
-41.9638059999999982
11
87.0261939999999896
21
-41.9908659999999969
0
LINE
8
BLACK
6
CONTINUOUS
10
87.0261939999999896
20
-41.9908659999999969
11
87.0300000000000011
21
-42.009999999999998
0
LINE
8
BLACK
6
CONTINUOUS
10
87.0300000000000011
20
-42.009999999999998
11
87.0300000000000011
21
-56.0599999999999952
0
LINE
8
BLACK
6
CONTINUOUS
10
87.0300000000000011
20
-56.0599999999999952
11
87.0261939999999896
21
-56.0791339999999963
0
LINE
8
BLACK
6
CONTINUOUS
10
87.0261939999999896
20
-56.0791339999999963
11
86.999133999999998
21
-56.106193999999995
0
LINE
8
BLACK
6
CONTINUOUS
10
86.999133999999998
20
-56.106193999999995
11
86.9799999999999898
21
-56.1099999999999994
0
LINE
8
BLACK
6
CONTINUOUS
10
86.9799999999999898
20
-56.1099999999999994
11
72.9299999999999926
21
-56.1099999999999994
0
LINE
8
BLACK
6
CONTINUOUS
10
72.9299999999999926
20
-56.1099999999999994
11
72.9108659999999986
21
-56.106193999999995
0
LINE
8
BLACK
6
CONTINUOUS
10
72.9108659999999986
20
-56.106193999999995
11
72.8838059999999928
21
-56.0791339999999963
0
LINE
8
BLACK
6
CONTINUOUS
10
72.8838059999999928
20
-56.0791339999999963
11
72.8799999999999955
21
-56.0599999999999952
0
LINE
8
BLACK
6
CONTINUOUS
10
72.8799999999999955
20
-56.0599999999999952
11
72.8799999999999955
21
-42.009999999999998
0
LINE
8
BLACK
6
CONTINUOUS
10
72.8799999999999955
20
-42.009999999999998
11
72.8838059999999928
21
-41.9908659999999969
0
LINE
8
BLACK
6
CONTINUOUS
10
72.8838059999999928
20
-41.9908659999999969
11
72.9108659999999986
21
-41.9638059999999982
0
LINE
8
BLACK
6
CONTINUOUS
10
72.9108659999999986
20
-41.9638059999999982
11
72.9299999999999926
21
-41.9600000000000009
0
LINE
8
BLACK
6
CONTINUOUS
10
72.9299999999999926
20
-41.9600000000000009
11
86.9799999999999898
21
-41.9600000000000009
0
LINE
8
BLACK
6
CONTINUOUS
10
86.9799999999999898
20
-41.9600000000000009
11
86.999133999999998
21
-41.9638059999999982
0
LINE
8
BLACK
6
CONTINUOUS
10
72.9799999999999898
20
-42.0599999999999952
11
72.9799999999999898
21
-56.009999999999998
0
LINE
8
BLACK
6
CONTINUOUS
10
72.9799999999999898
20
-56.009999999999998
11
86.9299999999999926
21
-56.009999999999998
0
LINE
8
BLACK
6
CONTINUOUS
10
86.9299999999999926
20
-56.009999999999998
11
86.9299999999999926
21
-42.0599999999999952
0
LINE
8
BLACK
6
CONTINUOUS
10
86.9299999999999926
20
-42.0599999999999952
11
72.9799999999999898
21
-42.0599999999999952
0
LINE
8
BLACK
6
CONTINUOUS
10
116.999133999999998
20
-41.9638059999999982
11
117.0261939999999896
21
-41.9908659999999969
0
LINE
8
BLACK
6
CONTINUOUS
10
117.0261939999999896
20
-41.9908659999999969
11
117.0300000000000011
21
-42.009999999999998
0
LINE
8
BLACK
6
CONTINUOUS
10
117.0300000000000011
20
-42.009999999999998
11
117.0300000000000011
21
-56.0599999999999952
0
LINE
8
BLACK
6
CONTINUOUS
10
117.0300000000000011
20
-56.0599999999999952
11
117.0261939999999896
21
-56.0791339999999963
0
LINE
8
BLACK
6
CONTINUOUS
10
117.0261939999999896
20
-56.0791339999999963
11
116.999133999999998
21
-56.106193999999995
0
LINE
8
BLACK
6
CONTINUOUS
10
116.999133999999998
20
-56.106193999999995
11
116.9799999999999898
21
-56.1099999999999994
0
LINE
8
BLACK
6
CONTINUOUS
10
116.9799999999999898
20
-56.1099999999999994
11
102.9299999999999926
21
-56.1099999999999994
0
LINE
8
BLACK
6
CONTINUOUS
10
102.9299999999999926
20
-56.1099999999999994
11
102.9108659999999986
21
-56.106193999999995
0
LINE
8
BLACK
6
CONTINUOUS
10
102.9108659999999986
20
-56.106193999999995
11
102.8838059999999928
21
-56.0791339999999963
0
LINE
8
BLACK
6
CONTINUOUS
10
102.8838059999999928
20
-56.0791339999999963
11
102.8799999999999955
21
-56.0599999999999952
0
LINE
8
BLACK
6
CONTINUOUS
10
102.8799999999999955
20
-56.0599999999999952
11
102.8799999999999955
21
-42.009999999999998
0
LINE
8
BLACK
6
CONTINUOUS
10
102.8799999999999955
20
-42.009999999999998
11
102.8838059999999928
21
-41.9908659999999969
0
LINE
8
BLACK
6
CONTINUOUS
10
102.8838059999999928
20
-41.9908659999999969
11
102.9108659999999986
21
-41.9638059999999982
0
LINE
8
BLACK
6
CONTINUOUS
10
102.9108659999999986
20
-41.9638059999999982
11
102.9299999999999926
21
-41.9600000000000009
0
LINE
8
BLACK
6
CONTINUOUS
10
102.9299999999999926
20
-41.9600000000000009
11
116.9799999999999898
21
-41.9600000000000009
0
LINE
8
BLACK
6
CONTINUOUS
10
116.9799999999999898
20
-41.9600000000000009
11
116.999133999999998
21
-41.9638059999999982
0
LINE
8
BLACK
6
CONTINUOUS
10
102.9799999999999898
20
-42.0599999999999952
11
102.9799999999999898
21
-56.009999999999998
0
LINE
8
BLACK
6
CONTINUOUS
10
102.9799999999999898
20
-56.009999999999998
11
116.9299999999999926
21
-56.009999999999998
0
LINE
8
BLACK
6
CONTINUOUS
10
116.9299999999999926
20
-56.009999999999998
11
116.9299999999999926
21
-42.0599999999999952
0
LINE
8
BLACK
6
CONTINUOUS
10
116.9299999999999926
20
-42.0599999999999952
11
102.9799999999999898
21
-42.0599999999999952
0
LINE
8
BLACK
6
CONTINUOUS
10
146.999133999999998
20
-41.9638059999999982
11
147.0261940000000038
21
-41.9908659999999969
0
LINE
8
BLACK
6
CONTINUOUS
10
147.0261940000000038
20
-41.9908659999999969
11
147.0300000000000011
21
-42.009999999999998
0
LINE
8
BLACK
6
CONTINUOUS
10
147.0300000000000011
20
-42.009999999999998
11
147.0300000000000011
21
-56.0599999999999952
0
LINE
8
BLACK
6
CONTINUOUS
10
147.0300000000000011
20
-56.0599999999999952
11
147.0261940000000038
21
-56.0791339999999963
0
LINE
8
BLACK
6
CONTINUOUS
10
147.0261940000000038
20
-56.0791339999999963
11
146.999133999999998
21
-56.106193999999995
0
LINE
8
BLACK
6
CONTINUOUS
10
146.999133999999998
20
-56.106193999999995
11
146.9799999999999898
21
-56.1099999999999994
0
LINE
8
BLACK
6
CONTINUOUS
10
146.9799999999999898
20
-56.1099999999999994
11
132.9300000000000068
21
-56.1099999999999994
0
LINE
8
BLACK
6
CONTINUOUS
10
132.9300000000000068
20
-56.1099999999999994
11
132.9108659999999986
21
-56.106193999999995
0
LINE
8
BLACK
6
CONTINUOUS
10
132.9108659999999986
20
-56.106193999999995
11
132.8838059999999928
21
-56.0791339999999963
0
LINE
8
BLACK
6
CONTINUOUS
10
132.8838059999999928
20
-56.0791339999999963
11
132.8799999999999955
21
-56.0599999999999952
0
LINE
8
BLACK
6
CONTINUOUS
10
132.8799999999999955
20
-56.0599999999999952
11
132.8799999999999955
21
-42.009999999999998
0
LINE
8
BLACK
6
CONTINUOUS
10
132.8799999999999955
20
-42.009999999999998
11
132.8838059999999928
21
-41.9908659999999969
0
LINE
8
BLACK
6
CONTINUOUS
10
132.8838059999999928
20
-41.9908659999999969
11
132.9108659999999986
21
-41.9638059999999982
0
LINE
8
BLACK
6
CONTINUOUS
10
132.9108659999999986
20
-41.9638059999999982
11
132.9300000000000068
21
-41.9600000000000009
0
LINE
8
BLACK
6
CONTINUOUS
10
132.9300000000000068
20
-41.9600000000000009
11
146.9799999999999898
21
-41.9600000000000009
0
LINE
8
BLACK
6
CONTINUOUS
10
146.9799999999999898
20
-41.9600000000000009
11
146.999133999999998
21
-41.9638059999999982
0
LINE
8
BLACK
6
CONTINUOUS
10
132.9799999999999898
20
-42.0599999999999952
11
132.9799999999999898
21
-56.009999999999998
0
LINE
8
BLACK
6
CONTINUOUS
10
132.9799999999999898
20
-56.009999999999998
11
146.9300000000000068
21
-56.009999999999998
0
LINE
8
BLACK
6
CONTINUOUS
10
146.9300000000000068
20
-56.009999999999998
11
146.9300000000000068
21
-42.0599999999999952
0
LINE
8
BLACK
6
CONTINUOUS
10
146.9300000000000068
20
-42.0599999999999952
11
132.9799999999999898
21
-42.0599999999999952
0
LINE
8
BLACK
6
CONTINUOUS
10
176.999133999999998
20
-41.9638059999999982
11
177.0261940000000038
21
-41.9908659999999969
0
LINE
8
BLACK
6
CONTINUOUS
10
177.0261940000000038
20
-41.9908659999999969
11
177.0300000000000011
21
-42.009999999999998
0
LINE
8
BLACK
6
CONTINUOUS
10
177.0300000000000011
20
-42.009999999999998
11
177.0300000000000011
21
-56.0599999999999952
0
LINE
8
BLACK
6
CONTINUOUS
10
177.0300000000000011
20
-56.0599999999999952
11
177.0261940000000038
21
-56.0791339999999963
0
LINE
8
BLACK
6
CONTINUOUS
10
177.0261940000000038
20
-56.0791339999999963
11
176.999133999999998
21
-56.106193999999995
0
LINE
8
BLACK
6
CONTINUOUS
10
176.999133999999998
20
-56.106193999999995
11
176.9799999999999898
21
-56.1099999999999994
0
LINE
8
BLACK
6
CONTINUOUS
10
176.9799999999999898
20
-56.1099999999999994
11
162.9300000000000068
21
-56.1099999999999994
0
LINE
8
BLACK
6
CONTINUOUS
10
162.9300000000000068
20
-56.1099999999999994
11
162.9108659999999986
21
-56.106193999999995
0
LINE
8
BLACK
6
CONTINUOUS
10
162.9108659999999986
20
-56.106193999999995
11
162.8838059999999928
21
-56.0791339999999963
0
LINE
8
BLACK
6
CONTINUOUS
10
162.8838059999999928
20
-56.0791339999999963
11
162.8799999999999955
21
-56.0599999999999952
0
LINE
8
BLACK
6
CONTINUOUS
10
162.8799999999999955
20
-56.0599999999999952
11
162.8799999999999955
21
-42.009999999999998
0
LINE
8
BLACK
6
CONTINUOUS
10
162.8799999999999955
20
-42.009999999999998
11
162.8838059999999928
21
-41.9908659999999969
0
LINE
8
BLACK
6
CONTINUOUS
10
162.8838059999999928
20
-41.9908659999999969
11
162.9108659999999986
21
-41.9638059999999982
0
LINE
8
BLACK
6
CONTINUOUS
10
162.9108659999999986
20
-41.9638059999999982
11
162.9300000000000068
21
-41.9600000000000009
0
LINE
8
BLACK
6
CONTINUOUS
10
162.9300000000000068
20
-41.9600000000000009
11
176.9799999999999898
21
-41.9600000000000009
0
LINE
8
BLACK
6
CONTINUOUS
10
176.9799999999999898
20
-41.9600000000000009
11
176.999133999999998
21
-41.9638059999999982
0
LINE
8
BLACK
6
CONTINUOUS
10
162.9799999999999898
20
-42.0599999999999952
11
162.9799999999999898
21
-56.009999999999998
0
LINE
8
BLACK
6
CONTINUOUS
10
162.9799999999999898
20
-56.009999999999998
11
176.9299999999999784
21
-56.009999999999998
0
LINE
8
BLACK
6
CONTINUOUS
10
176.9299999999999784
20
-56.009999999999998
11
176.9299999999999784
21
-42.0599999999999952
0
LINE
8
BLACK
6
CONTINUOUS
10
176.9299999999999784
20
-42.0599999999999952
11
162.9799999999999898
21
-42.0599999999999952
0
LINE
8
BLACK
6
CONTINUOUS
10
342.5355339999999842
20
-29.4855339999999977
11
342.9525569999999561
21
-29.5027849999999994
0
LINE
8
BLACK
6
CONTINUOUS
10
342.9525569999999561
20
-29.5027849999999994
11
343.3667309999999588
21
-29.5544149999999988
0
LINE
8
BLACK
6
CONTINUOUS
10
343.3667309999999588
20
-29.5544149999999988
11
343.7752269999999726
21
-29.6400699999999979
0
LINE
8
BLACK
6
CONTINUOUS
10
343.7752269999999726
20
-29.6400699999999979
11
344.1752539999999954
21
-29.7591659999999969
0
LINE
8
BLACK
6
CONTINUOUS
10
344.1752539999999954
20
-29.7591659999999969
11
344.5640799999999899
21
-29.9108899999999984
0
LINE
8
BLACK
6
CONTINUOUS
10
344.5640799999999899
20
-29.9108899999999984
11
344.939047999999957
21
-30.0942039999999977
0
LINE
8
BLACK
6
CONTINUOUS
10
344.939047999999957
20
-30.0942039999999977
11
345.2975979999999936
21
-30.3078569999999985
0
LINE
8
BLACK
6
CONTINUOUS
10
345.2975979999999936
20
-30.3078569999999985
11
345.6372799999999756
21
-30.5503879999999981
0
LINE
8
BLACK
6
CONTINUOUS
10
345.6372799999999756
20
-30.5503879999999981
11
345.9557739999999626
21
-30.8201429999999981
0
LINE
8
BLACK
6
CONTINUOUS
10
345.9557739999999626
20
-30.8201429999999981
11
346.2509039999999914
21
-31.1152759999999979
0
LINE
8
BLACK
6
CONTINUOUS
10
346.2509039999999914
20
-31.1152759999999979
11
346.5206539999999791
21
-31.4337739999999997
0
LINE
8
BLACK
6
CONTINUOUS
10
346.5206539999999791
20
-31.4337739999999997
11
346.7631809999999746
21
-31.773458999999999
0
LINE
8
BLACK
6
CONTINUOUS
10
346.7631809999999746
20
-31.773458999999999
11
346.9768290000000093
21
-32.132011999999996
0
LINE
8
BLACK
6
CONTINUOUS
10
346.9768290000000093
20
-32.132011999999996
11
347.1601379999999608
21
-32.5069829999999982
0
LINE
8
BLACK
6
CONTINUOUS
10
347.1601379999999608
20
-32.5069829999999982
11
347.3118559999999775
21
-32.8958110000000019
0
LINE
8
BLACK
6
CONTINUOUS
10
347.3118559999999775
20
-32.8958110000000019
11
347.4309470000000033
21
-33.2958399999999983
0
LINE
8
BLACK
6
CONTINUOUS
10
347.4309470000000033
20
-33.2958399999999983
11
347.5165969999999902
21
-33.7043369999999953
0
LINE
8
BLACK
6
CONTINUOUS
10
347.5165969999999902
20
-33.7043369999999953
11
347.5682209999999941
21
-34.118510999999998
0
LINE
8
BLACK
6
CONTINUOUS
10
347.5682209999999941
20
-34.118510999999998
11
347.5854479999999853
21
-34.535102000000002
0
LINE
8
BLACK
6
CONTINUOUS
10
347.5854479999999853
20
-34.535102000000002
11
347.5855339999999956
21
-34.5355339999999984
0
LINE
8
BLACK
6
CONTINUOUS
10
347.5855339999999956
20
-34.5355339999999984
11
347.5855339999999956
21
-234.5355339999999842
0
LINE
8
BLACK
6
CONTINUOUS
10
347.5855339999999956
20
-234.5355339999999842
11
347.5682830000000081
21
-234.9525589999999795
0
LINE
8
BLACK
6
CONTINUOUS
10
347.5682830000000081
20
-234.9525589999999795
11
347.51665399999996
21
-235.3667349999999772
0
LINE
8
BLACK
6
CONTINUOUS
10
347.51665399999996
20
-235.3667349999999772
11
347.4309989999999857
21
-235.7752329999999859
0
LINE
8
BLACK
6
CONTINUOUS
10
347.4309989999999857
20
-235.7752329999999859
11
347.3119029999999725
21
-236.1752619999999752
0
LINE
8
BLACK
6
CONTINUOUS
10
347.3119029999999725
20
-236.1752619999999752
11
347.1601799999999685
21
-236.5640899999999931
0
LINE
8
BLACK
6
CONTINUOUS
10
347.1601799999999685
20
-236.5640899999999931
11
346.9768659999999727
21
-236.9390619999999785
0
LINE
8
BLACK
6
CONTINUOUS
10
346.9768659999999727
20
-236.9390619999999785
11
346.7632140000000049
21
-237.2976139999999816
0
LINE
8
BLACK
6
CONTINUOUS
10
346.7632140000000049
20
-237.2976139999999816
11
346.5206829999999627
21
-237.6372989999999845
0
LINE
8
BLACK
6
CONTINUOUS
10
346.5206829999999627
20
-237.6372989999999845
11
346.2509299999999826
21
-237.9557959999999923
0
LINE
8
BLACK
6
CONTINUOUS
10
346.2509299999999826
20
-237.9557959999999923
11
345.9557959999999639
21
-238.2509299999999826
0
LINE
8
BLACK
6
CONTINUOUS
10
345.9557959999999639
20
-238.2509299999999826
11
345.6372989999999845
21
-238.5206829999999911
0
LINE
8
BLACK
6
CONTINUOUS
10
345.6372989999999845
20
-238.5206829999999911
11
345.29761400000001
21
-238.7632139999999765
0
LINE
8
BLACK
6
CONTINUOUS
10
345.29761400000001
20
-238.7632139999999765
11
344.9390619999999785
21
-238.9768660000000011
0
LINE
8
BLACK
6
CONTINUOUS
10
344.9390619999999785
20
-238.9768660000000011
11
344.5640899999999647
21
-239.1601799999999969
0
LINE
8
BLACK
6
CONTINUOUS
10
344.5640899999999647
20
-239.1601799999999969
11
344.1752619999999752
21
-239.3119030000000009
0
LINE
8
BLACK
6
CONTINUOUS
10
344.1752619999999752
20
-239.3119030000000009
11
343.7752329999999574
21
-239.4309989999999857
0
LINE
8
BLACK
6
CONTINUOUS
10
343.7752329999999574
20
-239.4309989999999857
11
343.3667350000000056
21
-239.5166539999999884
0
LINE
8
BLACK
6
CONTINUOUS
10
343.3667350000000056
20
-239.5166539999999884
11
342.9525590000000079
21
-239.5682829999999797
0
LINE
8
BLACK
6
CONTINUOUS
10
342.9525590000000079
20
-239.5682829999999797
11
342.5355339999999842
21
-239.5855339999999956
0
LINE
8
BLACK
6
CONTINUOUS
10
342.5355339999999842
20
-239.5855339999999956
11
55.5355339999999984
21
-239.5855339999999956
0
LINE
8
BLACK
6
CONTINUOUS
10
55.5355339999999984
20
-239.5855339999999956
11
55.1185059999999964
21
-239.5682879999999955
0
LINE
8
BLACK
6
CONTINUOUS
10
55.1185059999999964
20
-239.5682879999999955
11
54.7043259999999947
21
-239.5166639999999916
0
LINE
8
BLACK
6
CONTINUOUS
10
54.7043259999999947
20
-239.5166639999999916
11
54.2958229999999986
21
-239.4310129999999788
0
LINE
8
BLACK
6
CONTINUOUS
10
54.2958229999999986
20
-239.4310129999999788
11
53.8957890000000006
21
-239.3119199999999864
0
LINE
8
BLACK
6
CONTINUOUS
10
53.8957890000000006
20
-239.3119199999999864
11
53.5069559999999953
21
-239.1602000000000032
0
LINE
8
BLACK
6
CONTINUOUS
10
53.5069559999999953
20
-239.1602000000000032
11
53.1319799999999987
21
-238.9768889999999999
0
LINE
8
BLACK
6
CONTINUOUS
10
53.1319799999999987
20
-238.9768889999999999
11
52.7734219999999965
21
-238.7632380000000012
0
LINE
8
BLACK
6
CONTINUOUS
10
52.7734219999999965
20
-238.7632380000000012
11
52.4337319999999991
21
-238.5207069999999874
0
LINE
8
BLACK
6
CONTINUOUS
10
52.4337319999999991
20
-238.5207069999999874
11
52.1152299999999968
21
-238.2509539999999788
0
LINE
8
BLACK
6
CONTINUOUS
10
52.1152299999999968
20
-238.2509539999999788
11
51.8200919999999954
21
-237.9558199999999886
0
LINE
8
BLACK
6
CONTINUOUS
10
51.8200919999999954
20
-237.9558199999999886
11
51.5503349999999969
21
-237.6373219999999833
0
LINE
8
BLACK
6
CONTINUOUS
10
51.5503349999999969
20
-237.6373219999999833
11
51.3078000000000003
21
-237.2976359999999829
0
LINE
8
BLACK
6
CONTINUOUS
10
51.3078000000000003
20
-237.2976359999999829
11
51.094144
21
-236.9390809999999874
0
LINE
8
BLACK
6
CONTINUOUS
10
51.094144
20
-236.9390809999999874
11
50.9108269999999976
21
-236.5641069999999786
0
LINE
8
BLACK
6
CONTINUOUS
10
50.9108269999999976
20
-236.5641069999999786
11
50.7591019999999986
21
-236.1752759999999967
0
LINE
8
BLACK
6
CONTINUOUS
10
50.7591019999999986
20
-236.1752759999999967
11
50.6400039999999976
21
-235.775242999999989
0
LINE
8
BLACK
6
CONTINUOUS
10
50.6400039999999976
20
-235.775242999999989
11
50.5543479999999974
21
-235.3667419999999879
0
LINE
8
BLACK
6
CONTINUOUS
10
50.5543479999999974
20
-235.3667419999999879
11
50.502716999999997
21
-234.9525629999999978
0
LINE
8
BLACK
6
CONTINUOUS
10
50.502716999999997
20
-234.9525629999999978
11
50.4854659999999953
21
-234.5355339999999842
0
LINE
8
BLACK
6
CONTINUOUS
10
50.4854659999999953
20
-234.5355339999999842
11
50.4855340000000012
21
-234.5355339999999842
0
LINE
8
BLACK
6
CONTINUOUS
10
50.4855340000000012
20
-234.5355339999999842
11
50.4855340000000012
21
-34.5355339999999984
0
LINE
8
BLACK
6
CONTINUOUS
10
50.4855340000000012
20
-34.5355339999999984
11
50.5027819999999963
21
-34.1185079999999985
0
LINE
8
BLACK
6
CONTINUOUS
10
50.5027819999999963
20
-34.1185079999999985
11
50.5544089999999997
21
-33.7043309999999963
0
LINE
8
BLACK
6
CONTINUOUS
10
50.5544089999999997
20
-33.7043309999999963
11
50.6400620000000004
21
-33.2958319999999972
0
LINE
8
BLACK
6
CONTINUOUS
10
50.6400620000000004
20
-33.2958319999999972
11
50.7591559999999973
21
-32.8958009999999987
0
LINE
8
BLACK
6
CONTINUOUS
10
50.7591559999999973
20
-32.8958009999999987
11
50.9108779999999967
21
-32.5069710000000001
0
LINE
8
BLACK
6
CONTINUOUS
10
50.9108779999999967
20
-32.5069710000000001
11
51.0941899999999976
21
-32.1319990000000004
0
LINE
8
BLACK
6
CONTINUOUS
10
51.0941899999999976
20
-32.1319990000000004
11
51.3078420000000008
21
-31.7734449999999988
0
LINE
8
BLACK
6
CONTINUOUS
10
51.3078420000000008
20
-31.7734449999999988
11
51.5503730000000004
21
-31.4337589999999985
0
LINE
8
BLACK
6
CONTINUOUS
10
51.5503730000000004
20
-31.4337589999999985
11
51.8201269999999994
21
-31.1152610000000003
0
LINE
8
BLACK
6
CONTINUOUS
10
51.8201269999999994
20
-31.1152610000000003
11
52.1152609999999967
21
-30.8201269999999994
0
LINE
8
BLACK
6
CONTINUOUS
10
52.1152609999999967
20
-30.8201269999999994
11
52.4337589999999949
21
-30.5503729999999969
0
LINE
8
BLACK
6
CONTINUOUS
10
52.4337589999999949
20
-30.5503729999999969
11
52.7734449999999953
21
-30.3078419999999973
0
LINE
8
BLACK
6
CONTINUOUS
10
52.7734449999999953
20
-30.3078419999999973
11
53.1319990000000004
21
-30.0941899999999976
0
LINE
8
BLACK
6
CONTINUOUS
10
53.1319990000000004
20
-30.0941899999999976
11
53.5069710000000001
21
-29.9108780000000003
0
LINE
8
BLACK
6
CONTINUOUS
10
53.5069710000000001
20
-29.9108780000000003
11
53.8958009999999987
21
-29.7591559999999973
0
LINE
8
BLACK
6
CONTINUOUS
10
53.8958009999999987
20
-29.7591559999999973
11
54.2958319999999972
21
-29.6400620000000004
0
LINE
8
BLACK
6
CONTINUOUS
10
54.2958319999999972
20
-29.6400620000000004
11
54.7043309999999963
21
-29.5544089999999997
0
LINE
8
BLACK
6
CONTINUOUS
10
54.7043309999999963
20
-29.5544089999999997
11
55.1185079999999985
21
-29.5027819999999998
0
LINE
8
BLACK
6
CONTINUOUS
10
55.1185079999999985
20
-29.5027819999999998
11
55.5355339999999984
21
-29.4855339999999977
0
LINE
8
BLACK
6
CONTINUOUS
10
55.5355339999999984
20
-29.4855339999999977
11
342.5355339999999842
21
-29.4855339999999977
0
LINE
8
BLACK
6
CONTINUOUS
10
55.5355339999999984
20
-29.5855339999999991
11
55.3194119999999998
21
-29.5855339999999991
0
LINE
8
BLACK
6
CONTINUOUS
10
55.3194119999999998
20
-29.5855339999999991
11
54.8888139999999964
21
-29.6232059999999997
0
LINE
8
BLACK
6
CONTINUOUS
10
54.8888139999999964
20
-29.6232059999999997
11
54.4631369999999961
21
-29.6982639999999982
0
LINE
8
BLACK
6
CONTINUOUS
10
54.4631369999999961
20
-29.6982639999999982
11
54.0456219999999945
21
-29.810136
0
LINE
8
BLACK
6
CONTINUOUS
10
54.0456219999999945
20
-29.810136
11
53.6394459999999995
21
-29.957971999999998
0
LINE
8
BLACK
6
CONTINUOUS
10
53.6394459999999995
20
-29.957971999999998
11
53.2476999999999947
21
-30.1406460000000003
0
LINE
8
BLACK
6
CONTINUOUS
10
53.2476999999999947
20
-30.1406460000000003
11
52.8733659999999972
21
-30.3567679999999989
0
LINE
8
BLACK
6
CONTINUOUS
10
52.8733659999999972
20
-30.3567679999999989
11
52.5192929999999976
21
-30.604692
0
LINE
8
BLACK
6
CONTINUOUS
10
52.5192929999999976
20
-30.604692
11
52.1881750000000011
21
-30.8825329999999987
0
LINE
8
BLACK
6
CONTINUOUS
10
52.1881750000000011
20
-30.8825329999999987
11
51.8825329999999951
21
-31.1881749999999975
0
LINE
8
BLACK
6
CONTINUOUS
10
51.8825329999999951
20
-31.1881749999999975
11
51.604692
21
-31.5192929999999976
0
LINE
8
BLACK
6
CONTINUOUS
10
51.604692
20
-31.5192929999999976
11
51.3567679999999953
21
-31.8733659999999972
0
LINE
8
BLACK
6
CONTINUOUS
10
51.3567679999999953
20
-31.8733659999999972
11
51.1406459999999967
21
-32.2477000000000018
0
LINE
8
BLACK
6
CONTINUOUS
10
51.1406459999999967
20
-32.2477000000000018
11
50.957971999999998
21
-32.6394459999999995
0
LINE
8
BLACK
6
CONTINUOUS
10
50.957971999999998
20
-32.6394459999999995
11
50.810136
21
-33.0456220000000016
0
LINE
8
BLACK
6
CONTINUOUS
10
50.810136
20
-33.0456220000000016
11
50.6982639999999947
21
-33.4631369999999961
0
LINE
8
BLACK
6
CONTINUOUS
10
50.6982639999999947
20
-33.4631369999999961
11
50.6232059999999962
21
-33.8888139999999964
0
LINE
8
BLACK
6
CONTINUOUS
10
50.6232059999999962
20
-33.8888139999999964
11
50.5855339999999956
21
-34.3194119999999998
0
LINE
8
BLACK
6
CONTINUOUS
10
50.5855339999999956
20
-34.3194119999999998
11
50.5855339999999956
21
-34.5355339999999984
0
LINE
8
BLACK
6
CONTINUOUS
10
50.5855339999999956
20
-34.5355339999999984
11
50.5855339999999956
21
-234.5355339999999842
0
LINE
8
BLACK
6
CONTINUOUS
10
50.5855339999999956
20
-234.5355339999999842
11
50.5854659999999967
21
-234.5358749999999759
0
LINE
8
BLACK
6
CONTINUOUS
10
50.5854659999999967
20
-234.5358749999999759
11
50.5854669999999942
21
-234.7516569999999945
0
LINE
8
BLACK
6
CONTINUOUS
10
50.5854669999999942
20
-234.7516569999999945
11
50.6231429999999989
21
-235.1822579999999903
0
LINE
8
BLACK
6
CONTINUOUS
10
50.6231429999999989
20
-235.1822579999999903
11
50.6982049999999944
21
-235.6079369999999926
0
LINE
8
BLACK
6
CONTINUOUS
10
50.6982049999999944
20
-235.6079369999999926
11
50.8100809999999967
21
-236.0254539999999963
0
LINE
8
BLACK
6
CONTINUOUS
10
50.8100809999999967
20
-236.0254539999999963
11
50.9579209999999989
21
-236.4316319999999791
0
LINE
8
BLACK
6
CONTINUOUS
10
50.9579209999999989
20
-236.4316319999999791
11
51.1405989999999946
21
-236.8233789999999885
0
LINE
8
BLACK
6
CONTINUOUS
10
51.1405989999999946
20
-236.8233789999999885
11
51.3567239999999998
21
-237.1977139999999906
0
LINE
8
BLACK
6
CONTINUOUS
10
51.3567239999999998
20
-237.1977139999999906
11
51.604652999999999
21
-237.5517869999999903
0
LINE
8
BLACK
6
CONTINUOUS
10
51.604652999999999
20
-237.5517869999999903
11
51.8824979999999982
21
-237.8829049999999938
0
LINE
8
BLACK
6
CONTINUOUS
10
51.8824979999999982
20
-237.8829049999999938
11
52.1881439999999941
21
-238.1885479999999973
0
LINE
8
BLACK
6
CONTINUOUS
10
52.1881439999999941
20
-238.1885479999999973
11
52.5192659999999947
21
-238.4663879999999949
0
LINE
8
BLACK
6
CONTINUOUS
10
52.5192659999999947
20
-238.4663879999999949
11
52.8733429999999984
21
-238.7143119999999783
0
LINE
8
BLACK
6
CONTINUOUS
10
52.8733429999999984
20
-238.7143119999999783
11
53.247681
21
-238.9304319999999962
0
LINE
8
BLACK
6
CONTINUOUS
10
53.247681
20
-238.9304319999999962
11
53.6394299999999973
21
-239.1131049999999902
0
LINE
8
BLACK
6
CONTINUOUS
10
53.6394299999999973
20
-239.1131049999999902
11
54.0456099999999964
21
-239.2609389999999792
0
LINE
8
BLACK
6
CONTINUOUS
10
54.0456099999999964
20
-239.2609389999999792
11
54.463128999999995
21
-239.372809999999987
0
LINE
8
BLACK
6
CONTINUOUS
10
54.463128999999995
20
-239.372809999999987
11
54.8888089999999949
21
-239.4478659999999763
0
LINE
8
BLACK
6
CONTINUOUS
10
54.8888089999999949
20
-239.4478659999999763
11
55.3194109999999952
21
-239.4855359999999962
0
LINE
8
BLACK
6
CONTINUOUS
10
55.3194109999999952
20
-239.4855359999999962
11
55.5355339999999984
21
-239.4855340000000012
0
LINE
8
BLACK
6
CONTINUOUS
10
55.5355339999999984
20
-239.4855340000000012
11
342.5355339999999842
21
-239.4855340000000012
0
LINE
8
BLACK
6
CONTINUOUS
10
342.5355339999999842
20
-239.4855340000000012
11
342.7516549999999711
21
-239.4855329999999753
0
LINE
8
BLACK
6
CONTINUOUS
10
342.7516549999999711
20
-239.4855329999999753
11
343.1822520000000054
21
-239.4478579999999965
0
LINE
8
BLACK
6
CONTINUOUS
10
343.1822520000000054
20
-239.4478579999999965
11
343.6079279999999585
21
-239.3727969999999914
0
LINE
8
BLACK
6
CONTINUOUS
10
343.6079279999999585
20
-239.3727969999999914
11
344.0254419999999982
21
-239.2609229999999911
0
LINE
8
BLACK
6
CONTINUOUS
10
344.0254419999999982
20
-239.2609229999999911
11
344.4316159999999627
21
-239.1130859999999814
0
LINE
8
BLACK
6
CONTINUOUS
10
344.4316159999999627
20
-239.1130859999999814
11
344.8233609999999771
21
-238.9304109999999923
0
LINE
8
BLACK
6
CONTINUOUS
10
344.8233609999999771
20
-238.9304109999999923
11
345.1976929999999584
21
-238.7142889999999795
0
LINE
8
BLACK
6
CONTINUOUS
10
345.1976929999999584
20
-238.7142889999999795
11
345.551764999999989
21
-238.4663639999999987
0
LINE
8
BLACK
6
CONTINUOUS
10
345.551764999999989
20
-238.4663639999999987
11
345.8828819999999951
21
-238.188524000000001
0
LINE
8
BLACK
6
CONTINUOUS
10
345.8828819999999951
20
-238.188524000000001
11
346.1885239999999726
21
-237.8828819999999951
0
LINE
8
BLACK
6
CONTINUOUS
10
346.1885239999999726
20
-237.8828819999999951
11
346.4663639999999987
21
-237.551764999999989
0
LINE
8
BLACK
6
CONTINUOUS
10
346.4663639999999987
20
-237.551764999999989
11
346.7142890000000079
21
-237.1976929999999868
0
LINE
8
BLACK
6
CONTINUOUS
10
346.7142890000000079
20
-237.1976929999999868
11
346.9304109999999923
21
-236.8233609999999771
0
LINE
8
BLACK
6
CONTINUOUS
10
346.9304109999999923
20
-236.8233609999999771
11
347.1130860000000098
21
-236.4316159999999911
0
LINE
8
BLACK
6
CONTINUOUS
10
347.1130860000000098
20
-236.4316159999999911
11
347.2609229999999911
21
-236.0254419999999982
0
LINE
8
BLACK
6
CONTINUOUS
10
347.2609229999999911
20
-236.0254419999999982
11
347.3727969999999914
21
-235.6079279999999869
0
LINE
8
BLACK
6
CONTINUOUS
10
347.3727969999999914
20
-235.6079279999999869
11
347.4478579999999965
21
-235.182251999999977
0
LINE
8
BLACK
6
CONTINUOUS
10
347.4478579999999965
20
-235.182251999999977
11
347.4855329999999753
21
-234.7516549999999995
0
LINE
8
BLACK
6
CONTINUOUS
10
347.4855329999999753
20
-234.7516549999999995
11
347.4855339999999728
21
-234.5355339999999842
0
LINE
8
BLACK
6
CONTINUOUS
10
347.4855339999999728
20
-234.5355339999999842
11
347.4855339999999728
21
-34.5355339999999984
0
LINE
8
BLACK
6
CONTINUOUS
10
347.4855339999999728
20
-34.5355339999999984
11
347.485465999999974
21
-34.5355339999999984
0
LINE
8
BLACK
6
CONTINUOUS
10
347.485465999999974
20
-34.5355339999999984
11
347.4854679999999689
21
-34.3194129999999973
0
LINE
8
BLACK
6
CONTINUOUS
10
347.4854679999999689
20
-34.3194129999999973
11
347.4477979999999775
21
-33.8888180000000006
0
LINE
8
BLACK
6
CONTINUOUS
10
347.4477979999999775
20
-33.8888180000000006
11
347.3727440000000115
21
-33.4631429999999952
0
LINE
8
BLACK
6
CONTINUOUS
10
347.3727440000000115
20
-33.4631429999999952
11
347.2608740000000012
21
-33.0456310000000002
0
LINE
8
BLACK
6
CONTINUOUS
10
347.2608740000000012
20
-33.0456310000000002
11
347.1130420000000072
21
-32.6394559999999956
0
LINE
8
BLACK
6
CONTINUOUS
10
347.1130420000000072
20
-32.6394559999999956
11
346.9303719999999771
21
-32.2477119999999999
0
LINE
8
BLACK
6
CONTINUOUS
10
346.9303719999999771
20
-32.2477119999999999
11
346.7142549999999801
21
-31.8733799999999974
0
LINE
8
BLACK
6
CONTINUOUS
10
346.7142549999999801
20
-31.8733799999999974
11
346.4663339999999607
21
-31.5193069999999977
0
LINE
8
BLACK
6
CONTINUOUS
10
346.4663339999999607
20
-31.5193069999999977
11
346.1884979999999814
21
-31.1881899999999987
0
LINE
8
BLACK
6
CONTINUOUS
10
346.1884979999999814
20
-31.1881899999999987
11
345.8828589999999963
21
-30.8825479999999999
0
LINE
8
BLACK
6
CONTINUOUS
10
345.8828589999999963
20
-30.8825479999999999
11
345.5517459999999801
21
-30.6047069999999977
0
LINE
8
BLACK
6
CONTINUOUS
10
345.5517459999999801
20
-30.6047069999999977
11
345.1976769999999988
21
-30.356781999999999
0
LINE
8
BLACK
6
CONTINUOUS
10
345.1976769999999988
20
-30.356781999999999
11
344.8233470000000125
21
-30.1406589999999994
0
LINE
8
BLACK
6
CONTINUOUS
10
344.8233470000000125
20
-30.1406589999999994
11
344.4316059999999879
21
-29.9579839999999997
0
LINE
8
BLACK
6
CONTINUOUS
10
344.4316059999999879
20
-29.9579839999999997
11
344.0254339999999615
21
-29.8101459999999996
0
LINE
8
BLACK
6
CONTINUOUS
10
344.0254339999999615
20
-29.8101459999999996
11
343.6079219999999737
21
-29.6982709999999983
0
LINE
8
BLACK
6
CONTINUOUS
10
343.6079219999999737
20
-29.6982709999999983
11
343.1822489999999561
21
-29.6232100000000003
0
LINE
8
BLACK
6
CONTINUOUS
10
343.1822489999999561
20
-29.6232100000000003
11
342.7516539999999736
21
-29.5855350000000001
0
LINE
8
BLACK
6
CONTINUOUS
10
342.7516539999999736
20
-29.5855350000000001
11
342.5355339999999842
21
-29.5855339999999991
0
LINE
8
BLACK
6
CONTINUOUS
10
342.5355339999999842
20
-29.5855339999999991
11
55.5355339999999984
21
-29.5855339999999991
  0
ENDSEC
  0
EOF
