<?xml version="1.0" standalone="no"?>
 <!DOCTYPE svg PUBLIC "-//W3C//DTD SVG 1.1//EN" 
 "http://www.w3.org/Graphics/SVG/1.1/DTD/svg11.dtd"> 
<svg
  xmlns:svg="http://www.w3.org/2000/svg"
  xmlns="http://www.w3.org/2000/svg"
  xmlns:xlink="http://www.w3.org/1999/xlink"
  version="1.1"
  width="419.9890mm" height="297.0022mm" viewBox="0.0000 0.0000 419.9890 297.0022">
<title>SVG Image created as ember_top_plate-Edge_Cuts.svg date 2026/01/07 05:28:49 </title>
  <desc>Image generated by PCBNEW </desc>
<g style="fill:#000000; fill-opacity:1.0000;stroke:#000000; stroke-opacity:1.0000;
stroke-linecap:round; stroke-linejoin:round;"
 transform="translate(0 0) scale(1 1)">
</g>
<g style="fill:none; 
stroke:#D0D2CD; stroke-width:0.1000; stroke-opacity:1; 
stroke-linecap:round; stroke-linejoin:round;">
<path d="M55.5355 29.5355 A5.0000 5.0000 0.0 0 0 50.5355 34.5355" />
<path d="M347.5355 34.5355 A5.0000 5.0000 0.0 0 0 342.5355 29.5355" />
<path d="M50.5355 234.5355 A5.0000 5.0000 0.0 0 0 55.5355 239.5355" />
<path style="fill:none; 
stroke:#D0D2CD; stroke-width:0.1000; stroke-opacity:1; 
stroke-linecap:round; stroke-linejoin:round;fill:none"
d="M 258.4300,74.5100
272.4800,74.5100
272.4800,88.5600
258.4300,88.5600
Z" /> 
<path style="fill:none; 
stroke:#D0D2CD; stroke-width:0.1000; stroke-opacity:1; 
stroke-linecap:round; stroke-linejoin:round;fill:none"
d="M 155.2700,156.5100
169.3200,156.5100
169.3200,170.5600
155.2700,170.5600
Z" /> 
<path style="fill:none; 
stroke:#D0D2CD; stroke-width:0.1000; stroke-opacity:1; 
stroke-linecap:round; stroke-linejoin:round;fill:none"
d="M 72.9300,42.0100
86.9800,42.0100
86.9800,56.0600
72.9300,56.0600
Z" /> 
<path style="fill:none; 
stroke:#D0D2CD; stroke-width:0.1000; stroke-opacity:1; 
stroke-linecap:round; stroke-linejoin:round;fill:none"
d="M 227.4300,104.5100
241.4800,104.5100
241.4800,118.5600
227.4300,118.5600
Z" /> 
<path style="fill:none; 
stroke:#D0D2CD; stroke-width:0.1000; stroke-opacity:1; 
stroke-linecap:round; stroke-linejoin:round;fill:none"
d="M 192.4300,156.5100
206.4800,156.5100
206.4800,170.5600
192.4300,170.5600
Z" /> 
<path style="fill:none; 
stroke:#D0D2CD; stroke-width:0.1000; stroke-opacity:1; 
stroke-linecap:round; stroke-linejoin:round;fill:none"
d="M 229.4300,74.5100
243.4800,74.5100
243.4800,88.5600
229.4300,88.5600
Z" /> 
<path style="fill:none; 
stroke:#D0D2CD; stroke-width:0.1000; stroke-opacity:1; 
stroke-linecap:round; stroke-linejoin:round;fill:none"
d="M 286.4300,108.5100
300.4800,108.5100
300.4800,122.5600
286.4300,122.5600
Z" /> 
<path style="fill:none; 
stroke:#D0D2CD; stroke-width:0.1000; stroke-opacity:1; 
stroke-linecap:round; stroke-linejoin:round;fill:none"
d="M 217.4300,138.5100
231.4800,138.5100
231.4800,152.5600
217.4300,152.5600
Z" /> 
<path style="fill:none; 
stroke:#D0D2CD; stroke-width:0.1000; stroke-opacity:1; 
stroke-linecap:round; stroke-linejoin:round;fill:none"
d="M 206.4200,57.5100
220.4800,57.5100
220.4800,71.5600
206.4200,71.5600
Z" /> 
<path style="fill:none; 
stroke:#D0D2CD; stroke-width:0.1000; stroke-opacity:1; 
stroke-linecap:round; stroke-linejoin:round;fill:none"
d="M 102.9300,42.0100
116.9800,42.0100
116.9800,56.0600
102.9300,56.0600
Z" /> 
<path style="fill:none; 
stroke:#D0D2CD; stroke-width:0.1000; stroke-opacity:1; 
stroke-linecap:round; stroke-linejoin:round;fill:none"
d="M 151.4300,84.5100
165.4800,84.5100
165.4800,98.5600
151.4300,98.5600
Z" /> 
<path d="M342.5355 239.5355 A5.0000 5.0000 0.0 0 0 347.5355 234.5355" />
<path style="fill:none; 
stroke:#D0D2CD; stroke-width:0.1000; stroke-opacity:1; 
stroke-linecap:round; stroke-linejoin:round;fill:none"
d="M 201.4300,114.5100
215.4800,114.5100
215.4800,128.5600
201.4300,128.5600
Z" /> 
<path style="fill:none; 
stroke:#D0D2CD; stroke-width:0.1000; stroke-opacity:1; 
stroke-linecap:round; stroke-linejoin:round;fill:none"
d="M 132.9300,42.0100
146.9800,42.0100
146.9800,56.0600
132.9300,56.0600
Z" /> 
<path style="fill:none; 
stroke:#D0D2CD; stroke-width:0.1000; stroke-opacity:1; 
stroke-linecap:round; stroke-linejoin:round;fill:none"
d="M 176.2700,96.5100
190.3200,96.5100
190.3200,110.5600
176.2700,110.5600
Z" /> 
<path d="M347.5355 234.5355
L347.5355 34.5355
" />
<path style="fill:none; 
stroke:#D0D2CD; stroke-width:0.1000; stroke-opacity:1; 
stroke-linecap:round; stroke-linejoin:round;fill:none"
d="M 286.4300,77.5100
300.4800,77.5100
300.4800,91.5600
286.4300,91.5600
Z" /> 
<path style="fill:none; 
stroke:#D0D2CD; stroke-width:0.1000; stroke-opacity:1; 
stroke-linecap:round; stroke-linejoin:round;fill:none"
d="M 204.4600,86.5400
218.4600,86.5400
218.4600,100.5400
204.4600,100.5400
Z" /> 
<path style="fill:none; 
stroke:#D0D2CD; stroke-width:0.1000; stroke-opacity:1; 
stroke-linecap:round; stroke-linejoin:round;fill:none"
d="M 162.9300,42.0100
176.9800,42.0100
176.9800,56.0600
162.9300,56.0600
Z" /> 
<path style="fill:none; 
stroke:#D0D2CD; stroke-width:0.1000; stroke-opacity:1; 
stroke-linecap:round; stroke-linejoin:round;fill:none"
d="M 258.4300,104.5100
272.4800,104.5100
272.4800,118.5600
258.4300,118.5600
Z" /> 
<path d="M342.5355 29.5355
L55.5355 29.5355
" />
<path style="fill:none; 
stroke:#D0D2CD; stroke-width:0.1000; stroke-opacity:1; 
stroke-linecap:round; stroke-linejoin:round;fill:none"
d="M 91.5100,95.5100
105.5600,95.5100
105.5600,109.5600
91.5100,109.5600
Z" /> 
<path style="fill:none; 
stroke:#D0D2CD; stroke-width:0.1000; stroke-opacity:1; 
stroke-linecap:round; stroke-linejoin:round;fill:none"
d="M 121.2700,84.5100
135.3200,84.5100
135.3200,98.5600
121.2700,98.5600
Z" /> 
<path d="M50.5355 234.5355
L50.5355 34.5355
" />
<path d="M342.5355 239.5355
L55.5355 239.5355
" />
</g>
<g style="fill:none; 
stroke:#C2C2C2; stroke-width:0.1500; stroke-opacity:1; 
stroke-linecap:round; stroke-linejoin:round;">
<g transform="rotate(-90.000000 353.3855 134.5355)">
<text x="353.3855" y="135.0355"
textLength="10.8214" font-size="1.3333" lengthAdjust="spacingAndGlyphs"
text-anchor="middle" opacity="0" stroke-opacity="0">210.0000 mm</text>
</g>
<g class="stroked-text"><desc>210.0000 mm</desc>
<path d="M352.9356 139.6308
L352.8880 139.5832
" />
<path d="M352.8880 139.5832
L352.8404 139.4879
" />
<path d="M352.8404 139.4879
L352.8404 139.2498
" />
<path d="M352.8404 139.2498
L352.8880 139.1546
" />
<path d="M352.8880 139.1546
L352.9356 139.1070
" />
<path d="M352.9356 139.1070
L353.0308 139.0593
" />
<path d="M353.0308 139.0593
L353.1261 139.0593
" />
<path d="M353.1261 139.0593
L353.2689 139.1070
" />
<path d="M353.2689 139.1070
L353.8404 139.6784
" />
<path d="M353.8404 139.6784
L353.8404 139.0593
" />
<path d="M353.8404 138.1070
L353.8404 138.6784
" />
<path d="M353.8404 138.3927
L352.8404 138.3927
" />
<path d="M352.8404 138.3927
L352.9832 138.4879
" />
<path d="M352.9832 138.4879
L353.0784 138.5832
" />
<path d="M353.0784 138.5832
L353.1261 138.6784
" />
<path d="M352.8404 137.4879
L352.8404 137.3927
" />
<path d="M352.8404 137.3927
L352.8880 137.2974
" />
<path d="M352.8880 137.2974
L352.9356 137.2498
" />
<path d="M352.9356 137.2498
L353.0308 137.2022
" />
<path d="M353.0308 137.2022
L353.2213 137.1546
" />
<path d="M353.2213 137.1546
L353.4594 137.1546
" />
<path d="M353.4594 137.1546
L353.6499 137.2022
" />
<path d="M353.6499 137.2022
L353.7451 137.2498
" />
<path d="M353.7451 137.2498
L353.7927 137.2974
" />
<path d="M353.7927 137.2974
L353.8404 137.3927
" />
<path d="M353.8404 137.3927
L353.8404 137.4879
" />
<path d="M353.8404 137.4879
L353.7927 137.5832
" />
<path d="M353.7927 137.5832
L353.7451 137.6308
" />
<path d="M353.7451 137.6308
L353.6499 137.6784
" />
<path d="M353.6499 137.6784
L353.4594 137.7260
" />
<path d="M353.4594 137.7260
L353.2213 137.7260
" />
<path d="M353.2213 137.7260
L353.0308 137.6784
" />
<path d="M353.0308 137.6784
L352.9356 137.6308
" />
<path d="M352.9356 137.6308
L352.8880 137.5832
" />
<path d="M352.8880 137.5832
L352.8404 137.4879
" />
<path d="M353.7451 136.7260
L353.7927 136.6784
" />
<path d="M353.7927 136.6784
L353.8404 136.7260
" />
<path d="M353.8404 136.7260
L353.7927 136.7736
" />
<path d="M353.7927 136.7736
L353.7451 136.7260
" />
<path d="M353.7451 136.7260
L353.8404 136.7260
" />
<path d="M352.8404 136.0593
L352.8404 135.9641
" />
<path d="M352.8404 135.9641
L352.8880 135.8689
" />
<path d="M352.8880 135.8689
L352.9356 135.8212
" />
<path d="M352.9356 135.8212
L353.0308 135.7736
" />
<path d="M353.0308 135.7736
L353.2213 135.7260
" />
<path d="M353.2213 135.7260
L353.4594 135.7260
" />
<path d="M353.4594 135.7260
L353.6499 135.7736
" />
<path d="M353.6499 135.7736
L353.7451 135.8212
" />
<path d="M353.7451 135.8212
L353.7927 135.8689
" />
<path d="M353.7927 135.8689
L353.8404 135.9641
" />
<path d="M353.8404 135.9641
L353.8404 136.0593
" />
<path d="M353.8404 136.0593
L353.7927 136.1546
" />
<path d="M353.7927 136.1546
L353.7451 136.2022
" />
<path d="M353.7451 136.2022
L353.6499 136.2498
" />
<path d="M353.6499 136.2498
L353.4594 136.2974
" />
<path d="M353.4594 136.2974
L353.2213 136.2974
" />
<path d="M353.2213 136.2974
L353.0308 136.2498
" />
<path d="M353.0308 136.2498
L352.9356 136.2022
" />
<path d="M352.9356 136.2022
L352.8880 136.1546
" />
<path d="M352.8880 136.1546
L352.8404 136.0593
" />
<path d="M352.8404 135.1070
L352.8404 135.0117
" />
<path d="M352.8404 135.0117
L352.8880 134.9165
" />
<path d="M352.8880 134.9165
L352.9356 134.8689
" />
<path d="M352.9356 134.8689
L353.0308 134.8212
" />
<path d="M353.0308 134.8212
L353.2213 134.7736
" />
<path d="M353.2213 134.7736
L353.4594 134.7736
" />
<path d="M353.4594 134.7736
L353.6499 134.8212
" />
<path d="M353.6499 134.8212
L353.7451 134.8689
" />
<path d="M353.7451 134.8689
L353.7927 134.9165
" />
<path d="M353.7927 134.9165
L353.8404 135.0117
" />
<path d="M353.8404 135.0117
L353.8404 135.1070
" />
<path d="M353.8404 135.1070
L353.7927 135.2022
" />
<path d="M353.7927 135.2022
L353.7451 135.2498
" />
<path d="M353.7451 135.2498
L353.6499 135.2974
" />
<path d="M353.6499 135.2974
L353.4594 135.3451
" />
<path d="M353.4594 135.3451
L353.2213 135.3451
" />
<path d="M353.2213 135.3451
L353.0308 135.2974
" />
<path d="M353.0308 135.2974
L352.9356 135.2498
" />
<path d="M352.9356 135.2498
L352.8880 135.2022
" />
<path d="M352.8880 135.2022
L352.8404 135.1070
" />
<path d="M352.8404 134.1546
L352.8404 134.0593
" />
<path d="M352.8404 134.0593
L352.8880 133.9641
" />
<path d="M352.8880 133.9641
L352.9356 133.9165
" />
<path d="M352.9356 133.9165
L353.0308 133.8689
" />
<path d="M353.0308 133.8689
L353.2213 133.8212
" />
<path d="M353.2213 133.8212
L353.4594 133.8212
" />
<path d="M353.4594 133.8212
L353.6499 133.8689
" />
<path d="M353.6499 133.8689
L353.7451 133.9165
" />
<path d="M353.7451 133.9165
L353.7927 133.9641
" />
<path d="M353.7927 133.9641
L353.8404 134.0593
" />
<path d="M353.8404 134.0593
L353.8404 134.1546
" />
<path d="M353.8404 134.1546
L353.7927 134.2498
" />
<path d="M353.7927 134.2498
L353.7451 134.2974
" />
<path d="M353.7451 134.2974
L353.6499 134.3451
" />
<path d="M353.6499 134.3451
L353.4594 134.3927
" />
<path d="M353.4594 134.3927
L353.2213 134.3927
" />
<path d="M353.2213 134.3927
L353.0308 134.3451
" />
<path d="M353.0308 134.3451
L352.9356 134.2974
" />
<path d="M352.9356 134.2974
L352.8880 134.2498
" />
<path d="M352.8880 134.2498
L352.8404 134.1546
" />
<path d="M352.8404 133.2022
L352.8404 133.1070
" />
<path d="M352.8404 133.1070
L352.8880 133.0117
" />
<path d="M352.8880 133.0117
L352.9356 132.9641
" />
<path d="M352.9356 132.9641
L353.0308 132.9165
" />
<path d="M353.0308 132.9165
L353.2213 132.8689
" />
<path d="M353.2213 132.8689
L353.4594 132.8689
" />
<path d="M353.4594 132.8689
L353.6499 132.9165
" />
<path d="M353.6499 132.9165
L353.7451 132.9641
" />
<path d="M353.7451 132.9641
L353.7927 133.0117
" />
<path d="M353.7927 133.0117
L353.8404 133.1070
" />
<path d="M353.8404 133.1070
L353.8404 133.2022
" />
<path d="M353.8404 133.2022
L353.7927 133.2974
" />
<path d="M353.7927 133.2974
L353.7451 133.3451
" />
<path d="M353.7451 133.3451
L353.6499 133.3927
" />
<path d="M353.6499 133.3927
L353.4594 133.4403
" />
<path d="M353.4594 133.4403
L353.2213 133.4403
" />
<path d="M353.2213 133.4403
L353.0308 133.3927
" />
<path d="M353.0308 133.3927
L352.9356 133.3451
" />
<path d="M352.9356 133.3451
L352.8880 133.2974
" />
<path d="M352.8880 133.2974
L352.8404 133.2022
" />
<path d="M353.8404 131.6784
L353.1737 131.6784
" />
<path d="M353.2689 131.6784
L353.2213 131.6308
" />
<path d="M353.2213 131.6308
L353.1737 131.5355
" />
<path d="M353.1737 131.5355
L353.1737 131.3927
" />
<path d="M353.1737 131.3927
L353.2213 131.2974
" />
<path d="M353.2213 131.2974
L353.3165 131.2498
" />
<path d="M353.3165 131.2498
L353.8404 131.2498
" />
<path d="M353.3165 131.2498
L353.2213 131.2022
" />
<path d="M353.2213 131.2022
L353.1737 131.1070
" />
<path d="M353.1737 131.1070
L353.1737 130.9641
" />
<path d="M353.1737 130.9641
L353.2213 130.8689
" />
<path d="M353.2213 130.8689
L353.3165 130.8212
" />
<path d="M353.3165 130.8212
L353.8404 130.8212
" />
<path d="M353.8404 130.3451
L353.1737 130.3451
" />
<path d="M353.2689 130.3451
L353.2213 130.2974
" />
<path d="M353.2213 130.2974
L353.1737 130.2022
" />
<path d="M353.1737 130.2022
L353.1737 130.0593
" />
<path d="M353.1737 130.0593
L353.2213 129.9641
" />
<path d="M353.2213 129.9641
L353.3165 129.9165
" />
<path d="M353.3165 129.9165
L353.8404 129.9165
" />
<path d="M353.3165 129.9165
L353.2213 129.8689
" />
<path d="M353.2213 129.8689
L353.1737 129.7736
" />
<path d="M353.1737 129.7736
L353.1737 129.6308
" />
<path d="M353.1737 129.6308
L353.2213 129.5355
" />
<path d="M353.2213 129.5355
L353.3165 129.4879
" />
<path d="M353.3165 129.4879
L353.8404 129.4879
" />
</g></g>
<g style="fill:none; 
stroke:#C2C2C2; stroke-width:0.1000; stroke-opacity:1; 
stroke-linecap:round; stroke-linejoin:round;">
<path d="M348.0355 29.5355
L355.1220 29.5355
" />
<path d="M348.0355 239.5355
L355.1220 239.5355
" />
<path d="M354.5355 29.5355
L354.5355 239.5355
" />
<path d="M354.5355 29.5355
L355.1220 30.6620
" />
<path d="M354.5355 29.5355
L353.9491 30.6620
" />
<path d="M354.5355 239.5355
L353.9491 238.4090
" />
<path d="M354.5355 239.5355
L355.1220 238.4090
" />
</g>
<g style="fill:none; 
stroke:#C2C2C2; stroke-width:0.1500; stroke-opacity:1; 
stroke-linecap:round; stroke-linejoin:round;">
<text x="199.0355" y="21.8855"
textLength="10.8214" font-size="1.3333" lengthAdjust="spacingAndGlyphs"
text-anchor="middle" opacity="0" stroke-opacity="0">297.0000 mm</text>
<g class="stroked-text"><desc>297.0000 mm</desc>
<path d="M193.9403 20.9356
L193.9879 20.8880
" />
<path d="M193.9879 20.8880
L194.0832 20.8404
" />
<path d="M194.0832 20.8404
L194.3212 20.8404
" />
<path d="M194.3212 20.8404
L194.4165 20.8880
" />
<path d="M194.4165 20.8880
L194.4641 20.9356
" />
<path d="M194.4641 20.9356
L194.5117 21.0308
" />
<path d="M194.5117 21.0308
L194.5117 21.1261
" />
<path d="M194.5117 21.1261
L194.4641 21.2689
" />
<path d="M194.4641 21.2689
L193.8927 21.8404
" />
<path d="M193.8927 21.8404
L194.5117 21.8404
" />
<path d="M194.9879 21.8404
L195.1784 21.8404
" />
<path d="M195.1784 21.8404
L195.2736 21.7927
" />
<path d="M195.2736 21.7927
L195.3212 21.7451
" />
<path d="M195.3212 21.7451
L195.4165 21.6023
" />
<path d="M195.4165 21.6023
L195.4641 21.4118
" />
<path d="M195.4641 21.4118
L195.4641 21.0308
" />
<path d="M195.4641 21.0308
L195.4165 20.9356
" />
<path d="M195.4165 20.9356
L195.3689 20.8880
" />
<path d="M195.3689 20.8880
L195.2736 20.8404
" />
<path d="M195.2736 20.8404
L195.0832 20.8404
" />
<path d="M195.0832 20.8404
L194.9879 20.8880
" />
<path d="M194.9879 20.8880
L194.9403 20.9356
" />
<path d="M194.9403 20.9356
L194.8927 21.0308
" />
<path d="M194.8927 21.0308
L194.8927 21.2689
" />
<path d="M194.8927 21.2689
L194.9403 21.3642
" />
<path d="M194.9403 21.3642
L194.9879 21.4118
" />
<path d="M194.9879 21.4118
L195.0832 21.4594
" />
<path d="M195.0832 21.4594
L195.2736 21.4594
" />
<path d="M195.2736 21.4594
L195.3689 21.4118
" />
<path d="M195.3689 21.4118
L195.4165 21.3642
" />
<path d="M195.4165 21.3642
L195.4641 21.2689
" />
<path d="M195.7974 20.8404
L196.4641 20.8404
" />
<path d="M196.4641 20.8404
L196.0355 21.8404
" />
<path d="M196.8451 21.7451
L196.8927 21.7927
" />
<path d="M196.8927 21.7927
L196.8451 21.8404
" />
<path d="M196.8451 21.8404
L196.7974 21.7927
" />
<path d="M196.7974 21.7927
L196.8451 21.7451
" />
<path d="M196.8451 21.7451
L196.8451 21.8404
" />
<path d="M197.5117 20.8404
L197.6070 20.8404
" />
<path d="M197.6070 20.8404
L197.7022 20.8880
" />
<path d="M197.7022 20.8880
L197.7498 20.9356
" />
<path d="M197.7498 20.9356
L197.7974 21.0308
" />
<path d="M197.7974 21.0308
L197.8451 21.2213
" />
<path d="M197.8451 21.2213
L197.8451 21.4594
" />
<path d="M197.8451 21.4594
L197.7974 21.6499
" />
<path d="M197.7974 21.6499
L197.7498 21.7451
" />
<path d="M197.7498 21.7451
L197.7022 21.7927
" />
<path d="M197.7022 21.7927
L197.6070 21.8404
" />
<path d="M197.6070 21.8404
L197.5117 21.8404
" />
<path d="M197.5117 21.8404
L197.4165 21.7927
" />
<path d="M197.4165 21.7927
L197.3689 21.7451
" />
<path d="M197.3689 21.7451
L197.3212 21.6499
" />
<path d="M197.3212 21.6499
L197.2736 21.4594
" />
<path d="M197.2736 21.4594
L197.2736 21.2213
" />
<path d="M197.2736 21.2213
L197.3212 21.0308
" />
<path d="M197.3212 21.0308
L197.3689 20.9356
" />
<path d="M197.3689 20.9356
L197.4165 20.8880
" />
<path d="M197.4165 20.8880
L197.5117 20.8404
" />
<path d="M198.4641 20.8404
L198.5593 20.8404
" />
<path d="M198.5593 20.8404
L198.6546 20.8880
" />
<path d="M198.6546 20.8880
L198.7022 20.9356
" />
<path d="M198.7022 20.9356
L198.7498 21.0308
" />
<path d="M198.7498 21.0308
L198.7974 21.2213
" />
<path d="M198.7974 21.2213
L198.7974 21.4594
" />
<path d="M198.7974 21.4594
L198.7498 21.6499
" />
<path d="M198.7498 21.6499
L198.7022 21.7451
" />
<path d="M198.7022 21.7451
L198.6546 21.7927
" />
<path d="M198.6546 21.7927
L198.5593 21.8404
" />
<path d="M198.5593 21.8404
L198.4641 21.8404
" />
<path d="M198.4641 21.8404
L198.3689 21.7927
" />
<path d="M198.3689 21.7927
L198.3212 21.7451
" />
<path d="M198.3212 21.7451
L198.2736 21.6499
" />
<path d="M198.2736 21.6499
L198.2260 21.4594
" />
<path d="M198.2260 21.4594
L198.2260 21.2213
" />
<path d="M198.2260 21.2213
L198.2736 21.0308
" />
<path d="M198.2736 21.0308
L198.3212 20.9356
" />
<path d="M198.3212 20.9356
L198.3689 20.8880
" />
<path d="M198.3689 20.8880
L198.4641 20.8404
" />
<path d="M199.4165 20.8404
L199.5117 20.8404
" />
<path d="M199.5117 20.8404
L199.6070 20.8880
" />
<path d="M199.6070 20.8880
L199.6546 20.9356
" />
<path d="M199.6546 20.9356
L199.7022 21.0308
" />
<path d="M199.7022 21.0308
L199.7498 21.2213
" />
<path d="M199.7498 21.2213
L199.7498 21.4594
" />
<path d="M199.7498 21.4594
L199.7022 21.6499
" />
<path d="M199.7022 21.6499
L199.6546 21.7451
" />
<path d="M199.6546 21.7451
L199.6070 21.7927
" />
<path d="M199.6070 21.7927
L199.5117 21.8404
" />
<path d="M199.5117 21.8404
L199.4165 21.8404
" />
<path d="M199.4165 21.8404
L199.3212 21.7927
" />
<path d="M199.3212 21.7927
L199.2736 21.7451
" />
<path d="M199.2736 21.7451
L199.2260 21.6499
" />
<path d="M199.2260 21.6499
L199.1784 21.4594
" />
<path d="M199.1784 21.4594
L199.1784 21.2213
" />
<path d="M199.1784 21.2213
L199.2260 21.0308
" />
<path d="M199.2260 21.0308
L199.2736 20.9356
" />
<path d="M199.2736 20.9356
L199.3212 20.8880
" />
<path d="M199.3212 20.8880
L199.4165 20.8404
" />
<path d="M200.3689 20.8404
L200.4641 20.8404
" />
<path d="M200.4641 20.8404
L200.5593 20.8880
" />
<path d="M200.5593 20.8880
L200.6070 20.9356
" />
<path d="M200.6070 20.9356
L200.6546 21.0308
" />
<path d="M200.6546 21.0308
L200.7022 21.2213
" />
<path d="M200.7022 21.2213
L200.7022 21.4594
" />
<path d="M200.7022 21.4594
L200.6546 21.6499
" />
<path d="M200.6546 21.6499
L200.6070 21.7451
" />
<path d="M200.6070 21.7451
L200.5593 21.7927
" />
<path d="M200.5593 21.7927
L200.4641 21.8404
" />
<path d="M200.4641 21.8404
L200.3689 21.8404
" />
<path d="M200.3689 21.8404
L200.2736 21.7927
" />
<path d="M200.2736 21.7927
L200.2260 21.7451
" />
<path d="M200.2260 21.7451
L200.1784 21.6499
" />
<path d="M200.1784 21.6499
L200.1308 21.4594
" />
<path d="M200.1308 21.4594
L200.1308 21.2213
" />
<path d="M200.1308 21.2213
L200.1784 21.0308
" />
<path d="M200.1784 21.0308
L200.2260 20.9356
" />
<path d="M200.2260 20.9356
L200.2736 20.8880
" />
<path d="M200.2736 20.8880
L200.3689 20.8404
" />
<path d="M201.8927 21.8404
L201.8927 21.1737
" />
<path d="M201.8927 21.2689
L201.9403 21.2213
" />
<path d="M201.9403 21.2213
L202.0355 21.1737
" />
<path d="M202.0355 21.1737
L202.1784 21.1737
" />
<path d="M202.1784 21.1737
L202.2736 21.2213
" />
<path d="M202.2736 21.2213
L202.3212 21.3165
" />
<path d="M202.3212 21.3165
L202.3212 21.8404
" />
<path d="M202.3212 21.3165
L202.3689 21.2213
" />
<path d="M202.3689 21.2213
L202.4641 21.1737
" />
<path d="M202.4641 21.1737
L202.6070 21.1737
" />
<path d="M202.6070 21.1737
L202.7022 21.2213
" />
<path d="M202.7022 21.2213
L202.7498 21.3165
" />
<path d="M202.7498 21.3165
L202.7498 21.8404
" />
<path d="M203.2260 21.8404
L203.2260 21.1737
" />
<path d="M203.2260 21.2689
L203.2736 21.2213
" />
<path d="M203.2736 21.2213
L203.3689 21.1737
" />
<path d="M203.3689 21.1737
L203.5117 21.1737
" />
<path d="M203.5117 21.1737
L203.6070 21.2213
" />
<path d="M203.6070 21.2213
L203.6546 21.3165
" />
<path d="M203.6546 21.3165
L203.6546 21.8404
" />
<path d="M203.6546 21.3165
L203.7022 21.2213
" />
<path d="M203.7022 21.2213
L203.7974 21.1737
" />
<path d="M203.7974 21.1737
L203.9403 21.1737
" />
<path d="M203.9403 21.1737
L204.0355 21.2213
" />
<path d="M204.0355 21.2213
L204.0832 21.3165
" />
<path d="M204.0832 21.3165
L204.0832 21.8404
" />
</g></g>
<g style="fill:none; 
stroke:#C2C2C2; stroke-width:0.1000; stroke-opacity:1; 
stroke-linecap:round; stroke-linejoin:round;">
<path d="M347.5355 29.0355
L347.5355 21.9491
" />
<path d="M50.5355 29.0355
L50.5355 21.9491
" />
<path d="M347.5355 22.5355
L50.5355 22.5355
" />
<path d="M347.5355 22.5355
L346.4090 23.1220
" />
<path d="M347.5355 22.5355
L346.4090 21.9491
" />
<path d="M50.5355 22.5355
L51.6620 21.9491
" />
<path d="M50.5355 22.5355
L51.6620 23.1220
" />
</g>
<g style="fill:none; 
stroke:#C2C2C2; stroke-width:0.1500; stroke-opacity:1; 
stroke-linecap:round; stroke-linejoin:round;">
<text x="341.5355" y="230.8355"
textLength="2.2500" font-size="1.3333" lengthAdjust="spacingAndGlyphs"
text-anchor="middle" opacity="0" stroke-opacity="0">H2</text>
<g class="stroked-text"><desc>H2</desc>
<path d="M340.7736 230.7904
L340.7736 229.7904
" />
<path d="M340.7736 230.2665
L341.3451 230.2665
" />
<path d="M341.3451 230.7904
L341.3451 229.7904
" />
<path d="M341.7736 229.8856
L341.8212 229.8380
" />
<path d="M341.8212 229.8380
L341.9165 229.7904
" />
<path d="M341.9165 229.7904
L342.1546 229.7904
" />
<path d="M342.1546 229.7904
L342.2498 229.8380
" />
<path d="M342.2498 229.8380
L342.2974 229.8856
" />
<path d="M342.2974 229.8856
L342.3451 229.9808
" />
<path d="M342.3451 229.9808
L342.3451 230.0761
" />
<path d="M342.3451 230.0761
L342.2974 230.2189
" />
<path d="M342.2974 230.2189
L341.7260 230.7904
" />
<path d="M341.7260 230.7904
L342.3451 230.7904
" />
</g><text x="198.5355" y="230.8355"
textLength="2.2500" font-size="1.3333" lengthAdjust="spacingAndGlyphs"
text-anchor="middle" opacity="0" stroke-opacity="0">H5</text>
<g class="stroked-text"><desc>H5</desc>
<path d="M197.7736 230.7904
L197.7736 229.7904
" />
<path d="M197.7736 230.2665
L198.3451 230.2665
" />
<path d="M198.3451 230.7904
L198.3451 229.7904
" />
<path d="M199.2974 229.7904
L198.8212 229.7904
" />
<path d="M198.8212 229.7904
L198.7736 230.2665
" />
<path d="M198.7736 230.2665
L198.8212 230.2189
" />
<path d="M198.8212 230.2189
L198.9165 230.1713
" />
<path d="M198.9165 230.1713
L199.1546 230.1713
" />
<path d="M199.1546 230.1713
L199.2498 230.2189
" />
<path d="M199.2498 230.2189
L199.2974 230.2665
" />
<path d="M199.2974 230.2665
L199.3451 230.3618
" />
<path d="M199.3451 230.3618
L199.3451 230.5999
" />
<path d="M199.3451 230.5999
L199.2974 230.6951
" />
<path d="M199.2974 230.6951
L199.2498 230.7427
" />
<path d="M199.2498 230.7427
L199.1546 230.7904
" />
<path d="M199.1546 230.7904
L198.9165 230.7904
" />
<path d="M198.9165 230.7904
L198.8212 230.7427
" />
<path d="M198.8212 230.7427
L198.7736 230.6951
" />
</g><text x="341.5355" y="32.8355"
textLength="2.2500" font-size="1.3333" lengthAdjust="spacingAndGlyphs"
text-anchor="middle" opacity="0" stroke-opacity="0">H4</text>
<g class="stroked-text"><desc>H4</desc>
<path d="M340.7736 32.7904
L340.7736 31.7904
" />
<path d="M340.7736 32.2665
L341.3451 32.2665
" />
<path d="M341.3451 32.7904
L341.3451 31.7904
" />
<path d="M342.2498 32.1237
L342.2498 32.7904
" />
<path d="M342.0117 31.7427
L341.7736 32.4570
" />
<path d="M341.7736 32.4570
L342.3927 32.4570
" />
</g><text x="56.5355" y="230.8355"
textLength="2.2500" font-size="1.3333" lengthAdjust="spacingAndGlyphs"
text-anchor="middle" opacity="0" stroke-opacity="0">H3</text>
<g class="stroked-text"><desc>H3</desc>
<path d="M55.7736 230.7904
L55.7736 229.7904
" />
<path d="M55.7736 230.2665
L56.3451 230.2665
" />
<path d="M56.3451 230.7904
L56.3451 229.7904
" />
<path d="M56.7260 229.7904
L57.3451 229.7904
" />
<path d="M57.3451 229.7904
L57.0117 230.1713
" />
<path d="M57.0117 230.1713
L57.1546 230.1713
" />
<path d="M57.1546 230.1713
L57.2498 230.2189
" />
<path d="M57.2498 230.2189
L57.2974 230.2665
" />
<path d="M57.2974 230.2665
L57.3451 230.3618
" />
<path d="M57.3451 230.3618
L57.3451 230.5999
" />
<path d="M57.3451 230.5999
L57.2974 230.6951
" />
<path d="M57.2974 230.6951
L57.2498 230.7427
" />
<path d="M57.2498 230.7427
L57.1546 230.7904
" />
<path d="M57.1546 230.7904
L56.8689 230.7904
" />
<path d="M56.8689 230.7904
L56.7736 230.7427
" />
<path d="M56.7736 230.7427
L56.7260 230.6951
" />
</g><text x="198.5355" y="32.8355"
textLength="2.2500" font-size="1.3333" lengthAdjust="spacingAndGlyphs"
text-anchor="middle" opacity="0" stroke-opacity="0">H6</text>
<g class="stroked-text"><desc>H6</desc>
<path d="M197.7736 32.7904
L197.7736 31.7904
" />
<path d="M197.7736 32.2665
L198.3451 32.2665
" />
<path d="M198.3451 32.7904
L198.3451 31.7904
" />
<path d="M199.2498 31.7904
L199.0593 31.7904
" />
<path d="M199.0593 31.7904
L198.9641 31.8380
" />
<path d="M198.9641 31.8380
L198.9165 31.8856
" />
<path d="M198.9165 31.8856
L198.8212 32.0284
" />
<path d="M198.8212 32.0284
L198.7736 32.2189
" />
<path d="M198.7736 32.2189
L198.7736 32.5999
" />
<path d="M198.7736 32.5999
L198.8212 32.6951
" />
<path d="M198.8212 32.6951
L198.8689 32.7427
" />
<path d="M198.8689 32.7427
L198.9641 32.7904
" />
<path d="M198.9641 32.7904
L199.1546 32.7904
" />
<path d="M199.1546 32.7904
L199.2498 32.7427
" />
<path d="M199.2498 32.7427
L199.2974 32.6951
" />
<path d="M199.2974 32.6951
L199.3451 32.5999
" />
<path d="M199.3451 32.5999
L199.3451 32.3618
" />
<path d="M199.3451 32.3618
L199.2974 32.2665
" />
<path d="M199.2974 32.2665
L199.2498 32.2189
" />
<path d="M199.2498 32.2189
L199.1546 32.1713
" />
<path d="M199.1546 32.1713
L198.9641 32.1713
" />
<path d="M198.9641 32.1713
L198.8689 32.2189
" />
<path d="M198.8689 32.2189
L198.8212 32.2665
" />
<path d="M198.8212 32.2665
L198.7736 32.3618
" />
</g><text x="56.5355" y="32.8355"
textLength="2.2500" font-size="1.3333" lengthAdjust="spacingAndGlyphs"
text-anchor="middle" opacity="0" stroke-opacity="0">H1</text>
<g class="stroked-text"><desc>H1</desc>
<path d="M55.7736 32.7904
L55.7736 31.7904
" />
<path d="M55.7736 32.2665
L56.3451 32.2665
" />
<path d="M56.3451 32.7904
L56.3451 31.7904
" />
<path d="M57.3451 32.7904
L56.7736 32.7904
" />
<path d="M57.0593 32.7904
L57.0593 31.7904
" />
<path d="M57.0593 31.7904
L56.9641 31.9332
" />
<path d="M56.9641 31.9332
L56.8689 32.0284
" />
<path d="M56.8689 32.0284
L56.7736 32.0761
" />
</g></g> 
</svg>
