  0
SECTION
  2
HEADER
  9
$ANGBASE
  50
0.0
  9
$ANGDIR
  70
1
  9
$MEASUREMENT
  70
0
  0
ENDSEC
  0
SECTION
  2
TABLES
  0
TABLE
  2
LTYPE
  70
4
  0
LTYPE
  5
40F
  2
CONTINUOUS
  70
0
  3
Solid line
  72
65
  73
0
  40
0.0
  0
LTYPE
  5
410
  2
DASHDOT
 70
0
  3
Dash Dot ____ _ ____ _
 72
65
 73
4
 40
2.0
 49
1.25
 49
-0.25
 49
0.25
 49
-0.25
  0
LTYPE
  5
411
  2
DASHED
 70
0
  3
Dashed __ __ __ __ __
 72
65
 73
2
 40
0.75
 49
0.5
 49
-0.25
  0
LTYPE
  5
43B
  2
DOTTED
 70
0
  3
Dotted .  .  .  .
 72
65
 73
2
 40
0.2
 49
0.0
 49
-0.2
  0
ENDTAB
  0
TABLE
  2
STYLE
  70
4
  0
STYLE
  2
KICAD
  70
0
  40
0
  41
1
  42
1
  50
0
  71
0
  3
isocp.shx
  0
STYLE
  2
KICADB
  70
0
  40
0
  41
1
  42
1
  50
0
  71
0
  3
isocp.shx
  0
STYLE
  2
KICADI
  70
0
  40
0
  41
1
  42
1
  50
15
  71
0
  3
isocp.shx
  0
STYLE
  2
KICADBI
  70
0
  40
0
  41
1
  42
1
  50
15
  71
0
  3
isocp.shx
  0
ENDTAB
  0
TABLE
  2
LAYER
  70
1
  0
LAYER
  2
BLACK
  70
0
  62
7
  6
CONTINUOUS
  0
ENDTAB
  0
ENDSEC
  0
SECTION
  2
ENTITIES
0
LINE
8
BLACK
6
CONTINUOUS
10
2.2194296456692912
20
-9.151346771653543
11
2.2288304330708661
21
-9.1544012992125978
0
LINE
8
BLACK
6
CONTINUOUS
10
2.2288304330708661
20
-9.1544012992125978
11
2.2376377165354331
21
-9.158888818897637
0
LINE
8
BLACK
6
CONTINUOUS
10
2.2376377165354331
20
-9.158888818897637
11
2.245634527559055
21
-9.1646988188976373
0
LINE
8
BLACK
6
CONTINUOUS
10
2.245634527559055
20
-9.1646988188976373
11
2.2526240157480313
21
-9.1716883070866135
0
LINE
8
BLACK
6
CONTINUOUS
10
2.2526240157480313
20
-9.1716883070866135
11
2.2584340157480316
21
-9.1796851181102355
0
LINE
8
BLACK
6
CONTINUOUS
10
2.2584340157480316
20
-9.1796851181102355
11
2.2629215354330707
21
-9.1884924015748037
0
LINE
8
BLACK
6
CONTINUOUS
10
2.2629215354330707
20
-9.1884924015748037
11
2.265976062992126
21
-9.1978931889763782
0
LINE
8
BLACK
6
CONTINUOUS
10
2.265976062992126
20
-9.1978931889763782
11
2.2675223622047245
21
-9.2076561023622041
0
LINE
8
BLACK
6
CONTINUOUS
10
2.2675223622047245
20
-9.2076561023622041
11
2.2675223622047245
21
-9.2175407480314959
0
LINE
8
BLACK
6
CONTINUOUS
10
2.2675223622047245
20
-9.2175407480314959
11
2.265976062992126
21
-9.2273036614173218
0
LINE
8
BLACK
6
CONTINUOUS
10
2.265976062992126
20
-9.2273036614173218
11
2.2629215354330707
21
-9.2367044488188981
0
LINE
8
BLACK
6
CONTINUOUS
10
2.2629215354330707
20
-9.2367044488188981
11
2.2584340157480316
21
-9.2455117322834646
0
LINE
8
BLACK
6
CONTINUOUS
10
2.2584340157480316
20
-9.2455117322834646
11
2.2526240157480313
21
-9.2535085433070865
0
LINE
8
BLACK
6
CONTINUOUS
10
2.2526240157480313
20
-9.2535085433070865
11
2.245634527559055
21
-9.2604980314960628
0
LINE
8
BLACK
6
CONTINUOUS
10
2.245634527559055
20
-9.2604980314960628
11
2.2376377165354331
21
-9.2663080314960631
0
LINE
8
BLACK
6
CONTINUOUS
10
2.2376377165354331
20
-9.2663080314960631
11
2.2288304330708661
21
-9.2707955511811022
0
LINE
8
BLACK
6
CONTINUOUS
10
2.2288304330708661
20
-9.2707955511811022
11
2.2194296456692912
21
-9.273850078740157
0
LINE
8
BLACK
6
CONTINUOUS
10
2.2194296456692912
20
-9.273850078740157
11
2.2096667322834644
21
-9.275396377952756
0
LINE
8
BLACK
6
CONTINUOUS
10
2.2096667322834644
20
-9.275396377952756
11
2.1997820866141731
21
-9.275396377952756
0
LINE
8
BLACK
6
CONTINUOUS
10
2.1997820866141731
20
-9.275396377952756
11
2.1900191732283463
21
-9.273850078740157
0
LINE
8
BLACK
6
CONTINUOUS
10
2.1900191732283463
20
-9.273850078740157
11
2.1806183858267718
21
-9.2707955511811022
0
LINE
8
BLACK
6
CONTINUOUS
10
2.1806183858267718
20
-9.2707955511811022
11
2.1718111023622049
21
-9.2663080314960631
0
LINE
8
BLACK
6
CONTINUOUS
10
2.1718111023622049
20
-9.2663080314960631
11
2.1638142913385825
21
-9.2604980314960628
0
LINE
8
BLACK
6
CONTINUOUS
10
2.1638142913385825
20
-9.2604980314960628
11
2.1568248031496062
21
-9.2535085433070865
0
LINE
8
BLACK
6
CONTINUOUS
10
2.1568248031496062
20
-9.2535085433070865
11
2.1510148031496064
21
-9.2455117322834646
0
LINE
8
BLACK
6
CONTINUOUS
10
2.1510148031496064
20
-9.2455117322834646
11
2.1465272834645668
21
-9.2367044488188981
0
LINE
8
BLACK
6
CONTINUOUS
10
2.1465272834645668
20
-9.2367044488188981
11
2.1434727559055116
21
-9.2273036614173218
0
LINE
8
BLACK
6
CONTINUOUS
10
2.1434727559055116
20
-9.2273036614173218
11
2.1419264566929135
21
-9.2175407480314959
0
LINE
8
BLACK
6
CONTINUOUS
10
2.1419264566929135
20
-9.2175407480314959
11
2.1419264566929135
21
-9.2076561023622041
0
LINE
8
BLACK
6
CONTINUOUS
10
2.1419264566929135
20
-9.2076561023622041
11
2.1434727559055116
21
-9.1978931889763782
0
LINE
8
BLACK
6
CONTINUOUS
10
2.1434727559055116
20
-9.1978931889763782
11
2.1465272834645668
21
-9.1884924015748037
0
LINE
8
BLACK
6
CONTINUOUS
10
2.1465272834645668
20
-9.1884924015748037
11
2.1510148031496064
21
-9.1796851181102355
0
LINE
8
BLACK
6
CONTINUOUS
10
2.1510148031496064
20
-9.1796851181102355
11
2.1568248031496062
21
-9.1716883070866135
0
LINE
8
BLACK
6
CONTINUOUS
10
2.1568248031496062
20
-9.1716883070866135
11
2.1638142913385825
21
-9.1646988188976373
0
LINE
8
BLACK
6
CONTINUOUS
10
2.1638142913385825
20
-9.1646988188976373
11
2.1718111023622049
21
-9.158888818897637
0
LINE
8
BLACK
6
CONTINUOUS
10
2.1718111023622049
20
-9.158888818897637
11
2.1806183858267718
21
-9.1544012992125978
0
LINE
8
BLACK
6
CONTINUOUS
10
2.1806183858267718
20
-9.1544012992125978
11
2.1900191732283463
21
-9.151346771653543
0
LINE
8
BLACK
6
CONTINUOUS
10
2.1900191732283463
20
-9.151346771653543
11
2.1997820866141731
21
-9.1498004724409441
0
LINE
8
BLACK
6
CONTINUOUS
10
2.1997820866141731
20
-9.1498004724409441
11
2.2096667322834644
21
-9.1498004724409441
0
LINE
8
BLACK
6
CONTINUOUS
10
2.2096667322834644
20
-9.1498004724409441
11
2.2194296456692912
21
-9.151346771653543
0
LINE
8
BLACK
6
CONTINUOUS
10
7.8099808267716533
20
-9.151346771653543
11
7.8193816141732277
21
-9.1544012992125978
0
LINE
8
BLACK
6
CONTINUOUS
10
7.8193816141732277
20
-9.1544012992125978
11
7.8281888976377951
21
-9.158888818897637
0
LINE
8
BLACK
6
CONTINUOUS
10
7.8281888976377951
20
-9.158888818897637
11
7.8361857086614171
21
-9.1646988188976373
0
LINE
8
BLACK
6
CONTINUOUS
10
7.8361857086614171
20
-9.1646988188976373
11
7.8431751968503933
21
-9.1716883070866135
0
LINE
8
BLACK
6
CONTINUOUS
10
7.8431751968503933
20
-9.1716883070866135
11
7.8489851968503936
21
-9.1796851181102355
0
LINE
8
BLACK
6
CONTINUOUS
10
7.8489851968503936
20
-9.1796851181102355
11
7.8534727165354328
21
-9.1884924015748037
0
LINE
8
BLACK
6
CONTINUOUS
10
7.8534727165354328
20
-9.1884924015748037
11
7.8565272440944884
21
-9.1978931889763782
0
LINE
8
BLACK
6
CONTINUOUS
10
7.8565272440944884
20
-9.1978931889763782
11
7.8580735433070865
21
-9.2076561023622041
0
LINE
8
BLACK
6
CONTINUOUS
10
7.8580735433070865
20
-9.2076561023622041
11
7.8580735433070865
21
-9.2175407480314959
0
LINE
8
BLACK
6
CONTINUOUS
10
7.8580735433070865
20
-9.2175407480314959
11
7.8565272440944884
21
-9.2273036614173218
0
LINE
8
BLACK
6
CONTINUOUS
10
7.8565272440944884
20
-9.2273036614173218
11
7.8534727165354328
21
-9.2367044488188981
0
LINE
8
BLACK
6
CONTINUOUS
10
7.8534727165354328
20
-9.2367044488188981
11
7.8489851968503936
21
-9.2455117322834646
0
LINE
8
BLACK
6
CONTINUOUS
10
7.8489851968503936
20
-9.2455117322834646
11
7.8431751968503933
21
-9.2535085433070865
0
LINE
8
BLACK
6
CONTINUOUS
10
7.8431751968503933
20
-9.2535085433070865
11
7.8361857086614171
21
-9.2604980314960628
0
LINE
8
BLACK
6
CONTINUOUS
10
7.8361857086614171
20
-9.2604980314960628
11
7.8281888976377951
21
-9.2663080314960631
0
LINE
8
BLACK
6
CONTINUOUS
10
7.8281888976377951
20
-9.2663080314960631
11
7.8193816141732277
21
-9.2707955511811022
0
LINE
8
BLACK
6
CONTINUOUS
10
7.8193816141732277
20
-9.2707955511811022
11
7.8099808267716533
21
-9.273850078740157
0
LINE
8
BLACK
6
CONTINUOUS
10
7.8099808267716533
20
-9.273850078740157
11
7.8002179133858265
21
-9.275396377952756
0
LINE
8
BLACK
6
CONTINUOUS
10
7.8002179133858265
20
-9.275396377952756
11
7.7903332677165356
21
-9.275396377952756
0
LINE
8
BLACK
6
CONTINUOUS
10
7.7903332677165356
20
-9.275396377952756
11
7.7805703543307088
21
-9.273850078740157
0
LINE
8
BLACK
6
CONTINUOUS
10
7.7805703543307088
20
-9.273850078740157
11
7.7711695669291334
21
-9.2707955511811022
0
LINE
8
BLACK
6
CONTINUOUS
10
7.7711695669291334
20
-9.2707955511811022
11
7.7623622834645669
21
-9.2663080314960631
0
LINE
8
BLACK
6
CONTINUOUS
10
7.7623622834645669
20
-9.2663080314960631
11
7.754365472440945
21
-9.2604980314960628
0
LINE
8
BLACK
6
CONTINUOUS
10
7.754365472440945
20
-9.2604980314960628
11
7.7473759842519687
21
-9.2535085433070865
0
LINE
8
BLACK
6
CONTINUOUS
10
7.7473759842519687
20
-9.2535085433070865
11
7.7415659842519684
21
-9.2455117322834646
0
LINE
8
BLACK
6
CONTINUOUS
10
7.7415659842519684
20
-9.2455117322834646
11
7.7370784645669293
21
-9.2367044488188981
0
LINE
8
BLACK
6
CONTINUOUS
10
7.7370784645669293
20
-9.2367044488188981
11
7.7340239370078736
21
-9.2273036614173218
0
LINE
8
BLACK
6
CONTINUOUS
10
7.7340239370078736
20
-9.2273036614173218
11
7.7324776377952755
21
-9.2175407480314959
0
LINE
8
BLACK
6
CONTINUOUS
10
7.7324776377952755
20
-9.2175407480314959
11
7.7324776377952755
21
-9.2076561023622041
0
LINE
8
BLACK
6
CONTINUOUS
10
7.7324776377952755
20
-9.2076561023622041
11
7.7340239370078736
21
-9.1978931889763782
0
LINE
8
BLACK
6
CONTINUOUS
10
7.7340239370078736
20
-9.1978931889763782
11
7.7370784645669293
21
-9.1884924015748037
0
LINE
8
BLACK
6
CONTINUOUS
10
7.7370784645669293
20
-9.1884924015748037
11
7.7415659842519684
21
-9.1796851181102355
0
LINE
8
BLACK
6
CONTINUOUS
10
7.7415659842519684
20
-9.1796851181102355
11
7.7473759842519687
21
-9.1716883070866135
0
LINE
8
BLACK
6
CONTINUOUS
10
7.7473759842519687
20
-9.1716883070866135
11
7.754365472440945
21
-9.1646988188976373
0
LINE
8
BLACK
6
CONTINUOUS
10
7.754365472440945
20
-9.1646988188976373
11
7.7623622834645669
21
-9.158888818897637
0
LINE
8
BLACK
6
CONTINUOUS
10
7.7623622834645669
20
-9.158888818897637
11
7.7711695669291334
21
-9.1544012992125978
0
LINE
8
BLACK
6
CONTINUOUS
10
7.7711695669291334
20
-9.1544012992125978
11
7.7805703543307088
21
-9.151346771653543
0
LINE
8
BLACK
6
CONTINUOUS
10
7.7805703543307088
20
-9.151346771653543
11
7.7903332677165356
21
-9.1498004724409441
0
LINE
8
BLACK
6
CONTINUOUS
10
7.7903332677165356
20
-9.1498004724409441
11
7.8002179133858265
21
-9.1498004724409441
0
LINE
8
BLACK
6
CONTINUOUS
10
7.8002179133858265
20
-9.1498004724409441
11
7.8099808267716533
21
-9.151346771653543
0
LINE
8
BLACK
6
CONTINUOUS
10
13.4399020866141736
20
-9.151346771653543
11
13.4493028740157481
21
-9.1544012992125978
0
LINE
8
BLACK
6
CONTINUOUS
10
13.4493028740157481
20
-9.1544012992125978
11
13.4581101574803146
21
-9.158888818897637
0
LINE
8
BLACK
6
CONTINUOUS
10
13.4581101574803146
20
-9.158888818897637
11
13.4661069685039365
21
-9.1646988188976373
0
LINE
8
BLACK
6
CONTINUOUS
10
13.4661069685039365
20
-9.1646988188976373
11
13.4730964566929128
21
-9.1716883070866135
0
LINE
8
BLACK
6
CONTINUOUS
10
13.4730964566929128
20
-9.1716883070866135
11
13.4789064566929131
21
-9.1796851181102355
0
LINE
8
BLACK
6
CONTINUOUS
10
13.4789064566929131
20
-9.1796851181102355
11
13.4833939763779522
21
-9.1884924015748037
0
LINE
8
BLACK
6
CONTINUOUS
10
13.4833939763779522
20
-9.1884924015748037
11
13.486448503937007
21
-9.1978931889763782
0
LINE
8
BLACK
6
CONTINUOUS
10
13.486448503937007
20
-9.1978931889763782
11
13.487994803149606
21
-9.2076561023622041
0
LINE
8
BLACK
6
CONTINUOUS
10
13.487994803149606
20
-9.2076561023622041
11
13.487994803149606
21
-9.2175407480314959
0
LINE
8
BLACK
6
CONTINUOUS
10
13.487994803149606
20
-9.2175407480314959
11
13.486448503937007
21
-9.2273036614173218
0
LINE
8
BLACK
6
CONTINUOUS
10
13.486448503937007
20
-9.2273036614173218
11
13.4833939763779522
21
-9.2367044488188981
0
LINE
8
BLACK
6
CONTINUOUS
10
13.4833939763779522
20
-9.2367044488188981
11
13.4789064566929131
21
-9.2455117322834646
0
LINE
8
BLACK
6
CONTINUOUS
10
13.4789064566929131
20
-9.2455117322834646
11
13.4730964566929128
21
-9.2535085433070865
0
LINE
8
BLACK
6
CONTINUOUS
10
13.4730964566929128
20
-9.2535085433070865
11
13.4661069685039365
21
-9.2604980314960628
0
LINE
8
BLACK
6
CONTINUOUS
10
13.4661069685039365
20
-9.2604980314960628
11
13.4581101574803146
21
-9.2663080314960631
0
LINE
8
BLACK
6
CONTINUOUS
10
13.4581101574803146
20
-9.2663080314960631
11
13.4493028740157481
21
-9.2707955511811022
0
LINE
8
BLACK
6
CONTINUOUS
10
13.4493028740157481
20
-9.2707955511811022
11
13.4399020866141736
21
-9.273850078740157
0
LINE
8
BLACK
6
CONTINUOUS
10
13.4399020866141736
20
-9.273850078740157
11
13.4301391732283459
21
-9.275396377952756
0
LINE
8
BLACK
6
CONTINUOUS
10
13.4301391732283459
20
-9.275396377952756
11
13.4202545275590541
21
-9.275396377952756
0
LINE
8
BLACK
6
CONTINUOUS
10
13.4202545275590541
20
-9.275396377952756
11
13.4104916141732282
21
-9.273850078740157
0
LINE
8
BLACK
6
CONTINUOUS
10
13.4104916141732282
20
-9.273850078740157
11
13.4010908267716538
21
-9.2707955511811022
0
LINE
8
BLACK
6
CONTINUOUS
10
13.4010908267716538
20
-9.2707955511811022
11
13.3922835433070855
21
-9.2663080314960631
0
LINE
8
BLACK
6
CONTINUOUS
10
13.3922835433070855
20
-9.2663080314960631
11
13.3842867322834636
21
-9.2604980314960628
0
LINE
8
BLACK
6
CONTINUOUS
10
13.3842867322834636
20
-9.2604980314960628
11
13.3772972440944873
21
-9.2535085433070865
0
LINE
8
BLACK
6
CONTINUOUS
10
13.3772972440944873
20
-9.2535085433070865
11
13.3714872440944887
21
-9.2455117322834646
0
LINE
8
BLACK
6
CONTINUOUS
10
13.3714872440944887
20
-9.2455117322834646
11
13.3669997244094478
21
-9.2367044488188981
0
LINE
8
BLACK
6
CONTINUOUS
10
13.3669997244094478
20
-9.2367044488188981
11
13.3639451968503931
21
-9.2273036614173218
0
LINE
8
BLACK
6
CONTINUOUS
10
13.3639451968503931
20
-9.2273036614173218
11
13.3623988976377941
21
-9.2175407480314959
0
LINE
8
BLACK
6
CONTINUOUS
10
13.3623988976377941
20
-9.2175407480314959
11
13.3623988976377941
21
-9.2076561023622041
0
LINE
8
BLACK
6
CONTINUOUS
10
13.3623988976377941
20
-9.2076561023622041
11
13.3639451968503931
21
-9.1978931889763782
0
LINE
8
BLACK
6
CONTINUOUS
10
13.3639451968503931
20
-9.1978931889763782
11
13.3669997244094478
21
-9.1884924015748037
0
LINE
8
BLACK
6
CONTINUOUS
10
13.3669997244094478
20
-9.1884924015748037
11
13.3714872440944887
21
-9.1796851181102355
0
LINE
8
BLACK
6
CONTINUOUS
10
13.3714872440944887
20
-9.1796851181102355
11
13.3772972440944873
21
-9.1716883070866135
0
LINE
8
BLACK
6
CONTINUOUS
10
13.3772972440944873
20
-9.1716883070866135
11
13.3842867322834636
21
-9.1646988188976373
0
LINE
8
BLACK
6
CONTINUOUS
10
13.3842867322834636
20
-9.1646988188976373
11
13.3922835433070855
21
-9.158888818897637
0
LINE
8
BLACK
6
CONTINUOUS
10
13.3922835433070855
20
-9.158888818897637
11
13.4010908267716538
21
-9.1544012992125978
0
LINE
8
BLACK
6
CONTINUOUS
10
13.4010908267716538
20
-9.1544012992125978
11
13.4104916141732282
21
-9.151346771653543
0
LINE
8
BLACK
6
CONTINUOUS
10
13.4104916141732282
20
-9.151346771653543
11
13.4202545275590541
21
-9.1498004724409441
0
LINE
8
BLACK
6
CONTINUOUS
10
13.4202545275590541
20
-9.1498004724409441
11
13.4301391732283459
21
-9.1498004724409441
0
LINE
8
BLACK
6
CONTINUOUS
10
13.4301391732283459
20
-9.1498004724409441
11
13.4399020866141736
21
-9.151346771653543
0
LINE
8
BLACK
6
CONTINUOUS
10
2.2194296456692912
20
-5.2537089763779523
11
2.2288304330708661
21
-5.256763503937008
0
LINE
8
BLACK
6
CONTINUOUS
10
2.2288304330708661
20
-5.256763503937008
11
2.2376377165354331
21
-5.2612510236220471
0
LINE
8
BLACK
6
CONTINUOUS
10
2.2376377165354331
20
-5.2612510236220471
11
2.245634527559055
21
-5.2670610236220474
0
LINE
8
BLACK
6
CONTINUOUS
10
2.245634527559055
20
-5.2670610236220474
11
2.2526240157480313
21
-5.2740505118110237
0
LINE
8
BLACK
6
CONTINUOUS
10
2.2526240157480313
20
-5.2740505118110237
11
2.2584340157480316
21
-5.2820473228346456
0
LINE
8
BLACK
6
CONTINUOUS
10
2.2584340157480316
20
-5.2820473228346456
11
2.2629215354330707
21
-5.2908546062992121
0
LINE
8
BLACK
6
CONTINUOUS
10
2.2629215354330707
20
-5.2908546062992121
11
2.265976062992126
21
-5.3002553937007875
0
LINE
8
BLACK
6
CONTINUOUS
10
2.265976062992126
20
-5.3002553937007875
11
2.2675223622047245
21
-5.3100183070866143
0
LINE
8
BLACK
6
CONTINUOUS
10
2.2675223622047245
20
-5.3100183070866143
11
2.2675223622047245
21
-5.3199029527559052
0
LINE
8
BLACK
6
CONTINUOUS
10
2.2675223622047245
20
-5.3199029527559052
11
2.265976062992126
21
-5.329665866141732
0
LINE
8
BLACK
6
CONTINUOUS
10
2.265976062992126
20
-5.329665866141732
11
2.2629215354330707
21
-5.3390666535433073
0
LINE
8
BLACK
6
CONTINUOUS
10
2.2629215354330707
20
-5.3390666535433073
11
2.2584340157480316
21
-5.3478739370078738
0
LINE
8
BLACK
6
CONTINUOUS
10
2.2584340157480316
20
-5.3478739370078738
11
2.2526240157480313
21
-5.3558707480314958
0
LINE
8
BLACK
6
CONTINUOUS
10
2.2526240157480313
20
-5.3558707480314958
11
2.245634527559055
21
-5.362860236220472
0
LINE
8
BLACK
6
CONTINUOUS
10
2.245634527559055
20
-5.362860236220472
11
2.2376377165354331
21
-5.3686702362204723
0
LINE
8
BLACK
6
CONTINUOUS
10
2.2376377165354331
20
-5.3686702362204723
11
2.2288304330708661
21
-5.3731577559055115
0
LINE
8
BLACK
6
CONTINUOUS
10
2.2288304330708661
20
-5.3731577559055115
11
2.2194296456692912
21
-5.3762122834645671
0
LINE
8
BLACK
6
CONTINUOUS
10
2.2194296456692912
20
-5.3762122834645671
11
2.2096667322834644
21
-5.3777585826771652
0
LINE
8
BLACK
6
CONTINUOUS
10
2.2096667322834644
20
-5.3777585826771652
11
2.1997820866141731
21
-5.3777585826771652
0
LINE
8
BLACK
6
CONTINUOUS
10
2.1997820866141731
20
-5.3777585826771652
11
2.1900191732283463
21
-5.3762122834645671
0
LINE
8
BLACK
6
CONTINUOUS
10
2.1900191732283463
20
-5.3762122834645671
11
2.1806183858267718
21
-5.3731577559055115
0
LINE
8
BLACK
6
CONTINUOUS
10
2.1806183858267718
20
-5.3731577559055115
11
2.1718111023622049
21
-5.3686702362204723
0
LINE
8
BLACK
6
CONTINUOUS
10
2.1718111023622049
20
-5.3686702362204723
11
2.1638142913385825
21
-5.362860236220472
0
LINE
8
BLACK
6
CONTINUOUS
10
2.1638142913385825
20
-5.362860236220472
11
2.1568248031496062
21
-5.3558707480314958
0
LINE
8
BLACK
6
CONTINUOUS
10
2.1568248031496062
20
-5.3558707480314958
11
2.1510148031496064
21
-5.3478739370078738
0
LINE
8
BLACK
6
CONTINUOUS
10
2.1510148031496064
20
-5.3478739370078738
11
2.1465272834645668
21
-5.3390666535433073
0
LINE
8
BLACK
6
CONTINUOUS
10
2.1465272834645668
20
-5.3390666535433073
11
2.1434727559055116
21
-5.329665866141732
0
LINE
8
BLACK
6
CONTINUOUS
10
2.1434727559055116
20
-5.329665866141732
11
2.1419264566929135
21
-5.3199029527559052
0
LINE
8
BLACK
6
CONTINUOUS
10
2.1419264566929135
20
-5.3199029527559052
11
2.1419264566929135
21
-5.3100183070866143
0
LINE
8
BLACK
6
CONTINUOUS
10
2.1419264566929135
20
-5.3100183070866143
11
2.1434727559055116
21
-5.3002553937007875
0
LINE
8
BLACK
6
CONTINUOUS
10
2.1434727559055116
20
-5.3002553937007875
11
2.1465272834645668
21
-5.2908546062992121
0
LINE
8
BLACK
6
CONTINUOUS
10
2.1465272834645668
20
-5.2908546062992121
11
2.1510148031496064
21
-5.2820473228346456
0
LINE
8
BLACK
6
CONTINUOUS
10
2.1510148031496064
20
-5.2820473228346456
11
2.1568248031496062
21
-5.2740505118110237
0
LINE
8
BLACK
6
CONTINUOUS
10
2.1568248031496062
20
-5.2740505118110237
11
2.1638142913385825
21
-5.2670610236220474
0
LINE
8
BLACK
6
CONTINUOUS
10
2.1638142913385825
20
-5.2670610236220474
11
2.1718111023622049
21
-5.2612510236220471
0
LINE
8
BLACK
6
CONTINUOUS
10
2.1718111023622049
20
-5.2612510236220471
11
2.1806183858267718
21
-5.256763503937008
0
LINE
8
BLACK
6
CONTINUOUS
10
2.1806183858267718
20
-5.256763503937008
11
2.1900191732283463
21
-5.2537089763779523
0
LINE
8
BLACK
6
CONTINUOUS
10
2.1900191732283463
20
-5.2537089763779523
11
2.1997820866141731
21
-5.2521626771653542
0
LINE
8
BLACK
6
CONTINUOUS
10
2.1997820866141731
20
-5.2521626771653542
11
2.2096667322834644
21
-5.2521626771653542
0
LINE
8
BLACK
6
CONTINUOUS
10
2.2096667322834644
20
-5.2521626771653542
11
2.2194296456692912
21
-5.2537089763779523
0
LINE
8
BLACK
6
CONTINUOUS
10
13.4399020866141736
20
-5.2537089763779523
11
13.4493028740157481
21
-5.256763503937008
0
LINE
8
BLACK
6
CONTINUOUS
10
13.4493028740157481
20
-5.256763503937008
11
13.4581101574803146
21
-5.2612510236220471
0
LINE
8
BLACK
6
CONTINUOUS
10
13.4581101574803146
20
-5.2612510236220471
11
13.4661069685039365
21
-5.2670610236220474
0
LINE
8
BLACK
6
CONTINUOUS
10
13.4661069685039365
20
-5.2670610236220474
11
13.4730964566929128
21
-5.2740505118110237
0
LINE
8
BLACK
6
CONTINUOUS
10
13.4730964566929128
20
-5.2740505118110237
11
13.4789064566929131
21
-5.2820473228346456
0
LINE
8
BLACK
6
CONTINUOUS
10
13.4789064566929131
20
-5.2820473228346456
11
13.4833939763779522
21
-5.2908546062992121
0
LINE
8
BLACK
6
CONTINUOUS
10
13.4833939763779522
20
-5.2908546062992121
11
13.486448503937007
21
-5.3002553937007875
0
LINE
8
BLACK
6
CONTINUOUS
10
13.486448503937007
20
-5.3002553937007875
11
13.487994803149606
21
-5.3100183070866143
0
LINE
8
BLACK
6
CONTINUOUS
10
13.487994803149606
20
-5.3100183070866143
11
13.487994803149606
21
-5.3199029527559052
0
LINE
8
BLACK
6
CONTINUOUS
10
13.487994803149606
20
-5.3199029527559052
11
13.486448503937007
21
-5.329665866141732
0
LINE
8
BLACK
6
CONTINUOUS
10
13.486448503937007
20
-5.329665866141732
11
13.4833939763779522
21
-5.3390666535433073
0
LINE
8
BLACK
6
CONTINUOUS
10
13.4833939763779522
20
-5.3390666535433073
11
13.4789064566929131
21
-5.3478739370078738
0
LINE
8
BLACK
6
CONTINUOUS
10
13.4789064566929131
20
-5.3478739370078738
11
13.4730964566929128
21
-5.3558707480314958
0
LINE
8
BLACK
6
CONTINUOUS
10
13.4730964566929128
20
-5.3558707480314958
11
13.4661069685039365
21
-5.362860236220472
0
LINE
8
BLACK
6
CONTINUOUS
10
13.4661069685039365
20
-5.362860236220472
11
13.4581101574803146
21
-5.3686702362204723
0
LINE
8
BLACK
6
CONTINUOUS
10
13.4581101574803146
20
-5.3686702362204723
11
13.4493028740157481
21
-5.3731577559055115
0
LINE
8
BLACK
6
CONTINUOUS
10
13.4493028740157481
20
-5.3731577559055115
11
13.4399020866141736
21
-5.3762122834645671
0
LINE
8
BLACK
6
CONTINUOUS
10
13.4399020866141736
20
-5.3762122834645671
11
13.4301391732283459
21
-5.3777585826771652
0
LINE
8
BLACK
6
CONTINUOUS
10
13.4301391732283459
20
-5.3777585826771652
11
13.4202545275590541
21
-5.3777585826771652
0
LINE
8
BLACK
6
CONTINUOUS
10
13.4202545275590541
20
-5.3777585826771652
11
13.4104916141732282
21
-5.3762122834645671
0
LINE
8
BLACK
6
CONTINUOUS
10
13.4104916141732282
20
-5.3762122834645671
11
13.4010908267716538
21
-5.3731577559055115
0
LINE
8
BLACK
6
CONTINUOUS
10
13.4010908267716538
20
-5.3731577559055115
11
13.3922835433070855
21
-5.3686702362204723
0
LINE
8
BLACK
6
CONTINUOUS
10
13.3922835433070855
20
-5.3686702362204723
11
13.3842867322834636
21
-5.362860236220472
0
LINE
8
BLACK
6
CONTINUOUS
10
13.3842867322834636
20
-5.362860236220472
11
13.3772972440944873
21
-5.3558707480314958
0
LINE
8
BLACK
6
CONTINUOUS
10
13.3772972440944873
20
-5.3558707480314958
11
13.3714872440944887
21
-5.3478739370078738
0
LINE
8
BLACK
6
CONTINUOUS
10
13.3714872440944887
20
-5.3478739370078738
11
13.3669997244094478
21
-5.3390666535433073
0
LINE
8
BLACK
6
CONTINUOUS
10
13.3669997244094478
20
-5.3390666535433073
11
13.3639451968503931
21
-5.329665866141732
0
LINE
8
BLACK
6
CONTINUOUS
10
13.3639451968503931
20
-5.329665866141732
11
13.3623988976377941
21
-5.3199029527559052
0
LINE
8
BLACK
6
CONTINUOUS
10
13.3623988976377941
20
-5.3199029527559052
11
13.3623988976377941
21
-5.3100183070866143
0
LINE
8
BLACK
6
CONTINUOUS
10
13.3623988976377941
20
-5.3100183070866143
11
13.3639451968503931
21
-5.3002553937007875
0
LINE
8
BLACK
6
CONTINUOUS
10
13.3639451968503931
20
-5.3002553937007875
11
13.3669997244094478
21
-5.2908546062992121
0
LINE
8
BLACK
6
CONTINUOUS
10
13.3669997244094478
20
-5.2908546062992121
11
13.3714872440944887
21
-5.2820473228346456
0
LINE
8
BLACK
6
CONTINUOUS
10
13.3714872440944887
20
-5.2820473228346456
11
13.3772972440944873
21
-5.2740505118110237
0
LINE
8
BLACK
6
CONTINUOUS
10
13.3772972440944873
20
-5.2740505118110237
11
13.3842867322834636
21
-5.2670610236220474
0
LINE
8
BLACK
6
CONTINUOUS
10
13.3842867322834636
20
-5.2670610236220474
11
13.3922835433070855
21
-5.2612510236220471
0
LINE
8
BLACK
6
CONTINUOUS
10
13.3922835433070855
20
-5.2612510236220471
11
13.4010908267716538
21
-5.256763503937008
0
LINE
8
BLACK
6
CONTINUOUS
10
13.4010908267716538
20
-5.256763503937008
11
13.4104916141732282
21
-5.2537089763779523
0
LINE
8
BLACK
6
CONTINUOUS
10
13.4104916141732282
20
-5.2537089763779523
11
13.4202545275590541
21
-5.2521626771653542
0
LINE
8
BLACK
6
CONTINUOUS
10
13.4202545275590541
20
-5.2521626771653542
11
13.4301391732283459
21
-5.2521626771653542
0
LINE
8
BLACK
6
CONTINUOUS
10
13.4301391732283459
20
-5.2521626771653542
11
13.4399020866141736
21
-5.2537089763779523
0
LINE
8
BLACK
6
CONTINUOUS
10
2.2194296456692912
20
-1.3560711811023622
11
2.2288304330708661
21
-1.3591257086614172
0
LINE
8
BLACK
6
CONTINUOUS
10
2.2288304330708661
20
-1.3591257086614172
11
2.2376377165354331
21
-1.3636132283464566
0
LINE
8
BLACK
6
CONTINUOUS
10
2.2376377165354331
20
-1.3636132283464566
11
2.245634527559055
21
-1.3694232283464567
0
LINE
8
BLACK
6
CONTINUOUS
10
2.245634527559055
20
-1.3694232283464567
11
2.2526240157480313
21
-1.376412716535433
0
LINE
8
BLACK
6
CONTINUOUS
10
2.2526240157480313
20
-1.376412716535433
11
2.2584340157480316
21
-1.3844095275590551
0
LINE
8
BLACK
6
CONTINUOUS
10
2.2584340157480316
20
-1.3844095275590551
11
2.2629215354330707
21
-1.393216811023622
0
LINE
8
BLACK
6
CONTINUOUS
10
2.2629215354330707
20
-1.393216811023622
11
2.265976062992126
21
-1.4026175984251967
0
LINE
8
BLACK
6
CONTINUOUS
10
2.265976062992126
20
-1.4026175984251967
11
2.2675223622047245
21
-1.4123805118110235
0
LINE
8
BLACK
6
CONTINUOUS
10
2.2675223622047245
20
-1.4123805118110235
11
2.2675223622047245
21
-1.4222651574803149
0
LINE
8
BLACK
6
CONTINUOUS
10
2.2675223622047245
20
-1.4222651574803149
11
2.265976062992126
21
-1.4320280708661417
0
LINE
8
BLACK
6
CONTINUOUS
10
2.265976062992126
20
-1.4320280708661417
11
2.2629215354330707
21
-1.4414288582677166
0
LINE
8
BLACK
6
CONTINUOUS
10
2.2629215354330707
20
-1.4414288582677166
11
2.2584340157480316
21
-1.4502361417322833
0
LINE
8
BLACK
6
CONTINUOUS
10
2.2584340157480316
20
-1.4502361417322833
11
2.2526240157480313
21
-1.4582329527559055
0
LINE
8
BLACK
6
CONTINUOUS
10
2.2526240157480313
20
-1.4582329527559055
11
2.245634527559055
21
-1.465222440944882
0
LINE
8
BLACK
6
CONTINUOUS
10
2.245634527559055
20
-1.465222440944882
11
2.2376377165354331
21
-1.4710324409448818
0
LINE
8
BLACK
6
CONTINUOUS
10
2.2376377165354331
20
-1.4710324409448818
11
2.2288304330708661
21
-1.4755199606299212
0
LINE
8
BLACK
6
CONTINUOUS
10
2.2288304330708661
20
-1.4755199606299212
11
2.2194296456692912
21
-1.4785744881889764
0
LINE
8
BLACK
6
CONTINUOUS
10
2.2194296456692912
20
-1.4785744881889764
11
2.2096667322834644
21
-1.4801207874015747
0
LINE
8
BLACK
6
CONTINUOUS
10
2.2096667322834644
20
-1.4801207874015747
11
2.1997820866141731
21
-1.4801207874015747
0
LINE
8
BLACK
6
CONTINUOUS
10
2.1997820866141731
20
-1.4801207874015747
11
2.1900191732283463
21
-1.4785744881889764
0
LINE
8
BLACK
6
CONTINUOUS
10
2.1900191732283463
20
-1.4785744881889764
11
2.1806183858267718
21
-1.4755199606299212
0
LINE
8
BLACK
6
CONTINUOUS
10
2.1806183858267718
20
-1.4755199606299212
11
2.1718111023622049
21
-1.4710324409448818
0
LINE
8
BLACK
6
CONTINUOUS
10
2.1718111023622049
20
-1.4710324409448818
11
2.1638142913385825
21
-1.465222440944882
0
LINE
8
BLACK
6
CONTINUOUS
10
2.1638142913385825
20
-1.465222440944882
11
2.1568248031496062
21
-1.4582329527559055
0
LINE
8
BLACK
6
CONTINUOUS
10
2.1568248031496062
20
-1.4582329527559055
11
2.1510148031496064
21
-1.4502361417322833
0
LINE
8
BLACK
6
CONTINUOUS
10
2.1510148031496064
20
-1.4502361417322833
11
2.1465272834645668
21
-1.4414288582677166
0
LINE
8
BLACK
6
CONTINUOUS
10
2.1465272834645668
20
-1.4414288582677166
11
2.1434727559055116
21
-1.4320280708661417
0
LINE
8
BLACK
6
CONTINUOUS
10
2.1434727559055116
20
-1.4320280708661417
11
2.1419264566929135
21
-1.4222651574803149
0
LINE
8
BLACK
6
CONTINUOUS
10
2.1419264566929135
20
-1.4222651574803149
11
2.1419264566929135
21
-1.4123805118110235
0
LINE
8
BLACK
6
CONTINUOUS
10
2.1419264566929135
20
-1.4123805118110235
11
2.1434727559055116
21
-1.4026175984251967
0
LINE
8
BLACK
6
CONTINUOUS
10
2.1434727559055116
20
-1.4026175984251967
11
2.1465272834645668
21
-1.393216811023622
0
LINE
8
BLACK
6
CONTINUOUS
10
2.1465272834645668
20
-1.393216811023622
11
2.1510148031496064
21
-1.3844095275590551
0
LINE
8
BLACK
6
CONTINUOUS
10
2.1510148031496064
20
-1.3844095275590551
11
2.1568248031496062
21
-1.376412716535433
0
LINE
8
BLACK
6
CONTINUOUS
10
2.1568248031496062
20
-1.376412716535433
11
2.1638142913385825
21
-1.3694232283464567
0
LINE
8
BLACK
6
CONTINUOUS
10
2.1638142913385825
20
-1.3694232283464567
11
2.1718111023622049
21
-1.3636132283464566
0
LINE
8
BLACK
6
CONTINUOUS
10
2.1718111023622049
20
-1.3636132283464566
11
2.1806183858267718
21
-1.3591257086614172
0
LINE
8
BLACK
6
CONTINUOUS
10
2.1806183858267718
20
-1.3591257086614172
11
2.1900191732283463
21
-1.3560711811023622
0
LINE
8
BLACK
6
CONTINUOUS
10
2.1900191732283463
20
-1.3560711811023622
11
2.1997820866141731
21
-1.3545248818897637
0
LINE
8
BLACK
6
CONTINUOUS
10
2.1997820866141731
20
-1.3545248818897637
11
2.2096667322834644
21
-1.3545248818897637
0
LINE
8
BLACK
6
CONTINUOUS
10
2.2096667322834644
20
-1.3545248818897637
11
2.2194296456692912
21
-1.3560711811023622
0
LINE
8
BLACK
6
CONTINUOUS
10
7.8099808267716533
20
-1.3560711811023622
11
7.8193816141732277
21
-1.3591257086614172
0
LINE
8
BLACK
6
CONTINUOUS
10
7.8193816141732277
20
-1.3591257086614172
11
7.8281888976377951
21
-1.3636132283464566
0
LINE
8
BLACK
6
CONTINUOUS
10
7.8281888976377951
20
-1.3636132283464566
11
7.8361857086614171
21
-1.3694232283464567
0
LINE
8
BLACK
6
CONTINUOUS
10
7.8361857086614171
20
-1.3694232283464567
11
7.8431751968503933
21
-1.376412716535433
0
LINE
8
BLACK
6
CONTINUOUS
10
7.8431751968503933
20
-1.376412716535433
11
7.8489851968503936
21
-1.3844095275590551
0
LINE
8
BLACK
6
CONTINUOUS
10
7.8489851968503936
20
-1.3844095275590551
11
7.8534727165354328
21
-1.393216811023622
0
LINE
8
BLACK
6
CONTINUOUS
10
7.8534727165354328
20
-1.393216811023622
11
7.8565272440944884
21
-1.4026175984251967
0
LINE
8
BLACK
6
CONTINUOUS
10
7.8565272440944884
20
-1.4026175984251967
11
7.8580735433070865
21
-1.4123805118110235
0
LINE
8
BLACK
6
CONTINUOUS
10
7.8580735433070865
20
-1.4123805118110235
11
7.8580735433070865
21
-1.4222651574803149
0
LINE
8
BLACK
6
CONTINUOUS
10
7.8580735433070865
20
-1.4222651574803149
11
7.8565272440944884
21
-1.4320280708661417
0
LINE
8
BLACK
6
CONTINUOUS
10
7.8565272440944884
20
-1.4320280708661417
11
7.8534727165354328
21
-1.4414288582677166
0
LINE
8
BLACK
6
CONTINUOUS
10
7.8534727165354328
20
-1.4414288582677166
11
7.8489851968503936
21
-1.4502361417322833
0
LINE
8
BLACK
6
CONTINUOUS
10
7.8489851968503936
20
-1.4502361417322833
11
7.8431751968503933
21
-1.4582329527559055
0
LINE
8
BLACK
6
CONTINUOUS
10
7.8431751968503933
20
-1.4582329527559055
11
7.8361857086614171
21
-1.465222440944882
0
LINE
8
BLACK
6
CONTINUOUS
10
7.8361857086614171
20
-1.465222440944882
11
7.8281888976377951
21
-1.4710324409448818
0
LINE
8
BLACK
6
CONTINUOUS
10
7.8281888976377951
20
-1.4710324409448818
11
7.8193816141732277
21
-1.4755199606299212
0
LINE
8
BLACK
6
CONTINUOUS
10
7.8193816141732277
20
-1.4755199606299212
11
7.8099808267716533
21
-1.4785744881889764
0
LINE
8
BLACK
6
CONTINUOUS
10
7.8099808267716533
20
-1.4785744881889764
11
7.8002179133858265
21
-1.4801207874015747
0
LINE
8
BLACK
6
CONTINUOUS
10
7.8002179133858265
20
-1.4801207874015747
11
7.7903332677165356
21
-1.4801207874015747
0
LINE
8
BLACK
6
CONTINUOUS
10
7.7903332677165356
20
-1.4801207874015747
11
7.7805703543307088
21
-1.4785744881889764
0
LINE
8
BLACK
6
CONTINUOUS
10
7.7805703543307088
20
-1.4785744881889764
11
7.7711695669291334
21
-1.4755199606299212
0
LINE
8
BLACK
6
CONTINUOUS
10
7.7711695669291334
20
-1.4755199606299212
11
7.7623622834645669
21
-1.4710324409448818
0
LINE
8
BLACK
6
CONTINUOUS
10
7.7623622834645669
20
-1.4710324409448818
11
7.754365472440945
21
-1.465222440944882
0
LINE
8
BLACK
6
CONTINUOUS
10
7.754365472440945
20
-1.465222440944882
11
7.7473759842519687
21
-1.4582329527559055
0
LINE
8
BLACK
6
CONTINUOUS
10
7.7473759842519687
20
-1.4582329527559055
11
7.7415659842519684
21
-1.4502361417322833
0
LINE
8
BLACK
6
CONTINUOUS
10
7.7415659842519684
20
-1.4502361417322833
11
7.7370784645669293
21
-1.4414288582677166
0
LINE
8
BLACK
6
CONTINUOUS
10
7.7370784645669293
20
-1.4414288582677166
11
7.7340239370078736
21
-1.4320280708661417
0
LINE
8
BLACK
6
CONTINUOUS
10
7.7340239370078736
20
-1.4320280708661417
11
7.7324776377952755
21
-1.4222651574803149
0
LINE
8
BLACK
6
CONTINUOUS
10
7.7324776377952755
20
-1.4222651574803149
11
7.7324776377952755
21
-1.4123805118110235
0
LINE
8
BLACK
6
CONTINUOUS
10
7.7324776377952755
20
-1.4123805118110235
11
7.7340239370078736
21
-1.4026175984251967
0
LINE
8
BLACK
6
CONTINUOUS
10
7.7340239370078736
20
-1.4026175984251967
11
7.7370784645669293
21
-1.393216811023622
0
LINE
8
BLACK
6
CONTINUOUS
10
7.7370784645669293
20
-1.393216811023622
11
7.7415659842519684
21
-1.3844095275590551
0
LINE
8
BLACK
6
CONTINUOUS
10
7.7415659842519684
20
-1.3844095275590551
11
7.7473759842519687
21
-1.376412716535433
0
LINE
8
BLACK
6
CONTINUOUS
10
7.7473759842519687
20
-1.376412716535433
11
7.754365472440945
21
-1.3694232283464567
0
LINE
8
BLACK
6
CONTINUOUS
10
7.754365472440945
20
-1.3694232283464567
11
7.7623622834645669
21
-1.3636132283464566
0
LINE
8
BLACK
6
CONTINUOUS
10
7.7623622834645669
20
-1.3636132283464566
11
7.7711695669291334
21
-1.3591257086614172
0
LINE
8
BLACK
6
CONTINUOUS
10
7.7711695669291334
20
-1.3591257086614172
11
7.7805703543307088
21
-1.3560711811023622
0
LINE
8
BLACK
6
CONTINUOUS
10
7.7805703543307088
20
-1.3560711811023622
11
7.7903332677165356
21
-1.3545248818897637
0
LINE
8
BLACK
6
CONTINUOUS
10
7.7903332677165356
20
-1.3545248818897637
11
7.8002179133858265
21
-1.3545248818897637
0
LINE
8
BLACK
6
CONTINUOUS
10
7.8002179133858265
20
-1.3545248818897637
11
7.8099808267716533
21
-1.3560711811023622
0
LINE
8
BLACK
6
CONTINUOUS
10
13.4399020866141736
20
-1.3560711811023622
11
13.4493028740157481
21
-1.3591257086614172
0
LINE
8
BLACK
6
CONTINUOUS
10
13.4493028740157481
20
-1.3591257086614172
11
13.4581101574803146
21
-1.3636132283464566
0
LINE
8
BLACK
6
CONTINUOUS
10
13.4581101574803146
20
-1.3636132283464566
11
13.4661069685039365
21
-1.3694232283464567
0
LINE
8
BLACK
6
CONTINUOUS
10
13.4661069685039365
20
-1.3694232283464567
11
13.4730964566929128
21
-1.376412716535433
0
LINE
8
BLACK
6
CONTINUOUS
10
13.4730964566929128
20
-1.376412716535433
11
13.4789064566929131
21
-1.3844095275590551
0
LINE
8
BLACK
6
CONTINUOUS
10
13.4789064566929131
20
-1.3844095275590551
11
13.4833939763779522
21
-1.393216811023622
0
LINE
8
BLACK
6
CONTINUOUS
10
13.4833939763779522
20
-1.393216811023622
11
13.486448503937007
21
-1.4026175984251967
0
LINE
8
BLACK
6
CONTINUOUS
10
13.486448503937007
20
-1.4026175984251967
11
13.487994803149606
21
-1.4123805118110235
0
LINE
8
BLACK
6
CONTINUOUS
10
13.487994803149606
20
-1.4123805118110235
11
13.487994803149606
21
-1.4222651574803149
0
LINE
8
BLACK
6
CONTINUOUS
10
13.487994803149606
20
-1.4222651574803149
11
13.486448503937007
21
-1.4320280708661417
0
LINE
8
BLACK
6
CONTINUOUS
10
13.486448503937007
20
-1.4320280708661417
11
13.4833939763779522
21
-1.4414288582677166
0
LINE
8
BLACK
6
CONTINUOUS
10
13.4833939763779522
20
-1.4414288582677166
11
13.4789064566929131
21
-1.4502361417322833
0
LINE
8
BLACK
6
CONTINUOUS
10
13.4789064566929131
20
-1.4502361417322833
11
13.4730964566929128
21
-1.4582329527559055
0
LINE
8
BLACK
6
CONTINUOUS
10
13.4730964566929128
20
-1.4582329527559055
11
13.4661069685039365
21
-1.465222440944882
0
LINE
8
BLACK
6
CONTINUOUS
10
13.4661069685039365
20
-1.465222440944882
11
13.4581101574803146
21
-1.4710324409448818
0
LINE
8
BLACK
6
CONTINUOUS
10
13.4581101574803146
20
-1.4710324409448818
11
13.4493028740157481
21
-1.4755199606299212
0
LINE
8
BLACK
6
CONTINUOUS
10
13.4493028740157481
20
-1.4755199606299212
11
13.4399020866141736
21
-1.4785744881889764
0
LINE
8
BLACK
6
CONTINUOUS
10
13.4399020866141736
20
-1.4785744881889764
11
13.4301391732283459
21
-1.4801207874015747
0
LINE
8
BLACK
6
CONTINUOUS
10
13.4301391732283459
20
-1.4801207874015747
11
13.4202545275590541
21
-1.4801207874015747
0
LINE
8
BLACK
6
CONTINUOUS
10
13.4202545275590541
20
-1.4801207874015747
11
13.4104916141732282
21
-1.4785744881889764
0
LINE
8
BLACK
6
CONTINUOUS
10
13.4104916141732282
20
-1.4785744881889764
11
13.4010908267716538
21
-1.4755199606299212
0
LINE
8
BLACK
6
CONTINUOUS
10
13.4010908267716538
20
-1.4755199606299212
11
13.3922835433070855
21
-1.4710324409448818
0
LINE
8
BLACK
6
CONTINUOUS
10
13.3922835433070855
20
-1.4710324409448818
11
13.3842867322834636
21
-1.465222440944882
0
LINE
8
BLACK
6
CONTINUOUS
10
13.3842867322834636
20
-1.465222440944882
11
13.3772972440944873
21
-1.4582329527559055
0
LINE
8
BLACK
6
CONTINUOUS
10
13.3772972440944873
20
-1.4582329527559055
11
13.3714872440944887
21
-1.4502361417322833
0
LINE
8
BLACK
6
CONTINUOUS
10
13.3714872440944887
20
-1.4502361417322833
11
13.3669997244094478
21
-1.4414288582677166
0
LINE
8
BLACK
6
CONTINUOUS
10
13.3669997244094478
20
-1.4414288582677166
11
13.3639451968503931
21
-1.4320280708661417
0
LINE
8
BLACK
6
CONTINUOUS
10
13.3639451968503931
20
-1.4320280708661417
11
13.3623988976377941
21
-1.4222651574803149
0
LINE
8
BLACK
6
CONTINUOUS
10
13.3623988976377941
20
-1.4222651574803149
11
13.3623988976377941
21
-1.4123805118110235
0
LINE
8
BLACK
6
CONTINUOUS
10
13.3623988976377941
20
-1.4123805118110235
11
13.3639451968503931
21
-1.4026175984251967
0
LINE
8
BLACK
6
CONTINUOUS
10
13.3639451968503931
20
-1.4026175984251967
11
13.3669997244094478
21
-1.393216811023622
0
LINE
8
BLACK
6
CONTINUOUS
10
13.3669997244094478
20
-1.393216811023622
11
13.3714872440944887
21
-1.3844095275590551
0
LINE
8
BLACK
6
CONTINUOUS
10
13.3714872440944887
20
-1.3844095275590551
11
13.3772972440944873
21
-1.376412716535433
0
LINE
8
BLACK
6
CONTINUOUS
10
13.3772972440944873
20
-1.376412716535433
11
13.3842867322834636
21
-1.3694232283464567
0
LINE
8
BLACK
6
CONTINUOUS
10
13.3842867322834636
20
-1.3694232283464567
11
13.3922835433070855
21
-1.3636132283464566
0
LINE
8
BLACK
6
CONTINUOUS
10
13.3922835433070855
20
-1.3636132283464566
11
13.4010908267716538
21
-1.3591257086614172
0
LINE
8
BLACK
6
CONTINUOUS
10
13.4010908267716538
20
-1.3591257086614172
11
13.4104916141732282
21
-1.3560711811023622
0
LINE
8
BLACK
6
CONTINUOUS
10
13.4104916141732282
20
-1.3560711811023622
11
13.4202545275590541
21
-1.3545248818897637
0
LINE
8
BLACK
6
CONTINUOUS
10
13.4202545275590541
20
-1.3545248818897637
11
13.4301391732283459
21
-1.3545248818897637
0
LINE
8
BLACK
6
CONTINUOUS
10
13.4301391732283459
20
-1.3545248818897637
11
13.4399020866141736
21
-1.3560711811023622
  0
ENDSEC
  0
EOF
