  0
SECTION
  2
HEADER
  9
$ANGBASE
  50
0.0
  9
$ANGDIR
  70
1
  9
$MEASUREMENT
  70
0
  0
ENDSEC
  0
SECTION
  2
TABLES
  0
TABLE
  2
LTYPE
  70
4
  0
LTYPE
  5
40F
  2
CONTINUOUS
  70
0
  3
Solid line
  72
65
  73
0
  40
0.0
  0
LTYPE
  5
410
  2
DASHDOT
 70
0
  3
Dash Dot ____ _ ____ _
 72
65
 73
4
 40
2.0
 49
1.25
 49
-0.25
 49
0.25
 49
-0.25
  0
LTYPE
  5
411
  2
DASHED
 70
0
  3
Dashed __ __ __ __ __
 72
65
 73
2
 40
0.75
 49
0.5
 49
-0.25
  0
LTYPE
  5
43B
  2
DOTTED
 70
0
  3
Dotted .  .  .  .
 72
65
 73
2
 40
0.2
 49
0.0
 49
-0.2
  0
ENDTAB
  0
TABLE
  2
STYLE
  70
4
  0
STYLE
  2
KICAD
  70
0
  40
0
  41
1
  42
1
  50
0
  71
0
  3
isocp.shx
  0
STYLE
  2
KICADB
  70
0
  40
0
  41
1
  42
1
  50
0
  71
0
  3
isocp.shx
  0
STYLE
  2
KICADI
  70
0
  40
0
  41
1
  42
1
  50
15
  71
0
  3
isocp.shx
  0
STYLE
  2
KICADBI
  70
0
  40
0
  41
1
  42
1
  50
15
  71
0
  3
isocp.shx
  0
ENDTAB
  0
TABLE
  2
LAYER
  70
1
  0
LAYER
  2
BLACK
  70
0
  62
7
  6
CONTINUOUS
  0
ENDTAB
  0
ENDSEC
  0
SECTION
  2
ENTITIES
0
LINE
8
BLACK
6
CONTINUOUS
10
2.2196594094488189
20
-9.1503897244094485
11
2.2292071259842521
21
-9.1534919685039373
0
LINE
8
BLACK
6
CONTINUOUS
10
2.2292071259842521
20
-9.1534919685039373
11
2.2381519685039368
21
-9.1580496062992118
0
LINE
8
BLACK
6
CONTINUOUS
10
2.2381519685039368
20
-9.1580496062992118
11
2.2462737401574802
21
-9.1639503937007873
0
LINE
8
BLACK
6
CONTINUOUS
10
2.2462737401574802
20
-9.1639503937007873
11
2.2533724409448816
21
-9.1710490944881879
0
LINE
8
BLACK
6
CONTINUOUS
10
2.2533724409448816
20
-9.1710490944881879
11
2.2592732283464567
21
-9.1791708661417317
0
LINE
8
BLACK
6
CONTINUOUS
10
2.2592732283464567
20
-9.1791708661417317
11
2.2638308661417321
21
-9.1881157086614174
0
LINE
8
BLACK
6
CONTINUOUS
10
2.2638308661417321
20
-9.1881157086614174
11
2.2669331102362205
21
-9.1976634251968505
0
LINE
8
BLACK
6
CONTINUOUS
10
2.2669331102362205
20
-9.1976634251968505
11
2.2685035826771651
21
-9.207578897637795
0
LINE
8
BLACK
6
CONTINUOUS
10
2.2685035826771651
20
-9.207578897637795
11
2.2685035826771651
21
-9.217617952755905
0
LINE
8
BLACK
6
CONTINUOUS
10
2.2685035826771651
20
-9.217617952755905
11
2.2669331102362205
21
-9.2275334251968495
0
LINE
8
BLACK
6
CONTINUOUS
10
2.2669331102362205
20
-9.2275334251968495
11
2.2638308661417321
21
-9.2370811417322827
0
LINE
8
BLACK
6
CONTINUOUS
10
2.2638308661417321
20
-9.2370811417322827
11
2.2592732283464567
21
-9.2460259842519683
0
LINE
8
BLACK
6
CONTINUOUS
10
2.2592732283464567
20
-9.2460259842519683
11
2.2533724409448816
21
-9.2541477559055121
0
LINE
8
BLACK
6
CONTINUOUS
10
2.2533724409448816
20
-9.2541477559055121
11
2.2462737401574802
21
-9.2612464566929127
0
LINE
8
BLACK
6
CONTINUOUS
10
2.2462737401574802
20
-9.2612464566929127
11
2.2381519685039368
21
-9.2671472440944882
0
LINE
8
BLACK
6
CONTINUOUS
10
2.2381519685039368
20
-9.2671472440944882
11
2.2292071259842521
21
-9.2717048818897627
0
LINE
8
BLACK
6
CONTINUOUS
10
2.2292071259842521
20
-9.2717048818897627
11
2.2196594094488189
21
-9.2748071259842515
0
LINE
8
BLACK
6
CONTINUOUS
10
2.2196594094488189
20
-9.2748071259842515
11
2.209743937007874
21
-9.2763775984251975
0
LINE
8
BLACK
6
CONTINUOUS
10
2.209743937007874
20
-9.2763775984251975
11
2.1997048818897635
21
-9.2763775984251975
0
LINE
8
BLACK
6
CONTINUOUS
10
2.1997048818897635
20
-9.2763775984251975
11
2.1897894094488191
21
-9.2748071259842515
0
LINE
8
BLACK
6
CONTINUOUS
10
2.1897894094488191
20
-9.2748071259842515
11
2.1802416929133859
21
-9.2717048818897627
0
LINE
8
BLACK
6
CONTINUOUS
10
2.1802416929133859
20
-9.2717048818897627
11
2.1712968503937007
21
-9.2671472440944882
0
LINE
8
BLACK
6
CONTINUOUS
10
2.1712968503937007
20
-9.2671472440944882
11
2.1631750787401574
21
-9.2612464566929127
0
LINE
8
BLACK
6
CONTINUOUS
10
2.1631750787401574
20
-9.2612464566929127
11
2.1560763779527559
21
-9.2541477559055121
0
LINE
8
BLACK
6
CONTINUOUS
10
2.1560763779527559
20
-9.2541477559055121
11
2.1501755905511812
21
-9.2460259842519683
0
LINE
8
BLACK
6
CONTINUOUS
10
2.1501755905511812
20
-9.2460259842519683
11
2.1456179527559054
21
-9.2370811417322827
0
LINE
8
BLACK
6
CONTINUOUS
10
2.1456179527559054
20
-9.2370811417322827
11
2.1425157086614175
21
-9.2275334251968495
0
LINE
8
BLACK
6
CONTINUOUS
10
2.1425157086614175
20
-9.2275334251968495
11
2.1409452362204724
21
-9.217617952755905
0
LINE
8
BLACK
6
CONTINUOUS
10
2.1409452362204724
20
-9.217617952755905
11
2.1409452362204724
21
-9.2077183070866138
0
LINE
8
BLACK
6
CONTINUOUS
10
2.1409452362204724
20
-9.2077183070866138
11
2.1409452362204724
21
-9.207578897637795
0
LINE
8
BLACK
6
CONTINUOUS
10
2.1409452362204724
20
-9.207578897637795
11
2.1425157086614175
21
-9.1976634251968505
0
LINE
8
BLACK
6
CONTINUOUS
10
2.1425157086614175
20
-9.1976634251968505
11
2.1456179527559054
21
-9.1881157086614174
0
LINE
8
BLACK
6
CONTINUOUS
10
2.1456179527559054
20
-9.1881157086614174
11
2.1501755905511812
21
-9.1791708661417317
0
LINE
8
BLACK
6
CONTINUOUS
10
2.1501755905511812
20
-9.1791708661417317
11
2.1560763779527559
21
-9.1710490944881879
0
LINE
8
BLACK
6
CONTINUOUS
10
2.1560763779527559
20
-9.1710490944881879
11
2.1631750787401574
21
-9.1639503937007873
0
LINE
8
BLACK
6
CONTINUOUS
10
2.1631750787401574
20
-9.1639503937007873
11
2.1712968503937007
21
-9.1580496062992118
0
LINE
8
BLACK
6
CONTINUOUS
10
2.1712968503937007
20
-9.1580496062992118
11
2.1802416929133859
21
-9.1534919685039373
0
LINE
8
BLACK
6
CONTINUOUS
10
2.1802416929133859
20
-9.1534919685039373
11
2.1897894094488191
21
-9.1503897244094485
0
LINE
8
BLACK
6
CONTINUOUS
10
2.1897894094488191
20
-9.1503897244094485
11
2.1997048818897635
21
-9.1488192519685043
0
LINE
8
BLACK
6
CONTINUOUS
10
2.1997048818897635
20
-9.1488192519685043
11
2.209743937007874
21
-9.1488192519685043
0
LINE
8
BLACK
6
CONTINUOUS
10
2.209743937007874
20
-9.1488192519685043
11
2.2196594094488189
21
-9.1503897244094485
0
LINE
8
BLACK
6
CONTINUOUS
10
2.1427165354330708
20
-9.2174785433070863
11
2.1442433858267718
21
-9.2271186220472448
0
LINE
8
BLACK
6
CONTINUOUS
10
2.1442433858267718
20
-9.2271186220472448
11
2.1472594488188976
21
-9.2364011811023623
0
LINE
8
BLACK
6
CONTINUOUS
10
2.1472594488188976
20
-9.2364011811023623
11
2.1516905118110237
21
-9.2450976377952756
0
LINE
8
BLACK
6
CONTINUOUS
10
2.1516905118110237
20
-9.2450976377952756
11
2.1574274409448817
21
-9.2529938188976377
0
LINE
8
BLACK
6
CONTINUOUS
10
2.1574274409448817
20
-9.2529938188976377
11
2.1643290157480313
21
-9.2598953937007877
0
LINE
8
BLACK
6
CONTINUOUS
10
2.1643290157480313
20
-9.2598953937007877
11
2.1722251968503938
21
-9.2656323228346462
0
LINE
8
BLACK
6
CONTINUOUS
10
2.1722251968503938
20
-9.2656323228346462
11
2.1809216535433071
21
-9.2700633858267718
0
LINE
8
BLACK
6
CONTINUOUS
10
2.1809216535433071
20
-9.2700633858267718
11
2.1902042125984251
21
-9.2730794488188977
0
LINE
8
BLACK
6
CONTINUOUS
10
2.1902042125984251
20
-9.2730794488188977
11
2.1998442913385827
21
-9.2746062992125982
0
LINE
8
BLACK
6
CONTINUOUS
10
2.1998442913385827
20
-9.2746062992125982
11
2.2096045275590552
21
-9.2746062992125982
0
LINE
8
BLACK
6
CONTINUOUS
10
2.2096045275590552
20
-9.2746062992125982
11
2.2192446062992124
21
-9.2730794488188977
0
LINE
8
BLACK
6
CONTINUOUS
10
2.2192446062992124
20
-9.2730794488188977
11
2.2285271653543308
21
-9.2700633858267718
0
LINE
8
BLACK
6
CONTINUOUS
10
2.2285271653543308
20
-9.2700633858267718
11
2.2372236220472441
21
-9.2656323228346462
0
LINE
8
BLACK
6
CONTINUOUS
10
2.2372236220472441
20
-9.2656323228346462
11
2.2451198031496062
21
-9.2598953937007877
0
LINE
8
BLACK
6
CONTINUOUS
10
2.2451198031496062
20
-9.2598953937007877
11
2.2520213779527558
21
-9.2529938188976377
0
LINE
8
BLACK
6
CONTINUOUS
10
2.2520213779527558
20
-9.2529938188976377
11
2.2577583070866143
21
-9.2450976377952756
0
LINE
8
BLACK
6
CONTINUOUS
10
2.2577583070866143
20
-9.2450976377952756
11
2.2621893700787403
21
-9.2364011811023623
0
LINE
8
BLACK
6
CONTINUOUS
10
2.2621893700787403
20
-9.2364011811023623
11
2.2652054330708662
21
-9.2271186220472448
0
LINE
8
BLACK
6
CONTINUOUS
10
2.2652054330708662
20
-9.2271186220472448
11
2.2667322834645667
21
-9.2174785433070863
0
LINE
8
BLACK
6
CONTINUOUS
10
2.2667322834645667
20
-9.2174785433070863
11
2.2667322834645667
21
-9.2077183070866138
0
LINE
8
BLACK
6
CONTINUOUS
10
2.2667322834645667
20
-9.2077183070866138
11
2.2652054330708662
21
-9.1980782283464571
0
LINE
8
BLACK
6
CONTINUOUS
10
2.2652054330708662
20
-9.1980782283464571
11
2.2621893700787403
21
-9.1887956692913377
0
LINE
8
BLACK
6
CONTINUOUS
10
2.2621893700787403
20
-9.1887956692913377
11
2.2577583070866143
21
-9.1800992125984244
0
LINE
8
BLACK
6
CONTINUOUS
10
2.2577583070866143
20
-9.1800992125984244
11
2.2520213779527558
21
-9.1722030314960623
0
LINE
8
BLACK
6
CONTINUOUS
10
2.2520213779527558
20
-9.1722030314960623
11
2.2451198031496062
21
-9.1653014566929123
0
LINE
8
BLACK
6
CONTINUOUS
10
2.2451198031496062
20
-9.1653014566929123
11
2.2372236220472441
21
-9.1595645275590556
0
LINE
8
BLACK
6
CONTINUOUS
10
2.2372236220472441
20
-9.1595645275590556
11
2.2285271653543308
21
-9.1551334645669282
0
LINE
8
BLACK
6
CONTINUOUS
10
2.2285271653543308
20
-9.1551334645669282
11
2.2192446062992124
21
-9.1521174015748024
0
LINE
8
BLACK
6
CONTINUOUS
10
2.2192446062992124
20
-9.1521174015748024
11
2.2096045275590552
21
-9.1505905511811019
0
LINE
8
BLACK
6
CONTINUOUS
10
2.2096045275590552
20
-9.1505905511811019
11
2.1998442913385827
21
-9.1505905511811019
0
LINE
8
BLACK
6
CONTINUOUS
10
2.1998442913385827
20
-9.1505905511811019
11
2.1902042125984251
21
-9.1521174015748024
0
LINE
8
BLACK
6
CONTINUOUS
10
2.1902042125984251
20
-9.1521174015748024
11
2.1809216535433071
21
-9.1551334645669282
0
LINE
8
BLACK
6
CONTINUOUS
10
2.1809216535433071
20
-9.1551334645669282
11
2.1722251968503938
21
-9.1595645275590556
0
LINE
8
BLACK
6
CONTINUOUS
10
2.1722251968503938
20
-9.1595645275590556
11
2.1643290157480313
21
-9.1653014566929123
0
LINE
8
BLACK
6
CONTINUOUS
10
2.1643290157480313
20
-9.1653014566929123
11
2.1574274409448817
21
-9.1722030314960623
0
LINE
8
BLACK
6
CONTINUOUS
10
2.1574274409448817
20
-9.1722030314960623
11
2.1516905118110237
21
-9.1800992125984244
0
LINE
8
BLACK
6
CONTINUOUS
10
2.1516905118110237
20
-9.1800992125984244
11
2.1472594488188976
21
-9.1887956692913377
0
LINE
8
BLACK
6
CONTINUOUS
10
2.1472594488188976
20
-9.1887956692913377
11
2.1442433858267718
21
-9.1980782283464571
0
LINE
8
BLACK
6
CONTINUOUS
10
2.1442433858267718
20
-9.1980782283464571
11
2.1427165354330708
21
-9.2077183070866138
0
LINE
8
BLACK
6
CONTINUOUS
10
2.1427165354330708
20
-9.2077183070866138
11
2.1427165354330708
21
-9.2174785433070863
0
LINE
8
BLACK
6
CONTINUOUS
10
7.8102105905511809
20
-9.1503897244094485
11
7.8197583070866141
21
-9.1534919685039373
0
LINE
8
BLACK
6
CONTINUOUS
10
7.8197583070866141
20
-9.1534919685039373
11
7.8287031496062989
21
-9.1580496062992118
0
LINE
8
BLACK
6
CONTINUOUS
10
7.8287031496062989
20
-9.1580496062992118
11
7.8368249212598426
21
-9.1639503937007873
0
LINE
8
BLACK
6
CONTINUOUS
10
7.8368249212598426
20
-9.1639503937007873
11
7.8439236220472441
21
-9.1710490944881879
0
LINE
8
BLACK
6
CONTINUOUS
10
7.8439236220472441
20
-9.1710490944881879
11
7.8498244094488188
21
-9.1791708661417317
0
LINE
8
BLACK
6
CONTINUOUS
10
7.8498244094488188
20
-9.1791708661417317
11
7.8543820472440942
21
-9.1881157086614174
0
LINE
8
BLACK
6
CONTINUOUS
10
7.8543820472440942
20
-9.1881157086614174
11
7.8574842913385821
21
-9.1976634251968505
0
LINE
8
BLACK
6
CONTINUOUS
10
7.8574842913385821
20
-9.1976634251968505
11
7.8590547637795272
21
-9.207578897637795
0
LINE
8
BLACK
6
CONTINUOUS
10
7.8590547637795272
20
-9.207578897637795
11
7.8590547637795272
21
-9.217617952755905
0
LINE
8
BLACK
6
CONTINUOUS
10
7.8590547637795272
20
-9.217617952755905
11
7.8574842913385821
21
-9.2275334251968495
0
LINE
8
BLACK
6
CONTINUOUS
10
7.8574842913385821
20
-9.2275334251968495
11
7.8543820472440942
21
-9.2370811417322827
0
LINE
8
BLACK
6
CONTINUOUS
10
7.8543820472440942
20
-9.2370811417322827
11
7.8498244094488188
21
-9.2460259842519683
0
LINE
8
BLACK
6
CONTINUOUS
10
7.8498244094488188
20
-9.2460259842519683
11
7.8439236220472441
21
-9.2541477559055121
0
LINE
8
BLACK
6
CONTINUOUS
10
7.8439236220472441
20
-9.2541477559055121
11
7.8368249212598426
21
-9.2612464566929127
0
LINE
8
BLACK
6
CONTINUOUS
10
7.8368249212598426
20
-9.2612464566929127
11
7.8287031496062989
21
-9.2671472440944882
0
LINE
8
BLACK
6
CONTINUOUS
10
7.8287031496062989
20
-9.2671472440944882
11
7.8197583070866141
21
-9.2717048818897627
0
LINE
8
BLACK
6
CONTINUOUS
10
7.8197583070866141
20
-9.2717048818897627
11
7.8102105905511809
21
-9.2748071259842515
0
LINE
8
BLACK
6
CONTINUOUS
10
7.8102105905511809
20
-9.2748071259842515
11
7.8002951181102365
21
-9.2763775984251975
0
LINE
8
BLACK
6
CONTINUOUS
10
7.8002951181102365
20
-9.2763775984251975
11
7.7902560629921256
21
-9.2763775984251975
0
LINE
8
BLACK
6
CONTINUOUS
10
7.7902560629921256
20
-9.2763775984251975
11
7.7803405905511811
21
-9.2748071259842515
0
LINE
8
BLACK
6
CONTINUOUS
10
7.7803405905511811
20
-9.2748071259842515
11
7.7707928740157479
21
-9.2717048818897627
0
LINE
8
BLACK
6
CONTINUOUS
10
7.7707928740157479
20
-9.2717048818897627
11
7.7618480314960632
21
-9.2671472440944882
0
LINE
8
BLACK
6
CONTINUOUS
10
7.7618480314960632
20
-9.2671472440944882
11
7.7537262598425194
21
-9.2612464566929127
0
LINE
8
BLACK
6
CONTINUOUS
10
7.7537262598425194
20
-9.2612464566929127
11
7.7466275590551179
21
-9.2541477559055121
0
LINE
8
BLACK
6
CONTINUOUS
10
7.7466275590551179
20
-9.2541477559055121
11
7.7407267716535433
21
-9.2460259842519683
0
LINE
8
BLACK
6
CONTINUOUS
10
7.7407267716535433
20
-9.2460259842519683
11
7.7361691338582679
21
-9.2370811417322827
0
LINE
8
BLACK
6
CONTINUOUS
10
7.7361691338582679
20
-9.2370811417322827
11
7.7330668897637791
21
-9.2275334251968495
0
LINE
8
BLACK
6
CONTINUOUS
10
7.7330668897637791
20
-9.2275334251968495
11
7.7314964173228349
21
-9.217617952755905
0
LINE
8
BLACK
6
CONTINUOUS
10
7.7314964173228349
20
-9.217617952755905
11
7.7314964173228349
21
-9.2077183070866138
0
LINE
8
BLACK
6
CONTINUOUS
10
7.7314964173228349
20
-9.2077183070866138
11
7.7314964173228349
21
-9.207578897637795
0
LINE
8
BLACK
6
CONTINUOUS
10
7.7314964173228349
20
-9.207578897637795
11
7.7330668897637791
21
-9.1976634251968505
0
LINE
8
BLACK
6
CONTINUOUS
10
7.7330668897637791
20
-9.1976634251968505
11
7.7361691338582679
21
-9.1881157086614174
0
LINE
8
BLACK
6
CONTINUOUS
10
7.7361691338582679
20
-9.1881157086614174
11
7.7407267716535433
21
-9.1791708661417317
0
LINE
8
BLACK
6
CONTINUOUS
10
7.7407267716535433
20
-9.1791708661417317
11
7.7466275590551179
21
-9.1710490944881879
0
LINE
8
BLACK
6
CONTINUOUS
10
7.7466275590551179
20
-9.1710490944881879
11
7.7537262598425194
21
-9.1639503937007873
0
LINE
8
BLACK
6
CONTINUOUS
10
7.7537262598425194
20
-9.1639503937007873
11
7.7618480314960632
21
-9.1580496062992118
0
LINE
8
BLACK
6
CONTINUOUS
10
7.7618480314960632
20
-9.1580496062992118
11
7.7707928740157479
21
-9.1534919685039373
0
LINE
8
BLACK
6
CONTINUOUS
10
7.7707928740157479
20
-9.1534919685039373
11
7.7803405905511811
21
-9.1503897244094485
0
LINE
8
BLACK
6
CONTINUOUS
10
7.7803405905511811
20
-9.1503897244094485
11
7.7902560629921256
21
-9.1488192519685043
0
LINE
8
BLACK
6
CONTINUOUS
10
7.7902560629921256
20
-9.1488192519685043
11
7.8002951181102365
21
-9.1488192519685043
0
LINE
8
BLACK
6
CONTINUOUS
10
7.8002951181102365
20
-9.1488192519685043
11
7.8102105905511809
21
-9.1503897244094485
0
LINE
8
BLACK
6
CONTINUOUS
10
7.7332677165354333
20
-9.2174785433070863
11
7.7347945669291338
21
-9.2271186220472448
0
LINE
8
BLACK
6
CONTINUOUS
10
7.7347945669291338
20
-9.2271186220472448
11
7.7378106299212597
21
-9.2364011811023623
0
LINE
8
BLACK
6
CONTINUOUS
10
7.7378106299212597
20
-9.2364011811023623
11
7.7422416929133853
21
-9.2450976377952756
0
LINE
8
BLACK
6
CONTINUOUS
10
7.7422416929133853
20
-9.2450976377952756
11
7.7479786220472437
21
-9.2529938188976377
0
LINE
8
BLACK
6
CONTINUOUS
10
7.7479786220472437
20
-9.2529938188976377
11
7.7548801968503938
21
-9.2598953937007877
0
LINE
8
BLACK
6
CONTINUOUS
10
7.7548801968503938
20
-9.2598953937007877
11
7.7627763779527559
21
-9.2656323228346462
0
LINE
8
BLACK
6
CONTINUOUS
10
7.7627763779527559
20
-9.2656323228346462
11
7.7714728346456692
21
-9.2700633858267718
0
LINE
8
BLACK
6
CONTINUOUS
10
7.7714728346456692
20
-9.2700633858267718
11
7.7807553937007876
21
-9.2730794488188977
0
LINE
8
BLACK
6
CONTINUOUS
10
7.7807553937007876
20
-9.2730794488188977
11
7.7903954724409443
21
-9.2746062992125982
0
LINE
8
BLACK
6
CONTINUOUS
10
7.7903954724409443
20
-9.2746062992125982
11
7.8001557086614168
21
-9.2746062992125982
0
LINE
8
BLACK
6
CONTINUOUS
10
7.8001557086614168
20
-9.2746062992125982
11
7.8097957874015744
21
-9.2730794488188977
0
LINE
8
BLACK
6
CONTINUOUS
10
7.8097957874015744
20
-9.2730794488188977
11
7.8190783464566929
21
-9.2700633858267718
0
LINE
8
BLACK
6
CONTINUOUS
10
7.8190783464566929
20
-9.2700633858267718
11
7.8277748031496062
21
-9.2656323228346462
0
LINE
8
BLACK
6
CONTINUOUS
10
7.8277748031496062
20
-9.2656323228346462
11
7.8356709842519683
21
-9.2598953937007877
0
LINE
8
BLACK
6
CONTINUOUS
10
7.8356709842519683
20
-9.2598953937007877
11
7.8425725590551183
21
-9.2529938188976377
0
LINE
8
BLACK
6
CONTINUOUS
10
7.8425725590551183
20
-9.2529938188976377
11
7.8483094881889759
21
-9.2450976377952756
0
LINE
8
BLACK
6
CONTINUOUS
10
7.8483094881889759
20
-9.2450976377952756
11
7.8527405511811024
21
-9.2364011811023623
0
LINE
8
BLACK
6
CONTINUOUS
10
7.8527405511811024
20
-9.2364011811023623
11
7.8557566141732282
21
-9.2271186220472448
0
LINE
8
BLACK
6
CONTINUOUS
10
7.8557566141732282
20
-9.2271186220472448
11
7.8572834645669287
21
-9.2174785433070863
0
LINE
8
BLACK
6
CONTINUOUS
10
7.8572834645669287
20
-9.2174785433070863
11
7.8572834645669287
21
-9.2077183070866138
0
LINE
8
BLACK
6
CONTINUOUS
10
7.8572834645669287
20
-9.2077183070866138
11
7.8557566141732282
21
-9.1980782283464571
0
LINE
8
BLACK
6
CONTINUOUS
10
7.8557566141732282
20
-9.1980782283464571
11
7.8527405511811024
21
-9.1887956692913377
0
LINE
8
BLACK
6
CONTINUOUS
10
7.8527405511811024
20
-9.1887956692913377
11
7.8483094881889759
21
-9.1800992125984244
0
LINE
8
BLACK
6
CONTINUOUS
10
7.8483094881889759
20
-9.1800992125984244
11
7.8425725590551183
21
-9.1722030314960623
0
LINE
8
BLACK
6
CONTINUOUS
10
7.8425725590551183
20
-9.1722030314960623
11
7.8356709842519683
21
-9.1653014566929123
0
LINE
8
BLACK
6
CONTINUOUS
10
7.8356709842519683
20
-9.1653014566929123
11
7.8277748031496062
21
-9.1595645275590556
0
LINE
8
BLACK
6
CONTINUOUS
10
7.8277748031496062
20
-9.1595645275590556
11
7.8190783464566929
21
-9.1551334645669282
0
LINE
8
BLACK
6
CONTINUOUS
10
7.8190783464566929
20
-9.1551334645669282
11
7.8097957874015744
21
-9.1521174015748024
0
LINE
8
BLACK
6
CONTINUOUS
10
7.8097957874015744
20
-9.1521174015748024
11
7.8001557086614168
21
-9.1505905511811019
0
LINE
8
BLACK
6
CONTINUOUS
10
7.8001557086614168
20
-9.1505905511811019
11
7.7903954724409443
21
-9.1505905511811019
0
LINE
8
BLACK
6
CONTINUOUS
10
7.7903954724409443
20
-9.1505905511811019
11
7.7807553937007876
21
-9.1521174015748024
0
LINE
8
BLACK
6
CONTINUOUS
10
7.7807553937007876
20
-9.1521174015748024
11
7.7714728346456692
21
-9.1551334645669282
0
LINE
8
BLACK
6
CONTINUOUS
10
7.7714728346456692
20
-9.1551334645669282
11
7.7627763779527559
21
-9.1595645275590556
0
LINE
8
BLACK
6
CONTINUOUS
10
7.7627763779527559
20
-9.1595645275590556
11
7.7548801968503938
21
-9.1653014566929123
0
LINE
8
BLACK
6
CONTINUOUS
10
7.7548801968503938
20
-9.1653014566929123
11
7.7479786220472437
21
-9.1722030314960623
0
LINE
8
BLACK
6
CONTINUOUS
10
7.7479786220472437
20
-9.1722030314960623
11
7.7422416929133853
21
-9.1800992125984244
0
LINE
8
BLACK
6
CONTINUOUS
10
7.7422416929133853
20
-9.1800992125984244
11
7.7378106299212597
21
-9.1887956692913377
0
LINE
8
BLACK
6
CONTINUOUS
10
7.7378106299212597
20
-9.1887956692913377
11
7.7347945669291338
21
-9.1980782283464571
0
LINE
8
BLACK
6
CONTINUOUS
10
7.7347945669291338
20
-9.1980782283464571
11
7.7332677165354333
21
-9.2077183070866138
0
LINE
8
BLACK
6
CONTINUOUS
10
7.7332677165354333
20
-9.2077183070866138
11
7.7332677165354333
21
-9.2174785433070863
0
LINE
8
BLACK
6
CONTINUOUS
10
13.4401318503937013
20
-9.1503897244094485
11
13.4496795669291327
21
-9.1534919685039373
0
LINE
8
BLACK
6
CONTINUOUS
10
13.4496795669291327
20
-9.1534919685039373
11
13.4586244094488183
21
-9.1580496062992118
0
LINE
8
BLACK
6
CONTINUOUS
10
13.4586244094488183
20
-9.1580496062992118
11
13.4667461811023621
21
-9.1639503937007873
0
LINE
8
BLACK
6
CONTINUOUS
10
13.4667461811023621
20
-9.1639503937007873
11
13.4738448818897627
21
-9.1710490944881879
0
LINE
8
BLACK
6
CONTINUOUS
10
13.4738448818897627
20
-9.1710490944881879
11
13.4797456692913382
21
-9.1791708661417317
0
LINE
8
BLACK
6
CONTINUOUS
10
13.4797456692913382
20
-9.1791708661417317
11
13.4843033070866145
21
-9.1881157086614174
0
LINE
8
BLACK
6
CONTINUOUS
10
13.4843033070866145
20
-9.1881157086614174
11
13.4874055511811015
21
-9.1976634251968505
0
LINE
8
BLACK
6
CONTINUOUS
10
13.4874055511811015
20
-9.1976634251968505
11
13.4889760236220475
21
-9.207578897637795
0
LINE
8
BLACK
6
CONTINUOUS
10
13.4889760236220475
20
-9.207578897637795
11
13.4889760236220475
21
-9.217617952755905
0
LINE
8
BLACK
6
CONTINUOUS
10
13.4889760236220475
20
-9.217617952755905
11
13.4874055511811015
21
-9.2275334251968495
0
LINE
8
BLACK
6
CONTINUOUS
10
13.4874055511811015
20
-9.2275334251968495
11
13.4843033070866145
21
-9.2370811417322827
0
LINE
8
BLACK
6
CONTINUOUS
10
13.4843033070866145
20
-9.2370811417322827
11
13.4797456692913382
21
-9.2460259842519683
0
LINE
8
BLACK
6
CONTINUOUS
10
13.4797456692913382
20
-9.2460259842519683
11
13.4738448818897627
21
-9.2541477559055121
0
LINE
8
BLACK
6
CONTINUOUS
10
13.4738448818897627
20
-9.2541477559055121
11
13.4667461811023621
21
-9.2612464566929127
0
LINE
8
BLACK
6
CONTINUOUS
10
13.4667461811023621
20
-9.2612464566929127
11
13.4586244094488183
21
-9.2671472440944882
0
LINE
8
BLACK
6
CONTINUOUS
10
13.4586244094488183
20
-9.2671472440944882
11
13.4496795669291327
21
-9.2717048818897627
0
LINE
8
BLACK
6
CONTINUOUS
10
13.4496795669291327
20
-9.2717048818897627
11
13.4401318503937013
21
-9.2748071259842515
0
LINE
8
BLACK
6
CONTINUOUS
10
13.4401318503937013
20
-9.2748071259842515
11
13.430216377952755
21
-9.2763775984251975
0
LINE
8
BLACK
6
CONTINUOUS
10
13.430216377952755
20
-9.2763775984251975
11
13.420177322834645
21
-9.2763775984251975
0
LINE
8
BLACK
6
CONTINUOUS
10
13.420177322834645
20
-9.2763775984251975
11
13.4102618503937006
21
-9.2748071259842515
0
LINE
8
BLACK
6
CONTINUOUS
10
13.4102618503937006
20
-9.2748071259842515
11
13.4007141338582674
21
-9.2717048818897627
0
LINE
8
BLACK
6
CONTINUOUS
10
13.4007141338582674
20
-9.2717048818897627
11
13.3917692913385817
21
-9.2671472440944882
0
LINE
8
BLACK
6
CONTINUOUS
10
13.3917692913385817
20
-9.2671472440944882
11
13.3836475196850397
21
-9.2612464566929127
0
LINE
8
BLACK
6
CONTINUOUS
10
13.3836475196850397
20
-9.2612464566929127
11
13.3765488188976374
21
-9.2541477559055121
0
LINE
8
BLACK
6
CONTINUOUS
10
13.3765488188976374
20
-9.2541477559055121
11
13.3706480314960618
21
-9.2460259842519683
0
LINE
8
BLACK
6
CONTINUOUS
10
13.3706480314960618
20
-9.2460259842519683
11
13.3660903937007873
21
-9.2370811417322827
0
LINE
8
BLACK
6
CONTINUOUS
10
13.3660903937007873
20
-9.2370811417322827
11
13.3629881496062985
21
-9.2275334251968495
0
LINE
8
BLACK
6
CONTINUOUS
10
13.3629881496062985
20
-9.2275334251968495
11
13.3614176771653543
21
-9.217617952755905
0
LINE
8
BLACK
6
CONTINUOUS
10
13.3614176771653543
20
-9.217617952755905
11
13.3614176771653543
21
-9.2077183070866138
0
LINE
8
BLACK
6
CONTINUOUS
10
13.3614176771653543
20
-9.2077183070866138
11
13.3614176771653543
21
-9.207578897637795
0
LINE
8
BLACK
6
CONTINUOUS
10
13.3614176771653543
20
-9.207578897637795
11
13.3629881496062985
21
-9.1976634251968505
0
LINE
8
BLACK
6
CONTINUOUS
10
13.3629881496062985
20
-9.1976634251968505
11
13.3660903937007873
21
-9.1881157086614174
0
LINE
8
BLACK
6
CONTINUOUS
10
13.3660903937007873
20
-9.1881157086614174
11
13.3706480314960618
21
-9.1791708661417317
0
LINE
8
BLACK
6
CONTINUOUS
10
13.3706480314960618
20
-9.1791708661417317
11
13.3765488188976374
21
-9.1710490944881879
0
LINE
8
BLACK
6
CONTINUOUS
10
13.3765488188976374
20
-9.1710490944881879
11
13.3836475196850397
21
-9.1639503937007873
0
LINE
8
BLACK
6
CONTINUOUS
10
13.3836475196850397
20
-9.1639503937007873
11
13.3917692913385817
21
-9.1580496062992118
0
LINE
8
BLACK
6
CONTINUOUS
10
13.3917692913385817
20
-9.1580496062992118
11
13.4007141338582674
21
-9.1534919685039373
0
LINE
8
BLACK
6
CONTINUOUS
10
13.4007141338582674
20
-9.1534919685039373
11
13.4102618503937006
21
-9.1503897244094485
0
LINE
8
BLACK
6
CONTINUOUS
10
13.4102618503937006
20
-9.1503897244094485
11
13.420177322834645
21
-9.1488192519685043
0
LINE
8
BLACK
6
CONTINUOUS
10
13.420177322834645
20
-9.1488192519685043
11
13.430216377952755
21
-9.1488192519685043
0
LINE
8
BLACK
6
CONTINUOUS
10
13.430216377952755
20
-9.1488192519685043
11
13.4401318503937013
21
-9.1503897244094485
0
LINE
8
BLACK
6
CONTINUOUS
10
13.3631889763779519
20
-9.2174785433070863
11
13.3647158267716524
21
-9.2271186220472448
0
LINE
8
BLACK
6
CONTINUOUS
10
13.3647158267716524
20
-9.2271186220472448
11
13.36773188976378
21
-9.2364011811023623
0
LINE
8
BLACK
6
CONTINUOUS
10
13.36773188976378
20
-9.2364011811023623
11
13.3721629527559056
21
-9.2450976377952756
0
LINE
8
BLACK
6
CONTINUOUS
10
13.3721629527559056
20
-9.2450976377952756
11
13.3778998818897641
21
-9.2529938188976377
0
LINE
8
BLACK
6
CONTINUOUS
10
13.3778998818897641
20
-9.2529938188976377
11
13.3848014566929123
21
-9.2598953937007877
0
LINE
8
BLACK
6
CONTINUOUS
10
13.3848014566929123
20
-9.2598953937007877
11
13.3926976377952744
21
-9.2656323228346462
0
LINE
8
BLACK
6
CONTINUOUS
10
13.3926976377952744
20
-9.2656323228346462
11
13.4013940944881895
21
-9.2700633858267718
0
LINE
8
BLACK
6
CONTINUOUS
10
13.4013940944881895
20
-9.2700633858267718
11
13.4106766535433071
21
-9.2730794488188977
0
LINE
8
BLACK
6
CONTINUOUS
10
13.4106766535433071
20
-9.2730794488188977
11
13.4203167322834638
21
-9.2746062992125982
0
LINE
8
BLACK
6
CONTINUOUS
10
13.4203167322834638
20
-9.2746062992125982
11
13.4300769685039363
21
-9.2746062992125982
0
LINE
8
BLACK
6
CONTINUOUS
10
13.4300769685039363
20
-9.2746062992125982
11
13.4397170472440948
21
-9.2730794488188977
0
LINE
8
BLACK
6
CONTINUOUS
10
13.4397170472440948
20
-9.2730794488188977
11
13.4489996062992123
21
-9.2700633858267718
0
LINE
8
BLACK
6
CONTINUOUS
10
13.4489996062992123
20
-9.2700633858267718
11
13.4576960629921256
21
-9.2656323228346462
0
LINE
8
BLACK
6
CONTINUOUS
10
13.4576960629921256
20
-9.2656323228346462
11
13.4655922440944877
21
-9.2598953937007877
0
LINE
8
BLACK
6
CONTINUOUS
10
13.4655922440944877
20
-9.2598953937007877
11
13.4724938188976378
21
-9.2529938188976377
0
LINE
8
BLACK
6
CONTINUOUS
10
13.4724938188976378
20
-9.2529938188976377
11
13.4782307480314962
21
-9.2450976377952756
0
LINE
8
BLACK
6
CONTINUOUS
10
13.4782307480314962
20
-9.2450976377952756
11
13.4826618110236218
21
-9.2364011811023623
0
LINE
8
BLACK
6
CONTINUOUS
10
13.4826618110236218
20
-9.2364011811023623
11
13.4856778740157477
21
-9.2271186220472448
0
LINE
8
BLACK
6
CONTINUOUS
10
13.4856778740157477
20
-9.2271186220472448
11
13.4872047244094482
21
-9.2174785433070863
0
LINE
8
BLACK
6
CONTINUOUS
10
13.4872047244094482
20
-9.2174785433070863
11
13.4872047244094482
21
-9.2077183070866138
0
LINE
8
BLACK
6
CONTINUOUS
10
13.4872047244094482
20
-9.2077183070866138
11
13.4856778740157477
21
-9.1980782283464571
0
LINE
8
BLACK
6
CONTINUOUS
10
13.4856778740157477
20
-9.1980782283464571
11
13.4826618110236218
21
-9.1887956692913377
0
LINE
8
BLACK
6
CONTINUOUS
10
13.4826618110236218
20
-9.1887956692913377
11
13.4782307480314962
21
-9.1800992125984244
0
LINE
8
BLACK
6
CONTINUOUS
10
13.4782307480314962
20
-9.1800992125984244
11
13.4724938188976378
21
-9.1722030314960623
0
LINE
8
BLACK
6
CONTINUOUS
10
13.4724938188976378
20
-9.1722030314960623
11
13.4655922440944877
21
-9.1653014566929123
0
LINE
8
BLACK
6
CONTINUOUS
10
13.4655922440944877
20
-9.1653014566929123
11
13.4576960629921256
21
-9.1595645275590556
0
LINE
8
BLACK
6
CONTINUOUS
10
13.4576960629921256
20
-9.1595645275590556
11
13.4489996062992123
21
-9.1551334645669282
0
LINE
8
BLACK
6
CONTINUOUS
10
13.4489996062992123
20
-9.1551334645669282
11
13.4397170472440948
21
-9.1521174015748024
0
LINE
8
BLACK
6
CONTINUOUS
10
13.4397170472440948
20
-9.1521174015748024
11
13.4300769685039363
21
-9.1505905511811019
0
LINE
8
BLACK
6
CONTINUOUS
10
13.4300769685039363
20
-9.1505905511811019
11
13.4203167322834638
21
-9.1505905511811019
0
LINE
8
BLACK
6
CONTINUOUS
10
13.4203167322834638
20
-9.1505905511811019
11
13.4106766535433071
21
-9.1521174015748024
0
LINE
8
BLACK
6
CONTINUOUS
10
13.4106766535433071
20
-9.1521174015748024
11
13.4013940944881895
21
-9.1551334645669282
0
LINE
8
BLACK
6
CONTINUOUS
10
13.4013940944881895
20
-9.1551334645669282
11
13.3926976377952744
21
-9.1595645275590556
0
LINE
8
BLACK
6
CONTINUOUS
10
13.3926976377952744
20
-9.1595645275590556
11
13.3848014566929123
21
-9.1653014566929123
0
LINE
8
BLACK
6
CONTINUOUS
10
13.3848014566929123
20
-9.1653014566929123
11
13.3778998818897641
21
-9.1722030314960623
0
LINE
8
BLACK
6
CONTINUOUS
10
13.3778998818897641
20
-9.1722030314960623
11
13.3721629527559056
21
-9.1800992125984244
0
LINE
8
BLACK
6
CONTINUOUS
10
13.3721629527559056
20
-9.1800992125984244
11
13.36773188976378
21
-9.1887956692913377
0
LINE
8
BLACK
6
CONTINUOUS
10
13.36773188976378
20
-9.1887956692913377
11
13.3647158267716524
21
-9.1980782283464571
0
LINE
8
BLACK
6
CONTINUOUS
10
13.3647158267716524
20
-9.1980782283464571
11
13.3631889763779519
21
-9.2077183070866138
0
LINE
8
BLACK
6
CONTINUOUS
10
13.3631889763779519
20
-9.2077183070866138
11
13.3631889763779519
21
-9.2174785433070863
0
LINE
8
BLACK
6
CONTINUOUS
10
6.6645118110236217
20
-6.1595776377952758
11
6.665577165354331
21
-6.1606429921259842
0
LINE
8
BLACK
6
CONTINUOUS
10
6.665577165354331
20
-6.1606429921259842
11
6.6657270078740156
21
-6.1613962992125986
0
LINE
8
BLACK
6
CONTINUOUS
10
6.6657270078740156
20
-6.1613962992125986
11
6.6657270078740156
21
-6.7519474803149606
0
LINE
8
BLACK
6
CONTINUOUS
10
6.6657270078740156
20
-6.7519474803149606
11
6.665577165354331
21
-6.752700787401575
0
LINE
8
BLACK
6
CONTINUOUS
10
6.665577165354331
20
-6.752700787401575
11
6.6645118110236217
21
-6.7537661417322834
0
LINE
8
BLACK
6
CONTINUOUS
10
6.6645118110236217
20
-6.7537661417322834
11
6.6637585039370073
21
-6.753915984251968
0
LINE
8
BLACK
6
CONTINUOUS
10
6.6637585039370073
20
-6.753915984251968
11
6.0732073228346453
21
-6.753915984251968
0
LINE
8
BLACK
6
CONTINUOUS
10
6.0732073228346453
20
-6.753915984251968
11
6.0724540157480318
21
-6.7537661417322834
0
LINE
8
BLACK
6
CONTINUOUS
10
6.0724540157480318
20
-6.7537661417322834
11
6.0713886614173225
21
-6.752700787401575
0
LINE
8
BLACK
6
CONTINUOUS
10
6.0713886614173225
20
-6.752700787401575
11
6.0712388188976378
21
-6.7519474803149606
0
LINE
8
BLACK
6
CONTINUOUS
10
6.0712388188976378
20
-6.7519474803149606
11
6.0712388188976378
21
-6.1613962992125986
0
LINE
8
BLACK
6
CONTINUOUS
10
6.0712388188976378
20
-6.1613962992125986
11
6.0713886614173225
21
-6.1606429921259842
0
LINE
8
BLACK
6
CONTINUOUS
10
6.0713886614173225
20
-6.1606429921259842
11
6.0724540157480318
21
-6.1595776377952758
0
LINE
8
BLACK
6
CONTINUOUS
10
6.0724540157480318
20
-6.1595776377952758
11
6.0732073228346453
21
-6.1594277952755903
0
LINE
8
BLACK
6
CONTINUOUS
10
6.0732073228346453
20
-6.1594277952755903
11
6.6637585039370073
21
-6.1594277952755903
0
LINE
8
BLACK
6
CONTINUOUS
10
6.6637585039370073
20
-6.1594277952755903
11
6.6645118110236217
21
-6.1595776377952758
0
LINE
8
BLACK
6
CONTINUOUS
10
6.0751758267716536
20
-6.163364803149606
11
6.0751758267716536
21
-6.7499789763779523
0
LINE
8
BLACK
6
CONTINUOUS
10
6.0751758267716536
20
-6.7499789763779523
11
6.6617899999999999
21
-6.7499789763779523
0
LINE
8
BLACK
6
CONTINUOUS
10
6.6617899999999999
20
-6.7499789763779523
11
6.6617899999999999
21
-6.163364803149606
0
LINE
8
BLACK
6
CONTINUOUS
10
6.6617899999999999
20
-6.163364803149606
11
6.0751758267716536
21
-6.163364803149606
0
LINE
8
BLACK
6
CONTINUOUS
10
8.127503937007873
20
-6.1595776377952758
11
8.1285692913385823
21
-6.1606429921259842
0
LINE
8
BLACK
6
CONTINUOUS
10
8.1285692913385823
20
-6.1606429921259842
11
8.1287191338582669
21
-6.1613962992125986
0
LINE
8
BLACK
6
CONTINUOUS
10
8.1287191338582669
20
-6.1613962992125986
11
8.1287191338582669
21
-6.7519474803149606
0
LINE
8
BLACK
6
CONTINUOUS
10
8.1287191338582669
20
-6.7519474803149606
11
8.1285692913385823
21
-6.752700787401575
0
LINE
8
BLACK
6
CONTINUOUS
10
8.1285692913385823
20
-6.752700787401575
11
8.127503937007873
21
-6.7537661417322834
0
LINE
8
BLACK
6
CONTINUOUS
10
8.127503937007873
20
-6.7537661417322834
11
8.1267506299212595
21
-6.753915984251968
0
LINE
8
BLACK
6
CONTINUOUS
10
8.1267506299212595
20
-6.753915984251968
11
7.5361994488188975
21
-6.753915984251968
0
LINE
8
BLACK
6
CONTINUOUS
10
7.5361994488188975
20
-6.753915984251968
11
7.5354461417322831
21
-6.7537661417322834
0
LINE
8
BLACK
6
CONTINUOUS
10
7.5354461417322831
20
-6.7537661417322834
11
7.5343807874015747
21
-6.752700787401575
0
LINE
8
BLACK
6
CONTINUOUS
10
7.5343807874015747
20
-6.752700787401575
11
7.5342309448818892
21
-6.7519474803149606
0
LINE
8
BLACK
6
CONTINUOUS
10
7.5342309448818892
20
-6.7519474803149606
11
7.5342309448818892
21
-6.1613962992125986
0
LINE
8
BLACK
6
CONTINUOUS
10
7.5342309448818892
20
-6.1613962992125986
11
7.5343807874015747
21
-6.1606429921259842
0
LINE
8
BLACK
6
CONTINUOUS
10
7.5343807874015747
20
-6.1606429921259842
11
7.5354461417322831
21
-6.1595776377952758
0
LINE
8
BLACK
6
CONTINUOUS
10
7.5354461417322831
20
-6.1595776377952758
11
7.5361994488188975
21
-6.1594277952755903
0
LINE
8
BLACK
6
CONTINUOUS
10
7.5361994488188975
20
-6.1594277952755903
11
8.1267506299212595
21
-6.1594277952755903
0
LINE
8
BLACK
6
CONTINUOUS
10
8.1267506299212595
20
-6.1594277952755903
11
8.127503937007873
21
-6.1595776377952758
0
LINE
8
BLACK
6
CONTINUOUS
10
7.5381679527559049
20
-6.163364803149606
11
7.5381679527559049
21
-6.7499789763779523
0
LINE
8
BLACK
6
CONTINUOUS
10
7.5381679527559049
20
-6.7499789763779523
11
8.1247821259842521
21
-6.7499789763779523
0
LINE
8
BLACK
6
CONTINUOUS
10
8.1247821259842521
20
-6.7499789763779523
11
8.1247821259842521
21
-6.163364803149606
0
LINE
8
BLACK
6
CONTINUOUS
10
8.1247821259842521
20
-6.163364803149606
11
7.5381679527559049
21
-6.163364803149606
0
LINE
8
BLACK
6
CONTINUOUS
10
9.11175590551181
20
-5.4509162204724406
11
9.1128212598425193
21
-5.451981574803149
0
LINE
8
BLACK
6
CONTINUOUS
10
9.1128212598425193
20
-5.451981574803149
11
9.112971102362204
21
-5.4527348818897634
0
LINE
8
BLACK
6
CONTINUOUS
10
9.112971102362204
20
-5.4527348818897634
11
9.112971102362204
21
-6.0432860629921255
0
LINE
8
BLACK
6
CONTINUOUS
10
9.112971102362204
20
-6.0432860629921255
11
9.1128212598425193
21
-6.0440393700787398
0
LINE
8
BLACK
6
CONTINUOUS
10
9.1128212598425193
20
-6.0440393700787398
11
9.11175590551181
21
-6.0451047244094482
0
LINE
8
BLACK
6
CONTINUOUS
10
9.11175590551181
20
-6.0451047244094482
11
9.1110025984251966
21
-6.0452545669291338
0
LINE
8
BLACK
6
CONTINUOUS
10
9.1110025984251966
20
-6.0452545669291338
11
8.5204514173228336
21
-6.0452545669291338
0
LINE
8
BLACK
6
CONTINUOUS
10
8.5204514173228336
20
-6.0452545669291338
11
8.5196981102362201
21
-6.0451047244094482
0
LINE
8
BLACK
6
CONTINUOUS
10
8.5196981102362201
20
-6.0451047244094482
11
8.5186327559055108
21
-6.0440393700787398
0
LINE
8
BLACK
6
CONTINUOUS
10
8.5186327559055108
20
-6.0440393700787398
11
8.5184829133858262
21
-6.0432860629921255
0
LINE
8
BLACK
6
CONTINUOUS
10
8.5184829133858262
20
-6.0432860629921255
11
8.5184829133858262
21
-5.4527348818897634
0
LINE
8
BLACK
6
CONTINUOUS
10
8.5184829133858262
20
-5.4527348818897634
11
8.5186327559055108
21
-5.451981574803149
0
LINE
8
BLACK
6
CONTINUOUS
10
8.5186327559055108
20
-5.451981574803149
11
8.5196981102362201
21
-5.4509162204724406
0
LINE
8
BLACK
6
CONTINUOUS
10
8.5196981102362201
20
-5.4509162204724406
11
8.5204514173228336
21
-5.450766377952756
0
LINE
8
BLACK
6
CONTINUOUS
10
8.5204514173228336
20
-5.450766377952756
11
9.1110025984251966
21
-5.450766377952756
0
LINE
8
BLACK
6
CONTINUOUS
10
9.1110025984251966
20
-5.450766377952756
11
9.11175590551181
21
-5.4509162204724406
0
LINE
8
BLACK
6
CONTINUOUS
10
8.5224199212598428
20
-5.4547033858267717
11
8.5224199212598428
21
-6.041317559055118
0
LINE
8
BLACK
6
CONTINUOUS
10
8.5224199212598428
20
-6.041317559055118
11
9.1090340944881891
21
-6.041317559055118
0
LINE
8
BLACK
6
CONTINUOUS
10
9.1090340944881891
20
-6.041317559055118
11
9.1090340944881891
21
-5.4547033858267717
0
LINE
8
BLACK
6
CONTINUOUS
10
9.1090340944881891
20
-5.4547033858267717
11
8.5224199212598428
21
-5.4547033858267717
0
LINE
8
BLACK
6
CONTINUOUS
10
2.2198891732283466
20
-5.2517948818897633
11
2.2295837795275588
21
-5.2549448425196852
0
LINE
8
BLACK
6
CONTINUOUS
10
2.2295837795275588
20
-5.2549448425196852
11
2.2386662598425198
21
-5.2595725984251969
0
LINE
8
BLACK
6
CONTINUOUS
10
2.2386662598425198
20
-5.2595725984251969
11
2.2469129527559053
21
-5.2655641732283467
0
LINE
8
BLACK
6
CONTINUOUS
10
2.2469129527559053
20
-5.2655641732283467
11
2.254120866141732
21
-5.2727720866141734
0
LINE
8
BLACK
6
CONTINUOUS
10
2.254120866141732
20
-5.2727720866141734
11
2.2601124409448818
21
-5.2810187795275585
0
LINE
8
BLACK
6
CONTINUOUS
10
2.2601124409448818
20
-5.2810187795275585
11
2.2647401968503935
21
-5.2901012598425199
0
LINE
8
BLACK
6
CONTINUOUS
10
2.2647401968503935
20
-5.2901012598425199
11
2.267890157480315
21
-5.2997958661417321
0
LINE
8
BLACK
6
CONTINUOUS
10
2.267890157480315
20
-5.2997958661417321
11
2.2694848031496062
21
-5.3098638582677165
0
LINE
8
BLACK
6
CONTINUOUS
10
2.2694848031496062
20
-5.3098638582677165
11
2.2694848031496062
21
-5.320057401574803
0
LINE
8
BLACK
6
CONTINUOUS
10
2.2694848031496062
20
-5.320057401574803
11
2.267890157480315
21
-5.3301253937007873
0
LINE
8
BLACK
6
CONTINUOUS
10
2.267890157480315
20
-5.3301253937007873
11
2.2647401968503935
21
-5.3398199999999996
0
LINE
8
BLACK
6
CONTINUOUS
10
2.2647401968503935
20
-5.3398199999999996
11
2.2601124409448818
21
-5.3489024803149601
0
LINE
8
BLACK
6
CONTINUOUS
10
2.2601124409448818
20
-5.3489024803149601
11
2.254120866141732
21
-5.3571491732283461
0
LINE
8
BLACK
6
CONTINUOUS
10
2.254120866141732
20
-5.3571491732283461
11
2.2469129527559053
21
-5.3643570866141728
0
LINE
8
BLACK
6
CONTINUOUS
10
2.2469129527559053
20
-5.3643570866141728
11
2.2386662598425198
21
-5.3703486614173226
0
LINE
8
BLACK
6
CONTINUOUS
10
2.2386662598425198
20
-5.3703486614173226
11
2.2295837795275588
21
-5.3749764173228343
0
LINE
8
BLACK
6
CONTINUOUS
10
2.2295837795275588
20
-5.3749764173228343
11
2.2198891732283466
21
-5.3781263779527562
0
LINE
8
BLACK
6
CONTINUOUS
10
2.2198891732283466
20
-5.3781263779527562
11
2.2098211811023623
21
-5.3797210236220474
0
LINE
8
BLACK
6
CONTINUOUS
10
2.2098211811023623
20
-5.3797210236220474
11
2.1996276377952757
21
-5.3797210236220474
0
LINE
8
BLACK
6
CONTINUOUS
10
2.1996276377952757
20
-5.3797210236220474
11
2.1895596456692914
21
-5.3781263779527562
0
LINE
8
BLACK
6
CONTINUOUS
10
2.1895596456692914
20
-5.3781263779527562
11
2.1798650393700787
21
-5.3749764173228343
0
LINE
8
BLACK
6
CONTINUOUS
10
2.1798650393700787
20
-5.3749764173228343
11
2.1707825590551182
21
-5.3703486614173226
0
LINE
8
BLACK
6
CONTINUOUS
10
2.1707825590551182
20
-5.3703486614173226
11
2.1625358661417322
21
-5.3643570866141728
0
LINE
8
BLACK
6
CONTINUOUS
10
2.1625358661417322
20
-5.3643570866141728
11
2.1553279527559055
21
-5.3571491732283461
0
LINE
8
BLACK
6
CONTINUOUS
10
2.1553279527559055
20
-5.3571491732283461
11
2.1493363779527557
21
-5.3489024803149601
0
LINE
8
BLACK
6
CONTINUOUS
10
2.1493363779527557
20
-5.3489024803149601
11
2.144708622047244
21
-5.3398199999999996
0
LINE
8
BLACK
6
CONTINUOUS
10
2.144708622047244
20
-5.3398199999999996
11
2.141558661417323
21
-5.3301253937007873
0
LINE
8
BLACK
6
CONTINUOUS
10
2.141558661417323
20
-5.3301253937007873
11
2.1399640157480313
21
-5.320057401574803
0
LINE
8
BLACK
6
CONTINUOUS
10
2.1399640157480313
20
-5.320057401574803
11
2.1399640157480313
21
-5.3101579527559055
0
LINE
8
BLACK
6
CONTINUOUS
10
2.1399640157480313
20
-5.3101579527559055
11
2.1399640157480313
21
-5.3098638582677165
0
LINE
8
BLACK
6
CONTINUOUS
10
2.1399640157480313
20
-5.3098638582677165
11
2.141558661417323
21
-5.2997958661417321
0
LINE
8
BLACK
6
CONTINUOUS
10
2.141558661417323
20
-5.2997958661417321
11
2.144708622047244
21
-5.2901012598425199
0
LINE
8
BLACK
6
CONTINUOUS
10
2.144708622047244
20
-5.2901012598425199
11
2.1493363779527557
21
-5.2810187795275585
0
LINE
8
BLACK
6
CONTINUOUS
10
2.1493363779527557
20
-5.2810187795275585
11
2.1553279527559055
21
-5.2727720866141734
0
LINE
8
BLACK
6
CONTINUOUS
10
2.1553279527559055
20
-5.2727720866141734
11
2.1625358661417322
21
-5.2655641732283467
0
LINE
8
BLACK
6
CONTINUOUS
10
2.1625358661417322
20
-5.2655641732283467
11
2.1707825590551182
21
-5.2595725984251969
0
LINE
8
BLACK
6
CONTINUOUS
10
2.1707825590551182
20
-5.2595725984251969
11
2.1798650393700787
21
-5.2549448425196852
0
LINE
8
BLACK
6
CONTINUOUS
10
2.1798650393700787
20
-5.2549448425196852
11
2.1895596456692914
21
-5.2517948818897633
0
LINE
8
BLACK
6
CONTINUOUS
10
2.1895596456692914
20
-5.2517948818897633
11
2.1996276377952757
21
-5.250200236220472
0
LINE
8
BLACK
6
CONTINUOUS
10
2.1996276377952757
20
-5.250200236220472
11
2.2098211811023623
21
-5.250200236220472
0
LINE
8
BLACK
6
CONTINUOUS
10
2.2098211811023623
20
-5.250200236220472
11
2.2198891732283466
21
-5.2517948818897633
0
LINE
8
BLACK
6
CONTINUOUS
10
2.1437007874015745
20
-5.3197633070866139
11
2.1452033858267714
21
-5.3292503543307088
0
LINE
8
BLACK
6
CONTINUOUS
10
2.1452033858267714
20
-5.3292503543307088
11
2.1481716141732283
21
-5.338385590551181
0
LINE
8
BLACK
6
CONTINUOUS
10
2.1481716141732283
20
-5.338385590551181
11
2.1525323228346456
21
-5.3469439763779523
0
LINE
8
BLACK
6
CONTINUOUS
10
2.1525323228346456
20
-5.3469439763779523
11
2.158178188976378
21
-5.3547148425196847
0
LINE
8
BLACK
6
CONTINUOUS
10
2.158178188976378
20
-5.3547148425196847
11
2.1649701968503936
21
-5.3615068503937007
0
LINE
8
BLACK
6
CONTINUOUS
10
2.1649701968503936
20
-5.3615068503937007
11
2.172741062992126
21
-5.3671527165354327
0
LINE
8
BLACK
6
CONTINUOUS
10
2.172741062992126
20
-5.3671527165354327
11
2.1812994488188977
21
-5.3715134251968504
0
LINE
8
BLACK
6
CONTINUOUS
10
2.1812994488188977
20
-5.3715134251968504
11
2.1904346850393699
21
-5.3744816535433069
0
LINE
8
BLACK
6
CONTINUOUS
10
2.1904346850393699
20
-5.3744816535433069
11
2.1999217322834643
21
-5.3759842519685037
0
LINE
8
BLACK
6
CONTINUOUS
10
2.1999217322834643
20
-5.3759842519685037
11
2.2095270866141732
21
-5.3759842519685037
0
LINE
8
BLACK
6
CONTINUOUS
10
2.2095270866141732
20
-5.3759842519685037
11
2.2190141338582676
21
-5.3744816535433069
0
LINE
8
BLACK
6
CONTINUOUS
10
2.2190141338582676
20
-5.3744816535433069
11
2.2281493700787403
21
-5.3715134251968504
0
LINE
8
BLACK
6
CONTINUOUS
10
2.2281493700787403
20
-5.3715134251968504
11
2.236707755905512
21
-5.3671527165354327
0
LINE
8
BLACK
6
CONTINUOUS
10
2.236707755905512
20
-5.3671527165354327
11
2.2444786220472439
21
-5.3615068503937007
0
LINE
8
BLACK
6
CONTINUOUS
10
2.2444786220472439
20
-5.3615068503937007
11
2.2512706299212599
21
-5.3547148425196847
0
LINE
8
BLACK
6
CONTINUOUS
10
2.2512706299212599
20
-5.3547148425196847
11
2.2569164960629919
21
-5.3469439763779523
0
LINE
8
BLACK
6
CONTINUOUS
10
2.2569164960629919
20
-5.3469439763779523
11
2.2612772047244092
21
-5.338385590551181
0
LINE
8
BLACK
6
CONTINUOUS
10
2.2612772047244092
20
-5.338385590551181
11
2.2642454330708661
21
-5.3292503543307088
0
LINE
8
BLACK
6
CONTINUOUS
10
2.2642454330708661
20
-5.3292503543307088
11
2.265748031496063
21
-5.3197633070866139
0
LINE
8
BLACK
6
CONTINUOUS
10
2.265748031496063
20
-5.3197633070866139
11
2.265748031496063
21
-5.3101579527559055
0
LINE
8
BLACK
6
CONTINUOUS
10
2.265748031496063
20
-5.3101579527559055
11
2.2642454330708661
21
-5.3006709055118106
0
LINE
8
BLACK
6
CONTINUOUS
10
2.2642454330708661
20
-5.3006709055118106
11
2.2612772047244092
21
-5.2915356692913385
0
LINE
8
BLACK
6
CONTINUOUS
10
2.2612772047244092
20
-5.2915356692913385
11
2.2569164960629919
21
-5.2829772834645672
0
LINE
8
BLACK
6
CONTINUOUS
10
2.2569164960629919
20
-5.2829772834645672
11
2.2512706299212599
21
-5.2752064173228348
0
LINE
8
BLACK
6
CONTINUOUS
10
2.2512706299212599
20
-5.2752064173228348
11
2.2444786220472439
21
-5.2684144094488188
0
LINE
8
BLACK
6
CONTINUOUS
10
2.2444786220472439
20
-5.2684144094488188
11
2.236707755905512
21
-5.2627685433070868
0
LINE
8
BLACK
6
CONTINUOUS
10
2.236707755905512
20
-5.2627685433070868
11
2.2281493700787403
21
-5.2584078346456691
0
LINE
8
BLACK
6
CONTINUOUS
10
2.2281493700787403
20
-5.2584078346456691
11
2.2190141338582676
21
-5.2554396062992126
0
LINE
8
BLACK
6
CONTINUOUS
10
2.2190141338582676
20
-5.2554396062992126
11
2.2095270866141732
21
-5.2539370078740157
0
LINE
8
BLACK
6
CONTINUOUS
10
2.2095270866141732
20
-5.2539370078740157
11
2.1999217322834643
21
-5.2539370078740157
0
LINE
8
BLACK
6
CONTINUOUS
10
2.1999217322834643
20
-5.2539370078740157
11
2.1904346850393699
21
-5.2554396062992126
0
LINE
8
BLACK
6
CONTINUOUS
10
2.1904346850393699
20
-5.2554396062992126
11
2.1812994488188977
21
-5.2584078346456691
0
LINE
8
BLACK
6
CONTINUOUS
10
2.1812994488188977
20
-5.2584078346456691
11
2.172741062992126
21
-5.2627685433070868
0
LINE
8
BLACK
6
CONTINUOUS
10
2.172741062992126
20
-5.2627685433070868
11
2.1649701968503936
21
-5.2684144094488188
0
LINE
8
BLACK
6
CONTINUOUS
10
2.1649701968503936
20
-5.2684144094488188
11
2.158178188976378
21
-5.2752064173228348
0
LINE
8
BLACK
6
CONTINUOUS
10
2.158178188976378
20
-5.2752064173228348
11
2.1525323228346456
21
-5.2829772834645672
0
LINE
8
BLACK
6
CONTINUOUS
10
2.1525323228346456
20
-5.2829772834645672
11
2.1481716141732283
21
-5.2915356692913385
0
LINE
8
BLACK
6
CONTINUOUS
10
2.1481716141732283
20
-5.2915356692913385
11
2.1452033858267714
21
-5.3006709055118106
0
LINE
8
BLACK
6
CONTINUOUS
10
2.1452033858267714
20
-5.3006709055118106
11
2.1437007874015745
21
-5.3101579527559055
0
LINE
8
BLACK
6
CONTINUOUS
10
2.1437007874015745
20
-5.3101579527559055
11
2.1437007874015745
21
-5.3197633070866139
0
LINE
8
BLACK
6
CONTINUOUS
10
13.4401318503937013
20
-5.2527519291338578
11
13.4496795669291327
21
-5.2558541732283466
0
LINE
8
BLACK
6
CONTINUOUS
10
13.4496795669291327
20
-5.2558541732283466
11
13.4586244094488183
21
-5.260411811023622
0
LINE
8
BLACK
6
CONTINUOUS
10
13.4586244094488183
20
-5.260411811023622
11
13.4667461811023621
21
-5.2663125984251966
0
LINE
8
BLACK
6
CONTINUOUS
10
13.4667461811023621
20
-5.2663125984251966
11
13.4738448818897627
21
-5.2734112992125981
0
LINE
8
BLACK
6
CONTINUOUS
10
13.4738448818897627
20
-5.2734112992125981
11
13.4797456692913382
21
-5.2815330708661419
0
LINE
8
BLACK
6
CONTINUOUS
10
13.4797456692913382
20
-5.2815330708661419
11
13.4843033070866145
21
-5.2904779133858266
0
LINE
8
BLACK
6
CONTINUOUS
10
13.4843033070866145
20
-5.2904779133858266
11
13.4874055511811015
21
-5.3000256299212598
0
LINE
8
BLACK
6
CONTINUOUS
10
13.4874055511811015
20
-5.3000256299212598
11
13.4889760236220475
21
-5.3099411023622043
0
LINE
8
BLACK
6
CONTINUOUS
10
13.4889760236220475
20
-5.3099411023622043
11
13.4889760236220475
21
-5.3199801574803152
0
LINE
8
BLACK
6
CONTINUOUS
10
13.4889760236220475
20
-5.3199801574803152
11
13.4874055511811015
21
-5.3298956299212596
0
LINE
8
BLACK
6
CONTINUOUS
10
13.4874055511811015
20
-5.3298956299212596
11
13.4843033070866145
21
-5.3394433464566928
0
LINE
8
BLACK
6
CONTINUOUS
10
13.4843033070866145
20
-5.3394433464566928
11
13.4797456692913382
21
-5.3483881889763776
0
LINE
8
BLACK
6
CONTINUOUS
10
13.4797456692913382
20
-5.3483881889763776
11
13.4738448818897627
21
-5.3565099606299214
0
LINE
8
BLACK
6
CONTINUOUS
10
13.4738448818897627
20
-5.3565099606299214
11
13.4667461811023621
21
-5.3636086614173228
0
LINE
8
BLACK
6
CONTINUOUS
10
13.4667461811023621
20
-5.3636086614173228
11
13.4586244094488183
21
-5.3695094488188975
0
LINE
8
BLACK
6
CONTINUOUS
10
13.4586244094488183
20
-5.3695094488188975
11
13.4496795669291327
21
-5.3740670866141729
0
LINE
8
BLACK
6
CONTINUOUS
10
13.4496795669291327
20
-5.3740670866141729
11
13.4401318503937013
21
-5.3771693307086617
0
LINE
8
BLACK
6
CONTINUOUS
10
13.4401318503937013
20
-5.3771693307086617
11
13.430216377952755
21
-5.3787398031496059
0
LINE
8
BLACK
6
CONTINUOUS
10
13.430216377952755
20
-5.3787398031496059
11
13.420177322834645
21
-5.3787398031496059
0
LINE
8
BLACK
6
CONTINUOUS
10
13.420177322834645
20
-5.3787398031496059
11
13.4102618503937006
21
-5.3771693307086617
0
LINE
8
BLACK
6
CONTINUOUS
10
13.4102618503937006
20
-5.3771693307086617
11
13.4007141338582674
21
-5.3740670866141729
0
LINE
8
BLACK
6
CONTINUOUS
10
13.4007141338582674
20
-5.3740670866141729
11
13.3917692913385817
21
-5.3695094488188975
0
LINE
8
BLACK
6
CONTINUOUS
10
13.3917692913385817
20
-5.3695094488188975
11
13.3836475196850397
21
-5.3636086614173228
0
LINE
8
BLACK
6
CONTINUOUS
10
13.3836475196850397
20
-5.3636086614173228
11
13.3765488188976374
21
-5.3565099606299214
0
LINE
8
BLACK
6
CONTINUOUS
10
13.3765488188976374
20
-5.3565099606299214
11
13.3706480314960618
21
-5.3483881889763776
0
LINE
8
BLACK
6
CONTINUOUS
10
13.3706480314960618
20
-5.3483881889763776
11
13.3660903937007873
21
-5.3394433464566928
0
LINE
8
BLACK
6
CONTINUOUS
10
13.3660903937007873
20
-5.3394433464566928
11
13.3629881496062985
21
-5.3298956299212596
0
LINE
8
BLACK
6
CONTINUOUS
10
13.3629881496062985
20
-5.3298956299212596
11
13.3614176771653543
21
-5.3199801574803152
0
LINE
8
BLACK
6
CONTINUOUS
10
13.3614176771653543
20
-5.3199801574803152
11
13.3614176771653543
21
-5.3100805118110239
0
LINE
8
BLACK
6
CONTINUOUS
10
13.3614176771653543
20
-5.3100805118110239
11
13.3614176771653543
21
-5.3099411023622043
0
LINE
8
BLACK
6
CONTINUOUS
10
13.3614176771653543
20
-5.3099411023622043
11
13.3629881496062985
21
-5.3000256299212598
0
LINE
8
BLACK
6
CONTINUOUS
10
13.3629881496062985
20
-5.3000256299212598
11
13.3660903937007873
21
-5.2904779133858266
0
LINE
8
BLACK
6
CONTINUOUS
10
13.3660903937007873
20
-5.2904779133858266
11
13.3706480314960618
21
-5.2815330708661419
0
LINE
8
BLACK
6
CONTINUOUS
10
13.3706480314960618
20
-5.2815330708661419
11
13.3765488188976374
21
-5.2734112992125981
0
LINE
8
BLACK
6
CONTINUOUS
10
13.3765488188976374
20
-5.2734112992125981
11
13.3836475196850397
21
-5.2663125984251966
0
LINE
8
BLACK
6
CONTINUOUS
10
13.3836475196850397
20
-5.2663125984251966
11
13.3917692913385817
21
-5.260411811023622
0
LINE
8
BLACK
6
CONTINUOUS
10
13.3917692913385817
20
-5.260411811023622
11
13.4007141338582674
21
-5.2558541732283466
0
LINE
8
BLACK
6
CONTINUOUS
10
13.4007141338582674
20
-5.2558541732283466
11
13.4102618503937006
21
-5.2527519291338578
0
LINE
8
BLACK
6
CONTINUOUS
10
13.4102618503937006
20
-5.2527519291338578
11
13.420177322834645
21
-5.2511814566929136
0
LINE
8
BLACK
6
CONTINUOUS
10
13.420177322834645
20
-5.2511814566929136
11
13.430216377952755
21
-5.2511814566929136
0
LINE
8
BLACK
6
CONTINUOUS
10
13.430216377952755
20
-5.2511814566929136
11
13.4401318503937013
21
-5.2527519291338578
0
LINE
8
BLACK
6
CONTINUOUS
10
13.3631889763779519
20
-5.3198407480314955
11
13.3647158267716524
21
-5.3294808267716531
0
LINE
8
BLACK
6
CONTINUOUS
10
13.3647158267716524
20
-5.3294808267716531
11
13.36773188976378
21
-5.3387633858267716
0
LINE
8
BLACK
6
CONTINUOUS
10
13.36773188976378
20
-5.3387633858267716
11
13.3721629527559056
21
-5.3474598425196849
0
LINE
8
BLACK
6
CONTINUOUS
10
13.3721629527559056
20
-5.3474598425196849
11
13.3778998818897641
21
-5.355356023622047
0
LINE
8
BLACK
6
CONTINUOUS
10
13.3778998818897641
20
-5.355356023622047
11
13.3848014566929123
21
-5.362257598425197
0
LINE
8
BLACK
6
CONTINUOUS
10
13.3848014566929123
20
-5.362257598425197
11
13.3926976377952744
21
-5.3679945275590546
0
LINE
8
BLACK
6
CONTINUOUS
10
13.3926976377952744
20
-5.3679945275590546
11
13.4013940944881895
21
-5.3724255905511811
0
LINE
8
BLACK
6
CONTINUOUS
10
13.4013940944881895
20
-5.3724255905511811
11
13.4106766535433071
21
-5.3754416535433069
0
LINE
8
BLACK
6
CONTINUOUS
10
13.4106766535433071
20
-5.3754416535433069
11
13.4203167322834638
21
-5.3769685039370074
0
LINE
8
BLACK
6
CONTINUOUS
10
13.4203167322834638
20
-5.3769685039370074
11
13.4300769685039363
21
-5.3769685039370074
0
LINE
8
BLACK
6
CONTINUOUS
10
13.4300769685039363
20
-5.3769685039370074
11
13.4397170472440948
21
-5.3754416535433069
0
LINE
8
BLACK
6
CONTINUOUS
10
13.4397170472440948
20
-5.3754416535433069
11
13.4489996062992123
21
-5.3724255905511811
0
LINE
8
BLACK
6
CONTINUOUS
10
13.4489996062992123
20
-5.3724255905511811
11
13.4576960629921256
21
-5.3679945275590546
0
LINE
8
BLACK
6
CONTINUOUS
10
13.4576960629921256
20
-5.3679945275590546
11
13.4655922440944877
21
-5.362257598425197
0
LINE
8
BLACK
6
CONTINUOUS
10
13.4655922440944877
20
-5.362257598425197
11
13.4724938188976378
21
-5.355356023622047
0
LINE
8
BLACK
6
CONTINUOUS
10
13.4724938188976378
20
-5.355356023622047
11
13.4782307480314962
21
-5.3474598425196849
0
LINE
8
BLACK
6
CONTINUOUS
10
13.4782307480314962
20
-5.3474598425196849
11
13.4826618110236218
21
-5.3387633858267716
0
LINE
8
BLACK
6
CONTINUOUS
10
13.4826618110236218
20
-5.3387633858267716
11
13.4856778740157477
21
-5.3294808267716531
0
LINE
8
BLACK
6
CONTINUOUS
10
13.4856778740157477
20
-5.3294808267716531
11
13.4872047244094482
21
-5.3198407480314955
0
LINE
8
BLACK
6
CONTINUOUS
10
13.4872047244094482
20
-5.3198407480314955
11
13.4872047244094482
21
-5.3100805118110239
0
LINE
8
BLACK
6
CONTINUOUS
10
13.4872047244094482
20
-5.3100805118110239
11
13.4856778740157477
21
-5.3004404330708663
0
LINE
8
BLACK
6
CONTINUOUS
10
13.4856778740157477
20
-5.3004404330708663
11
13.4826618110236218
21
-5.2911578740157479
0
LINE
8
BLACK
6
CONTINUOUS
10
13.4826618110236218
20
-5.2911578740157479
11
13.4782307480314962
21
-5.2824614173228346
0
LINE
8
BLACK
6
CONTINUOUS
10
13.4782307480314962
20
-5.2824614173228346
11
13.4724938188976378
21
-5.2745652362204725
0
LINE
8
BLACK
6
CONTINUOUS
10
13.4724938188976378
20
-5.2745652362204725
11
13.4655922440944877
21
-5.2676636614173225
0
LINE
8
BLACK
6
CONTINUOUS
10
13.4655922440944877
20
-5.2676636614173225
11
13.4576960629921256
21
-5.2619267322834649
0
LINE
8
BLACK
6
CONTINUOUS
10
13.4576960629921256
20
-5.2619267322834649
11
13.4489996062992123
21
-5.2574956692913384
0
LINE
8
BLACK
6
CONTINUOUS
10
13.4489996062992123
20
-5.2574956692913384
11
13.4397170472440948
21
-5.2544796062992125
0
LINE
8
BLACK
6
CONTINUOUS
10
13.4397170472440948
20
-5.2544796062992125
11
13.4300769685039363
21
-5.252952755905512
0
LINE
8
BLACK
6
CONTINUOUS
10
13.4300769685039363
20
-5.252952755905512
11
13.4203167322834638
21
-5.252952755905512
0
LINE
8
BLACK
6
CONTINUOUS
10
13.4203167322834638
20
-5.252952755905512
11
13.4106766535433071
21
-5.2544796062992125
0
LINE
8
BLACK
6
CONTINUOUS
10
13.4106766535433071
20
-5.2544796062992125
11
13.4013940944881895
21
-5.2574956692913384
0
LINE
8
BLACK
6
CONTINUOUS
10
13.4013940944881895
20
-5.2574956692913384
11
13.3926976377952744
21
-5.2619267322834649
0
LINE
8
BLACK
6
CONTINUOUS
10
13.3926976377952744
20
-5.2619267322834649
11
13.3848014566929123
21
-5.2676636614173225
0
LINE
8
BLACK
6
CONTINUOUS
10
13.3848014566929123
20
-5.2676636614173225
11
13.3778998818897641
21
-5.2745652362204725
0
LINE
8
BLACK
6
CONTINUOUS
10
13.3778998818897641
20
-5.2745652362204725
11
13.3721629527559056
21
-5.2824614173228346
0
LINE
8
BLACK
6
CONTINUOUS
10
13.3721629527559056
20
-5.2824614173228346
11
13.36773188976378
21
-5.2911578740157479
0
LINE
8
BLACK
6
CONTINUOUS
10
13.36773188976378
20
-5.2911578740157479
11
13.3647158267716524
21
-5.3004404330708663
0
LINE
8
BLACK
6
CONTINUOUS
10
13.3647158267716524
20
-5.3004404330708663
11
13.3631889763779519
21
-5.3100805118110239
0
LINE
8
BLACK
6
CONTINUOUS
10
13.3631889763779519
20
-5.3100805118110239
11
13.3631889763779519
21
-5.3198407480314955
0
LINE
8
BLACK
6
CONTINUOUS
10
8.4818346456692915
20
-4.506034330708661
11
8.482899999999999
21
-4.5070996850393703
0
LINE
8
BLACK
6
CONTINUOUS
10
8.482899999999999
20
-4.5070996850393703
11
8.4830498425196854
21
-4.5078529921259838
0
LINE
8
BLACK
6
CONTINUOUS
10
8.4830498425196854
20
-4.5078529921259838
11
8.4830498425196854
21
-5.0984041732283467
0
LINE
8
BLACK
6
CONTINUOUS
10
8.4830498425196854
20
-5.0984041732283467
11
8.482899999999999
21
-5.0991574803149602
0
LINE
8
BLACK
6
CONTINUOUS
10
8.482899999999999
20
-5.0991574803149602
11
8.4818346456692915
21
-5.1002228346456695
0
LINE
8
BLACK
6
CONTINUOUS
10
8.4818346456692915
20
-5.1002228346456695
11
8.4810813385826762
21
-5.1003726771653541
0
LINE
8
BLACK
6
CONTINUOUS
10
8.4810813385826762
20
-5.1003726771653541
11
7.8905301574803151
21
-5.1003726771653541
0
LINE
8
BLACK
6
CONTINUOUS
10
7.8905301574803151
20
-5.1003726771653541
11
7.8897768503937007
21
-5.1002228346456695
0
LINE
8
BLACK
6
CONTINUOUS
10
7.8897768503937007
20
-5.1002228346456695
11
7.8887114960629923
21
-5.0991574803149602
0
LINE
8
BLACK
6
CONTINUOUS
10
7.8887114960629923
20
-5.0991574803149602
11
7.8885616535433067
21
-5.0984041732283467
0
LINE
8
BLACK
6
CONTINUOUS
10
7.8885616535433067
20
-5.0984041732283467
11
7.8885616535433067
21
-4.5078529921259838
0
LINE
8
BLACK
6
CONTINUOUS
10
7.8885616535433067
20
-4.5078529921259838
11
7.8887114960629923
21
-4.5070996850393703
0
LINE
8
BLACK
6
CONTINUOUS
10
7.8887114960629923
20
-4.5070996850393703
11
7.8897768503937007
21
-4.506034330708661
0
LINE
8
BLACK
6
CONTINUOUS
10
7.8897768503937007
20
-4.506034330708661
11
7.8905301574803151
21
-4.5058844881889764
0
LINE
8
BLACK
6
CONTINUOUS
10
7.8905301574803151
20
-4.5058844881889764
11
8.4810813385826762
21
-4.5058844881889764
0
LINE
8
BLACK
6
CONTINUOUS
10
8.4810813385826762
20
-4.5058844881889764
11
8.4818346456692915
21
-4.506034330708661
0
LINE
8
BLACK
6
CONTINUOUS
10
7.8924986614173225
20
-4.5098214960629921
11
7.8924986614173225
21
-5.0964356692913384
0
LINE
8
BLACK
6
CONTINUOUS
10
7.8924986614173225
20
-5.0964356692913384
11
8.4791128346456688
21
-5.0964356692913384
0
LINE
8
BLACK
6
CONTINUOUS
10
8.4791128346456688
20
-5.0964356692913384
11
8.4791128346456688
21
-4.5098214960629921
0
LINE
8
BLACK
6
CONTINUOUS
10
8.4791128346456688
20
-4.5098214960629921
11
7.8924986614173225
21
-4.5098214960629921
0
LINE
8
BLACK
6
CONTINUOUS
10
11.8282913385826767
20
-4.2698138582677165
11
11.829356692913386
21
-4.270879212598425
0
LINE
8
BLACK
6
CONTINUOUS
10
11.829356692913386
20
-4.270879212598425
11
11.8295065354330706
21
-4.2716325196850393
0
LINE
8
BLACK
6
CONTINUOUS
10
11.8295065354330706
20
-4.2716325196850393
11
11.8295065354330706
21
-4.8621837007874014
0
LINE
8
BLACK
6
CONTINUOUS
10
11.8295065354330706
20
-4.8621837007874014
11
11.829356692913386
21
-4.8629370078740157
0
LINE
8
BLACK
6
CONTINUOUS
10
11.829356692913386
20
-4.8629370078740157
11
11.8282913385826767
21
-4.8640023622047242
0
LINE
8
BLACK
6
CONTINUOUS
10
11.8282913385826767
20
-4.8640023622047242
11
11.8275380314960632
21
-4.8641522047244097
0
LINE
8
BLACK
6
CONTINUOUS
10
11.8275380314960632
20
-4.8641522047244097
11
11.2369868503937003
21
-4.8641522047244097
0
LINE
8
BLACK
6
CONTINUOUS
10
11.2369868503937003
20
-4.8641522047244097
11
11.2362335433070868
21
-4.8640023622047242
0
LINE
8
BLACK
6
CONTINUOUS
10
11.2362335433070868
20
-4.8640023622047242
11
11.2351681889763775
21
-4.8629370078740157
0
LINE
8
BLACK
6
CONTINUOUS
10
11.2351681889763775
20
-4.8629370078740157
11
11.2350183464566928
21
-4.8621837007874014
0
LINE
8
BLACK
6
CONTINUOUS
10
11.2350183464566928
20
-4.8621837007874014
11
11.2350183464566928
21
-4.2716325196850393
0
LINE
8
BLACK
6
CONTINUOUS
10
11.2350183464566928
20
-4.2716325196850393
11
11.2351681889763775
21
-4.270879212598425
0
LINE
8
BLACK
6
CONTINUOUS
10
11.2351681889763775
20
-4.270879212598425
11
11.2362335433070868
21
-4.2698138582677165
0
LINE
8
BLACK
6
CONTINUOUS
10
11.2362335433070868
20
-4.2698138582677165
11
11.2369868503937003
21
-4.269664015748031
0
LINE
8
BLACK
6
CONTINUOUS
10
11.2369868503937003
20
-4.269664015748031
11
11.8275380314960632
21
-4.269664015748031
0
LINE
8
BLACK
6
CONTINUOUS
10
11.8275380314960632
20
-4.269664015748031
11
11.8282913385826767
21
-4.2698138582677165
0
LINE
8
BLACK
6
CONTINUOUS
10
11.2389553543307077
20
-4.2736010236220467
11
11.2389553543307077
21
-4.8602151968503939
0
LINE
8
BLACK
6
CONTINUOUS
10
11.2389553543307077
20
-4.8602151968503939
11
11.825569527559054
21
-4.8602151968503939
0
LINE
8
BLACK
6
CONTINUOUS
10
11.825569527559054
20
-4.8602151968503939
11
11.825569527559054
21
-4.2736010236220467
0
LINE
8
BLACK
6
CONTINUOUS
10
11.825569527559054
20
-4.2736010236220467
11
11.2389553543307077
21
-4.2736010236220467
0
LINE
8
BLACK
6
CONTINUOUS
10
9.5054566929133859
20
-4.1123335433070869
11
9.5065220472440934
21
-4.1133988976377953
0
LINE
8
BLACK
6
CONTINUOUS
10
9.5065220472440934
20
-4.1133988976377953
11
9.5066718897637799
21
-4.1141522047244097
0
LINE
8
BLACK
6
CONTINUOUS
10
9.5066718897637799
20
-4.1141522047244097
11
9.5066718897637799
21
-4.7047033858267717
0
LINE
8
BLACK
6
CONTINUOUS
10
9.5066718897637799
20
-4.7047033858267717
11
9.5065220472440934
21
-4.7054566929133861
0
LINE
8
BLACK
6
CONTINUOUS
10
9.5065220472440934
20
-4.7054566929133861
11
9.5054566929133859
21
-4.7065220472440945
0
LINE
8
BLACK
6
CONTINUOUS
10
9.5054566929133859
20
-4.7065220472440945
11
9.5047033858267707
21
-4.7066718897637791
0
LINE
8
BLACK
6
CONTINUOUS
10
9.5047033858267707
20
-4.7066718897637791
11
8.9141522047244095
21
-4.7066718897637791
0
LINE
8
BLACK
6
CONTINUOUS
10
8.9141522047244095
20
-4.7066718897637791
11
8.9133988976377942
21
-4.7065220472440945
0
LINE
8
BLACK
6
CONTINUOUS
10
8.9133988976377942
20
-4.7065220472440945
11
8.9123335433070867
21
-4.7054566929133861
0
LINE
8
BLACK
6
CONTINUOUS
10
8.9123335433070867
20
-4.7054566929133861
11
8.9121837007874021
21
-4.7047033858267717
0
LINE
8
BLACK
6
CONTINUOUS
10
8.9121837007874021
20
-4.7047033858267717
11
8.9121837007874021
21
-4.1141522047244097
0
LINE
8
BLACK
6
CONTINUOUS
10
8.9121837007874021
20
-4.1141522047244097
11
8.9123335433070867
21
-4.1133988976377953
0
LINE
8
BLACK
6
CONTINUOUS
10
8.9123335433070867
20
-4.1133988976377953
11
8.9133988976377942
21
-4.1123335433070869
0
LINE
8
BLACK
6
CONTINUOUS
10
8.9133988976377942
20
-4.1123335433070869
11
8.9141522047244095
21
-4.1121837007874014
0
LINE
8
BLACK
6
CONTINUOUS
10
8.9141522047244095
20
-4.1121837007874014
11
9.5047033858267707
21
-4.1121837007874014
0
LINE
8
BLACK
6
CONTINUOUS
10
9.5047033858267707
20
-4.1121837007874014
11
9.5054566929133859
21
-4.1123335433070869
0
LINE
8
BLACK
6
CONTINUOUS
10
8.9161207086614169
20
-4.1161207086614171
11
8.9161207086614169
21
-4.7027348818897634
0
LINE
8
BLACK
6
CONTINUOUS
10
8.9161207086614169
20
-4.7027348818897634
11
9.5027348818897632
21
-4.7027348818897634
0
LINE
8
BLACK
6
CONTINUOUS
10
9.5027348818897632
20
-4.7027348818897634
11
9.5027348818897632
21
-4.1161207086614171
0
LINE
8
BLACK
6
CONTINUOUS
10
9.5027348818897632
20
-4.1161207086614171
11
8.9161207086614169
21
-4.1161207086614171
0
LINE
8
BLACK
6
CONTINUOUS
10
10.7259291338582674
20
-4.1123335433070869
11
10.7269944881889767
21
-4.1133988976377953
0
LINE
8
BLACK
6
CONTINUOUS
10
10.7269944881889767
20
-4.1133988976377953
11
10.7271443307086614
21
-4.1141522047244097
0
LINE
8
BLACK
6
CONTINUOUS
10
10.7271443307086614
20
-4.1141522047244097
11
10.7271443307086614
21
-4.7047033858267717
0
LINE
8
BLACK
6
CONTINUOUS
10
10.7271443307086614
20
-4.7047033858267717
11
10.7269944881889767
21
-4.7054566929133861
0
LINE
8
BLACK
6
CONTINUOUS
10
10.7269944881889767
20
-4.7054566929133861
11
10.7259291338582674
21
-4.7065220472440945
0
LINE
8
BLACK
6
CONTINUOUS
10
10.7259291338582674
20
-4.7065220472440945
11
10.7251758267716539
21
-4.7066718897637791
0
LINE
8
BLACK
6
CONTINUOUS
10
10.7251758267716539
20
-4.7066718897637791
11
10.134624645669291
21
-4.7066718897637791
0
LINE
8
BLACK
6
CONTINUOUS
10
10.134624645669291
20
-4.7066718897637791
11
10.1338713385826775
21
-4.7065220472440945
0
LINE
8
BLACK
6
CONTINUOUS
10
10.1338713385826775
20
-4.7065220472440945
11
10.1328059842519682
21
-4.7054566929133861
0
LINE
8
BLACK
6
CONTINUOUS
10
10.1328059842519682
20
-4.7054566929133861
11
10.1326561417322836
21
-4.7047033858267717
0
LINE
8
BLACK
6
CONTINUOUS
10
10.1326561417322836
20
-4.7047033858267717
11
10.1326561417322836
21
-4.1141522047244097
0
LINE
8
BLACK
6
CONTINUOUS
10
10.1326561417322836
20
-4.1141522047244097
11
10.1328059842519682
21
-4.1133988976377953
0
LINE
8
BLACK
6
CONTINUOUS
10
10.1328059842519682
20
-4.1133988976377953
11
10.1338713385826775
21
-4.1123335433070869
0
LINE
8
BLACK
6
CONTINUOUS
10
10.1338713385826775
20
-4.1123335433070869
11
10.134624645669291
21
-4.1121837007874014
0
LINE
8
BLACK
6
CONTINUOUS
10
10.134624645669291
20
-4.1121837007874014
11
10.7251758267716539
21
-4.1121837007874014
0
LINE
8
BLACK
6
CONTINUOUS
10
10.7251758267716539
20
-4.1121837007874014
11
10.7259291338582674
21
-4.1123335433070869
0
LINE
8
BLACK
6
CONTINUOUS
10
10.1365931496062984
20
-4.1161207086614171
11
10.1365931496062984
21
-4.7027348818897634
0
LINE
8
BLACK
6
CONTINUOUS
10
10.1365931496062984
20
-4.7027348818897634
11
10.7232073228346447
21
-4.7027348818897634
0
LINE
8
BLACK
6
CONTINUOUS
10
10.7232073228346447
20
-4.7027348818897634
11
10.7232073228346447
21
-4.1161207086614171
0
LINE
8
BLACK
6
CONTINUOUS
10
10.7232073228346447
20
-4.1161207086614171
11
10.1365931496062984
21
-4.1161207086614171
0
LINE
8
BLACK
6
CONTINUOUS
10
7.4912834645669291
20
-3.7973729133858267
11
7.4923488188976375
21
-3.7984382677165351
0
LINE
8
BLACK
6
CONTINUOUS
10
7.4923488188976375
20
-3.7984382677165351
11
7.492498661417323
21
-3.7991915748031495
0
LINE
8
BLACK
6
CONTINUOUS
10
7.492498661417323
20
-3.7991915748031495
11
7.492498661417323
21
-4.3897427559055116
0
LINE
8
BLACK
6
CONTINUOUS
10
7.492498661417323
20
-4.3897427559055116
11
7.4923488188976375
21
-4.3904960629921259
0
LINE
8
BLACK
6
CONTINUOUS
10
7.4923488188976375
20
-4.3904960629921259
11
7.4912834645669291
21
-4.3915614173228343
0
LINE
8
BLACK
6
CONTINUOUS
10
7.4912834645669291
20
-4.3915614173228343
11
7.4905301574803147
21
-4.3917112598425199
0
LINE
8
BLACK
6
CONTINUOUS
10
7.4905301574803147
20
-4.3917112598425199
11
6.8999789763779527
21
-4.3917112598425199
0
LINE
8
BLACK
6
CONTINUOUS
10
6.8999789763779527
20
-4.3917112598425199
11
6.8992256692913383
21
-4.3915614173228343
0
LINE
8
BLACK
6
CONTINUOUS
10
6.8992256692913383
20
-4.3915614173228343
11
6.8981603149606299
21
-4.3904960629921259
0
LINE
8
BLACK
6
CONTINUOUS
10
6.8981603149606299
20
-4.3904960629921259
11
6.8980104724409443
21
-4.3897427559055116
0
LINE
8
BLACK
6
CONTINUOUS
10
6.8980104724409443
20
-4.3897427559055116
11
6.8980104724409443
21
-3.7991915748031495
0
LINE
8
BLACK
6
CONTINUOUS
10
6.8980104724409443
20
-3.7991915748031495
11
6.8981603149606299
21
-3.7984382677165351
0
LINE
8
BLACK
6
CONTINUOUS
10
6.8981603149606299
20
-3.7984382677165351
11
6.8992256692913383
21
-3.7973729133858267
0
LINE
8
BLACK
6
CONTINUOUS
10
6.8992256692913383
20
-3.7973729133858267
11
6.8999789763779527
21
-3.7972230708661416
0
LINE
8
BLACK
6
CONTINUOUS
10
6.8999789763779527
20
-3.7972230708661416
11
7.4905301574803147
21
-3.7972230708661416
0
LINE
8
BLACK
6
CONTINUOUS
10
7.4905301574803147
20
-3.7972230708661416
11
7.4912834645669291
21
-3.7973729133858267
0
LINE
8
BLACK
6
CONTINUOUS
10
6.9019474803149601
20
-3.8011600787401574
11
6.9019474803149601
21
-4.3877742519685041
0
LINE
8
BLACK
6
CONTINUOUS
10
6.9019474803149601
20
-4.3877742519685041
11
7.4885616535433073
21
-4.3877742519685041
0
LINE
8
BLACK
6
CONTINUOUS
10
7.4885616535433073
20
-4.3877742519685041
11
7.4885616535433073
21
-3.8011600787401574
0
LINE
8
BLACK
6
CONTINUOUS
10
7.4885616535433073
20
-3.8011600787401574
11
6.9019474803149601
21
-3.8011600787401574
0
LINE
8
BLACK
6
CONTINUOUS
10
4.1542755905511815
20
-3.7580028346456693
11
4.1553409448818899
21
-3.7590681889763777
0
LINE
8
BLACK
6
CONTINUOUS
10
4.1553409448818899
20
-3.7590681889763777
11
4.1554907874015745
21
-3.7598214960629921
0
LINE
8
BLACK
6
CONTINUOUS
10
4.1554907874015745
20
-3.7598214960629921
11
4.1554907874015745
21
-4.3503726771653541
0
LINE
8
BLACK
6
CONTINUOUS
10
4.1554907874015745
20
-4.3503726771653541
11
4.1553409448818899
21
-4.3511259842519685
0
LINE
8
BLACK
6
CONTINUOUS
10
4.1553409448818899
20
-4.3511259842519685
11
4.1542755905511815
21
-4.3521913385826769
0
LINE
8
BLACK
6
CONTINUOUS
10
4.1542755905511815
20
-4.3521913385826769
11
4.1535222834645671
21
-4.3523411811023625
0
LINE
8
BLACK
6
CONTINUOUS
10
4.1535222834645671
20
-4.3523411811023625
11
3.5629711023622046
21
-4.3523411811023625
0
LINE
8
BLACK
6
CONTINUOUS
10
3.5629711023622046
20
-4.3523411811023625
11
3.5622177952755907
21
-4.3521913385826769
0
LINE
8
BLACK
6
CONTINUOUS
10
3.5622177952755907
20
-4.3521913385826769
11
3.5611524409448818
21
-4.3511259842519685
0
LINE
8
BLACK
6
CONTINUOUS
10
3.5611524409448818
20
-4.3511259842519685
11
3.5610025984251967
21
-4.3503726771653541
0
LINE
8
BLACK
6
CONTINUOUS
10
3.5610025984251967
20
-4.3503726771653541
11
3.5610025984251967
21
-3.7598214960629921
0
LINE
8
BLACK
6
CONTINUOUS
10
3.5610025984251967
20
-3.7598214960629921
11
3.5611524409448818
21
-3.7590681889763777
0
LINE
8
BLACK
6
CONTINUOUS
10
3.5611524409448818
20
-3.7590681889763777
11
3.5622177952755907
21
-3.7580028346456693
0
LINE
8
BLACK
6
CONTINUOUS
10
3.5622177952755907
20
-3.7580028346456693
11
3.5629711023622046
21
-3.7578529921259842
0
LINE
8
BLACK
6
CONTINUOUS
10
3.5629711023622046
20
-3.7578529921259842
11
4.1535222834645671
21
-3.7578529921259842
0
LINE
8
BLACK
6
CONTINUOUS
10
4.1535222834645671
20
-3.7578529921259842
11
4.1542755905511815
21
-3.7580028346456693
0
LINE
8
BLACK
6
CONTINUOUS
10
3.5649396062992125
20
-3.76179
11
3.5649396062992125
21
-4.3484041732283467
0
LINE
8
BLACK
6
CONTINUOUS
10
3.5649396062992125
20
-4.3484041732283467
11
4.1515537795275588
21
-4.3484041732283467
0
LINE
8
BLACK
6
CONTINUOUS
10
4.1515537795275588
20
-4.3484041732283467
11
4.1515537795275588
21
-3.76179
0
LINE
8
BLACK
6
CONTINUOUS
10
4.1515537795275588
20
-3.76179
11
3.5649396062992125
21
-3.76179
0
LINE
8
BLACK
6
CONTINUOUS
10
8.6001417322834648
20
-3.4038689763779528
11
8.6012070866141723
21
-3.4049343307086612
0
LINE
8
BLACK
6
CONTINUOUS
10
8.6012070866141723
20
-3.4049343307086612
11
8.6013569291338587
21
-3.4056876377952756
0
LINE
8
BLACK
6
CONTINUOUS
10
8.6013569291338587
20
-3.4056876377952756
11
8.6013569291338587
21
-3.9962388188976377
0
LINE
8
BLACK
6
CONTINUOUS
10
8.6013569291338587
20
-3.9962388188976377
11
8.6012070866141723
21
-3.996992125984252
0
LINE
8
BLACK
6
CONTINUOUS
10
8.6012070866141723
20
-3.996992125984252
11
8.6001417322834648
21
-3.9980574803149604
0
LINE
8
BLACK
6
CONTINUOUS
10
8.6001417322834648
20
-3.9980574803149604
11
8.5993884251968495
21
-3.9982073228346455
0
LINE
8
BLACK
6
CONTINUOUS
10
8.5993884251968495
20
-3.9982073228346455
11
8.0088372440944884
21
-3.9982073228346455
0
LINE
8
BLACK
6
CONTINUOUS
10
8.0088372440944884
20
-3.9982073228346455
11
8.0080839370078731
21
-3.9980574803149604
0
LINE
8
BLACK
6
CONTINUOUS
10
8.0080839370078731
20
-3.9980574803149604
11
8.0070185826771656
21
-3.996992125984252
0
LINE
8
BLACK
6
CONTINUOUS
10
8.0070185826771656
20
-3.996992125984252
11
8.006868740157481
21
-3.9962388188976377
0
LINE
8
BLACK
6
CONTINUOUS
10
8.006868740157481
20
-3.9962388188976377
11
8.006868740157481
21
-3.4056876377952756
0
LINE
8
BLACK
6
CONTINUOUS
10
8.006868740157481
20
-3.4056876377952756
11
8.0070185826771656
21
-3.4049343307086612
0
LINE
8
BLACK
6
CONTINUOUS
10
8.0070185826771656
20
-3.4049343307086612
11
8.0080839370078731
21
-3.4038689763779528
0
LINE
8
BLACK
6
CONTINUOUS
10
8.0080839370078731
20
-3.4038689763779528
11
8.0088372440944884
21
-3.4037191338582677
0
LINE
8
BLACK
6
CONTINUOUS
10
8.0088372440944884
20
-3.4037191338582677
11
8.5993884251968495
21
-3.4037191338582677
0
LINE
8
BLACK
6
CONTINUOUS
10
8.5993884251968495
20
-3.4037191338582677
11
8.6001417322834648
21
-3.4038689763779528
0
LINE
8
BLACK
6
CONTINUOUS
10
8.0108057480314958
20
-3.4076561417322835
11
8.0108057480314958
21
-3.9942703149606298
0
LINE
8
BLACK
6
CONTINUOUS
10
8.0108057480314958
20
-3.9942703149606298
11
8.5974199212598421
21
-3.9942703149606298
0
LINE
8
BLACK
6
CONTINUOUS
10
8.5974199212598421
20
-3.9942703149606298
11
8.5974199212598421
21
-3.4076561417322835
0
LINE
8
BLACK
6
CONTINUOUS
10
8.5974199212598421
20
-3.4076561417322835
11
8.0108057480314958
21
-3.4076561417322835
0
LINE
8
BLACK
6
CONTINUOUS
10
5.3259291338582679
20
-3.3249319685039369
11
5.3269944881889764
21
-3.3259973228346458
0
LINE
8
BLACK
6
CONTINUOUS
10
5.3269944881889764
20
-3.3259973228346458
11
5.327144330708661
21
-3.3267506299212597
0
LINE
8
BLACK
6
CONTINUOUS
10
5.327144330708661
20
-3.3267506299212597
11
5.327144330708661
21
-3.9173018110236217
0
LINE
8
BLACK
6
CONTINUOUS
10
5.327144330708661
20
-3.9173018110236217
11
5.3269944881889764
21
-3.9180551181102361
0
LINE
8
BLACK
6
CONTINUOUS
10
5.3269944881889764
20
-3.9180551181102361
11
5.3259291338582679
21
-3.919120472440945
0
LINE
8
BLACK
6
CONTINUOUS
10
5.3259291338582679
20
-3.919120472440945
11
5.3251758267716536
21
-3.9192703149606301
0
LINE
8
BLACK
6
CONTINUOUS
10
5.3251758267716536
20
-3.9192703149606301
11
4.7346246456692915
21
-3.9192703149606301
0
LINE
8
BLACK
6
CONTINUOUS
10
4.7346246456692915
20
-3.9192703149606301
11
4.7338713385826772
21
-3.919120472440945
0
LINE
8
BLACK
6
CONTINUOUS
10
4.7338713385826772
20
-3.919120472440945
11
4.7328059842519687
21
-3.9180551181102361
0
LINE
8
BLACK
6
CONTINUOUS
10
4.7328059842519687
20
-3.9180551181102361
11
4.7326561417322832
21
-3.9173018110236217
0
LINE
8
BLACK
6
CONTINUOUS
10
4.7326561417322832
20
-3.9173018110236217
11
4.7326561417322832
21
-3.3267506299212597
0
LINE
8
BLACK
6
CONTINUOUS
10
4.7326561417322832
20
-3.3267506299212597
11
4.7328059842519687
21
-3.3259973228346458
0
LINE
8
BLACK
6
CONTINUOUS
10
4.7328059842519687
20
-3.3259973228346458
11
4.7338713385826772
21
-3.3249319685039369
0
LINE
8
BLACK
6
CONTINUOUS
10
4.7338713385826772
20
-3.3249319685039369
11
4.7346246456692915
21
-3.3247821259842518
0
LINE
8
BLACK
6
CONTINUOUS
10
4.7346246456692915
20
-3.3247821259842518
11
5.3251758267716536
21
-3.3247821259842518
0
LINE
8
BLACK
6
CONTINUOUS
10
5.3251758267716536
20
-3.3247821259842518
11
5.3259291338582679
21
-3.3249319685039369
0
LINE
8
BLACK
6
CONTINUOUS
10
4.736593149606299
20
-3.3287191338582676
11
4.736593149606299
21
-3.9153333070866139
0
LINE
8
BLACK
6
CONTINUOUS
10
4.736593149606299
20
-3.9153333070866139
11
5.3232073228346453
21
-3.9153333070866139
0
LINE
8
BLACK
6
CONTINUOUS
10
5.3232073228346453
20
-3.9153333070866139
11
5.3232073228346453
21
-3.3287191338582676
0
LINE
8
BLACK
6
CONTINUOUS
10
5.3232073228346453
20
-3.3287191338582676
11
4.736593149606299
21
-3.3287191338582676
0
LINE
8
BLACK
6
CONTINUOUS
10
6.5133307086614174
20
-3.3249319685039369
11
6.5143960629921258
21
-3.3259973228346458
0
LINE
8
BLACK
6
CONTINUOUS
10
6.5143960629921258
20
-3.3259973228346458
11
6.5145459055118105
21
-3.3267506299212597
0
LINE
8
BLACK
6
CONTINUOUS
10
6.5145459055118105
20
-3.3267506299212597
11
6.5145459055118105
21
-3.9173018110236217
0
LINE
8
BLACK
6
CONTINUOUS
10
6.5145459055118105
20
-3.9173018110236217
11
6.5143960629921258
21
-3.9180551181102361
0
LINE
8
BLACK
6
CONTINUOUS
10
6.5143960629921258
20
-3.9180551181102361
11
6.5133307086614174
21
-3.919120472440945
0
LINE
8
BLACK
6
CONTINUOUS
10
6.5133307086614174
20
-3.919120472440945
11
6.512577401574803
21
-3.9192703149606301
0
LINE
8
BLACK
6
CONTINUOUS
10
6.512577401574803
20
-3.9192703149606301
11
5.922026220472441
21
-3.9192703149606301
0
LINE
8
BLACK
6
CONTINUOUS
10
5.922026220472441
20
-3.9192703149606301
11
5.9212729133858266
21
-3.919120472440945
0
LINE
8
BLACK
6
CONTINUOUS
10
5.9212729133858266
20
-3.919120472440945
11
5.9202075590551182
21
-3.9180551181102361
0
LINE
8
BLACK
6
CONTINUOUS
10
5.9202075590551182
20
-3.9180551181102361
11
5.9200577165354327
21
-3.9173018110236217
0
LINE
8
BLACK
6
CONTINUOUS
10
5.9200577165354327
20
-3.9173018110236217
11
5.9200577165354327
21
-3.3267506299212597
0
LINE
8
BLACK
6
CONTINUOUS
10
5.9200577165354327
20
-3.3267506299212597
11
5.9202075590551182
21
-3.3259973228346458
0
LINE
8
BLACK
6
CONTINUOUS
10
5.9202075590551182
20
-3.3259973228346458
11
5.9212729133858266
21
-3.3249319685039369
0
LINE
8
BLACK
6
CONTINUOUS
10
5.9212729133858266
20
-3.3249319685039369
11
5.922026220472441
21
-3.3247821259842518
0
LINE
8
BLACK
6
CONTINUOUS
10
5.922026220472441
20
-3.3247821259842518
11
6.512577401574803
21
-3.3247821259842518
0
LINE
8
BLACK
6
CONTINUOUS
10
6.512577401574803
20
-3.3247821259842518
11
6.5133307086614174
21
-3.3249319685039369
0
LINE
8
BLACK
6
CONTINUOUS
10
5.9239947244094484
20
-3.3287191338582676
11
5.9239947244094484
21
-3.9153333070866139
0
LINE
8
BLACK
6
CONTINUOUS
10
5.9239947244094484
20
-3.9153333070866139
11
6.5106088976377947
21
-3.9153333070866139
0
LINE
8
BLACK
6
CONTINUOUS
10
6.5106088976377947
20
-3.9153333070866139
11
6.5106088976377947
21
-3.3287191338582676
0
LINE
8
BLACK
6
CONTINUOUS
10
6.5106088976377947
20
-3.3287191338582676
11
5.9239947244094484
21
-3.3287191338582676
0
LINE
8
BLACK
6
CONTINUOUS
10
11.8282913385826767
20
-3.0493414173228346
11
11.829356692913386
21
-3.0504067716535435
0
LINE
8
BLACK
6
CONTINUOUS
10
11.829356692913386
20
-3.0504067716535435
11
11.8295065354330706
21
-3.0511600787401574
0
LINE
8
BLACK
6
CONTINUOUS
10
11.8295065354330706
20
-3.0511600787401574
11
11.8295065354330706
21
-3.6417112598425194
0
LINE
8
BLACK
6
CONTINUOUS
10
11.8295065354330706
20
-3.6417112598425194
11
11.829356692913386
21
-3.6424645669291338
0
LINE
8
BLACK
6
CONTINUOUS
10
11.829356692913386
20
-3.6424645669291338
11
11.8282913385826767
21
-3.6435299212598427
0
LINE
8
BLACK
6
CONTINUOUS
10
11.8282913385826767
20
-3.6435299212598427
11
11.8275380314960632
21
-3.6436797637795273
0
LINE
8
BLACK
6
CONTINUOUS
10
11.8275380314960632
20
-3.6436797637795273
11
11.2369868503937003
21
-3.6436797637795273
0
LINE
8
BLACK
6
CONTINUOUS
10
11.2369868503937003
20
-3.6436797637795273
11
11.2362335433070868
21
-3.6435299212598427
0
LINE
8
BLACK
6
CONTINUOUS
10
11.2362335433070868
20
-3.6435299212598427
11
11.2351681889763775
21
-3.6424645669291338
0
LINE
8
BLACK
6
CONTINUOUS
10
11.2351681889763775
20
-3.6424645669291338
11
11.2350183464566928
21
-3.6417112598425194
0
LINE
8
BLACK
6
CONTINUOUS
10
11.2350183464566928
20
-3.6417112598425194
11
11.2350183464566928
21
-3.0511600787401574
0
LINE
8
BLACK
6
CONTINUOUS
10
11.2350183464566928
20
-3.0511600787401574
11
11.2351681889763775
21
-3.0504067716535435
0
LINE
8
BLACK
6
CONTINUOUS
10
11.2351681889763775
20
-3.0504067716535435
11
11.2362335433070868
21
-3.0493414173228346
0
LINE
8
BLACK
6
CONTINUOUS
10
11.2362335433070868
20
-3.0493414173228346
11
11.2369868503937003
21
-3.0491915748031495
0
LINE
8
BLACK
6
CONTINUOUS
10
11.2369868503937003
20
-3.0491915748031495
11
11.8275380314960632
21
-3.0491915748031495
0
LINE
8
BLACK
6
CONTINUOUS
10
11.8275380314960632
20
-3.0491915748031495
11
11.8282913385826767
21
-3.0493414173228346
0
LINE
8
BLACK
6
CONTINUOUS
10
11.2389553543307077
20
-3.0531285826771652
11
11.2389553543307077
21
-3.6397427559055116
0
LINE
8
BLACK
6
CONTINUOUS
10
11.2389553543307077
20
-3.6397427559055116
11
11.825569527559054
21
-3.6397427559055116
0
LINE
8
BLACK
6
CONTINUOUS
10
11.825569527559054
20
-3.6397427559055116
11
11.825569527559054
21
-3.0531285826771652
0
LINE
8
BLACK
6
CONTINUOUS
10
11.825569527559054
20
-3.0531285826771652
11
11.2389553543307077
21
-3.0531285826771652
0
LINE
8
BLACK
6
CONTINUOUS
10
9.5841968503937007
20
-2.9312311811023624
11
9.58526220472441
21
-2.9322965354330708
0
LINE
8
BLACK
6
CONTINUOUS
10
9.58526220472441
20
-2.9322965354330708
11
9.5854120472440947
21
-2.9330498425196851
0
LINE
8
BLACK
6
CONTINUOUS
10
9.5854120472440947
20
-2.9330498425196851
11
9.5854120472440947
21
-3.5236010236220472
0
LINE
8
BLACK
6
CONTINUOUS
10
9.5854120472440947
20
-3.5236010236220472
11
9.58526220472441
21
-3.5243543307086616
0
LINE
8
BLACK
6
CONTINUOUS
10
9.58526220472441
20
-3.5243543307086616
11
9.5841968503937007
21
-3.52541968503937
0
LINE
8
BLACK
6
CONTINUOUS
10
9.5841968503937007
20
-3.52541968503937
11
9.5834435433070873
21
-3.5255695275590551
0
LINE
8
BLACK
6
CONTINUOUS
10
9.5834435433070873
20
-3.5255695275590551
11
8.9928923622047243
21
-3.5255695275590551
0
LINE
8
BLACK
6
CONTINUOUS
10
8.9928923622047243
20
-3.5255695275590551
11
8.9921390551181108
21
-3.52541968503937
0
LINE
8
BLACK
6
CONTINUOUS
10
8.9921390551181108
20
-3.52541968503937
11
8.9910737007874015
21
-3.5243543307086616
0
LINE
8
BLACK
6
CONTINUOUS
10
8.9910737007874015
20
-3.5243543307086616
11
8.9909238582677169
21
-3.5236010236220472
0
LINE
8
BLACK
6
CONTINUOUS
10
8.9909238582677169
20
-3.5236010236220472
11
8.9909238582677169
21
-2.9330498425196851
0
LINE
8
BLACK
6
CONTINUOUS
10
8.9909238582677169
20
-2.9330498425196851
11
8.9910737007874015
21
-2.9322965354330708
0
LINE
8
BLACK
6
CONTINUOUS
10
8.9910737007874015
20
-2.9322965354330708
11
8.9921390551181108
21
-2.9312311811023624
0
LINE
8
BLACK
6
CONTINUOUS
10
8.9921390551181108
20
-2.9312311811023624
11
8.9928923622047243
21
-2.9310813385826773
0
LINE
8
BLACK
6
CONTINUOUS
10
8.9928923622047243
20
-2.9310813385826773
11
9.5834435433070873
21
-2.9310813385826773
0
LINE
8
BLACK
6
CONTINUOUS
10
9.5834435433070873
20
-2.9310813385826773
11
9.5841968503937007
21
-2.9312311811023624
0
LINE
8
BLACK
6
CONTINUOUS
10
8.9948608661417317
20
-2.935018346456693
11
8.9948608661417317
21
-3.5216325196850393
0
LINE
8
BLACK
6
CONTINUOUS
10
8.9948608661417317
20
-3.5216325196850393
11
9.5814750393700781
21
-3.5216325196850393
0
LINE
8
BLACK
6
CONTINUOUS
10
9.5814750393700781
20
-3.5216325196850393
11
9.5814750393700781
21
-2.935018346456693
0
LINE
8
BLACK
6
CONTINUOUS
10
9.5814750393700781
20
-2.935018346456693
11
8.9948608661417317
21
-2.935018346456693
0
LINE
8
BLACK
6
CONTINUOUS
10
10.7259291338582674
20
-2.9312311811023624
11
10.7269944881889767
21
-2.9322965354330708
0
LINE
8
BLACK
6
CONTINUOUS
10
10.7269944881889767
20
-2.9322965354330708
11
10.7271443307086614
21
-2.9330498425196851
0
LINE
8
BLACK
6
CONTINUOUS
10
10.7271443307086614
20
-2.9330498425196851
11
10.7271443307086614
21
-3.5236010236220472
0
LINE
8
BLACK
6
CONTINUOUS
10
10.7271443307086614
20
-3.5236010236220472
11
10.7269944881889767
21
-3.5243543307086616
0
LINE
8
BLACK
6
CONTINUOUS
10
10.7269944881889767
20
-3.5243543307086616
11
10.7259291338582674
21
-3.52541968503937
0
LINE
8
BLACK
6
CONTINUOUS
10
10.7259291338582674
20
-3.52541968503937
11
10.7251758267716539
21
-3.5255695275590551
0
LINE
8
BLACK
6
CONTINUOUS
10
10.7251758267716539
20
-3.5255695275590551
11
10.134624645669291
21
-3.5255695275590551
0
LINE
8
BLACK
6
CONTINUOUS
10
10.134624645669291
20
-3.5255695275590551
11
10.1338713385826775
21
-3.52541968503937
0
LINE
8
BLACK
6
CONTINUOUS
10
10.1338713385826775
20
-3.52541968503937
11
10.1328059842519682
21
-3.5243543307086616
0
LINE
8
BLACK
6
CONTINUOUS
10
10.1328059842519682
20
-3.5243543307086616
11
10.1326561417322836
21
-3.5236010236220472
0
LINE
8
BLACK
6
CONTINUOUS
10
10.1326561417322836
20
-3.5236010236220472
11
10.1326561417322836
21
-2.9330498425196851
0
LINE
8
BLACK
6
CONTINUOUS
10
10.1326561417322836
20
-2.9330498425196851
11
10.1328059842519682
21
-2.9322965354330708
0
LINE
8
BLACK
6
CONTINUOUS
10
10.1328059842519682
20
-2.9322965354330708
11
10.1338713385826775
21
-2.9312311811023624
0
LINE
8
BLACK
6
CONTINUOUS
10
10.1338713385826775
20
-2.9312311811023624
11
10.134624645669291
21
-2.9310813385826773
0
LINE
8
BLACK
6
CONTINUOUS
10
10.134624645669291
20
-2.9310813385826773
11
10.7251758267716539
21
-2.9310813385826773
0
LINE
8
BLACK
6
CONTINUOUS
10
10.7251758267716539
20
-2.9310813385826773
11
10.7259291338582674
21
-2.9312311811023624
0
LINE
8
BLACK
6
CONTINUOUS
10
10.1365931496062984
20
-2.935018346456693
11
10.1365931496062984
21
-3.5216325196850393
0
LINE
8
BLACK
6
CONTINUOUS
10
10.1365931496062984
20
-3.5216325196850393
11
10.7232073228346447
21
-3.5216325196850393
0
LINE
8
BLACK
6
CONTINUOUS
10
10.7232073228346447
20
-3.5216325196850393
11
10.7232073228346447
21
-2.935018346456693
0
LINE
8
BLACK
6
CONTINUOUS
10
10.7232073228346447
20
-2.935018346456693
11
10.1365931496062984
21
-2.935018346456693
0
LINE
8
BLACK
6
CONTINUOUS
10
8.6784881889763774
20
-2.2619398425196851
11
8.6795535433070867
21
-2.2630051968503935
0
LINE
8
BLACK
6
CONTINUOUS
10
8.6795535433070867
20
-2.2630051968503935
11
8.6797033858267714
21
-2.2637585039370078
0
LINE
8
BLACK
6
CONTINUOUS
10
8.6797033858267714
20
-2.2637585039370078
11
8.6797033858267714
21
-2.8543096850393699
0
LINE
8
BLACK
6
CONTINUOUS
10
8.6797033858267714
20
-2.8543096850393699
11
8.6795535433070867
21
-2.8550629921259842
0
LINE
8
BLACK
6
CONTINUOUS
10
8.6795535433070867
20
-2.8550629921259842
11
8.6784881889763774
21
-2.8561283464566927
0
LINE
8
BLACK
6
CONTINUOUS
10
8.6784881889763774
20
-2.8561283464566927
11
8.6777348818897639
21
-2.8562781889763778
0
LINE
8
BLACK
6
CONTINUOUS
10
8.6777348818897639
20
-2.8562781889763778
11
8.087183700787401
21
-2.8562781889763778
0
LINE
8
BLACK
6
CONTINUOUS
10
8.087183700787401
20
-2.8562781889763778
11
8.0864303937007875
21
-2.8561283464566927
0
LINE
8
BLACK
6
CONTINUOUS
10
8.0864303937007875
20
-2.8561283464566927
11
8.0853650393700782
21
-2.8550629921259842
0
LINE
8
BLACK
6
CONTINUOUS
10
8.0853650393700782
20
-2.8550629921259842
11
8.0852151968503936
21
-2.8543096850393699
0
LINE
8
BLACK
6
CONTINUOUS
10
8.0852151968503936
20
-2.8543096850393699
11
8.0852151968503936
21
-2.2637585039370078
0
LINE
8
BLACK
6
CONTINUOUS
10
8.0852151968503936
20
-2.2637585039370078
11
8.0853650393700782
21
-2.2630051968503935
0
LINE
8
BLACK
6
CONTINUOUS
10
8.0853650393700782
20
-2.2630051968503935
11
8.0864303937007875
21
-2.2619398425196851
0
LINE
8
BLACK
6
CONTINUOUS
10
8.0864303937007875
20
-2.2619398425196851
11
8.087183700787401
21
-2.26179
0
LINE
8
BLACK
6
CONTINUOUS
10
8.087183700787401
20
-2.26179
11
8.6777348818897639
21
-2.26179
0
LINE
8
BLACK
6
CONTINUOUS
10
8.6777348818897639
20
-2.26179
11
8.6784881889763774
21
-2.2619398425196851
0
LINE
8
BLACK
6
CONTINUOUS
10
8.0891522047244084
20
-2.2657270078740157
11
8.0891522047244084
21
-2.852341181102362
0
LINE
8
BLACK
6
CONTINUOUS
10
8.0891522047244084
20
-2.852341181102362
11
8.6757663779527565
21
-2.852341181102362
0
LINE
8
BLACK
6
CONTINUOUS
10
8.6757663779527565
20
-2.852341181102362
11
8.6757663779527565
21
-2.2657270078740157
0
LINE
8
BLACK
6
CONTINUOUS
10
8.6757663779527565
20
-2.2657270078740157
11
8.0891522047244084
21
-2.2657270078740157
0
LINE
8
BLACK
6
CONTINUOUS
10
3.4227795275590549
20
-1.6517036220472441
11
3.4238448818897638
21
-1.6527689763779527
0
LINE
8
BLACK
6
CONTINUOUS
10
3.4238448818897638
20
-1.6527689763779527
11
3.4239947244094489
21
-1.6535222834645669
0
LINE
8
BLACK
6
CONTINUOUS
10
3.4239947244094489
20
-1.6535222834645669
11
3.4239947244094489
21
-2.2440734645669291
0
LINE
8
BLACK
6
CONTINUOUS
10
3.4239947244094489
20
-2.2440734645669291
11
3.4238448818897638
21
-2.2448267716535431
0
LINE
8
BLACK
6
CONTINUOUS
10
3.4238448818897638
20
-2.2448267716535431
11
3.4227795275590549
21
-2.2458921259842519
0
LINE
8
BLACK
6
CONTINUOUS
10
3.4227795275590549
20
-2.2458921259842519
11
3.422026220472441
21
-2.246041968503937
0
LINE
8
BLACK
6
CONTINUOUS
10
3.422026220472441
20
-2.246041968503937
11
2.8314750393700785
21
-2.246041968503937
0
LINE
8
BLACK
6
CONTINUOUS
10
2.8314750393700785
20
-2.246041968503937
11
2.8307217322834646
21
-2.2458921259842519
0
LINE
8
BLACK
6
CONTINUOUS
10
2.8307217322834646
20
-2.2458921259842519
11
2.8296563779527557
21
-2.2448267716535431
0
LINE
8
BLACK
6
CONTINUOUS
10
2.8296563779527557
20
-2.2448267716535431
11
2.8295065354330706
21
-2.2440734645669291
0
LINE
8
BLACK
6
CONTINUOUS
10
2.8295065354330706
20
-2.2440734645669291
11
2.8295065354330706
21
-1.6535222834645669
0
LINE
8
BLACK
6
CONTINUOUS
10
2.8295065354330706
20
-1.6535222834645669
11
2.8296563779527557
21
-1.6527689763779527
0
LINE
8
BLACK
6
CONTINUOUS
10
2.8296563779527557
20
-1.6527689763779527
11
2.8307217322834646
21
-1.6517036220472441
0
LINE
8
BLACK
6
CONTINUOUS
10
2.8307217322834646
20
-1.6517036220472441
11
2.8314750393700785
21
-1.651553779527559
0
LINE
8
BLACK
6
CONTINUOUS
10
2.8314750393700785
20
-1.651553779527559
11
3.422026220472441
21
-1.651553779527559
0
LINE
8
BLACK
6
CONTINUOUS
10
3.422026220472441
20
-1.651553779527559
11
3.4227795275590549
21
-1.6517036220472441
0
LINE
8
BLACK
6
CONTINUOUS
10
2.8334435433070864
20
-1.6554907874015747
11
2.8334435433070864
21
-2.2421049606299213
0
LINE
8
BLACK
6
CONTINUOUS
10
2.8334435433070864
20
-2.2421049606299213
11
3.4200577165354331
21
-2.2421049606299213
0
LINE
8
BLACK
6
CONTINUOUS
10
3.4200577165354331
20
-2.2421049606299213
11
3.4200577165354331
21
-1.6554907874015747
0
LINE
8
BLACK
6
CONTINUOUS
10
3.4200577165354331
20
-1.6554907874015747
11
2.8334435433070864
21
-1.6554907874015747
0
LINE
8
BLACK
6
CONTINUOUS
10
4.6038818897637794
20
-1.6517036220472441
11
4.6049472440944879
21
-1.6527689763779527
0
LINE
8
BLACK
6
CONTINUOUS
10
4.6049472440944879
20
-1.6527689763779527
11
4.6050970866141734
21
-1.6535222834645669
0
LINE
8
BLACK
6
CONTINUOUS
10
4.6050970866141734
20
-1.6535222834645669
11
4.6050970866141734
21
-2.2440734645669291
0
LINE
8
BLACK
6
CONTINUOUS
10
4.6050970866141734
20
-2.2440734645669291
11
4.6049472440944879
21
-2.2448267716535431
0
LINE
8
BLACK
6
CONTINUOUS
10
4.6049472440944879
20
-2.2448267716535431
11
4.6038818897637794
21
-2.2458921259842519
0
LINE
8
BLACK
6
CONTINUOUS
10
4.6038818897637794
20
-2.2458921259842519
11
4.6031285826771651
21
-2.246041968503937
0
LINE
8
BLACK
6
CONTINUOUS
10
4.6031285826771651
20
-2.246041968503937
11
4.012577401574803
21
-2.246041968503937
0
LINE
8
BLACK
6
CONTINUOUS
10
4.012577401574803
20
-2.246041968503937
11
4.0118240944881887
21
-2.2458921259842519
0
LINE
8
BLACK
6
CONTINUOUS
10
4.0118240944881887
20
-2.2458921259842519
11
4.0107587401574802
21
-2.2448267716535431
0
LINE
8
BLACK
6
CONTINUOUS
10
4.0107587401574802
20
-2.2448267716535431
11
4.0106088976377956
21
-2.2440734645669291
0
LINE
8
BLACK
6
CONTINUOUS
10
4.0106088976377956
20
-2.2440734645669291
11
4.0106088976377956
21
-1.6535222834645669
0
LINE
8
BLACK
6
CONTINUOUS
10
4.0106088976377956
20
-1.6535222834645669
11
4.0107587401574802
21
-1.6527689763779527
0
LINE
8
BLACK
6
CONTINUOUS
10
4.0107587401574802
20
-1.6527689763779527
11
4.0118240944881887
21
-1.6517036220472441
0
LINE
8
BLACK
6
CONTINUOUS
10
4.0118240944881887
20
-1.6517036220472441
11
4.012577401574803
21
-1.651553779527559
0
LINE
8
BLACK
6
CONTINUOUS
10
4.012577401574803
20
-1.651553779527559
11
4.6031285826771651
21
-1.651553779527559
0
LINE
8
BLACK
6
CONTINUOUS
10
4.6031285826771651
20
-1.651553779527559
11
4.6038818897637794
21
-1.6517036220472441
0
LINE
8
BLACK
6
CONTINUOUS
10
4.0145459055118113
20
-1.6554907874015747
11
4.0145459055118113
21
-2.2421049606299213
0
LINE
8
BLACK
6
CONTINUOUS
10
4.0145459055118113
20
-2.2421049606299213
11
4.6011600787401576
21
-2.2421049606299213
0
LINE
8
BLACK
6
CONTINUOUS
10
4.6011600787401576
20
-2.2421049606299213
11
4.6011600787401576
21
-1.6554907874015747
0
LINE
8
BLACK
6
CONTINUOUS
10
4.6011600787401576
20
-1.6554907874015747
11
4.0145459055118113
21
-1.6554907874015747
0
LINE
8
BLACK
6
CONTINUOUS
10
5.7849842519685035
20
-1.6517036220472441
11
5.7860496062992128
21
-1.6527689763779527
0
LINE
8
BLACK
6
CONTINUOUS
10
5.7860496062992128
20
-1.6527689763779527
11
5.7861994488188975
21
-1.6535222834645669
0
LINE
8
BLACK
6
CONTINUOUS
10
5.7861994488188975
20
-1.6535222834645669
11
5.7861994488188975
21
-2.2440734645669291
0
LINE
8
BLACK
6
CONTINUOUS
10
5.7861994488188975
20
-2.2440734645669291
11
5.7860496062992128
21
-2.2448267716535431
0
LINE
8
BLACK
6
CONTINUOUS
10
5.7860496062992128
20
-2.2448267716535431
11
5.7849842519685035
21
-2.2458921259842519
0
LINE
8
BLACK
6
CONTINUOUS
10
5.7849842519685035
20
-2.2458921259842519
11
5.78423094488189
21
-2.246041968503937
0
LINE
8
BLACK
6
CONTINUOUS
10
5.78423094488189
20
-2.246041968503937
11
5.1936797637795271
21
-2.246041968503937
0
LINE
8
BLACK
6
CONTINUOUS
10
5.1936797637795271
20
-2.246041968503937
11
5.1929264566929136
21
-2.2458921259842519
0
LINE
8
BLACK
6
CONTINUOUS
10
5.1929264566929136
20
-2.2458921259842519
11
5.1918611023622043
21
-2.2448267716535431
0
LINE
8
BLACK
6
CONTINUOUS
10
5.1918611023622043
20
-2.2448267716535431
11
5.1917112598425197
21
-2.2440734645669291
0
LINE
8
BLACK
6
CONTINUOUS
10
5.1917112598425197
20
-2.2440734645669291
11
5.1917112598425197
21
-1.6535222834645669
0
LINE
8
BLACK
6
CONTINUOUS
10
5.1917112598425197
20
-1.6535222834645669
11
5.1918611023622043
21
-1.6527689763779527
0
LINE
8
BLACK
6
CONTINUOUS
10
5.1918611023622043
20
-1.6527689763779527
11
5.1929264566929136
21
-1.6517036220472441
0
LINE
8
BLACK
6
CONTINUOUS
10
5.1929264566929136
20
-1.6517036220472441
11
5.1936797637795271
21
-1.651553779527559
0
LINE
8
BLACK
6
CONTINUOUS
10
5.1936797637795271
20
-1.651553779527559
11
5.78423094488189
21
-1.651553779527559
0
LINE
8
BLACK
6
CONTINUOUS
10
5.78423094488189
20
-1.651553779527559
11
5.7849842519685035
21
-1.6517036220472441
0
LINE
8
BLACK
6
CONTINUOUS
10
5.1956482677165354
20
-1.6554907874015747
11
5.1956482677165354
21
-2.2421049606299213
0
LINE
8
BLACK
6
CONTINUOUS
10
5.1956482677165354
20
-2.2421049606299213
11
5.7822624409448817
21
-2.2421049606299213
0
LINE
8
BLACK
6
CONTINUOUS
10
5.7822624409448817
20
-2.2421049606299213
11
5.7822624409448817
21
-1.6554907874015747
0
LINE
8
BLACK
6
CONTINUOUS
10
5.7822624409448817
20
-1.6554907874015747
11
5.1956482677165354
21
-1.6554907874015747
0
LINE
8
BLACK
6
CONTINUOUS
10
6.9660866141732285
20
-1.6517036220472441
11
6.9671519685039369
21
-1.6527689763779527
0
LINE
8
BLACK
6
CONTINUOUS
10
6.9671519685039369
20
-1.6527689763779527
11
6.9673018110236216
21
-1.6535222834645669
0
LINE
8
BLACK
6
CONTINUOUS
10
6.9673018110236216
20
-1.6535222834645669
11
6.9673018110236216
21
-2.2440734645669291
0
LINE
8
BLACK
6
CONTINUOUS
10
6.9673018110236216
20
-2.2440734645669291
11
6.9671519685039369
21
-2.2448267716535431
0
LINE
8
BLACK
6
CONTINUOUS
10
6.9671519685039369
20
-2.2448267716535431
11
6.9660866141732285
21
-2.2458921259842519
0
LINE
8
BLACK
6
CONTINUOUS
10
6.9660866141732285
20
-2.2458921259842519
11
6.9653333070866141
21
-2.246041968503937
0
LINE
8
BLACK
6
CONTINUOUS
10
6.9653333070866141
20
-2.246041968503937
11
6.3747821259842521
21
-2.246041968503937
0
LINE
8
BLACK
6
CONTINUOUS
10
6.3747821259842521
20
-2.246041968503937
11
6.3740288188976377
21
-2.2458921259842519
0
LINE
8
BLACK
6
CONTINUOUS
10
6.3740288188976377
20
-2.2458921259842519
11
6.3729634645669293
21
-2.2448267716535431
0
LINE
8
BLACK
6
CONTINUOUS
10
6.3729634645669293
20
-2.2448267716535431
11
6.3728136220472438
21
-2.2440734645669291
0
LINE
8
BLACK
6
CONTINUOUS
10
6.3728136220472438
20
-2.2440734645669291
11
6.3728136220472438
21
-1.6535222834645669
0
LINE
8
BLACK
6
CONTINUOUS
10
6.3728136220472438
20
-1.6535222834645669
11
6.3729634645669293
21
-1.6527689763779527
0
LINE
8
BLACK
6
CONTINUOUS
10
6.3729634645669293
20
-1.6527689763779527
11
6.3740288188976377
21
-1.6517036220472441
0
LINE
8
BLACK
6
CONTINUOUS
10
6.3740288188976377
20
-1.6517036220472441
11
6.3747821259842521
21
-1.651553779527559
0
LINE
8
BLACK
6
CONTINUOUS
10
6.3747821259842521
20
-1.651553779527559
11
6.9653333070866141
21
-1.651553779527559
0
LINE
8
BLACK
6
CONTINUOUS
10
6.9653333070866141
20
-1.651553779527559
11
6.9660866141732285
21
-1.6517036220472441
0
LINE
8
BLACK
6
CONTINUOUS
10
6.3767506299212595
20
-1.6554907874015747
11
6.3767506299212595
21
-2.2421049606299213
0
LINE
8
BLACK
6
CONTINUOUS
10
6.3767506299212595
20
-2.2421049606299213
11
6.9633648031496058
21
-2.2421049606299213
0
LINE
8
BLACK
6
CONTINUOUS
10
6.9633648031496058
20
-2.2421049606299213
11
6.9633648031496058
21
-1.6554907874015747
0
LINE
8
BLACK
6
CONTINUOUS
10
6.9633648031496058
20
-1.6554907874015747
11
6.3767506299212595
21
-1.6554907874015747
0
LINE
8
BLACK
6
CONTINUOUS
10
2.2198891732283466
20
-1.3541570866141732
11
2.2295837795275588
21
-1.3573070472440945
0
LINE
8
BLACK
6
CONTINUOUS
10
2.2295837795275588
20
-1.3573070472440945
11
2.2386662598425198
21
-1.3619348031496064
0
LINE
8
BLACK
6
CONTINUOUS
10
2.2386662598425198
20
-1.3619348031496064
11
2.2469129527559053
21
-1.367926377952756
0
LINE
8
BLACK
6
CONTINUOUS
10
2.2469129527559053
20
-1.367926377952756
11
2.254120866141732
21
-1.3751342913385827
0
LINE
8
BLACK
6
CONTINUOUS
10
2.254120866141732
20
-1.3751342913385827
11
2.2601124409448818
21
-1.3833809842519684
0
LINE
8
BLACK
6
CONTINUOUS
10
2.2601124409448818
20
-1.3833809842519684
11
2.2647401968503935
21
-1.3924634645669292
0
LINE
8
BLACK
6
CONTINUOUS
10
2.2647401968503935
20
-1.3924634645669292
11
2.267890157480315
21
-1.4021580708661416
0
LINE
8
BLACK
6
CONTINUOUS
10
2.267890157480315
20
-1.4021580708661416
11
2.2694848031496062
21
-1.4122260629921259
0
LINE
8
BLACK
6
CONTINUOUS
10
2.2694848031496062
20
-1.4122260629921259
11
2.2694848031496062
21
-1.4224196062992125
0
LINE
8
BLACK
6
CONTINUOUS
10
2.2694848031496062
20
-1.4224196062992125
11
2.267890157480315
21
-1.4324875984251968
0
LINE
8
BLACK
6
CONTINUOUS
10
2.267890157480315
20
-1.4324875984251968
11
2.2647401968503935
21
-1.4421822047244095
0
LINE
8
BLACK
6
CONTINUOUS
10
2.2647401968503935
20
-1.4421822047244095
11
2.2601124409448818
21
-1.45126468503937
0
LINE
8
BLACK
6
CONTINUOUS
10
2.2601124409448818
20
-1.45126468503937
11
2.254120866141732
21
-1.4595113779527558
0
LINE
8
BLACK
6
CONTINUOUS
10
2.254120866141732
20
-1.4595113779527558
11
2.2469129527559053
21
-1.4667192913385827
0
LINE
8
BLACK
6
CONTINUOUS
10
2.2469129527559053
20
-1.4667192913385827
11
2.2386662598425198
21
-1.4727108661417323
0
LINE
8
BLACK
6
CONTINUOUS
10
2.2386662598425198
20
-1.4727108661417323
11
2.2295837795275588
21
-1.477338622047244
0
LINE
8
BLACK
6
CONTINUOUS
10
2.2295837795275588
20
-1.477338622047244
11
2.2198891732283466
21
-1.4804885826771652
0
LINE
8
BLACK
6
CONTINUOUS
10
2.2198891732283466
20
-1.4804885826771652
11
2.2098211811023623
21
-1.4820832283464567
0
LINE
8
BLACK
6
CONTINUOUS
10
2.2098211811023623
20
-1.4820832283464567
11
2.1996276377952757
21
-1.4820832283464567
0
LINE
8
BLACK
6
CONTINUOUS
10
2.1996276377952757
20
-1.4820832283464567
11
2.1895596456692914
21
-1.4804885826771652
0
LINE
8
BLACK
6
CONTINUOUS
10
2.1895596456692914
20
-1.4804885826771652
11
2.1798650393700787
21
-1.477338622047244
0
LINE
8
BLACK
6
CONTINUOUS
10
2.1798650393700787
20
-1.477338622047244
11
2.1707825590551182
21
-1.4727108661417323
0
LINE
8
BLACK
6
CONTINUOUS
10
2.1707825590551182
20
-1.4727108661417323
11
2.1625358661417322
21
-1.4667192913385827
0
LINE
8
BLACK
6
CONTINUOUS
10
2.1625358661417322
20
-1.4667192913385827
11
2.1553279527559055
21
-1.4595113779527558
0
LINE
8
BLACK
6
CONTINUOUS
10
2.1553279527559055
20
-1.4595113779527558
11
2.1493363779527557
21
-1.45126468503937
0
LINE
8
BLACK
6
CONTINUOUS
10
2.1493363779527557
20
-1.45126468503937
11
2.144708622047244
21
-1.4421822047244095
0
LINE
8
BLACK
6
CONTINUOUS
10
2.144708622047244
20
-1.4421822047244095
11
2.141558661417323
21
-1.4324875984251968
0
LINE
8
BLACK
6
CONTINUOUS
10
2.141558661417323
20
-1.4324875984251968
11
2.1399640157480313
21
-1.4224196062992125
0
LINE
8
BLACK
6
CONTINUOUS
10
2.1399640157480313
20
-1.4224196062992125
11
2.1399640157480313
21
-1.412520157480315
0
LINE
8
BLACK
6
CONTINUOUS
10
2.1399640157480313
20
-1.412520157480315
11
2.1399640157480313
21
-1.4122260629921259
0
LINE
8
BLACK
6
CONTINUOUS
10
2.1399640157480313
20
-1.4122260629921259
11
2.141558661417323
21
-1.4021580708661416
0
LINE
8
BLACK
6
CONTINUOUS
10
2.141558661417323
20
-1.4021580708661416
11
2.144708622047244
21
-1.3924634645669292
0
LINE
8
BLACK
6
CONTINUOUS
10
2.144708622047244
20
-1.3924634645669292
11
2.1493363779527557
21
-1.3833809842519684
0
LINE
8
BLACK
6
CONTINUOUS
10
2.1493363779527557
20
-1.3833809842519684
11
2.1553279527559055
21
-1.3751342913385827
0
LINE
8
BLACK
6
CONTINUOUS
10
2.1553279527559055
20
-1.3751342913385827
11
2.1625358661417322
21
-1.367926377952756
0
LINE
8
BLACK
6
CONTINUOUS
10
2.1625358661417322
20
-1.367926377952756
11
2.1707825590551182
21
-1.3619348031496064
0
LINE
8
BLACK
6
CONTINUOUS
10
2.1707825590551182
20
-1.3619348031496064
11
2.1798650393700787
21
-1.3573070472440945
0
LINE
8
BLACK
6
CONTINUOUS
10
2.1798650393700787
20
-1.3573070472440945
11
2.1895596456692914
21
-1.3541570866141732
0
LINE
8
BLACK
6
CONTINUOUS
10
2.1895596456692914
20
-1.3541570866141732
11
2.1996276377952757
21
-1.3525624409448818
0
LINE
8
BLACK
6
CONTINUOUS
10
2.1996276377952757
20
-1.3525624409448818
11
2.2098211811023623
21
-1.3525624409448818
0
LINE
8
BLACK
6
CONTINUOUS
10
2.2098211811023623
20
-1.3525624409448818
11
2.2198891732283466
21
-1.3541570866141732
0
LINE
8
BLACK
6
CONTINUOUS
10
2.1437007874015745
20
-1.4221255118110236
11
2.1452033858267714
21
-1.4316125590551181
0
LINE
8
BLACK
6
CONTINUOUS
10
2.1452033858267714
20
-1.4316125590551181
11
2.1481716141732283
21
-1.4407477952755905
0
LINE
8
BLACK
6
CONTINUOUS
10
2.1481716141732283
20
-1.4407477952755905
11
2.1525323228346456
21
-1.4493061811023622
0
LINE
8
BLACK
6
CONTINUOUS
10
2.1525323228346456
20
-1.4493061811023622
11
2.158178188976378
21
-1.4570770472440944
0
LINE
8
BLACK
6
CONTINUOUS
10
2.158178188976378
20
-1.4570770472440944
11
2.1649701968503936
21
-1.4638690551181102
0
LINE
8
BLACK
6
CONTINUOUS
10
2.1649701968503936
20
-1.4638690551181102
11
2.172741062992126
21
-1.4695149212598424
0
LINE
8
BLACK
6
CONTINUOUS
10
2.172741062992126
20
-1.4695149212598424
11
2.1812994488188977
21
-1.4738756299212599
0
LINE
8
BLACK
6
CONTINUOUS
10
2.1812994488188977
20
-1.4738756299212599
11
2.1904346850393699
21
-1.4768438582677166
0
LINE
8
BLACK
6
CONTINUOUS
10
2.1904346850393699
20
-1.4768438582677166
11
2.1999217322834643
21
-1.4783464566929134
0
LINE
8
BLACK
6
CONTINUOUS
10
2.1999217322834643
20
-1.4783464566929134
11
2.2095270866141732
21
-1.4783464566929134
0
LINE
8
BLACK
6
CONTINUOUS
10
2.2095270866141732
20
-1.4783464566929134
11
2.2190141338582676
21
-1.4768438582677166
0
LINE
8
BLACK
6
CONTINUOUS
10
2.2190141338582676
20
-1.4768438582677166
11
2.2281493700787403
21
-1.4738756299212599
0
LINE
8
BLACK
6
CONTINUOUS
10
2.2281493700787403
20
-1.4738756299212599
11
2.236707755905512
21
-1.4695149212598424
0
LINE
8
BLACK
6
CONTINUOUS
10
2.236707755905512
20
-1.4695149212598424
11
2.2444786220472439
21
-1.4638690551181102
0
LINE
8
BLACK
6
CONTINUOUS
10
2.2444786220472439
20
-1.4638690551181102
11
2.2512706299212599
21
-1.4570770472440944
0
LINE
8
BLACK
6
CONTINUOUS
10
2.2512706299212599
20
-1.4570770472440944
11
2.2569164960629919
21
-1.4493061811023622
0
LINE
8
BLACK
6
CONTINUOUS
10
2.2569164960629919
20
-1.4493061811023622
11
2.2612772047244092
21
-1.4407477952755905
0
LINE
8
BLACK
6
CONTINUOUS
10
2.2612772047244092
20
-1.4407477952755905
11
2.2642454330708661
21
-1.4316125590551181
0
LINE
8
BLACK
6
CONTINUOUS
10
2.2642454330708661
20
-1.4316125590551181
11
2.265748031496063
21
-1.4221255118110236
0
LINE
8
BLACK
6
CONTINUOUS
10
2.265748031496063
20
-1.4221255118110236
11
2.265748031496063
21
-1.412520157480315
0
LINE
8
BLACK
6
CONTINUOUS
10
2.265748031496063
20
-1.412520157480315
11
2.2642454330708661
21
-1.4030331102362203
0
LINE
8
BLACK
6
CONTINUOUS
10
2.2642454330708661
20
-1.4030331102362203
11
2.2612772047244092
21
-1.3938978740157479
0
LINE
8
BLACK
6
CONTINUOUS
10
2.2612772047244092
20
-1.3938978740157479
11
2.2569164960629919
21
-1.3853394881889765
0
LINE
8
BLACK
6
CONTINUOUS
10
2.2569164960629919
20
-1.3853394881889765
11
2.2512706299212599
21
-1.3775686220472441
0
LINE
8
BLACK
6
CONTINUOUS
10
2.2512706299212599
20
-1.3775686220472441
11
2.2444786220472439
21
-1.3707766141732283
0
LINE
8
BLACK
6
CONTINUOUS
10
2.2444786220472439
20
-1.3707766141732283
11
2.236707755905512
21
-1.365130748031496
0
LINE
8
BLACK
6
CONTINUOUS
10
2.236707755905512
20
-1.365130748031496
11
2.2281493700787403
21
-1.3607700393700788
0
LINE
8
BLACK
6
CONTINUOUS
10
2.2281493700787403
20
-1.3607700393700788
11
2.2190141338582676
21
-1.3578018110236221
0
LINE
8
BLACK
6
CONTINUOUS
10
2.2190141338582676
20
-1.3578018110236221
11
2.2095270866141732
21
-1.3562992125984252
0
LINE
8
BLACK
6
CONTINUOUS
10
2.2095270866141732
20
-1.3562992125984252
11
2.1999217322834643
21
-1.3562992125984252
0
LINE
8
BLACK
6
CONTINUOUS
10
2.1999217322834643
20
-1.3562992125984252
11
2.1904346850393699
21
-1.3578018110236221
0
LINE
8
BLACK
6
CONTINUOUS
10
2.1904346850393699
20
-1.3578018110236221
11
2.1812994488188977
21
-1.3607700393700788
0
LINE
8
BLACK
6
CONTINUOUS
10
2.1812994488188977
20
-1.3607700393700788
11
2.172741062992126
21
-1.365130748031496
0
LINE
8
BLACK
6
CONTINUOUS
10
2.172741062992126
20
-1.365130748031496
11
2.1649701968503936
21
-1.3707766141732283
0
LINE
8
BLACK
6
CONTINUOUS
10
2.1649701968503936
20
-1.3707766141732283
11
2.158178188976378
21
-1.3775686220472441
0
LINE
8
BLACK
6
CONTINUOUS
10
2.158178188976378
20
-1.3775686220472441
11
2.1525323228346456
21
-1.3853394881889765
0
LINE
8
BLACK
6
CONTINUOUS
10
2.1525323228346456
20
-1.3853394881889765
11
2.1481716141732283
21
-1.3938978740157479
0
LINE
8
BLACK
6
CONTINUOUS
10
2.1481716141732283
20
-1.3938978740157479
11
2.1452033858267714
21
-1.4030331102362203
0
LINE
8
BLACK
6
CONTINUOUS
10
2.1452033858267714
20
-1.4030331102362203
11
2.1437007874015745
21
-1.412520157480315
0
LINE
8
BLACK
6
CONTINUOUS
10
2.1437007874015745
20
-1.412520157480315
11
2.1437007874015745
21
-1.4221255118110236
0
LINE
8
BLACK
6
CONTINUOUS
10
7.8102105905511809
20
-1.3551141338582677
11
7.8197583070866141
21
-1.3582163779527558
0
LINE
8
BLACK
6
CONTINUOUS
10
7.8197583070866141
20
-1.3582163779527558
11
7.8287031496062989
21
-1.3627740157480315
0
LINE
8
BLACK
6
CONTINUOUS
10
7.8287031496062989
20
-1.3627740157480315
11
7.8368249212598426
21
-1.3686748031496063
0
LINE
8
BLACK
6
CONTINUOUS
10
7.8368249212598426
20
-1.3686748031496063
11
7.8439236220472441
21
-1.3757735039370078
0
LINE
8
BLACK
6
CONTINUOUS
10
7.8439236220472441
20
-1.3757735039370078
11
7.8498244094488188
21
-1.3838952755905511
0
LINE
8
BLACK
6
CONTINUOUS
10
7.8498244094488188
20
-1.3838952755905511
11
7.8543820472440942
21
-1.3928401181102361
0
LINE
8
BLACK
6
CONTINUOUS
10
7.8543820472440942
20
-1.3928401181102361
11
7.8574842913385821
21
-1.4023878346456693
0
LINE
8
BLACK
6
CONTINUOUS
10
7.8574842913385821
20
-1.4023878346456693
11
7.8590547637795272
21
-1.4123033070866142
0
LINE
8
BLACK
6
CONTINUOUS
10
7.8590547637795272
20
-1.4123033070866142
11
7.8590547637795272
21
-1.4223423622047244
0
LINE
8
BLACK
6
CONTINUOUS
10
7.8590547637795272
20
-1.4223423622047244
11
7.8574842913385821
21
-1.4322578346456694
0
LINE
8
BLACK
6
CONTINUOUS
10
7.8574842913385821
20
-1.4322578346456694
11
7.8543820472440942
21
-1.4418055511811023
0
LINE
8
BLACK
6
CONTINUOUS
10
7.8543820472440942
20
-1.4418055511811023
11
7.8498244094488188
21
-1.4507503937007873
0
LINE
8
BLACK
6
CONTINUOUS
10
7.8498244094488188
20
-1.4507503937007873
11
7.8439236220472441
21
-1.4588721653543306
0
LINE
8
BLACK
6
CONTINUOUS
10
7.8439236220472441
20
-1.4588721653543306
11
7.8368249212598426
21
-1.4659708661417323
0
LINE
8
BLACK
6
CONTINUOUS
10
7.8368249212598426
20
-1.4659708661417323
11
7.8287031496062989
21
-1.471871653543307
0
LINE
8
BLACK
6
CONTINUOUS
10
7.8287031496062989
20
-1.471871653543307
11
7.8197583070866141
21
-1.4764292913385826
0
LINE
8
BLACK
6
CONTINUOUS
10
7.8197583070866141
20
-1.4764292913385826
11
7.8102105905511809
21
-1.4795315354330709
0
LINE
8
BLACK
6
CONTINUOUS
10
7.8102105905511809
20
-1.4795315354330709
11
7.8002951181102365
21
-1.4811020078740158
0
LINE
8
BLACK
6
CONTINUOUS
10
7.8002951181102365
20
-1.4811020078740158
11
7.7902560629921256
21
-1.4811020078740158
0
LINE
8
BLACK
6
CONTINUOUS
10
7.7902560629921256
20
-1.4811020078740158
11
7.7803405905511811
21
-1.4795315354330709
0
LINE
8
BLACK
6
CONTINUOUS
10
7.7803405905511811
20
-1.4795315354330709
11
7.7707928740157479
21
-1.4764292913385826
0
LINE
8
BLACK
6
CONTINUOUS
10
7.7707928740157479
20
-1.4764292913385826
11
7.7618480314960632
21
-1.471871653543307
0
LINE
8
BLACK
6
CONTINUOUS
10
7.7618480314960632
20
-1.471871653543307
11
7.7537262598425194
21
-1.4659708661417323
0
LINE
8
BLACK
6
CONTINUOUS
10
7.7537262598425194
20
-1.4659708661417323
11
7.7466275590551179
21
-1.4588721653543306
0
LINE
8
BLACK
6
CONTINUOUS
10
7.7466275590551179
20
-1.4588721653543306
11
7.7407267716535433
21
-1.4507503937007873
0
LINE
8
BLACK
6
CONTINUOUS
10
7.7407267716535433
20
-1.4507503937007873
11
7.7361691338582679
21
-1.4418055511811023
0
LINE
8
BLACK
6
CONTINUOUS
10
7.7361691338582679
20
-1.4418055511811023
11
7.7330668897637791
21
-1.4322578346456694
0
LINE
8
BLACK
6
CONTINUOUS
10
7.7330668897637791
20
-1.4322578346456694
11
7.7314964173228349
21
-1.4223423622047244
0
LINE
8
BLACK
6
CONTINUOUS
10
7.7314964173228349
20
-1.4223423622047244
11
7.7314964173228349
21
-1.412442716535433
0
LINE
8
BLACK
6
CONTINUOUS
10
7.7314964173228349
20
-1.412442716535433
11
7.7314964173228349
21
-1.4123033070866142
0
LINE
8
BLACK
6
CONTINUOUS
10
7.7314964173228349
20
-1.4123033070866142
11
7.7330668897637791
21
-1.4023878346456693
0
LINE
8
BLACK
6
CONTINUOUS
10
7.7330668897637791
20
-1.4023878346456693
11
7.7361691338582679
21
-1.3928401181102361
0
LINE
8
BLACK
6
CONTINUOUS
10
7.7361691338582679
20
-1.3928401181102361
11
7.7407267716535433
21
-1.3838952755905511
0
LINE
8
BLACK
6
CONTINUOUS
10
7.7407267716535433
20
-1.3838952755905511
11
7.7466275590551179
21
-1.3757735039370078
0
LINE
8
BLACK
6
CONTINUOUS
10
7.7466275590551179
20
-1.3757735039370078
11
7.7537262598425194
21
-1.3686748031496063
0
LINE
8
BLACK
6
CONTINUOUS
10
7.7537262598425194
20
-1.3686748031496063
11
7.7618480314960632
21
-1.3627740157480315
0
LINE
8
BLACK
6
CONTINUOUS
10
7.7618480314960632
20
-1.3627740157480315
11
7.7707928740157479
21
-1.3582163779527558
0
LINE
8
BLACK
6
CONTINUOUS
10
7.7707928740157479
20
-1.3582163779527558
11
7.7803405905511811
21
-1.3551141338582677
0
LINE
8
BLACK
6
CONTINUOUS
10
7.7803405905511811
20
-1.3551141338582677
11
7.7902560629921256
21
-1.3535436614173229
0
LINE
8
BLACK
6
CONTINUOUS
10
7.7902560629921256
20
-1.3535436614173229
11
7.8002951181102365
21
-1.3535436614173229
0
LINE
8
BLACK
6
CONTINUOUS
10
7.8002951181102365
20
-1.3535436614173229
11
7.8102105905511809
21
-1.3551141338582677
0
LINE
8
BLACK
6
CONTINUOUS
10
7.7332677165354333
20
-1.4222029527559055
11
7.7347945669291338
21
-1.4318430314960631
0
LINE
8
BLACK
6
CONTINUOUS
10
7.7347945669291338
20
-1.4318430314960631
11
7.7378106299212597
21
-1.4411255905511811
0
LINE
8
BLACK
6
CONTINUOUS
10
7.7378106299212597
20
-1.4411255905511811
11
7.7422416929133853
21
-1.4498220472440944
0
LINE
8
BLACK
6
CONTINUOUS
10
7.7422416929133853
20
-1.4498220472440944
11
7.7479786220472437
21
-1.4577182283464567
0
LINE
8
BLACK
6
CONTINUOUS
10
7.7479786220472437
20
-1.4577182283464567
11
7.7548801968503938
21
-1.4646198031496063
0
LINE
8
BLACK
6
CONTINUOUS
10
7.7548801968503938
20
-1.4646198031496063
11
7.7627763779527559
21
-1.4703567322834645
0
LINE
8
BLACK
6
CONTINUOUS
10
7.7627763779527559
20
-1.4703567322834645
11
7.7714728346456692
21
-1.4747877952755906
0
LINE
8
BLACK
6
CONTINUOUS
10
7.7714728346456692
20
-1.4747877952755906
11
7.7807553937007876
21
-1.4778038582677164
0
LINE
8
BLACK
6
CONTINUOUS
10
7.7807553937007876
20
-1.4778038582677164
11
7.7903954724409443
21
-1.4793307086614174
0
LINE
8
BLACK
6
CONTINUOUS
10
7.7903954724409443
20
-1.4793307086614174
11
7.8001557086614168
21
-1.4793307086614174
0
LINE
8
BLACK
6
CONTINUOUS
10
7.8001557086614168
20
-1.4793307086614174
11
7.8097957874015744
21
-1.4778038582677164
0
LINE
8
BLACK
6
CONTINUOUS
10
7.8097957874015744
20
-1.4778038582677164
11
7.8190783464566929
21
-1.4747877952755906
0
LINE
8
BLACK
6
CONTINUOUS
10
7.8190783464566929
20
-1.4747877952755906
11
7.8277748031496062
21
-1.4703567322834645
0
LINE
8
BLACK
6
CONTINUOUS
10
7.8277748031496062
20
-1.4703567322834645
11
7.8356709842519683
21
-1.4646198031496063
0
LINE
8
BLACK
6
CONTINUOUS
10
7.8356709842519683
20
-1.4646198031496063
11
7.8425725590551183
21
-1.4577182283464567
0
LINE
8
BLACK
6
CONTINUOUS
10
7.8425725590551183
20
-1.4577182283464567
11
7.8483094881889759
21
-1.4498220472440944
0
LINE
8
BLACK
6
CONTINUOUS
10
7.8483094881889759
20
-1.4498220472440944
11
7.8527405511811024
21
-1.4411255905511811
0
LINE
8
BLACK
6
CONTINUOUS
10
7.8527405511811024
20
-1.4411255905511811
11
7.8557566141732282
21
-1.4318430314960631
0
LINE
8
BLACK
6
CONTINUOUS
10
7.8557566141732282
20
-1.4318430314960631
11
7.8572834645669287
21
-1.4222029527559055
0
LINE
8
BLACK
6
CONTINUOUS
10
7.8572834645669287
20
-1.4222029527559055
11
7.8572834645669287
21
-1.412442716535433
0
LINE
8
BLACK
6
CONTINUOUS
10
7.8572834645669287
20
-1.412442716535433
11
7.8557566141732282
21
-1.4028026377952756
0
LINE
8
BLACK
6
CONTINUOUS
10
7.8557566141732282
20
-1.4028026377952756
11
7.8527405511811024
21
-1.3935200787401574
0
LINE
8
BLACK
6
CONTINUOUS
10
7.8527405511811024
20
-1.3935200787401574
11
7.8483094881889759
21
-1.3848236220472441
0
LINE
8
BLACK
6
CONTINUOUS
10
7.8483094881889759
20
-1.3848236220472441
11
7.8425725590551183
21
-1.376927440944882
0
LINE
8
BLACK
6
CONTINUOUS
10
7.8425725590551183
20
-1.376927440944882
11
7.8356709842519683
21
-1.3700258661417322
0
LINE
8
BLACK
6
CONTINUOUS
10
7.8356709842519683
20
-1.3700258661417322
11
7.8277748031496062
21
-1.3642889370078739
0
LINE
8
BLACK
6
CONTINUOUS
10
7.8277748031496062
20
-1.3642889370078739
11
7.8190783464566929
21
-1.3598578740157481
0
LINE
8
BLACK
6
CONTINUOUS
10
7.8190783464566929
20
-1.3598578740157481
11
7.8097957874015744
21
-1.356841811023622
0
LINE
8
BLACK
6
CONTINUOUS
10
7.8097957874015744
20
-1.356841811023622
11
7.8001557086614168
21
-1.3553149606299213
0
LINE
8
BLACK
6
CONTINUOUS
10
7.8001557086614168
20
-1.3553149606299213
11
7.7903954724409443
21
-1.3553149606299213
0
LINE
8
BLACK
6
CONTINUOUS
10
7.7903954724409443
20
-1.3553149606299213
11
7.7807553937007876
21
-1.356841811023622
0
LINE
8
BLACK
6
CONTINUOUS
10
7.7807553937007876
20
-1.356841811023622
11
7.7714728346456692
21
-1.3598578740157481
0
LINE
8
BLACK
6
CONTINUOUS
10
7.7714728346456692
20
-1.3598578740157481
11
7.7627763779527559
21
-1.3642889370078739
0
LINE
8
BLACK
6
CONTINUOUS
10
7.7627763779527559
20
-1.3642889370078739
11
7.7548801968503938
21
-1.3700258661417322
0
LINE
8
BLACK
6
CONTINUOUS
10
7.7548801968503938
20
-1.3700258661417322
11
7.7479786220472437
21
-1.376927440944882
0
LINE
8
BLACK
6
CONTINUOUS
10
7.7479786220472437
20
-1.376927440944882
11
7.7422416929133853
21
-1.3848236220472441
0
LINE
8
BLACK
6
CONTINUOUS
10
7.7422416929133853
20
-1.3848236220472441
11
7.7378106299212597
21
-1.3935200787401574
0
LINE
8
BLACK
6
CONTINUOUS
10
7.7378106299212597
20
-1.3935200787401574
11
7.7347945669291338
21
-1.4028026377952756
0
LINE
8
BLACK
6
CONTINUOUS
10
7.7347945669291338
20
-1.4028026377952756
11
7.7332677165354333
21
-1.412442716535433
0
LINE
8
BLACK
6
CONTINUOUS
10
7.7332677165354333
20
-1.412442716535433
11
7.7332677165354333
21
-1.4222029527559055
0
LINE
8
BLACK
6
CONTINUOUS
10
13.4401318503937013
20
-1.3551141338582677
11
13.4496795669291327
21
-1.3582163779527558
0
LINE
8
BLACK
6
CONTINUOUS
10
13.4496795669291327
20
-1.3582163779527558
11
13.4586244094488183
21
-1.3627740157480315
0
LINE
8
BLACK
6
CONTINUOUS
10
13.4586244094488183
20
-1.3627740157480315
11
13.4667461811023621
21
-1.3686748031496063
0
LINE
8
BLACK
6
CONTINUOUS
10
13.4667461811023621
20
-1.3686748031496063
11
13.4738448818897627
21
-1.3757735039370078
0
LINE
8
BLACK
6
CONTINUOUS
10
13.4738448818897627
20
-1.3757735039370078
11
13.4797456692913382
21
-1.3838952755905511
0
LINE
8
BLACK
6
CONTINUOUS
10
13.4797456692913382
20
-1.3838952755905511
11
13.4843033070866145
21
-1.3928401181102361
0
LINE
8
BLACK
6
CONTINUOUS
10
13.4843033070866145
20
-1.3928401181102361
11
13.4874055511811015
21
-1.4023878346456693
0
LINE
8
BLACK
6
CONTINUOUS
10
13.4874055511811015
20
-1.4023878346456693
11
13.4889760236220475
21
-1.4123033070866142
0
LINE
8
BLACK
6
CONTINUOUS
10
13.4889760236220475
20
-1.4123033070866142
11
13.4889760236220475
21
-1.4223423622047244
0
LINE
8
BLACK
6
CONTINUOUS
10
13.4889760236220475
20
-1.4223423622047244
11
13.4874055511811015
21
-1.4322578346456694
0
LINE
8
BLACK
6
CONTINUOUS
10
13.4874055511811015
20
-1.4322578346456694
11
13.4843033070866145
21
-1.4418055511811023
0
LINE
8
BLACK
6
CONTINUOUS
10
13.4843033070866145
20
-1.4418055511811023
11
13.4797456692913382
21
-1.4507503937007873
0
LINE
8
BLACK
6
CONTINUOUS
10
13.4797456692913382
20
-1.4507503937007873
11
13.4738448818897627
21
-1.4588721653543306
0
LINE
8
BLACK
6
CONTINUOUS
10
13.4738448818897627
20
-1.4588721653543306
11
13.4667461811023621
21
-1.4659708661417323
0
LINE
8
BLACK
6
CONTINUOUS
10
13.4667461811023621
20
-1.4659708661417323
11
13.4586244094488183
21
-1.471871653543307
0
LINE
8
BLACK
6
CONTINUOUS
10
13.4586244094488183
20
-1.471871653543307
11
13.4496795669291327
21
-1.4764292913385826
0
LINE
8
BLACK
6
CONTINUOUS
10
13.4496795669291327
20
-1.4764292913385826
11
13.4401318503937013
21
-1.4795315354330709
0
LINE
8
BLACK
6
CONTINUOUS
10
13.4401318503937013
20
-1.4795315354330709
11
13.430216377952755
21
-1.4811020078740158
0
LINE
8
BLACK
6
CONTINUOUS
10
13.430216377952755
20
-1.4811020078740158
11
13.420177322834645
21
-1.4811020078740158
0
LINE
8
BLACK
6
CONTINUOUS
10
13.420177322834645
20
-1.4811020078740158
11
13.4102618503937006
21
-1.4795315354330709
0
LINE
8
BLACK
6
CONTINUOUS
10
13.4102618503937006
20
-1.4795315354330709
11
13.4007141338582674
21
-1.4764292913385826
0
LINE
8
BLACK
6
CONTINUOUS
10
13.4007141338582674
20
-1.4764292913385826
11
13.3917692913385817
21
-1.471871653543307
0
LINE
8
BLACK
6
CONTINUOUS
10
13.3917692913385817
20
-1.471871653543307
11
13.3836475196850397
21
-1.4659708661417323
0
LINE
8
BLACK
6
CONTINUOUS
10
13.3836475196850397
20
-1.4659708661417323
11
13.3765488188976374
21
-1.4588721653543306
0
LINE
8
BLACK
6
CONTINUOUS
10
13.3765488188976374
20
-1.4588721653543306
11
13.3706480314960618
21
-1.4507503937007873
0
LINE
8
BLACK
6
CONTINUOUS
10
13.3706480314960618
20
-1.4507503937007873
11
13.3660903937007873
21
-1.4418055511811023
0
LINE
8
BLACK
6
CONTINUOUS
10
13.3660903937007873
20
-1.4418055511811023
11
13.3629881496062985
21
-1.4322578346456694
0
LINE
8
BLACK
6
CONTINUOUS
10
13.3629881496062985
20
-1.4322578346456694
11
13.3614176771653543
21
-1.4223423622047244
0
LINE
8
BLACK
6
CONTINUOUS
10
13.3614176771653543
20
-1.4223423622047244
11
13.3614176771653543
21
-1.412442716535433
0
LINE
8
BLACK
6
CONTINUOUS
10
13.3614176771653543
20
-1.412442716535433
11
13.3614176771653543
21
-1.4123033070866142
0
LINE
8
BLACK
6
CONTINUOUS
10
13.3614176771653543
20
-1.4123033070866142
11
13.3629881496062985
21
-1.4023878346456693
0
LINE
8
BLACK
6
CONTINUOUS
10
13.3629881496062985
20
-1.4023878346456693
11
13.3660903937007873
21
-1.3928401181102361
0
LINE
8
BLACK
6
CONTINUOUS
10
13.3660903937007873
20
-1.3928401181102361
11
13.3706480314960618
21
-1.3838952755905511
0
LINE
8
BLACK
6
CONTINUOUS
10
13.3706480314960618
20
-1.3838952755905511
11
13.3765488188976374
21
-1.3757735039370078
0
LINE
8
BLACK
6
CONTINUOUS
10
13.3765488188976374
20
-1.3757735039370078
11
13.3836475196850397
21
-1.3686748031496063
0
LINE
8
BLACK
6
CONTINUOUS
10
13.3836475196850397
20
-1.3686748031496063
11
13.3917692913385817
21
-1.3627740157480315
0
LINE
8
BLACK
6
CONTINUOUS
10
13.3917692913385817
20
-1.3627740157480315
11
13.4007141338582674
21
-1.3582163779527558
0
LINE
8
BLACK
6
CONTINUOUS
10
13.4007141338582674
20
-1.3582163779527558
11
13.4102618503937006
21
-1.3551141338582677
0
LINE
8
BLACK
6
CONTINUOUS
10
13.4102618503937006
20
-1.3551141338582677
11
13.420177322834645
21
-1.3535436614173229
0
LINE
8
BLACK
6
CONTINUOUS
10
13.420177322834645
20
-1.3535436614173229
11
13.430216377952755
21
-1.3535436614173229
0
LINE
8
BLACK
6
CONTINUOUS
10
13.430216377952755
20
-1.3535436614173229
11
13.4401318503937013
21
-1.3551141338582677
0
LINE
8
BLACK
6
CONTINUOUS
10
13.3631889763779519
20
-1.4222029527559055
11
13.3647158267716524
21
-1.4318430314960631
0
LINE
8
BLACK
6
CONTINUOUS
10
13.3647158267716524
20
-1.4318430314960631
11
13.36773188976378
21
-1.4411255905511811
0
LINE
8
BLACK
6
CONTINUOUS
10
13.36773188976378
20
-1.4411255905511811
11
13.3721629527559056
21
-1.4498220472440944
0
LINE
8
BLACK
6
CONTINUOUS
10
13.3721629527559056
20
-1.4498220472440944
11
13.3778998818897641
21
-1.4577182283464567
0
LINE
8
BLACK
6
CONTINUOUS
10
13.3778998818897641
20
-1.4577182283464567
11
13.3848014566929123
21
-1.4646198031496063
0
LINE
8
BLACK
6
CONTINUOUS
10
13.3848014566929123
20
-1.4646198031496063
11
13.3926976377952744
21
-1.4703567322834645
0
LINE
8
BLACK
6
CONTINUOUS
10
13.3926976377952744
20
-1.4703567322834645
11
13.4013940944881895
21
-1.4747877952755906
0
LINE
8
BLACK
6
CONTINUOUS
10
13.4013940944881895
20
-1.4747877952755906
11
13.4106766535433071
21
-1.4778038582677164
0
LINE
8
BLACK
6
CONTINUOUS
10
13.4106766535433071
20
-1.4778038582677164
11
13.4203167322834638
21
-1.4793307086614174
0
LINE
8
BLACK
6
CONTINUOUS
10
13.4203167322834638
20
-1.4793307086614174
11
13.4300769685039363
21
-1.4793307086614174
0
LINE
8
BLACK
6
CONTINUOUS
10
13.4300769685039363
20
-1.4793307086614174
11
13.4397170472440948
21
-1.4778038582677164
0
LINE
8
BLACK
6
CONTINUOUS
10
13.4397170472440948
20
-1.4778038582677164
11
13.4489996062992123
21
-1.4747877952755906
0
LINE
8
BLACK
6
CONTINUOUS
10
13.4489996062992123
20
-1.4747877952755906
11
13.4576960629921256
21
-1.4703567322834645
0
LINE
8
BLACK
6
CONTINUOUS
10
13.4576960629921256
20
-1.4703567322834645
11
13.4655922440944877
21
-1.4646198031496063
0
LINE
8
BLACK
6
CONTINUOUS
10
13.4655922440944877
20
-1.4646198031496063
11
13.4724938188976378
21
-1.4577182283464567
0
LINE
8
BLACK
6
CONTINUOUS
10
13.4724938188976378
20
-1.4577182283464567
11
13.4782307480314962
21
-1.4498220472440944
0
LINE
8
BLACK
6
CONTINUOUS
10
13.4782307480314962
20
-1.4498220472440944
11
13.4826618110236218
21
-1.4411255905511811
0
LINE
8
BLACK
6
CONTINUOUS
10
13.4826618110236218
20
-1.4411255905511811
11
13.4856778740157477
21
-1.4318430314960631
0
LINE
8
BLACK
6
CONTINUOUS
10
13.4856778740157477
20
-1.4318430314960631
11
13.4872047244094482
21
-1.4222029527559055
0
LINE
8
BLACK
6
CONTINUOUS
10
13.4872047244094482
20
-1.4222029527559055
11
13.4872047244094482
21
-1.412442716535433
0
LINE
8
BLACK
6
CONTINUOUS
10
13.4872047244094482
20
-1.412442716535433
11
13.4856778740157477
21
-1.4028026377952756
0
LINE
8
BLACK
6
CONTINUOUS
10
13.4856778740157477
20
-1.4028026377952756
11
13.4826618110236218
21
-1.3935200787401574
0
LINE
8
BLACK
6
CONTINUOUS
10
13.4826618110236218
20
-1.3935200787401574
11
13.4782307480314962
21
-1.3848236220472441
0
LINE
8
BLACK
6
CONTINUOUS
10
13.4782307480314962
20
-1.3848236220472441
11
13.4724938188976378
21
-1.376927440944882
0
LINE
8
BLACK
6
CONTINUOUS
10
13.4724938188976378
20
-1.376927440944882
11
13.4655922440944877
21
-1.3700258661417322
0
LINE
8
BLACK
6
CONTINUOUS
10
13.4655922440944877
20
-1.3700258661417322
11
13.4576960629921256
21
-1.3642889370078739
0
LINE
8
BLACK
6
CONTINUOUS
10
13.4576960629921256
20
-1.3642889370078739
11
13.4489996062992123
21
-1.3598578740157481
0
LINE
8
BLACK
6
CONTINUOUS
10
13.4489996062992123
20
-1.3598578740157481
11
13.4397170472440948
21
-1.356841811023622
0
LINE
8
BLACK
6
CONTINUOUS
10
13.4397170472440948
20
-1.356841811023622
11
13.4300769685039363
21
-1.3553149606299213
0
LINE
8
BLACK
6
CONTINUOUS
10
13.4300769685039363
20
-1.3553149606299213
11
13.4203167322834638
21
-1.3553149606299213
0
LINE
8
BLACK
6
CONTINUOUS
10
13.4203167322834638
20
-1.3553149606299213
11
13.4106766535433071
21
-1.356841811023622
0
LINE
8
BLACK
6
CONTINUOUS
10
13.4106766535433071
20
-1.356841811023622
11
13.4013940944881895
21
-1.3598578740157481
0
LINE
8
BLACK
6
CONTINUOUS
10
13.4013940944881895
20
-1.3598578740157481
11
13.3926976377952744
21
-1.3642889370078739
0
LINE
8
BLACK
6
CONTINUOUS
10
13.3926976377952744
20
-1.3642889370078739
11
13.3848014566929123
21
-1.3700258661417322
0
LINE
8
BLACK
6
CONTINUOUS
10
13.3848014566929123
20
-1.3700258661417322
11
13.3778998818897641
21
-1.376927440944882
0
LINE
8
BLACK
6
CONTINUOUS
10
13.3778998818897641
20
-1.376927440944882
11
13.3721629527559056
21
-1.3848236220472441
0
LINE
8
BLACK
6
CONTINUOUS
10
13.3721629527559056
20
-1.3848236220472441
11
13.36773188976378
21
-1.3935200787401574
0
LINE
8
BLACK
6
CONTINUOUS
10
13.36773188976378
20
-1.3935200787401574
11
13.3647158267716524
21
-1.4028026377952756
0
LINE
8
BLACK
6
CONTINUOUS
10
13.3647158267716524
20
-1.4028026377952756
11
13.3631889763779519
21
-1.412442716535433
0
LINE
8
BLACK
6
CONTINUOUS
10
13.3631889763779519
20
-1.412442716535433
11
13.3631889763779519
21
-1.4222029527559055
0
LINE
8
BLACK
6
CONTINUOUS
10
13.4645669291338574
20
-1.1791338582677164
11
13.4809852755905517
21
-1.1798129133858268
0
LINE
8
BLACK
6
CONTINUOUS
10
13.4809852755905517
20
-1.1798129133858268
11
13.4972914566929134
21
-1.1818454724409448
0
LINE
8
BLACK
6
CONTINUOUS
10
13.4972914566929134
20
-1.1818454724409448
11
13.5133740944881886
21
-1.1852176771653542
0
LINE
8
BLACK
6
CONTINUOUS
10
13.5133740944881886
20
-1.1852176771653542
11
13.5291233070866141
21
-1.1899064173228346
0
LINE
8
BLACK
6
CONTINUOUS
10
13.5291233070866141
20
-1.1899064173228346
11
13.5444315748031485
21
-1.1958797244094488
0
LINE
8
BLACK
6
CONTINUOUS
10
13.5444315748031485
20
-1.1958797244094488
11
13.5591942519685045
21
-1.2030967716535432
0
LINE
8
BLACK
6
CONTINUOUS
10
13.5591942519685045
20
-1.2030967716535432
11
13.5733105511811019
21
-1.2115082283464567
0
LINE
8
BLACK
6
CONTINUOUS
10
13.5733105511811019
20
-1.2115082283464567
11
13.5866840157480304
21
-1.2210566929133857
0
LINE
8
BLACK
6
CONTINUOUS
10
13.5866840157480304
20
-1.2210566929133857
11
13.5992233070866142
21
-1.2316769291338583
0
LINE
8
BLACK
6
CONTINUOUS
10
13.5992233070866142
20
-1.2316769291338583
11
13.6108427559055123
21
-1.2432963779527559
0
LINE
8
BLACK
6
CONTINUOUS
10
13.6108427559055123
20
-1.2432963779527559
11
13.6214629921259842
21
-1.2558356692913386
0
LINE
8
BLACK
6
CONTINUOUS
10
13.6214629921259842
20
-1.2558356692913386
11
13.6310114566929137
21
-1.2692091338582676
0
LINE
8
BLACK
6
CONTINUOUS
10
13.6310114566929137
20
-1.2692091338582676
11
13.6394229133858271
21
-1.2833254330708661
0
LINE
8
BLACK
6
CONTINUOUS
10
13.6394229133858271
20
-1.2833254330708661
11
13.6466399606299209
21
-1.2980881102362205
0
LINE
8
BLACK
6
CONTINUOUS
10
13.6466399606299209
20
-1.2980881102362205
11
13.6526132677165357
21
-1.3133963779527558
0
LINE
8
BLACK
6
CONTINUOUS
10
13.6526132677165357
20
-1.3133963779527558
11
13.6573020078740157
21
-1.3291455905511811
0
LINE
8
BLACK
6
CONTINUOUS
10
13.6573020078740157
20
-1.3291455905511811
11
13.6606742125984244
21
-1.3452282283464567
0
LINE
8
BLACK
6
CONTINUOUS
10
13.6606742125984244
20
-1.3452282283464567
11
13.6627067716535429
21
-1.3615344094488189
0
LINE
8
BLACK
6
CONTINUOUS
10
13.6627067716535429
20
-1.3615344094488189
11
13.6633858267716537
21
-1.3779527559055118
0
LINE
8
BLACK
6
CONTINUOUS
10
13.6633858267716537
20
-1.3779527559055118
11
13.6633858267716537
21
-9.2519685039370074
0
LINE
8
BLACK
6
CONTINUOUS
10
13.6633858267716537
20
-9.2519685039370074
11
13.6627067716535429
21
-9.2683868503936999
0
LINE
8
BLACK
6
CONTINUOUS
10
13.6627067716535429
20
-9.2683868503936999
11
13.6606742125984244
21
-9.2846930314960634
0
LINE
8
BLACK
6
CONTINUOUS
10
13.6606742125984244
20
-9.2846930314960634
11
13.6573020078740157
21
-9.3007756692913386
0
LINE
8
BLACK
6
CONTINUOUS
10
13.6573020078740157
20
-9.3007756692913386
11
13.6526132677165357
21
-9.3165248818897641
0
LINE
8
BLACK
6
CONTINUOUS
10
13.6526132677165357
20
-9.3165248818897641
11
13.6466399606299209
21
-9.3318331496062985
0
LINE
8
BLACK
6
CONTINUOUS
10
13.6466399606299209
20
-9.3318331496062985
11
13.6394229133858271
21
-9.3465958267716527
0
LINE
8
BLACK
6
CONTINUOUS
10
13.6394229133858271
20
-9.3465958267716527
11
13.6310114566929137
21
-9.3607121259842518
0
LINE
8
BLACK
6
CONTINUOUS
10
13.6310114566929137
20
-9.3607121259842518
11
13.6214629921259842
21
-9.3740855905511804
0
LINE
8
BLACK
6
CONTINUOUS
10
13.6214629921259842
20
-9.3740855905511804
11
13.6108427559055123
21
-9.3866248818897642
0
LINE
8
BLACK
6
CONTINUOUS
10
13.6108427559055123
20
-9.3866248818897642
11
13.5992233070866142
21
-9.3982443307086605
0
LINE
8
BLACK
6
CONTINUOUS
10
13.5992233070866142
20
-9.3982443307086605
11
13.5866840157480304
21
-9.4088645669291342
0
LINE
8
BLACK
6
CONTINUOUS
10
13.5866840157480304
20
-9.4088645669291342
11
13.5733105511811019
21
-9.4184130314960619
0
LINE
8
BLACK
6
CONTINUOUS
10
13.5733105511811019
20
-9.4184130314960619
11
13.5591942519685045
21
-9.4268244881889753
0
LINE
8
BLACK
6
CONTINUOUS
10
13.5591942519685045
20
-9.4268244881889753
11
13.5444315748031485
21
-9.4340415354330709
0
LINE
8
BLACK
6
CONTINUOUS
10
13.5444315748031485
20
-9.4340415354330709
11
13.5291233070866141
21
-9.4400148425196857
0
LINE
8
BLACK
6
CONTINUOUS
10
13.5291233070866141
20
-9.4400148425196857
11
13.5133740944881886
21
-9.4447035826771657
0
LINE
8
BLACK
6
CONTINUOUS
10
13.5133740944881886
20
-9.4447035826771657
11
13.4972914566929134
21
-9.4480757874015744
0
LINE
8
BLACK
6
CONTINUOUS
10
13.4972914566929134
20
-9.4480757874015744
11
13.4809852755905517
21
-9.4501083464566928
0
LINE
8
BLACK
6
CONTINUOUS
10
13.4809852755905517
20
-9.4501083464566928
11
13.4645669291338574
21
-9.4507874015748037
0
LINE
8
BLACK
6
CONTINUOUS
10
13.4645669291338574
20
-9.4507874015748037
11
2.1653543307086616
21
-9.4507874015748037
0
LINE
8
BLACK
6
CONTINUOUS
10
2.1653543307086616
20
-9.4507874015748037
11
2.1489359842519686
21
-9.4501083464566928
0
LINE
8
BLACK
6
CONTINUOUS
10
2.1489359842519686
20
-9.4501083464566928
11
2.132629803149606
21
-9.4480757874015744
0
LINE
8
BLACK
6
CONTINUOUS
10
2.132629803149606
20
-9.4480757874015744
11
2.1165471653543309
21
-9.4447035826771657
0
LINE
8
BLACK
6
CONTINUOUS
10
2.1165471653543309
20
-9.4447035826771657
11
2.1007979527559053
21
-9.4400148425196857
0
LINE
8
BLACK
6
CONTINUOUS
10
2.1007979527559053
20
-9.4400148425196857
11
2.08548968503937
21
-9.4340415354330709
0
LINE
8
BLACK
6
CONTINUOUS
10
2.08548968503937
20
-9.4340415354330709
11
2.0707270078740159
21
-9.4268244881889753
0
LINE
8
BLACK
6
CONTINUOUS
10
2.0707270078740159
20
-9.4268244881889753
11
2.0566107086614172
21
-9.4184130314960619
0
LINE
8
BLACK
6
CONTINUOUS
10
2.0566107086614172
20
-9.4184130314960619
11
2.0432372440944881
21
-9.4088645669291342
0
LINE
8
BLACK
6
CONTINUOUS
10
2.0432372440944881
20
-9.4088645669291342
11
2.0306979527559053
21
-9.3982443307086605
0
LINE
8
BLACK
6
CONTINUOUS
10
2.0306979527559053
20
-9.3982443307086605
11
2.0190785039370076
21
-9.3866248818897642
0
LINE
8
BLACK
6
CONTINUOUS
10
2.0190785039370076
20
-9.3866248818897642
11
2.0084582677165352
21
-9.3740855905511804
0
LINE
8
BLACK
6
CONTINUOUS
10
2.0084582677165352
20
-9.3740855905511804
11
1.9989098031496062
21
-9.3607121259842518
0
LINE
8
BLACK
6
CONTINUOUS
10
1.9989098031496062
20
-9.3607121259842518
11
1.9904983464566928
21
-9.3465958267716527
0
LINE
8
BLACK
6
CONTINUOUS
10
1.9904983464566928
20
-9.3465958267716527
11
1.9832812992125983
21
-9.3318331496062985
0
LINE
8
BLACK
6
CONTINUOUS
10
1.9832812992125983
20
-9.3318331496062985
11
1.9773079921259842
21
-9.3165248818897641
0
LINE
8
BLACK
6
CONTINUOUS
10
1.9773079921259842
20
-9.3165248818897641
11
1.972619251968504
21
-9.3007756692913386
0
LINE
8
BLACK
6
CONTINUOUS
10
1.972619251968504
20
-9.3007756692913386
11
1.9692470472440944
21
-9.2846930314960634
0
LINE
8
BLACK
6
CONTINUOUS
10
1.9692470472440944
20
-9.2846930314960634
11
1.9672144881889764
21
-9.2683868503936999
0
LINE
8
BLACK
6
CONTINUOUS
10
1.9672144881889764
20
-9.2683868503936999
11
1.9665354330708662
21
-9.2519685039370074
0
LINE
8
BLACK
6
CONTINUOUS
10
1.9665354330708662
20
-9.2519685039370074
11
1.9665354330708662
21
-1.3779527559055118
0
LINE
8
BLACK
6
CONTINUOUS
10
1.9665354330708662
20
-1.3779527559055118
11
1.9672144881889764
21
-1.3615344094488189
0
LINE
8
BLACK
6
CONTINUOUS
10
1.9672144881889764
20
-1.3615344094488189
11
1.9692470472440944
21
-1.3452282283464567
0
LINE
8
BLACK
6
CONTINUOUS
10
1.9692470472440944
20
-1.3452282283464567
11
1.972619251968504
21
-1.3291455905511811
0
LINE
8
BLACK
6
CONTINUOUS
10
1.972619251968504
20
-1.3291455905511811
11
1.9773079921259842
21
-1.3133963779527558
0
LINE
8
BLACK
6
CONTINUOUS
10
1.9773079921259842
20
-1.3133963779527558
11
1.9832812992125983
21
-1.2980881102362205
0
LINE
8
BLACK
6
CONTINUOUS
10
1.9832812992125983
20
-1.2980881102362205
11
1.9904983464566928
21
-1.2833254330708661
0
LINE
8
BLACK
6
CONTINUOUS
10
1.9904983464566928
20
-1.2833254330708661
11
1.9989098031496062
21
-1.2692091338582676
0
LINE
8
BLACK
6
CONTINUOUS
10
1.9989098031496062
20
-1.2692091338582676
11
2.0084582677165352
21
-1.2558356692913386
0
LINE
8
BLACK
6
CONTINUOUS
10
2.0084582677165352
20
-1.2558356692913386
11
2.0190785039370076
21
-1.2432963779527559
0
LINE
8
BLACK
6
CONTINUOUS
10
2.0190785039370076
20
-1.2432963779527559
11
2.0306979527559053
21
-1.2316769291338583
0
LINE
8
BLACK
6
CONTINUOUS
10
2.0306979527559053
20
-1.2316769291338583
11
2.0432372440944881
21
-1.2210566929133857
0
LINE
8
BLACK
6
CONTINUOUS
10
2.0432372440944881
20
-1.2210566929133857
11
2.0566107086614172
21
-1.2115082283464567
0
LINE
8
BLACK
6
CONTINUOUS
10
2.0566107086614172
20
-1.2115082283464567
11
2.0707270078740159
21
-1.2030967716535432
0
LINE
8
BLACK
6
CONTINUOUS
10
2.0707270078740159
20
-1.2030967716535432
11
2.08548968503937
21
-1.1958797244094488
0
LINE
8
BLACK
6
CONTINUOUS
10
2.08548968503937
20
-1.1958797244094488
11
2.1007979527559053
21
-1.1899064173228346
0
LINE
8
BLACK
6
CONTINUOUS
10
2.1007979527559053
20
-1.1899064173228346
11
2.1165471653543309
21
-1.1852176771653542
0
LINE
8
BLACK
6
CONTINUOUS
10
2.1165471653543309
20
-1.1852176771653542
11
2.132629803149606
21
-1.1818454724409448
0
LINE
8
BLACK
6
CONTINUOUS
10
2.132629803149606
20
-1.1818454724409448
11
2.1489359842519686
21
-1.1798129133858268
0
LINE
8
BLACK
6
CONTINUOUS
10
2.1489359842519686
20
-1.1798129133858268
11
2.1653543307086616
21
-1.1791338582677164
0
LINE
8
BLACK
6
CONTINUOUS
10
2.1653543307086616
20
-1.1791338582677164
11
13.4645669291338574
21
-1.1791338582677164
0
LINE
8
BLACK
6
CONTINUOUS
10
2.1653543307086616
20
-1.1830708661417322
11
2.156845590551181
21
-1.1830708661417322
0
LINE
8
BLACK
6
CONTINUOUS
10
2.156845590551181
20
-1.1830708661417322
11
2.1398929133858267
21
-1.1845540157480314
0
LINE
8
BLACK
6
CONTINUOUS
10
2.1398929133858267
20
-1.1845540157480314
11
2.1231339763779529
21
-1.187509094488189
0
LINE
8
BLACK
6
CONTINUOUS
10
2.1231339763779529
20
-1.187509094488189
11
2.1066963779527557
21
-1.1919135039370079
0
LINE
8
BLACK
6
CONTINUOUS
10
2.1066963779527557
20
-1.1919135039370079
11
2.0907051968503936
21
-1.1977338188976379
0
LINE
8
BLACK
6
CONTINUOUS
10
2.0907051968503936
20
-1.1977338188976379
11
2.0752821653543307
21
-1.2049257086614173
0
LINE
8
BLACK
6
CONTINUOUS
10
2.0752821653543307
20
-1.2049257086614173
11
2.0605446062992128
21
-1.2134344488188975
0
LINE
8
BLACK
6
CONTINUOUS
10
2.0605446062992128
20
-1.2134344488188975
11
2.0466047244094487
21
-1.2231952755905511
0
LINE
8
BLACK
6
CONTINUOUS
10
2.0466047244094487
20
-1.2231952755905511
11
2.0335685826771654
21
-1.2341338582677166
0
LINE
8
BLACK
6
CONTINUOUS
10
2.0335685826771654
20
-1.2341338582677166
11
2.0215354330708659
21
-1.2461670078740157
0
LINE
8
BLACK
6
CONTINUOUS
10
2.0215354330708659
20
-1.2461670078740157
11
2.0105968503937008
21
-1.2592031496062992
0
LINE
8
BLACK
6
CONTINUOUS
10
2.0105968503937008
20
-1.2592031496062992
11
2.000836023622047
21
-1.273143031496063
0
LINE
8
BLACK
6
CONTINUOUS
10
2.000836023622047
20
-1.273143031496063
11
1.9923272834645669
21
-1.287880590551181
0
LINE
8
BLACK
6
CONTINUOUS
10
1.9923272834645669
20
-1.287880590551181
11
1.9851353937007874
21
-1.303303622047244
0
LINE
8
BLACK
6
CONTINUOUS
10
1.9851353937007874
20
-1.303303622047244
11
1.9793150787401574
21
-1.3192948031496063
0
LINE
8
BLACK
6
CONTINUOUS
10
1.9793150787401574
20
-1.3192948031496063
11
1.9749106692913385
21
-1.3357324015748031
0
LINE
8
BLACK
6
CONTINUOUS
10
1.9749106692913385
20
-1.3357324015748031
11
1.971955590551181
21
-1.3524913385826771
0
LINE
8
BLACK
6
CONTINUOUS
10
1.971955590551181
20
-1.3524913385826771
11
1.9704724409448819
21
-1.3694440157480314
0
LINE
8
BLACK
6
CONTINUOUS
10
1.9704724409448819
20
-1.3694440157480314
11
1.9704724409448819
21
-1.3779527559055118
0
LINE
8
BLACK
6
CONTINUOUS
10
1.9704724409448819
20
-1.3779527559055118
11
1.9704724409448819
21
-9.2519685039370074
0
LINE
8
BLACK
6
CONTINUOUS
10
1.9704724409448819
20
-9.2519685039370074
11
1.9704724409448819
21
-9.2604772440944885
0
LINE
8
BLACK
6
CONTINUOUS
10
1.9704724409448819
20
-9.2604772440944885
11
1.971955590551181
21
-9.2774299212598414
0
LINE
8
BLACK
6
CONTINUOUS
10
1.971955590551181
20
-9.2774299212598414
11
1.9749106692913385
21
-9.2941888582677166
0
LINE
8
BLACK
6
CONTINUOUS
10
1.9749106692913385
20
-9.2941888582677166
11
1.9793150787401574
21
-9.3106264566929138
0
LINE
8
BLACK
6
CONTINUOUS
10
1.9793150787401574
20
-9.3106264566929138
11
1.9851353937007874
21
-9.326617637795275
0
LINE
8
BLACK
6
CONTINUOUS
10
1.9851353937007874
20
-9.326617637795275
11
1.9923272834645669
21
-9.3420406692913378
0
LINE
8
BLACK
6
CONTINUOUS
10
1.9923272834645669
20
-9.3420406692913378
11
2.000836023622047
21
-9.3567782283464567
0
LINE
8
BLACK
6
CONTINUOUS
10
2.000836023622047
20
-9.3567782283464567
11
2.0105968503937008
21
-9.3707181102362203
0
LINE
8
BLACK
6
CONTINUOUS
10
2.0105968503937008
20
-9.3707181102362203
11
2.0215354330708659
21
-9.3837542519685044
0
LINE
8
BLACK
6
CONTINUOUS
10
2.0215354330708659
20
-9.3837542519685044
11
2.0335685826771654
21
-9.3957874015748022
0
LINE
8
BLACK
6
CONTINUOUS
10
2.0335685826771654
20
-9.3957874015748022
11
2.0466047244094487
21
-9.4067259842519686
0
LINE
8
BLACK
6
CONTINUOUS
10
2.0466047244094487
20
-9.4067259842519686
11
2.0605446062992128
21
-9.4164868110236224
0
LINE
8
BLACK
6
CONTINUOUS
10
2.0605446062992128
20
-9.4164868110236224
11
2.0752821653543307
21
-9.4249955511811017
0
LINE
8
BLACK
6
CONTINUOUS
10
2.0752821653543307
20
-9.4249955511811017
11
2.0907051968503936
21
-9.4321874409448814
0
LINE
8
BLACK
6
CONTINUOUS
10
2.0907051968503936
20
-9.4321874409448814
11
2.1066963779527557
21
-9.4380077559055113
0
LINE
8
BLACK
6
CONTINUOUS
10
2.1066963779527557
20
-9.4380077559055113
11
2.1231339763779529
21
-9.4424121653543303
0
LINE
8
BLACK
6
CONTINUOUS
10
2.1231339763779529
20
-9.4424121653543303
11
2.1398929133858267
21
-9.4453672440944878
0
LINE
8
BLACK
6
CONTINUOUS
10
2.1398929133858267
20
-9.4453672440944878
11
2.156845590551181
21
-9.4468503937007871
0
LINE
8
BLACK
6
CONTINUOUS
10
2.156845590551181
20
-9.4468503937007871
11
2.1653543307086616
21
-9.4468503937007871
0
LINE
8
BLACK
6
CONTINUOUS
10
2.1653543307086616
20
-9.4468503937007871
11
13.4645669291338574
21
-9.4468503937007871
0
LINE
8
BLACK
6
CONTINUOUS
10
13.4645669291338574
20
-9.4468503937007871
11
13.4730756692913385
21
-9.4468503937007871
0
LINE
8
BLACK
6
CONTINUOUS
10
13.4730756692913385
20
-9.4468503937007871
11
13.4900283464566932
21
-9.4453672440944878
0
LINE
8
BLACK
6
CONTINUOUS
10
13.4900283464566932
20
-9.4453672440944878
11
13.5067872834645666
21
-9.4424121653543303
0
LINE
8
BLACK
6
CONTINUOUS
10
13.5067872834645666
20
-9.4424121653543303
11
13.5232248818897638
21
-9.4380077559055113
0
LINE
8
BLACK
6
CONTINUOUS
10
13.5232248818897638
20
-9.4380077559055113
11
13.539216062992125
21
-9.4321874409448814
0
LINE
8
BLACK
6
CONTINUOUS
10
13.539216062992125
20
-9.4321874409448814
11
13.5546390944881878
21
-9.4249955511811017
0
LINE
8
BLACK
6
CONTINUOUS
10
13.5546390944881878
20
-9.4249955511811017
11
13.5693766535433067
21
-9.4164868110236224
0
LINE
8
BLACK
6
CONTINUOUS
10
13.5693766535433067
20
-9.4164868110236224
11
13.5833165354330703
21
-9.4067259842519686
0
LINE
8
BLACK
6
CONTINUOUS
10
13.5833165354330703
20
-9.4067259842519686
11
13.5963526771653545
21
-9.3957874015748022
0
LINE
8
BLACK
6
CONTINUOUS
10
13.5963526771653545
20
-9.3957874015748022
11
13.608385826771654
21
-9.3837542519685044
0
LINE
8
BLACK
6
CONTINUOUS
10
13.608385826771654
20
-9.3837542519685044
11
13.6193244094488186
21
-9.3707181102362203
0
LINE
8
BLACK
6
CONTINUOUS
10
13.6193244094488186
20
-9.3707181102362203
11
13.6290852362204724
21
-9.3567782283464567
0
LINE
8
BLACK
6
CONTINUOUS
10
13.6290852362204724
20
-9.3567782283464567
11
13.6375939763779517
21
-9.3420406692913378
0
LINE
8
BLACK
6
CONTINUOUS
10
13.6375939763779517
20
-9.3420406692913378
11
13.6447858661417314
21
-9.326617637795275
0
LINE
8
BLACK
6
CONTINUOUS
10
13.6447858661417314
20
-9.326617637795275
11
13.6506061811023613
21
-9.3106264566929138
0
LINE
8
BLACK
6
CONTINUOUS
10
13.6506061811023613
20
-9.3106264566929138
11
13.6550105905511803
21
-9.2941888582677166
0
LINE
8
BLACK
6
CONTINUOUS
10
13.6550105905511803
20
-9.2941888582677166
11
13.6579656692913378
21
-9.2774299212598414
0
LINE
8
BLACK
6
CONTINUOUS
10
13.6579656692913378
20
-9.2774299212598414
11
13.6594488188976371
21
-9.2604772440944885
0
LINE
8
BLACK
6
CONTINUOUS
10
13.6594488188976371
20
-9.2604772440944885
11
13.6594488188976371
21
-9.2519685039370074
0
LINE
8
BLACK
6
CONTINUOUS
10
13.6594488188976371
20
-9.2519685039370074
11
13.6594488188976371
21
-1.3779527559055118
0
LINE
8
BLACK
6
CONTINUOUS
10
13.6594488188976371
20
-1.3779527559055118
11
13.6594488188976371
21
-1.3694440157480314
0
LINE
8
BLACK
6
CONTINUOUS
10
13.6594488188976371
20
-1.3694440157480314
11
13.6579656692913378
21
-1.3524913385826771
0
LINE
8
BLACK
6
CONTINUOUS
10
13.6579656692913378
20
-1.3524913385826771
11
13.6550105905511803
21
-1.3357324015748031
0
LINE
8
BLACK
6
CONTINUOUS
10
13.6550105905511803
20
-1.3357324015748031
11
13.6506061811023613
21
-1.3192948031496063
0
LINE
8
BLACK
6
CONTINUOUS
10
13.6506061811023613
20
-1.3192948031496063
11
13.6447858661417314
21
-1.303303622047244
0
LINE
8
BLACK
6
CONTINUOUS
10
13.6447858661417314
20
-1.303303622047244
11
13.6375939763779517
21
-1.287880590551181
0
LINE
8
BLACK
6
CONTINUOUS
10
13.6375939763779517
20
-1.287880590551181
11
13.6290852362204724
21
-1.273143031496063
0
LINE
8
BLACK
6
CONTINUOUS
10
13.6290852362204724
20
-1.273143031496063
11
13.6193244094488186
21
-1.2592031496062992
0
LINE
8
BLACK
6
CONTINUOUS
10
13.6193244094488186
20
-1.2592031496062992
11
13.608385826771654
21
-1.2461670078740157
0
LINE
8
BLACK
6
CONTINUOUS
10
13.608385826771654
20
-1.2461670078740157
11
13.5963526771653545
21
-1.2341338582677166
0
LINE
8
BLACK
6
CONTINUOUS
10
13.5963526771653545
20
-1.2341338582677166
11
13.5833165354330703
21
-1.2231952755905511
0
LINE
8
BLACK
6
CONTINUOUS
10
13.5833165354330703
20
-1.2231952755905511
11
13.5693766535433067
21
-1.2134344488188975
0
LINE
8
BLACK
6
CONTINUOUS
10
13.5693766535433067
20
-1.2134344488188975
11
13.5546390944881878
21
-1.2049257086614173
0
LINE
8
BLACK
6
CONTINUOUS
10
13.5546390944881878
20
-1.2049257086614173
11
13.539216062992125
21
-1.1977338188976379
0
LINE
8
BLACK
6
CONTINUOUS
10
13.539216062992125
20
-1.1977338188976379
11
13.5232248818897638
21
-1.1919135039370079
0
LINE
8
BLACK
6
CONTINUOUS
10
13.5232248818897638
20
-1.1919135039370079
11
13.5067872834645666
21
-1.187509094488189
0
LINE
8
BLACK
6
CONTINUOUS
10
13.5067872834645666
20
-1.187509094488189
11
13.4900283464566932
21
-1.1845540157480314
0
LINE
8
BLACK
6
CONTINUOUS
10
13.4900283464566932
20
-1.1845540157480314
11
13.4730756692913385
21
-1.1830708661417322
0
LINE
8
BLACK
6
CONTINUOUS
10
13.4730756692913385
20
-1.1830708661417322
11
13.4645669291338574
21
-1.1830708661417322
0
LINE
8
BLACK
6
CONTINUOUS
10
13.4645669291338574
20
-1.1830708661417322
11
2.1653543307086616
21
-1.1830708661417322
  0
ENDSEC
  0
EOF
