  0
SECTION
  2
HEADER
  9
$ANGBASE
  50
0.0
  9
$ANGDIR
  70
1
  9
$MEASUREMENT
  70
0
  0
ENDSEC
  0
SECTION
  2
TABLES
  0
TABLE
  2
LTYPE
  70
4
  0
LTYPE
  5
40F
  2
CONTINUOUS
  70
0
  3
Solid line
  72
65
  73
0
  40
0.0
  0
LTYPE
  5
410
  2
DASHDOT
 70
0
  3
Dash Dot ____ _ ____ _
 72
65
 73
4
 40
2.0
 49
1.25
 49
-0.25
 49
0.25
 49
-0.25
  0
LTYPE
  5
411
  2
DASHED
 70
0
  3
Dashed __ __ __ __ __
 72
65
 73
2
 40
0.75
 49
0.5
 49
-0.25
  0
LTYPE
  5
43B
  2
DOTTED
 70
0
  3
Dotted .  .  .  .
 72
65
 73
2
 40
0.2
 49
0.0
 49
-0.2
  0
ENDTAB
  0
TABLE
  2
STYLE
  70
4
  0
STYLE
  2
KICAD
  70
0
  40
0
  41
1
  42
1
  50
0
  71
0
  3
isocp.shx
  0
STYLE
  2
KICADB
  70
0
  40
0
  41
1
  42
1
  50
0
  71
0
  3
isocp.shx
  0
STYLE
  2
KICADI
  70
0
  40
0
  41
1
  42
1
  50
15
  71
0
  3
isocp.shx
  0
STYLE
  2
KICADBI
  70
0
  40
0
  41
1
  42
1
  50
15
  71
0
  3
isocp.shx
  0
ENDTAB
  0
TABLE
  2
LAYER
  70
1
  0
LAYER
  2
BLACK
  70
0
  62
7
  6
CONTINUOUS
  0
ENDTAB
  0
ENDSEC
  0
SECTION
  2
ENTITIES
0
LINE
8
BLACK
6
CONTINUOUS
10
2.2196594094488189
20
-9.1503897244094485
11
2.2292071259842521
21
-9.1534919685039373
0
LINE
8
BLACK
6
CONTINUOUS
10
2.2292071259842521
20
-9.1534919685039373
11
2.2381519685039368
21
-9.1580496062992118
0
LINE
8
BLACK
6
CONTINUOUS
10
2.2381519685039368
20
-9.1580496062992118
11
2.2462737401574802
21
-9.1639503937007873
0
LINE
8
BLACK
6
CONTINUOUS
10
2.2462737401574802
20
-9.1639503937007873
11
2.2533724409448816
21
-9.1710490944881879
0
LINE
8
BLACK
6
CONTINUOUS
10
2.2533724409448816
20
-9.1710490944881879
11
2.2592732283464567
21
-9.1791708661417317
0
LINE
8
BLACK
6
CONTINUOUS
10
2.2592732283464567
20
-9.1791708661417317
11
2.2638308661417321
21
-9.1881157086614174
0
LINE
8
BLACK
6
CONTINUOUS
10
2.2638308661417321
20
-9.1881157086614174
11
2.2669331102362205
21
-9.1976634251968505
0
LINE
8
BLACK
6
CONTINUOUS
10
2.2669331102362205
20
-9.1976634251968505
11
2.2685035826771651
21
-9.207578897637795
0
LINE
8
BLACK
6
CONTINUOUS
10
2.2685035826771651
20
-9.207578897637795
11
2.2685035826771651
21
-9.217617952755905
0
LINE
8
BLACK
6
CONTINUOUS
10
2.2685035826771651
20
-9.217617952755905
11
2.2669331102362205
21
-9.2275334251968495
0
LINE
8
BLACK
6
CONTINUOUS
10
2.2669331102362205
20
-9.2275334251968495
11
2.2638308661417321
21
-9.2370811417322827
0
LINE
8
BLACK
6
CONTINUOUS
10
2.2638308661417321
20
-9.2370811417322827
11
2.2592732283464567
21
-9.2460259842519683
0
LINE
8
BLACK
6
CONTINUOUS
10
2.2592732283464567
20
-9.2460259842519683
11
2.2533724409448816
21
-9.2541477559055121
0
LINE
8
BLACK
6
CONTINUOUS
10
2.2533724409448816
20
-9.2541477559055121
11
2.2462737401574802
21
-9.2612464566929127
0
LINE
8
BLACK
6
CONTINUOUS
10
2.2462737401574802
20
-9.2612464566929127
11
2.2381519685039368
21
-9.2671472440944882
0
LINE
8
BLACK
6
CONTINUOUS
10
2.2381519685039368
20
-9.2671472440944882
11
2.2292071259842521
21
-9.2717048818897627
0
LINE
8
BLACK
6
CONTINUOUS
10
2.2292071259842521
20
-9.2717048818897627
11
2.2196594094488189
21
-9.2748071259842515
0
LINE
8
BLACK
6
CONTINUOUS
10
2.2196594094488189
20
-9.2748071259842515
11
2.209743937007874
21
-9.2763775984251975
0
LINE
8
BLACK
6
CONTINUOUS
10
2.209743937007874
20
-9.2763775984251975
11
2.1997048818897635
21
-9.2763775984251975
0
LINE
8
BLACK
6
CONTINUOUS
10
2.1997048818897635
20
-9.2763775984251975
11
2.1897894094488191
21
-9.2748071259842515
0
LINE
8
BLACK
6
CONTINUOUS
10
2.1897894094488191
20
-9.2748071259842515
11
2.1802416929133859
21
-9.2717048818897627
0
LINE
8
BLACK
6
CONTINUOUS
10
2.1802416929133859
20
-9.2717048818897627
11
2.1712968503937007
21
-9.2671472440944882
0
LINE
8
BLACK
6
CONTINUOUS
10
2.1712968503937007
20
-9.2671472440944882
11
2.1631750787401574
21
-9.2612464566929127
0
LINE
8
BLACK
6
CONTINUOUS
10
2.1631750787401574
20
-9.2612464566929127
11
2.1560763779527559
21
-9.2541477559055121
0
LINE
8
BLACK
6
CONTINUOUS
10
2.1560763779527559
20
-9.2541477559055121
11
2.1501755905511812
21
-9.2460259842519683
0
LINE
8
BLACK
6
CONTINUOUS
10
2.1501755905511812
20
-9.2460259842519683
11
2.1456179527559054
21
-9.2370811417322827
0
LINE
8
BLACK
6
CONTINUOUS
10
2.1456179527559054
20
-9.2370811417322827
11
2.1425157086614175
21
-9.2275334251968495
0
LINE
8
BLACK
6
CONTINUOUS
10
2.1425157086614175
20
-9.2275334251968495
11
2.1409452362204724
21
-9.217617952755905
0
LINE
8
BLACK
6
CONTINUOUS
10
2.1409452362204724
20
-9.217617952755905
11
2.1409452362204724
21
-9.2077183070866138
0
LINE
8
BLACK
6
CONTINUOUS
10
2.1409452362204724
20
-9.2077183070866138
11
2.1409452362204724
21
-9.207578897637795
0
LINE
8
BLACK
6
CONTINUOUS
10
2.1409452362204724
20
-9.207578897637795
11
2.1425157086614175
21
-9.1976634251968505
0
LINE
8
BLACK
6
CONTINUOUS
10
2.1425157086614175
20
-9.1976634251968505
11
2.1456179527559054
21
-9.1881157086614174
0
LINE
8
BLACK
6
CONTINUOUS
10
2.1456179527559054
20
-9.1881157086614174
11
2.1501755905511812
21
-9.1791708661417317
0
LINE
8
BLACK
6
CONTINUOUS
10
2.1501755905511812
20
-9.1791708661417317
11
2.1560763779527559
21
-9.1710490944881879
0
LINE
8
BLACK
6
CONTINUOUS
10
2.1560763779527559
20
-9.1710490944881879
11
2.1631750787401574
21
-9.1639503937007873
0
LINE
8
BLACK
6
CONTINUOUS
10
2.1631750787401574
20
-9.1639503937007873
11
2.1712968503937007
21
-9.1580496062992118
0
LINE
8
BLACK
6
CONTINUOUS
10
2.1712968503937007
20
-9.1580496062992118
11
2.1802416929133859
21
-9.1534919685039373
0
LINE
8
BLACK
6
CONTINUOUS
10
2.1802416929133859
20
-9.1534919685039373
11
2.1897894094488191
21
-9.1503897244094485
0
LINE
8
BLACK
6
CONTINUOUS
10
2.1897894094488191
20
-9.1503897244094485
11
2.1997048818897635
21
-9.1488192519685043
0
LINE
8
BLACK
6
CONTINUOUS
10
2.1997048818897635
20
-9.1488192519685043
11
2.209743937007874
21
-9.1488192519685043
0
LINE
8
BLACK
6
CONTINUOUS
10
2.209743937007874
20
-9.1488192519685043
11
2.2196594094488189
21
-9.1503897244094485
0
LINE
8
BLACK
6
CONTINUOUS
10
2.1427165354330708
20
-9.2174785433070863
11
2.1442433858267718
21
-9.2271186220472448
0
LINE
8
BLACK
6
CONTINUOUS
10
2.1442433858267718
20
-9.2271186220472448
11
2.1472594488188976
21
-9.2364011811023623
0
LINE
8
BLACK
6
CONTINUOUS
10
2.1472594488188976
20
-9.2364011811023623
11
2.1516905118110237
21
-9.2450976377952756
0
LINE
8
BLACK
6
CONTINUOUS
10
2.1516905118110237
20
-9.2450976377952756
11
2.1574274409448817
21
-9.2529938188976377
0
LINE
8
BLACK
6
CONTINUOUS
10
2.1574274409448817
20
-9.2529938188976377
11
2.1643290157480313
21
-9.2598953937007877
0
LINE
8
BLACK
6
CONTINUOUS
10
2.1643290157480313
20
-9.2598953937007877
11
2.1722251968503938
21
-9.2656323228346462
0
LINE
8
BLACK
6
CONTINUOUS
10
2.1722251968503938
20
-9.2656323228346462
11
2.1809216535433071
21
-9.2700633858267718
0
LINE
8
BLACK
6
CONTINUOUS
10
2.1809216535433071
20
-9.2700633858267718
11
2.1902042125984251
21
-9.2730794488188977
0
LINE
8
BLACK
6
CONTINUOUS
10
2.1902042125984251
20
-9.2730794488188977
11
2.1998442913385827
21
-9.2746062992125982
0
LINE
8
BLACK
6
CONTINUOUS
10
2.1998442913385827
20
-9.2746062992125982
11
2.2096045275590552
21
-9.2746062992125982
0
LINE
8
BLACK
6
CONTINUOUS
10
2.2096045275590552
20
-9.2746062992125982
11
2.2192446062992124
21
-9.2730794488188977
0
LINE
8
BLACK
6
CONTINUOUS
10
2.2192446062992124
20
-9.2730794488188977
11
2.2285271653543308
21
-9.2700633858267718
0
LINE
8
BLACK
6
CONTINUOUS
10
2.2285271653543308
20
-9.2700633858267718
11
2.2372236220472441
21
-9.2656323228346462
0
LINE
8
BLACK
6
CONTINUOUS
10
2.2372236220472441
20
-9.2656323228346462
11
2.2451198031496062
21
-9.2598953937007877
0
LINE
8
BLACK
6
CONTINUOUS
10
2.2451198031496062
20
-9.2598953937007877
11
2.2520213779527558
21
-9.2529938188976377
0
LINE
8
BLACK
6
CONTINUOUS
10
2.2520213779527558
20
-9.2529938188976377
11
2.2577583070866143
21
-9.2450976377952756
0
LINE
8
BLACK
6
CONTINUOUS
10
2.2577583070866143
20
-9.2450976377952756
11
2.2621893700787403
21
-9.2364011811023623
0
LINE
8
BLACK
6
CONTINUOUS
10
2.2621893700787403
20
-9.2364011811023623
11
2.2652054330708662
21
-9.2271186220472448
0
LINE
8
BLACK
6
CONTINUOUS
10
2.2652054330708662
20
-9.2271186220472448
11
2.2667322834645667
21
-9.2174785433070863
0
LINE
8
BLACK
6
CONTINUOUS
10
2.2667322834645667
20
-9.2174785433070863
11
2.2667322834645667
21
-9.2077183070866138
0
LINE
8
BLACK
6
CONTINUOUS
10
2.2667322834645667
20
-9.2077183070866138
11
2.2652054330708662
21
-9.1980782283464571
0
LINE
8
BLACK
6
CONTINUOUS
10
2.2652054330708662
20
-9.1980782283464571
11
2.2621893700787403
21
-9.1887956692913377
0
LINE
8
BLACK
6
CONTINUOUS
10
2.2621893700787403
20
-9.1887956692913377
11
2.2577583070866143
21
-9.1800992125984244
0
LINE
8
BLACK
6
CONTINUOUS
10
2.2577583070866143
20
-9.1800992125984244
11
2.2520213779527558
21
-9.1722030314960623
0
LINE
8
BLACK
6
CONTINUOUS
10
2.2520213779527558
20
-9.1722030314960623
11
2.2451198031496062
21
-9.1653014566929123
0
LINE
8
BLACK
6
CONTINUOUS
10
2.2451198031496062
20
-9.1653014566929123
11
2.2372236220472441
21
-9.1595645275590556
0
LINE
8
BLACK
6
CONTINUOUS
10
2.2372236220472441
20
-9.1595645275590556
11
2.2285271653543308
21
-9.1551334645669282
0
LINE
8
BLACK
6
CONTINUOUS
10
2.2285271653543308
20
-9.1551334645669282
11
2.2192446062992124
21
-9.1521174015748024
0
LINE
8
BLACK
6
CONTINUOUS
10
2.2192446062992124
20
-9.1521174015748024
11
2.2096045275590552
21
-9.1505905511811019
0
LINE
8
BLACK
6
CONTINUOUS
10
2.2096045275590552
20
-9.1505905511811019
11
2.1998442913385827
21
-9.1505905511811019
0
LINE
8
BLACK
6
CONTINUOUS
10
2.1998442913385827
20
-9.1505905511811019
11
2.1902042125984251
21
-9.1521174015748024
0
LINE
8
BLACK
6
CONTINUOUS
10
2.1902042125984251
20
-9.1521174015748024
11
2.1809216535433071
21
-9.1551334645669282
0
LINE
8
BLACK
6
CONTINUOUS
10
2.1809216535433071
20
-9.1551334645669282
11
2.1722251968503938
21
-9.1595645275590556
0
LINE
8
BLACK
6
CONTINUOUS
10
2.1722251968503938
20
-9.1595645275590556
11
2.1643290157480313
21
-9.1653014566929123
0
LINE
8
BLACK
6
CONTINUOUS
10
2.1643290157480313
20
-9.1653014566929123
11
2.1574274409448817
21
-9.1722030314960623
0
LINE
8
BLACK
6
CONTINUOUS
10
2.1574274409448817
20
-9.1722030314960623
11
2.1516905118110237
21
-9.1800992125984244
0
LINE
8
BLACK
6
CONTINUOUS
10
2.1516905118110237
20
-9.1800992125984244
11
2.1472594488188976
21
-9.1887956692913377
0
LINE
8
BLACK
6
CONTINUOUS
10
2.1472594488188976
20
-9.1887956692913377
11
2.1442433858267718
21
-9.1980782283464571
0
LINE
8
BLACK
6
CONTINUOUS
10
2.1442433858267718
20
-9.1980782283464571
11
2.1427165354330708
21
-9.2077183070866138
0
LINE
8
BLACK
6
CONTINUOUS
10
2.1427165354330708
20
-9.2077183070866138
11
2.1427165354330708
21
-9.2174785433070863
0
LINE
8
BLACK
6
CONTINUOUS
10
7.8102105905511809
20
-9.1503897244094485
11
7.8197583070866141
21
-9.1534919685039373
0
LINE
8
BLACK
6
CONTINUOUS
10
7.8197583070866141
20
-9.1534919685039373
11
7.8287031496062989
21
-9.1580496062992118
0
LINE
8
BLACK
6
CONTINUOUS
10
7.8287031496062989
20
-9.1580496062992118
11
7.8368249212598426
21
-9.1639503937007873
0
LINE
8
BLACK
6
CONTINUOUS
10
7.8368249212598426
20
-9.1639503937007873
11
7.8439236220472441
21
-9.1710490944881879
0
LINE
8
BLACK
6
CONTINUOUS
10
7.8439236220472441
20
-9.1710490944881879
11
7.8498244094488188
21
-9.1791708661417317
0
LINE
8
BLACK
6
CONTINUOUS
10
7.8498244094488188
20
-9.1791708661417317
11
7.8543820472440942
21
-9.1881157086614174
0
LINE
8
BLACK
6
CONTINUOUS
10
7.8543820472440942
20
-9.1881157086614174
11
7.8574842913385821
21
-9.1976634251968505
0
LINE
8
BLACK
6
CONTINUOUS
10
7.8574842913385821
20
-9.1976634251968505
11
7.8590547637795272
21
-9.207578897637795
0
LINE
8
BLACK
6
CONTINUOUS
10
7.8590547637795272
20
-9.207578897637795
11
7.8590547637795272
21
-9.217617952755905
0
LINE
8
BLACK
6
CONTINUOUS
10
7.8590547637795272
20
-9.217617952755905
11
7.8574842913385821
21
-9.2275334251968495
0
LINE
8
BLACK
6
CONTINUOUS
10
7.8574842913385821
20
-9.2275334251968495
11
7.8543820472440942
21
-9.2370811417322827
0
LINE
8
BLACK
6
CONTINUOUS
10
7.8543820472440942
20
-9.2370811417322827
11
7.8498244094488188
21
-9.2460259842519683
0
LINE
8
BLACK
6
CONTINUOUS
10
7.8498244094488188
20
-9.2460259842519683
11
7.8439236220472441
21
-9.2541477559055121
0
LINE
8
BLACK
6
CONTINUOUS
10
7.8439236220472441
20
-9.2541477559055121
11
7.8368249212598426
21
-9.2612464566929127
0
LINE
8
BLACK
6
CONTINUOUS
10
7.8368249212598426
20
-9.2612464566929127
11
7.8287031496062989
21
-9.2671472440944882
0
LINE
8
BLACK
6
CONTINUOUS
10
7.8287031496062989
20
-9.2671472440944882
11
7.8197583070866141
21
-9.2717048818897627
0
LINE
8
BLACK
6
CONTINUOUS
10
7.8197583070866141
20
-9.2717048818897627
11
7.8102105905511809
21
-9.2748071259842515
0
LINE
8
BLACK
6
CONTINUOUS
10
7.8102105905511809
20
-9.2748071259842515
11
7.8002951181102365
21
-9.2763775984251975
0
LINE
8
BLACK
6
CONTINUOUS
10
7.8002951181102365
20
-9.2763775984251975
11
7.7902560629921256
21
-9.2763775984251975
0
LINE
8
BLACK
6
CONTINUOUS
10
7.7902560629921256
20
-9.2763775984251975
11
7.7803405905511811
21
-9.2748071259842515
0
LINE
8
BLACK
6
CONTINUOUS
10
7.7803405905511811
20
-9.2748071259842515
11
7.7707928740157479
21
-9.2717048818897627
0
LINE
8
BLACK
6
CONTINUOUS
10
7.7707928740157479
20
-9.2717048818897627
11
7.7618480314960632
21
-9.2671472440944882
0
LINE
8
BLACK
6
CONTINUOUS
10
7.7618480314960632
20
-9.2671472440944882
11
7.7537262598425194
21
-9.2612464566929127
0
LINE
8
BLACK
6
CONTINUOUS
10
7.7537262598425194
20
-9.2612464566929127
11
7.7466275590551179
21
-9.2541477559055121
0
LINE
8
BLACK
6
CONTINUOUS
10
7.7466275590551179
20
-9.2541477559055121
11
7.7407267716535433
21
-9.2460259842519683
0
LINE
8
BLACK
6
CONTINUOUS
10
7.7407267716535433
20
-9.2460259842519683
11
7.7361691338582679
21
-9.2370811417322827
0
LINE
8
BLACK
6
CONTINUOUS
10
7.7361691338582679
20
-9.2370811417322827
11
7.7330668897637791
21
-9.2275334251968495
0
LINE
8
BLACK
6
CONTINUOUS
10
7.7330668897637791
20
-9.2275334251968495
11
7.7314964173228349
21
-9.217617952755905
0
LINE
8
BLACK
6
CONTINUOUS
10
7.7314964173228349
20
-9.217617952755905
11
7.7314964173228349
21
-9.2077183070866138
0
LINE
8
BLACK
6
CONTINUOUS
10
7.7314964173228349
20
-9.2077183070866138
11
7.7314964173228349
21
-9.207578897637795
0
LINE
8
BLACK
6
CONTINUOUS
10
7.7314964173228349
20
-9.207578897637795
11
7.7330668897637791
21
-9.1976634251968505
0
LINE
8
BLACK
6
CONTINUOUS
10
7.7330668897637791
20
-9.1976634251968505
11
7.7361691338582679
21
-9.1881157086614174
0
LINE
8
BLACK
6
CONTINUOUS
10
7.7361691338582679
20
-9.1881157086614174
11
7.7407267716535433
21
-9.1791708661417317
0
LINE
8
BLACK
6
CONTINUOUS
10
7.7407267716535433
20
-9.1791708661417317
11
7.7466275590551179
21
-9.1710490944881879
0
LINE
8
BLACK
6
CONTINUOUS
10
7.7466275590551179
20
-9.1710490944881879
11
7.7537262598425194
21
-9.1639503937007873
0
LINE
8
BLACK
6
CONTINUOUS
10
7.7537262598425194
20
-9.1639503937007873
11
7.7618480314960632
21
-9.1580496062992118
0
LINE
8
BLACK
6
CONTINUOUS
10
7.7618480314960632
20
-9.1580496062992118
11
7.7707928740157479
21
-9.1534919685039373
0
LINE
8
BLACK
6
CONTINUOUS
10
7.7707928740157479
20
-9.1534919685039373
11
7.7803405905511811
21
-9.1503897244094485
0
LINE
8
BLACK
6
CONTINUOUS
10
7.7803405905511811
20
-9.1503897244094485
11
7.7902560629921256
21
-9.1488192519685043
0
LINE
8
BLACK
6
CONTINUOUS
10
7.7902560629921256
20
-9.1488192519685043
11
7.8002951181102365
21
-9.1488192519685043
0
LINE
8
BLACK
6
CONTINUOUS
10
7.8002951181102365
20
-9.1488192519685043
11
7.8102105905511809
21
-9.1503897244094485
0
LINE
8
BLACK
6
CONTINUOUS
10
7.7332677165354333
20
-9.2174785433070863
11
7.7347945669291338
21
-9.2271186220472448
0
LINE
8
BLACK
6
CONTINUOUS
10
7.7347945669291338
20
-9.2271186220472448
11
7.7378106299212597
21
-9.2364011811023623
0
LINE
8
BLACK
6
CONTINUOUS
10
7.7378106299212597
20
-9.2364011811023623
11
7.7422416929133853
21
-9.2450976377952756
0
LINE
8
BLACK
6
CONTINUOUS
10
7.7422416929133853
20
-9.2450976377952756
11
7.7479786220472437
21
-9.2529938188976377
0
LINE
8
BLACK
6
CONTINUOUS
10
7.7479786220472437
20
-9.2529938188976377
11
7.7548801968503938
21
-9.2598953937007877
0
LINE
8
BLACK
6
CONTINUOUS
10
7.7548801968503938
20
-9.2598953937007877
11
7.7627763779527559
21
-9.2656323228346462
0
LINE
8
BLACK
6
CONTINUOUS
10
7.7627763779527559
20
-9.2656323228346462
11
7.7714728346456692
21
-9.2700633858267718
0
LINE
8
BLACK
6
CONTINUOUS
10
7.7714728346456692
20
-9.2700633858267718
11
7.7807553937007876
21
-9.2730794488188977
0
LINE
8
BLACK
6
CONTINUOUS
10
7.7807553937007876
20
-9.2730794488188977
11
7.7903954724409443
21
-9.2746062992125982
0
LINE
8
BLACK
6
CONTINUOUS
10
7.7903954724409443
20
-9.2746062992125982
11
7.8001557086614168
21
-9.2746062992125982
0
LINE
8
BLACK
6
CONTINUOUS
10
7.8001557086614168
20
-9.2746062992125982
11
7.8097957874015744
21
-9.2730794488188977
0
LINE
8
BLACK
6
CONTINUOUS
10
7.8097957874015744
20
-9.2730794488188977
11
7.8190783464566929
21
-9.2700633858267718
0
LINE
8
BLACK
6
CONTINUOUS
10
7.8190783464566929
20
-9.2700633858267718
11
7.8277748031496062
21
-9.2656323228346462
0
LINE
8
BLACK
6
CONTINUOUS
10
7.8277748031496062
20
-9.2656323228346462
11
7.8356709842519683
21
-9.2598953937007877
0
LINE
8
BLACK
6
CONTINUOUS
10
7.8356709842519683
20
-9.2598953937007877
11
7.8425725590551183
21
-9.2529938188976377
0
LINE
8
BLACK
6
CONTINUOUS
10
7.8425725590551183
20
-9.2529938188976377
11
7.8483094881889759
21
-9.2450976377952756
0
LINE
8
BLACK
6
CONTINUOUS
10
7.8483094881889759
20
-9.2450976377952756
11
7.8527405511811024
21
-9.2364011811023623
0
LINE
8
BLACK
6
CONTINUOUS
10
7.8527405511811024
20
-9.2364011811023623
11
7.8557566141732282
21
-9.2271186220472448
0
LINE
8
BLACK
6
CONTINUOUS
10
7.8557566141732282
20
-9.2271186220472448
11
7.8572834645669287
21
-9.2174785433070863
0
LINE
8
BLACK
6
CONTINUOUS
10
7.8572834645669287
20
-9.2174785433070863
11
7.8572834645669287
21
-9.2077183070866138
0
LINE
8
BLACK
6
CONTINUOUS
10
7.8572834645669287
20
-9.2077183070866138
11
7.8557566141732282
21
-9.1980782283464571
0
LINE
8
BLACK
6
CONTINUOUS
10
7.8557566141732282
20
-9.1980782283464571
11
7.8527405511811024
21
-9.1887956692913377
0
LINE
8
BLACK
6
CONTINUOUS
10
7.8527405511811024
20
-9.1887956692913377
11
7.8483094881889759
21
-9.1800992125984244
0
LINE
8
BLACK
6
CONTINUOUS
10
7.8483094881889759
20
-9.1800992125984244
11
7.8425725590551183
21
-9.1722030314960623
0
LINE
8
BLACK
6
CONTINUOUS
10
7.8425725590551183
20
-9.1722030314960623
11
7.8356709842519683
21
-9.1653014566929123
0
LINE
8
BLACK
6
CONTINUOUS
10
7.8356709842519683
20
-9.1653014566929123
11
7.8277748031496062
21
-9.1595645275590556
0
LINE
8
BLACK
6
CONTINUOUS
10
7.8277748031496062
20
-9.1595645275590556
11
7.8190783464566929
21
-9.1551334645669282
0
LINE
8
BLACK
6
CONTINUOUS
10
7.8190783464566929
20
-9.1551334645669282
11
7.8097957874015744
21
-9.1521174015748024
0
LINE
8
BLACK
6
CONTINUOUS
10
7.8097957874015744
20
-9.1521174015748024
11
7.8001557086614168
21
-9.1505905511811019
0
LINE
8
BLACK
6
CONTINUOUS
10
7.8001557086614168
20
-9.1505905511811019
11
7.7903954724409443
21
-9.1505905511811019
0
LINE
8
BLACK
6
CONTINUOUS
10
7.7903954724409443
20
-9.1505905511811019
11
7.7807553937007876
21
-9.1521174015748024
0
LINE
8
BLACK
6
CONTINUOUS
10
7.7807553937007876
20
-9.1521174015748024
11
7.7714728346456692
21
-9.1551334645669282
0
LINE
8
BLACK
6
CONTINUOUS
10
7.7714728346456692
20
-9.1551334645669282
11
7.7627763779527559
21
-9.1595645275590556
0
LINE
8
BLACK
6
CONTINUOUS
10
7.7627763779527559
20
-9.1595645275590556
11
7.7548801968503938
21
-9.1653014566929123
0
LINE
8
BLACK
6
CONTINUOUS
10
7.7548801968503938
20
-9.1653014566929123
11
7.7479786220472437
21
-9.1722030314960623
0
LINE
8
BLACK
6
CONTINUOUS
10
7.7479786220472437
20
-9.1722030314960623
11
7.7422416929133853
21
-9.1800992125984244
0
LINE
8
BLACK
6
CONTINUOUS
10
7.7422416929133853
20
-9.1800992125984244
11
7.7378106299212597
21
-9.1887956692913377
0
LINE
8
BLACK
6
CONTINUOUS
10
7.7378106299212597
20
-9.1887956692913377
11
7.7347945669291338
21
-9.1980782283464571
0
LINE
8
BLACK
6
CONTINUOUS
10
7.7347945669291338
20
-9.1980782283464571
11
7.7332677165354333
21
-9.2077183070866138
0
LINE
8
BLACK
6
CONTINUOUS
10
7.7332677165354333
20
-9.2077183070866138
11
7.7332677165354333
21
-9.2174785433070863
0
LINE
8
BLACK
6
CONTINUOUS
10
13.4401318503937013
20
-9.1503897244094485
11
13.4496795669291327
21
-9.1534919685039373
0
LINE
8
BLACK
6
CONTINUOUS
10
13.4496795669291327
20
-9.1534919685039373
11
13.4586244094488183
21
-9.1580496062992118
0
LINE
8
BLACK
6
CONTINUOUS
10
13.4586244094488183
20
-9.1580496062992118
11
13.4667461811023621
21
-9.1639503937007873
0
LINE
8
BLACK
6
CONTINUOUS
10
13.4667461811023621
20
-9.1639503937007873
11
13.4738448818897627
21
-9.1710490944881879
0
LINE
8
BLACK
6
CONTINUOUS
10
13.4738448818897627
20
-9.1710490944881879
11
13.4797456692913382
21
-9.1791708661417317
0
LINE
8
BLACK
6
CONTINUOUS
10
13.4797456692913382
20
-9.1791708661417317
11
13.4843033070866145
21
-9.1881157086614174
0
LINE
8
BLACK
6
CONTINUOUS
10
13.4843033070866145
20
-9.1881157086614174
11
13.4874055511811015
21
-9.1976634251968505
0
LINE
8
BLACK
6
CONTINUOUS
10
13.4874055511811015
20
-9.1976634251968505
11
13.4889760236220475
21
-9.207578897637795
0
LINE
8
BLACK
6
CONTINUOUS
10
13.4889760236220475
20
-9.207578897637795
11
13.4889760236220475
21
-9.217617952755905
0
LINE
8
BLACK
6
CONTINUOUS
10
13.4889760236220475
20
-9.217617952755905
11
13.4874055511811015
21
-9.2275334251968495
0
LINE
8
BLACK
6
CONTINUOUS
10
13.4874055511811015
20
-9.2275334251968495
11
13.4843033070866145
21
-9.2370811417322827
0
LINE
8
BLACK
6
CONTINUOUS
10
13.4843033070866145
20
-9.2370811417322827
11
13.4797456692913382
21
-9.2460259842519683
0
LINE
8
BLACK
6
CONTINUOUS
10
13.4797456692913382
20
-9.2460259842519683
11
13.4738448818897627
21
-9.2541477559055121
0
LINE
8
BLACK
6
CONTINUOUS
10
13.4738448818897627
20
-9.2541477559055121
11
13.4667461811023621
21
-9.2612464566929127
0
LINE
8
BLACK
6
CONTINUOUS
10
13.4667461811023621
20
-9.2612464566929127
11
13.4586244094488183
21
-9.2671472440944882
0
LINE
8
BLACK
6
CONTINUOUS
10
13.4586244094488183
20
-9.2671472440944882
11
13.4496795669291327
21
-9.2717048818897627
0
LINE
8
BLACK
6
CONTINUOUS
10
13.4496795669291327
20
-9.2717048818897627
11
13.4401318503937013
21
-9.2748071259842515
0
LINE
8
BLACK
6
CONTINUOUS
10
13.4401318503937013
20
-9.2748071259842515
11
13.430216377952755
21
-9.2763775984251975
0
LINE
8
BLACK
6
CONTINUOUS
10
13.430216377952755
20
-9.2763775984251975
11
13.420177322834645
21
-9.2763775984251975
0
LINE
8
BLACK
6
CONTINUOUS
10
13.420177322834645
20
-9.2763775984251975
11
13.4102618503937006
21
-9.2748071259842515
0
LINE
8
BLACK
6
CONTINUOUS
10
13.4102618503937006
20
-9.2748071259842515
11
13.4007141338582674
21
-9.2717048818897627
0
LINE
8
BLACK
6
CONTINUOUS
10
13.4007141338582674
20
-9.2717048818897627
11
13.3917692913385817
21
-9.2671472440944882
0
LINE
8
BLACK
6
CONTINUOUS
10
13.3917692913385817
20
-9.2671472440944882
11
13.3836475196850397
21
-9.2612464566929127
0
LINE
8
BLACK
6
CONTINUOUS
10
13.3836475196850397
20
-9.2612464566929127
11
13.3765488188976374
21
-9.2541477559055121
0
LINE
8
BLACK
6
CONTINUOUS
10
13.3765488188976374
20
-9.2541477559055121
11
13.3706480314960618
21
-9.2460259842519683
0
LINE
8
BLACK
6
CONTINUOUS
10
13.3706480314960618
20
-9.2460259842519683
11
13.3660903937007873
21
-9.2370811417322827
0
LINE
8
BLACK
6
CONTINUOUS
10
13.3660903937007873
20
-9.2370811417322827
11
13.3629881496062985
21
-9.2275334251968495
0
LINE
8
BLACK
6
CONTINUOUS
10
13.3629881496062985
20
-9.2275334251968495
11
13.3614176771653543
21
-9.217617952755905
0
LINE
8
BLACK
6
CONTINUOUS
10
13.3614176771653543
20
-9.217617952755905
11
13.3614176771653543
21
-9.2077183070866138
0
LINE
8
BLACK
6
CONTINUOUS
10
13.3614176771653543
20
-9.2077183070866138
11
13.3614176771653543
21
-9.207578897637795
0
LINE
8
BLACK
6
CONTINUOUS
10
13.3614176771653543
20
-9.207578897637795
11
13.3629881496062985
21
-9.1976634251968505
0
LINE
8
BLACK
6
CONTINUOUS
10
13.3629881496062985
20
-9.1976634251968505
11
13.3660903937007873
21
-9.1881157086614174
0
LINE
8
BLACK
6
CONTINUOUS
10
13.3660903937007873
20
-9.1881157086614174
11
13.3706480314960618
21
-9.1791708661417317
0
LINE
8
BLACK
6
CONTINUOUS
10
13.3706480314960618
20
-9.1791708661417317
11
13.3765488188976374
21
-9.1710490944881879
0
LINE
8
BLACK
6
CONTINUOUS
10
13.3765488188976374
20
-9.1710490944881879
11
13.3836475196850397
21
-9.1639503937007873
0
LINE
8
BLACK
6
CONTINUOUS
10
13.3836475196850397
20
-9.1639503937007873
11
13.3917692913385817
21
-9.1580496062992118
0
LINE
8
BLACK
6
CONTINUOUS
10
13.3917692913385817
20
-9.1580496062992118
11
13.4007141338582674
21
-9.1534919685039373
0
LINE
8
BLACK
6
CONTINUOUS
10
13.4007141338582674
20
-9.1534919685039373
11
13.4102618503937006
21
-9.1503897244094485
0
LINE
8
BLACK
6
CONTINUOUS
10
13.4102618503937006
20
-9.1503897244094485
11
13.420177322834645
21
-9.1488192519685043
0
LINE
8
BLACK
6
CONTINUOUS
10
13.420177322834645
20
-9.1488192519685043
11
13.430216377952755
21
-9.1488192519685043
0
LINE
8
BLACK
6
CONTINUOUS
10
13.430216377952755
20
-9.1488192519685043
11
13.4401318503937013
21
-9.1503897244094485
0
LINE
8
BLACK
6
CONTINUOUS
10
13.3631889763779519
20
-9.2174785433070863
11
13.3647158267716524
21
-9.2271186220472448
0
LINE
8
BLACK
6
CONTINUOUS
10
13.3647158267716524
20
-9.2271186220472448
11
13.36773188976378
21
-9.2364011811023623
0
LINE
8
BLACK
6
CONTINUOUS
10
13.36773188976378
20
-9.2364011811023623
11
13.3721629527559056
21
-9.2450976377952756
0
LINE
8
BLACK
6
CONTINUOUS
10
13.3721629527559056
20
-9.2450976377952756
11
13.3778998818897641
21
-9.2529938188976377
0
LINE
8
BLACK
6
CONTINUOUS
10
13.3778998818897641
20
-9.2529938188976377
11
13.3848014566929123
21
-9.2598953937007877
0
LINE
8
BLACK
6
CONTINUOUS
10
13.3848014566929123
20
-9.2598953937007877
11
13.3926976377952744
21
-9.2656323228346462
0
LINE
8
BLACK
6
CONTINUOUS
10
13.3926976377952744
20
-9.2656323228346462
11
13.4013940944881895
21
-9.2700633858267718
0
LINE
8
BLACK
6
CONTINUOUS
10
13.4013940944881895
20
-9.2700633858267718
11
13.4106766535433071
21
-9.2730794488188977
0
LINE
8
BLACK
6
CONTINUOUS
10
13.4106766535433071
20
-9.2730794488188977
11
13.4203167322834638
21
-9.2746062992125982
0
LINE
8
BLACK
6
CONTINUOUS
10
13.4203167322834638
20
-9.2746062992125982
11
13.4300769685039363
21
-9.2746062992125982
0
LINE
8
BLACK
6
CONTINUOUS
10
13.4300769685039363
20
-9.2746062992125982
11
13.4397170472440948
21
-9.2730794488188977
0
LINE
8
BLACK
6
CONTINUOUS
10
13.4397170472440948
20
-9.2730794488188977
11
13.4489996062992123
21
-9.2700633858267718
0
LINE
8
BLACK
6
CONTINUOUS
10
13.4489996062992123
20
-9.2700633858267718
11
13.4576960629921256
21
-9.2656323228346462
0
LINE
8
BLACK
6
CONTINUOUS
10
13.4576960629921256
20
-9.2656323228346462
11
13.4655922440944877
21
-9.2598953937007877
0
LINE
8
BLACK
6
CONTINUOUS
10
13.4655922440944877
20
-9.2598953937007877
11
13.4724938188976378
21
-9.2529938188976377
0
LINE
8
BLACK
6
CONTINUOUS
10
13.4724938188976378
20
-9.2529938188976377
11
13.4782307480314962
21
-9.2450976377952756
0
LINE
8
BLACK
6
CONTINUOUS
10
13.4782307480314962
20
-9.2450976377952756
11
13.4826618110236218
21
-9.2364011811023623
0
LINE
8
BLACK
6
CONTINUOUS
10
13.4826618110236218
20
-9.2364011811023623
11
13.4856778740157477
21
-9.2271186220472448
0
LINE
8
BLACK
6
CONTINUOUS
10
13.4856778740157477
20
-9.2271186220472448
11
13.4872047244094482
21
-9.2174785433070863
0
LINE
8
BLACK
6
CONTINUOUS
10
13.4872047244094482
20
-9.2174785433070863
11
13.4872047244094482
21
-9.2077183070866138
0
LINE
8
BLACK
6
CONTINUOUS
10
13.4872047244094482
20
-9.2077183070866138
11
13.4856778740157477
21
-9.1980782283464571
0
LINE
8
BLACK
6
CONTINUOUS
10
13.4856778740157477
20
-9.1980782283464571
11
13.4826618110236218
21
-9.1887956692913377
0
LINE
8
BLACK
6
CONTINUOUS
10
13.4826618110236218
20
-9.1887956692913377
11
13.4782307480314962
21
-9.1800992125984244
0
LINE
8
BLACK
6
CONTINUOUS
10
13.4782307480314962
20
-9.1800992125984244
11
13.4724938188976378
21
-9.1722030314960623
0
LINE
8
BLACK
6
CONTINUOUS
10
13.4724938188976378
20
-9.1722030314960623
11
13.4655922440944877
21
-9.1653014566929123
0
LINE
8
BLACK
6
CONTINUOUS
10
13.4655922440944877
20
-9.1653014566929123
11
13.4576960629921256
21
-9.1595645275590556
0
LINE
8
BLACK
6
CONTINUOUS
10
13.4576960629921256
20
-9.1595645275590556
11
13.4489996062992123
21
-9.1551334645669282
0
LINE
8
BLACK
6
CONTINUOUS
10
13.4489996062992123
20
-9.1551334645669282
11
13.4397170472440948
21
-9.1521174015748024
0
LINE
8
BLACK
6
CONTINUOUS
10
13.4397170472440948
20
-9.1521174015748024
11
13.4300769685039363
21
-9.1505905511811019
0
LINE
8
BLACK
6
CONTINUOUS
10
13.4300769685039363
20
-9.1505905511811019
11
13.4203167322834638
21
-9.1505905511811019
0
LINE
8
BLACK
6
CONTINUOUS
10
13.4203167322834638
20
-9.1505905511811019
11
13.4106766535433071
21
-9.1521174015748024
0
LINE
8
BLACK
6
CONTINUOUS
10
13.4106766535433071
20
-9.1521174015748024
11
13.4013940944881895
21
-9.1551334645669282
0
LINE
8
BLACK
6
CONTINUOUS
10
13.4013940944881895
20
-9.1551334645669282
11
13.3926976377952744
21
-9.1595645275590556
0
LINE
8
BLACK
6
CONTINUOUS
10
13.3926976377952744
20
-9.1595645275590556
11
13.3848014566929123
21
-9.1653014566929123
0
LINE
8
BLACK
6
CONTINUOUS
10
13.3848014566929123
20
-9.1653014566929123
11
13.3778998818897641
21
-9.1722030314960623
0
LINE
8
BLACK
6
CONTINUOUS
10
13.3778998818897641
20
-9.1722030314960623
11
13.3721629527559056
21
-9.1800992125984244
0
LINE
8
BLACK
6
CONTINUOUS
10
13.3721629527559056
20
-9.1800992125984244
11
13.36773188976378
21
-9.1887956692913377
0
LINE
8
BLACK
6
CONTINUOUS
10
13.36773188976378
20
-9.1887956692913377
11
13.3647158267716524
21
-9.1980782283464571
0
LINE
8
BLACK
6
CONTINUOUS
10
13.3647158267716524
20
-9.1980782283464571
11
13.3631889763779519
21
-9.2077183070866138
0
LINE
8
BLACK
6
CONTINUOUS
10
13.3631889763779519
20
-9.2077183070866138
11
13.3631889763779519
21
-9.2174785433070863
0
LINE
8
BLACK
6
CONTINUOUS
10
2.2198891732283466
20
-5.2517948818897633
11
2.2295837795275588
21
-5.2549448425196852
0
LINE
8
BLACK
6
CONTINUOUS
10
2.2295837795275588
20
-5.2549448425196852
11
2.2386662598425198
21
-5.2595725984251969
0
LINE
8
BLACK
6
CONTINUOUS
10
2.2386662598425198
20
-5.2595725984251969
11
2.2469129527559053
21
-5.2655641732283467
0
LINE
8
BLACK
6
CONTINUOUS
10
2.2469129527559053
20
-5.2655641732283467
11
2.254120866141732
21
-5.2727720866141734
0
LINE
8
BLACK
6
CONTINUOUS
10
2.254120866141732
20
-5.2727720866141734
11
2.2601124409448818
21
-5.2810187795275585
0
LINE
8
BLACK
6
CONTINUOUS
10
2.2601124409448818
20
-5.2810187795275585
11
2.2647401968503935
21
-5.2901012598425199
0
LINE
8
BLACK
6
CONTINUOUS
10
2.2647401968503935
20
-5.2901012598425199
11
2.267890157480315
21
-5.2997958661417321
0
LINE
8
BLACK
6
CONTINUOUS
10
2.267890157480315
20
-5.2997958661417321
11
2.2694848031496062
21
-5.3098638582677165
0
LINE
8
BLACK
6
CONTINUOUS
10
2.2694848031496062
20
-5.3098638582677165
11
2.2694848031496062
21
-5.320057401574803
0
LINE
8
BLACK
6
CONTINUOUS
10
2.2694848031496062
20
-5.320057401574803
11
2.267890157480315
21
-5.3301253937007873
0
LINE
8
BLACK
6
CONTINUOUS
10
2.267890157480315
20
-5.3301253937007873
11
2.2647401968503935
21
-5.3398199999999996
0
LINE
8
BLACK
6
CONTINUOUS
10
2.2647401968503935
20
-5.3398199999999996
11
2.2601124409448818
21
-5.3489024803149601
0
LINE
8
BLACK
6
CONTINUOUS
10
2.2601124409448818
20
-5.3489024803149601
11
2.254120866141732
21
-5.3571491732283461
0
LINE
8
BLACK
6
CONTINUOUS
10
2.254120866141732
20
-5.3571491732283461
11
2.2469129527559053
21
-5.3643570866141728
0
LINE
8
BLACK
6
CONTINUOUS
10
2.2469129527559053
20
-5.3643570866141728
11
2.2386662598425198
21
-5.3703486614173226
0
LINE
8
BLACK
6
CONTINUOUS
10
2.2386662598425198
20
-5.3703486614173226
11
2.2295837795275588
21
-5.3749764173228343
0
LINE
8
BLACK
6
CONTINUOUS
10
2.2295837795275588
20
-5.3749764173228343
11
2.2198891732283466
21
-5.3781263779527562
0
LINE
8
BLACK
6
CONTINUOUS
10
2.2198891732283466
20
-5.3781263779527562
11
2.2098211811023623
21
-5.3797210236220474
0
LINE
8
BLACK
6
CONTINUOUS
10
2.2098211811023623
20
-5.3797210236220474
11
2.1996276377952757
21
-5.3797210236220474
0
LINE
8
BLACK
6
CONTINUOUS
10
2.1996276377952757
20
-5.3797210236220474
11
2.1895596456692914
21
-5.3781263779527562
0
LINE
8
BLACK
6
CONTINUOUS
10
2.1895596456692914
20
-5.3781263779527562
11
2.1798650393700787
21
-5.3749764173228343
0
LINE
8
BLACK
6
CONTINUOUS
10
2.1798650393700787
20
-5.3749764173228343
11
2.1707825590551182
21
-5.3703486614173226
0
LINE
8
BLACK
6
CONTINUOUS
10
2.1707825590551182
20
-5.3703486614173226
11
2.1625358661417322
21
-5.3643570866141728
0
LINE
8
BLACK
6
CONTINUOUS
10
2.1625358661417322
20
-5.3643570866141728
11
2.1553279527559055
21
-5.3571491732283461
0
LINE
8
BLACK
6
CONTINUOUS
10
2.1553279527559055
20
-5.3571491732283461
11
2.1493363779527557
21
-5.3489024803149601
0
LINE
8
BLACK
6
CONTINUOUS
10
2.1493363779527557
20
-5.3489024803149601
11
2.144708622047244
21
-5.3398199999999996
0
LINE
8
BLACK
6
CONTINUOUS
10
2.144708622047244
20
-5.3398199999999996
11
2.141558661417323
21
-5.3301253937007873
0
LINE
8
BLACK
6
CONTINUOUS
10
2.141558661417323
20
-5.3301253937007873
11
2.1399640157480313
21
-5.320057401574803
0
LINE
8
BLACK
6
CONTINUOUS
10
2.1399640157480313
20
-5.320057401574803
11
2.1399640157480313
21
-5.3101579527559055
0
LINE
8
BLACK
6
CONTINUOUS
10
2.1399640157480313
20
-5.3101579527559055
11
2.1399640157480313
21
-5.3098638582677165
0
LINE
8
BLACK
6
CONTINUOUS
10
2.1399640157480313
20
-5.3098638582677165
11
2.141558661417323
21
-5.2997958661417321
0
LINE
8
BLACK
6
CONTINUOUS
10
2.141558661417323
20
-5.2997958661417321
11
2.144708622047244
21
-5.2901012598425199
0
LINE
8
BLACK
6
CONTINUOUS
10
2.144708622047244
20
-5.2901012598425199
11
2.1493363779527557
21
-5.2810187795275585
0
LINE
8
BLACK
6
CONTINUOUS
10
2.1493363779527557
20
-5.2810187795275585
11
2.1553279527559055
21
-5.2727720866141734
0
LINE
8
BLACK
6
CONTINUOUS
10
2.1553279527559055
20
-5.2727720866141734
11
2.1625358661417322
21
-5.2655641732283467
0
LINE
8
BLACK
6
CONTINUOUS
10
2.1625358661417322
20
-5.2655641732283467
11
2.1707825590551182
21
-5.2595725984251969
0
LINE
8
BLACK
6
CONTINUOUS
10
2.1707825590551182
20
-5.2595725984251969
11
2.1798650393700787
21
-5.2549448425196852
0
LINE
8
BLACK
6
CONTINUOUS
10
2.1798650393700787
20
-5.2549448425196852
11
2.1895596456692914
21
-5.2517948818897633
0
LINE
8
BLACK
6
CONTINUOUS
10
2.1895596456692914
20
-5.2517948818897633
11
2.1996276377952757
21
-5.250200236220472
0
LINE
8
BLACK
6
CONTINUOUS
10
2.1996276377952757
20
-5.250200236220472
11
2.2098211811023623
21
-5.250200236220472
0
LINE
8
BLACK
6
CONTINUOUS
10
2.2098211811023623
20
-5.250200236220472
11
2.2198891732283466
21
-5.2517948818897633
0
LINE
8
BLACK
6
CONTINUOUS
10
2.1437007874015745
20
-5.3197633070866139
11
2.1452033858267714
21
-5.3292503543307088
0
LINE
8
BLACK
6
CONTINUOUS
10
2.1452033858267714
20
-5.3292503543307088
11
2.1481716141732283
21
-5.338385590551181
0
LINE
8
BLACK
6
CONTINUOUS
10
2.1481716141732283
20
-5.338385590551181
11
2.1525323228346456
21
-5.3469439763779523
0
LINE
8
BLACK
6
CONTINUOUS
10
2.1525323228346456
20
-5.3469439763779523
11
2.158178188976378
21
-5.3547148425196847
0
LINE
8
BLACK
6
CONTINUOUS
10
2.158178188976378
20
-5.3547148425196847
11
2.1649701968503936
21
-5.3615068503937007
0
LINE
8
BLACK
6
CONTINUOUS
10
2.1649701968503936
20
-5.3615068503937007
11
2.172741062992126
21
-5.3671527165354327
0
LINE
8
BLACK
6
CONTINUOUS
10
2.172741062992126
20
-5.3671527165354327
11
2.1812994488188977
21
-5.3715134251968504
0
LINE
8
BLACK
6
CONTINUOUS
10
2.1812994488188977
20
-5.3715134251968504
11
2.1904346850393699
21
-5.3744816535433069
0
LINE
8
BLACK
6
CONTINUOUS
10
2.1904346850393699
20
-5.3744816535433069
11
2.1999217322834643
21
-5.3759842519685037
0
LINE
8
BLACK
6
CONTINUOUS
10
2.1999217322834643
20
-5.3759842519685037
11
2.2095270866141732
21
-5.3759842519685037
0
LINE
8
BLACK
6
CONTINUOUS
10
2.2095270866141732
20
-5.3759842519685037
11
2.2190141338582676
21
-5.3744816535433069
0
LINE
8
BLACK
6
CONTINUOUS
10
2.2190141338582676
20
-5.3744816535433069
11
2.2281493700787403
21
-5.3715134251968504
0
LINE
8
BLACK
6
CONTINUOUS
10
2.2281493700787403
20
-5.3715134251968504
11
2.236707755905512
21
-5.3671527165354327
0
LINE
8
BLACK
6
CONTINUOUS
10
2.236707755905512
20
-5.3671527165354327
11
2.2444786220472439
21
-5.3615068503937007
0
LINE
8
BLACK
6
CONTINUOUS
10
2.2444786220472439
20
-5.3615068503937007
11
2.2512706299212599
21
-5.3547148425196847
0
LINE
8
BLACK
6
CONTINUOUS
10
2.2512706299212599
20
-5.3547148425196847
11
2.2569164960629919
21
-5.3469439763779523
0
LINE
8
BLACK
6
CONTINUOUS
10
2.2569164960629919
20
-5.3469439763779523
11
2.2612772047244092
21
-5.338385590551181
0
LINE
8
BLACK
6
CONTINUOUS
10
2.2612772047244092
20
-5.338385590551181
11
2.2642454330708661
21
-5.3292503543307088
0
LINE
8
BLACK
6
CONTINUOUS
10
2.2642454330708661
20
-5.3292503543307088
11
2.265748031496063
21
-5.3197633070866139
0
LINE
8
BLACK
6
CONTINUOUS
10
2.265748031496063
20
-5.3197633070866139
11
2.265748031496063
21
-5.3101579527559055
0
LINE
8
BLACK
6
CONTINUOUS
10
2.265748031496063
20
-5.3101579527559055
11
2.2642454330708661
21
-5.3006709055118106
0
LINE
8
BLACK
6
CONTINUOUS
10
2.2642454330708661
20
-5.3006709055118106
11
2.2612772047244092
21
-5.2915356692913385
0
LINE
8
BLACK
6
CONTINUOUS
10
2.2612772047244092
20
-5.2915356692913385
11
2.2569164960629919
21
-5.2829772834645672
0
LINE
8
BLACK
6
CONTINUOUS
10
2.2569164960629919
20
-5.2829772834645672
11
2.2512706299212599
21
-5.2752064173228348
0
LINE
8
BLACK
6
CONTINUOUS
10
2.2512706299212599
20
-5.2752064173228348
11
2.2444786220472439
21
-5.2684144094488188
0
LINE
8
BLACK
6
CONTINUOUS
10
2.2444786220472439
20
-5.2684144094488188
11
2.236707755905512
21
-5.2627685433070868
0
LINE
8
BLACK
6
CONTINUOUS
10
2.236707755905512
20
-5.2627685433070868
11
2.2281493700787403
21
-5.2584078346456691
0
LINE
8
BLACK
6
CONTINUOUS
10
2.2281493700787403
20
-5.2584078346456691
11
2.2190141338582676
21
-5.2554396062992126
0
LINE
8
BLACK
6
CONTINUOUS
10
2.2190141338582676
20
-5.2554396062992126
11
2.2095270866141732
21
-5.2539370078740157
0
LINE
8
BLACK
6
CONTINUOUS
10
2.2095270866141732
20
-5.2539370078740157
11
2.1999217322834643
21
-5.2539370078740157
0
LINE
8
BLACK
6
CONTINUOUS
10
2.1999217322834643
20
-5.2539370078740157
11
2.1904346850393699
21
-5.2554396062992126
0
LINE
8
BLACK
6
CONTINUOUS
10
2.1904346850393699
20
-5.2554396062992126
11
2.1812994488188977
21
-5.2584078346456691
0
LINE
8
BLACK
6
CONTINUOUS
10
2.1812994488188977
20
-5.2584078346456691
11
2.172741062992126
21
-5.2627685433070868
0
LINE
8
BLACK
6
CONTINUOUS
10
2.172741062992126
20
-5.2627685433070868
11
2.1649701968503936
21
-5.2684144094488188
0
LINE
8
BLACK
6
CONTINUOUS
10
2.1649701968503936
20
-5.2684144094488188
11
2.158178188976378
21
-5.2752064173228348
0
LINE
8
BLACK
6
CONTINUOUS
10
2.158178188976378
20
-5.2752064173228348
11
2.1525323228346456
21
-5.2829772834645672
0
LINE
8
BLACK
6
CONTINUOUS
10
2.1525323228346456
20
-5.2829772834645672
11
2.1481716141732283
21
-5.2915356692913385
0
LINE
8
BLACK
6
CONTINUOUS
10
2.1481716141732283
20
-5.2915356692913385
11
2.1452033858267714
21
-5.3006709055118106
0
LINE
8
BLACK
6
CONTINUOUS
10
2.1452033858267714
20
-5.3006709055118106
11
2.1437007874015745
21
-5.3101579527559055
0
LINE
8
BLACK
6
CONTINUOUS
10
2.1437007874015745
20
-5.3101579527559055
11
2.1437007874015745
21
-5.3197633070866139
0
LINE
8
BLACK
6
CONTINUOUS
10
13.4401318503937013
20
-5.2527519291338578
11
13.4496795669291327
21
-5.2558541732283466
0
LINE
8
BLACK
6
CONTINUOUS
10
13.4496795669291327
20
-5.2558541732283466
11
13.4586244094488183
21
-5.260411811023622
0
LINE
8
BLACK
6
CONTINUOUS
10
13.4586244094488183
20
-5.260411811023622
11
13.4667461811023621
21
-5.2663125984251966
0
LINE
8
BLACK
6
CONTINUOUS
10
13.4667461811023621
20
-5.2663125984251966
11
13.4738448818897627
21
-5.2734112992125981
0
LINE
8
BLACK
6
CONTINUOUS
10
13.4738448818897627
20
-5.2734112992125981
11
13.4797456692913382
21
-5.2815330708661419
0
LINE
8
BLACK
6
CONTINUOUS
10
13.4797456692913382
20
-5.2815330708661419
11
13.4843033070866145
21
-5.2904779133858266
0
LINE
8
BLACK
6
CONTINUOUS
10
13.4843033070866145
20
-5.2904779133858266
11
13.4874055511811015
21
-5.3000256299212598
0
LINE
8
BLACK
6
CONTINUOUS
10
13.4874055511811015
20
-5.3000256299212598
11
13.4889760236220475
21
-5.3099411023622043
0
LINE
8
BLACK
6
CONTINUOUS
10
13.4889760236220475
20
-5.3099411023622043
11
13.4889760236220475
21
-5.3199801574803152
0
LINE
8
BLACK
6
CONTINUOUS
10
13.4889760236220475
20
-5.3199801574803152
11
13.4874055511811015
21
-5.3298956299212596
0
LINE
8
BLACK
6
CONTINUOUS
10
13.4874055511811015
20
-5.3298956299212596
11
13.4843033070866145
21
-5.3394433464566928
0
LINE
8
BLACK
6
CONTINUOUS
10
13.4843033070866145
20
-5.3394433464566928
11
13.4797456692913382
21
-5.3483881889763776
0
LINE
8
BLACK
6
CONTINUOUS
10
13.4797456692913382
20
-5.3483881889763776
11
13.4738448818897627
21
-5.3565099606299214
0
LINE
8
BLACK
6
CONTINUOUS
10
13.4738448818897627
20
-5.3565099606299214
11
13.4667461811023621
21
-5.3636086614173228
0
LINE
8
BLACK
6
CONTINUOUS
10
13.4667461811023621
20
-5.3636086614173228
11
13.4586244094488183
21
-5.3695094488188975
0
LINE
8
BLACK
6
CONTINUOUS
10
13.4586244094488183
20
-5.3695094488188975
11
13.4496795669291327
21
-5.3740670866141729
0
LINE
8
BLACK
6
CONTINUOUS
10
13.4496795669291327
20
-5.3740670866141729
11
13.4401318503937013
21
-5.3771693307086617
0
LINE
8
BLACK
6
CONTINUOUS
10
13.4401318503937013
20
-5.3771693307086617
11
13.430216377952755
21
-5.3787398031496059
0
LINE
8
BLACK
6
CONTINUOUS
10
13.430216377952755
20
-5.3787398031496059
11
13.420177322834645
21
-5.3787398031496059
0
LINE
8
BLACK
6
CONTINUOUS
10
13.420177322834645
20
-5.3787398031496059
11
13.4102618503937006
21
-5.3771693307086617
0
LINE
8
BLACK
6
CONTINUOUS
10
13.4102618503937006
20
-5.3771693307086617
11
13.4007141338582674
21
-5.3740670866141729
0
LINE
8
BLACK
6
CONTINUOUS
10
13.4007141338582674
20
-5.3740670866141729
11
13.3917692913385817
21
-5.3695094488188975
0
LINE
8
BLACK
6
CONTINUOUS
10
13.3917692913385817
20
-5.3695094488188975
11
13.3836475196850397
21
-5.3636086614173228
0
LINE
8
BLACK
6
CONTINUOUS
10
13.3836475196850397
20
-5.3636086614173228
11
13.3765488188976374
21
-5.3565099606299214
0
LINE
8
BLACK
6
CONTINUOUS
10
13.3765488188976374
20
-5.3565099606299214
11
13.3706480314960618
21
-5.3483881889763776
0
LINE
8
BLACK
6
CONTINUOUS
10
13.3706480314960618
20
-5.3483881889763776
11
13.3660903937007873
21
-5.3394433464566928
0
LINE
8
BLACK
6
CONTINUOUS
10
13.3660903937007873
20
-5.3394433464566928
11
13.3629881496062985
21
-5.3298956299212596
0
LINE
8
BLACK
6
CONTINUOUS
10
13.3629881496062985
20
-5.3298956299212596
11
13.3614176771653543
21
-5.3199801574803152
0
LINE
8
BLACK
6
CONTINUOUS
10
13.3614176771653543
20
-5.3199801574803152
11
13.3614176771653543
21
-5.3100805118110239
0
LINE
8
BLACK
6
CONTINUOUS
10
13.3614176771653543
20
-5.3100805118110239
11
13.3614176771653543
21
-5.3099411023622043
0
LINE
8
BLACK
6
CONTINUOUS
10
13.3614176771653543
20
-5.3099411023622043
11
13.3629881496062985
21
-5.3000256299212598
0
LINE
8
BLACK
6
CONTINUOUS
10
13.3629881496062985
20
-5.3000256299212598
11
13.3660903937007873
21
-5.2904779133858266
0
LINE
8
BLACK
6
CONTINUOUS
10
13.3660903937007873
20
-5.2904779133858266
11
13.3706480314960618
21
-5.2815330708661419
0
LINE
8
BLACK
6
CONTINUOUS
10
13.3706480314960618
20
-5.2815330708661419
11
13.3765488188976374
21
-5.2734112992125981
0
LINE
8
BLACK
6
CONTINUOUS
10
13.3765488188976374
20
-5.2734112992125981
11
13.3836475196850397
21
-5.2663125984251966
0
LINE
8
BLACK
6
CONTINUOUS
10
13.3836475196850397
20
-5.2663125984251966
11
13.3917692913385817
21
-5.260411811023622
0
LINE
8
BLACK
6
CONTINUOUS
10
13.3917692913385817
20
-5.260411811023622
11
13.4007141338582674
21
-5.2558541732283466
0
LINE
8
BLACK
6
CONTINUOUS
10
13.4007141338582674
20
-5.2558541732283466
11
13.4102618503937006
21
-5.2527519291338578
0
LINE
8
BLACK
6
CONTINUOUS
10
13.4102618503937006
20
-5.2527519291338578
11
13.420177322834645
21
-5.2511814566929136
0
LINE
8
BLACK
6
CONTINUOUS
10
13.420177322834645
20
-5.2511814566929136
11
13.430216377952755
21
-5.2511814566929136
0
LINE
8
BLACK
6
CONTINUOUS
10
13.430216377952755
20
-5.2511814566929136
11
13.4401318503937013
21
-5.2527519291338578
0
LINE
8
BLACK
6
CONTINUOUS
10
13.3631889763779519
20
-5.3198407480314955
11
13.3647158267716524
21
-5.3294808267716531
0
LINE
8
BLACK
6
CONTINUOUS
10
13.3647158267716524
20
-5.3294808267716531
11
13.36773188976378
21
-5.3387633858267716
0
LINE
8
BLACK
6
CONTINUOUS
10
13.36773188976378
20
-5.3387633858267716
11
13.3721629527559056
21
-5.3474598425196849
0
LINE
8
BLACK
6
CONTINUOUS
10
13.3721629527559056
20
-5.3474598425196849
11
13.3778998818897641
21
-5.355356023622047
0
LINE
8
BLACK
6
CONTINUOUS
10
13.3778998818897641
20
-5.355356023622047
11
13.3848014566929123
21
-5.362257598425197
0
LINE
8
BLACK
6
CONTINUOUS
10
13.3848014566929123
20
-5.362257598425197
11
13.3926976377952744
21
-5.3679945275590546
0
LINE
8
BLACK
6
CONTINUOUS
10
13.3926976377952744
20
-5.3679945275590546
11
13.4013940944881895
21
-5.3724255905511811
0
LINE
8
BLACK
6
CONTINUOUS
10
13.4013940944881895
20
-5.3724255905511811
11
13.4106766535433071
21
-5.3754416535433069
0
LINE
8
BLACK
6
CONTINUOUS
10
13.4106766535433071
20
-5.3754416535433069
11
13.4203167322834638
21
-5.3769685039370074
0
LINE
8
BLACK
6
CONTINUOUS
10
13.4203167322834638
20
-5.3769685039370074
11
13.4300769685039363
21
-5.3769685039370074
0
LINE
8
BLACK
6
CONTINUOUS
10
13.4300769685039363
20
-5.3769685039370074
11
13.4397170472440948
21
-5.3754416535433069
0
LINE
8
BLACK
6
CONTINUOUS
10
13.4397170472440948
20
-5.3754416535433069
11
13.4489996062992123
21
-5.3724255905511811
0
LINE
8
BLACK
6
CONTINUOUS
10
13.4489996062992123
20
-5.3724255905511811
11
13.4576960629921256
21
-5.3679945275590546
0
LINE
8
BLACK
6
CONTINUOUS
10
13.4576960629921256
20
-5.3679945275590546
11
13.4655922440944877
21
-5.362257598425197
0
LINE
8
BLACK
6
CONTINUOUS
10
13.4655922440944877
20
-5.362257598425197
11
13.4724938188976378
21
-5.355356023622047
0
LINE
8
BLACK
6
CONTINUOUS
10
13.4724938188976378
20
-5.355356023622047
11
13.4782307480314962
21
-5.3474598425196849
0
LINE
8
BLACK
6
CONTINUOUS
10
13.4782307480314962
20
-5.3474598425196849
11
13.4826618110236218
21
-5.3387633858267716
0
LINE
8
BLACK
6
CONTINUOUS
10
13.4826618110236218
20
-5.3387633858267716
11
13.4856778740157477
21
-5.3294808267716531
0
LINE
8
BLACK
6
CONTINUOUS
10
13.4856778740157477
20
-5.3294808267716531
11
13.4872047244094482
21
-5.3198407480314955
0
LINE
8
BLACK
6
CONTINUOUS
10
13.4872047244094482
20
-5.3198407480314955
11
13.4872047244094482
21
-5.3100805118110239
0
LINE
8
BLACK
6
CONTINUOUS
10
13.4872047244094482
20
-5.3100805118110239
11
13.4856778740157477
21
-5.3004404330708663
0
LINE
8
BLACK
6
CONTINUOUS
10
13.4856778740157477
20
-5.3004404330708663
11
13.4826618110236218
21
-5.2911578740157479
0
LINE
8
BLACK
6
CONTINUOUS
10
13.4826618110236218
20
-5.2911578740157479
11
13.4782307480314962
21
-5.2824614173228346
0
LINE
8
BLACK
6
CONTINUOUS
10
13.4782307480314962
20
-5.2824614173228346
11
13.4724938188976378
21
-5.2745652362204725
0
LINE
8
BLACK
6
CONTINUOUS
10
13.4724938188976378
20
-5.2745652362204725
11
13.4655922440944877
21
-5.2676636614173225
0
LINE
8
BLACK
6
CONTINUOUS
10
13.4655922440944877
20
-5.2676636614173225
11
13.4576960629921256
21
-5.2619267322834649
0
LINE
8
BLACK
6
CONTINUOUS
10
13.4576960629921256
20
-5.2619267322834649
11
13.4489996062992123
21
-5.2574956692913384
0
LINE
8
BLACK
6
CONTINUOUS
10
13.4489996062992123
20
-5.2574956692913384
11
13.4397170472440948
21
-5.2544796062992125
0
LINE
8
BLACK
6
CONTINUOUS
10
13.4397170472440948
20
-5.2544796062992125
11
13.4300769685039363
21
-5.252952755905512
0
LINE
8
BLACK
6
CONTINUOUS
10
13.4300769685039363
20
-5.252952755905512
11
13.4203167322834638
21
-5.252952755905512
0
LINE
8
BLACK
6
CONTINUOUS
10
13.4203167322834638
20
-5.252952755905512
11
13.4106766535433071
21
-5.2544796062992125
0
LINE
8
BLACK
6
CONTINUOUS
10
13.4106766535433071
20
-5.2544796062992125
11
13.4013940944881895
21
-5.2574956692913384
0
LINE
8
BLACK
6
CONTINUOUS
10
13.4013940944881895
20
-5.2574956692913384
11
13.3926976377952744
21
-5.2619267322834649
0
LINE
8
BLACK
6
CONTINUOUS
10
13.3926976377952744
20
-5.2619267322834649
11
13.3848014566929123
21
-5.2676636614173225
0
LINE
8
BLACK
6
CONTINUOUS
10
13.3848014566929123
20
-5.2676636614173225
11
13.3778998818897641
21
-5.2745652362204725
0
LINE
8
BLACK
6
CONTINUOUS
10
13.3778998818897641
20
-5.2745652362204725
11
13.3721629527559056
21
-5.2824614173228346
0
LINE
8
BLACK
6
CONTINUOUS
10
13.3721629527559056
20
-5.2824614173228346
11
13.36773188976378
21
-5.2911578740157479
0
LINE
8
BLACK
6
CONTINUOUS
10
13.36773188976378
20
-5.2911578740157479
11
13.3647158267716524
21
-5.3004404330708663
0
LINE
8
BLACK
6
CONTINUOUS
10
13.3647158267716524
20
-5.3004404330708663
11
13.3631889763779519
21
-5.3100805118110239
0
LINE
8
BLACK
6
CONTINUOUS
10
13.3631889763779519
20
-5.3100805118110239
11
13.3631889763779519
21
-5.3198407480314955
0
LINE
8
BLACK
6
CONTINUOUS
10
13.0059512992125974
20
-3.3706529921259842
11
13.0149051574803138
21
-3.3730522047244094
0
LINE
8
BLACK
6
CONTINUOUS
10
13.0149051574803138
20
-3.3730522047244094
11
13.0234692913385821
21
-3.376599566929134
0
LINE
8
BLACK
6
CONTINUOUS
10
13.0234692913385821
20
-3.376599566929134
11
13.0314970866141735
21
-3.3812344488188977
0
LINE
8
BLACK
6
CONTINUOUS
10
13.0314970866141735
20
-3.3812344488188977
11
13.0388512598425201
21
-3.3868774803149604
0
LINE
8
BLACK
6
CONTINUOUS
10
13.0388512598425201
20
-3.3868774803149604
11
13.0454059842519676
21
-3.3934322047244092
0
LINE
8
BLACK
6
CONTINUOUS
10
13.0454059842519676
20
-3.3934322047244092
11
13.0510490157480312
21
-3.4007863779527558
0
LINE
8
BLACK
6
CONTINUOUS
10
13.0510490157480312
20
-3.4007863779527558
11
13.0556838976377954
21
-3.4088141732283463
0
LINE
8
BLACK
6
CONTINUOUS
10
13.0556838976377954
20
-3.4088141732283463
11
13.0592312598425195
21
-3.4173783070866142
0
LINE
8
BLACK
6
CONTINUOUS
10
13.0592312598425195
20
-3.4173783070866142
11
13.0616304724409442
21
-3.4263321653543306
0
LINE
8
BLACK
6
CONTINUOUS
10
13.0616304724409442
20
-3.4263321653543306
11
13.0628403937007871
21
-3.4355225984251967
0
LINE
8
BLACK
6
CONTINUOUS
10
13.0628403937007871
20
-3.4355225984251967
11
13.0628403937007871
21
-3.4447923622047245
0
LINE
8
BLACK
6
CONTINUOUS
10
13.0628403937007871
20
-3.4447923622047245
11
13.0616304724409442
21
-3.4539827952755906
0
LINE
8
BLACK
6
CONTINUOUS
10
13.0616304724409442
20
-3.4539827952755906
11
13.0592312598425195
21
-3.462936653543307
0
LINE
8
BLACK
6
CONTINUOUS
10
13.0592312598425195
20
-3.462936653543307
11
13.0556838976377954
21
-3.4715007874015749
0
LINE
8
BLACK
6
CONTINUOUS
10
13.0556838976377954
20
-3.4715007874015749
11
13.0510490157480312
21
-3.4795285826771654
0
LINE
8
BLACK
6
CONTINUOUS
10
13.0510490157480312
20
-3.4795285826771654
11
13.0454059842519676
21
-3.4868827559055116
0
LINE
8
BLACK
6
CONTINUOUS
10
13.0454059842519676
20
-3.4868827559055116
11
13.0388512598425201
21
-3.4934374803149604
0
LINE
8
BLACK
6
CONTINUOUS
10
13.0388512598425201
20
-3.4934374803149604
11
13.0314970866141735
21
-3.4990805118110235
0
LINE
8
BLACK
6
CONTINUOUS
10
13.0314970866141735
20
-3.4990805118110235
11
13.0234692913385821
21
-3.5037153937007872
0
LINE
8
BLACK
6
CONTINUOUS
10
13.0234692913385821
20
-3.5037153937007872
11
13.0149051574803138
21
-3.5072627559055118
0
LINE
8
BLACK
6
CONTINUOUS
10
13.0149051574803138
20
-3.5072627559055118
11
13.0059512992125974
21
-3.509661968503937
0
LINE
8
BLACK
6
CONTINUOUS
10
13.0059512992125974
20
-3.509661968503937
11
12.9967608661417326
21
-3.5108718897637794
0
LINE
8
BLACK
6
CONTINUOUS
10
12.9967608661417326
20
-3.5108718897637794
11
12.9874911023622044
21
-3.5108718897637794
0
LINE
8
BLACK
6
CONTINUOUS
10
12.9874911023622044
20
-3.5108718897637794
11
12.9783006692913379
21
-3.509661968503937
0
LINE
8
BLACK
6
CONTINUOUS
10
12.9783006692913379
20
-3.509661968503937
11
12.9693468110236214
21
-3.5072627559055118
0
LINE
8
BLACK
6
CONTINUOUS
10
12.9693468110236214
20
-3.5072627559055118
11
12.9607826771653531
21
-3.5037153937007872
0
LINE
8
BLACK
6
CONTINUOUS
10
12.9607826771653531
20
-3.5037153937007872
11
12.9527548818897635
21
-3.4990805118110235
0
LINE
8
BLACK
6
CONTINUOUS
10
12.9527548818897635
20
-3.4990805118110235
11
12.9454007086614169
21
-3.4934374803149604
0
LINE
8
BLACK
6
CONTINUOUS
10
12.9454007086614169
20
-3.4934374803149604
11
12.9388459842519676
21
-3.4868827559055116
0
LINE
8
BLACK
6
CONTINUOUS
10
12.9388459842519676
20
-3.4868827559055116
11
12.9332029527559058
21
-3.4795285826771654
0
LINE
8
BLACK
6
CONTINUOUS
10
12.9332029527559058
20
-3.4795285826771654
11
12.9285680708661417
21
-3.4715007874015749
0
LINE
8
BLACK
6
CONTINUOUS
10
12.9285680708661417
20
-3.4715007874015749
11
12.9250207086614175
21
-3.462936653543307
0
LINE
8
BLACK
6
CONTINUOUS
10
12.9250207086614175
20
-3.462936653543307
11
12.922621496062991
21
-3.4539827952755906
0
LINE
8
BLACK
6
CONTINUOUS
10
12.922621496062991
20
-3.4539827952755906
11
12.9214115748031499
21
-3.4447923622047245
0
LINE
8
BLACK
6
CONTINUOUS
10
12.9214115748031499
20
-3.4447923622047245
11
12.9214115748031499
21
-3.4357707086614173
0
LINE
8
BLACK
6
CONTINUOUS
10
12.9214115748031499
20
-3.4357707086614173
11
12.9214115748031499
21
-3.4355225984251967
0
LINE
8
BLACK
6
CONTINUOUS
10
12.9214115748031499
20
-3.4355225984251967
11
12.922621496062991
21
-3.4263321653543306
0
LINE
8
BLACK
6
CONTINUOUS
10
12.922621496062991
20
-3.4263321653543306
11
12.9250207086614175
21
-3.4173783070866142
0
LINE
8
BLACK
6
CONTINUOUS
10
12.9250207086614175
20
-3.4173783070866142
11
12.9285680708661417
21
-3.4088141732283463
0
LINE
8
BLACK
6
CONTINUOUS
10
12.9285680708661417
20
-3.4088141732283463
11
12.9332029527559058
21
-3.4007863779527558
0
LINE
8
BLACK
6
CONTINUOUS
10
12.9332029527559058
20
-3.4007863779527558
11
12.9388459842519676
21
-3.3934322047244092
0
LINE
8
BLACK
6
CONTINUOUS
10
12.9388459842519676
20
-3.3934322047244092
11
12.9454007086614169
21
-3.3868774803149604
0
LINE
8
BLACK
6
CONTINUOUS
10
12.9454007086614169
20
-3.3868774803149604
11
12.9527548818897635
21
-3.3812344488188977
0
LINE
8
BLACK
6
CONTINUOUS
10
12.9527548818897635
20
-3.3812344488188977
11
12.9607826771653531
21
-3.376599566929134
0
LINE
8
BLACK
6
CONTINUOUS
10
12.9607826771653531
20
-3.376599566929134
11
12.9693468110236214
21
-3.3730522047244094
0
LINE
8
BLACK
6
CONTINUOUS
10
12.9693468110236214
20
-3.3730522047244094
11
12.9783006692913379
21
-3.3706529921259842
0
LINE
8
BLACK
6
CONTINUOUS
10
12.9783006692913379
20
-3.3706529921259842
11
12.9874911023622044
21
-3.3694430708661418
0
LINE
8
BLACK
6
CONTINUOUS
10
12.9874911023622044
20
-3.3694430708661418
11
12.9967608661417326
21
-3.3694430708661418
0
LINE
8
BLACK
6
CONTINUOUS
10
12.9967608661417326
20
-3.3694430708661418
11
13.0059512992125974
21
-3.3706529921259842
0
LINE
8
BLACK
6
CONTINUOUS
10
12.9251968503937
20
-3.4445442519685039
11
12.9263420078740161
21
-3.4532427165354331
0
LINE
8
BLACK
6
CONTINUOUS
10
12.9263420078740161
20
-3.4532427165354331
11
12.9286127559055117
21
-3.4617173228346454
0
LINE
8
BLACK
6
CONTINUOUS
10
12.9286127559055117
20
-3.4617173228346454
11
12.931970275590551
21
-3.4698229921259842
0
LINE
8
BLACK
6
CONTINUOUS
10
12.931970275590551
20
-3.4698229921259842
11
12.9363570078740153
21
-3.4774211023622046
0
LINE
8
BLACK
6
CONTINUOUS
10
12.9363570078740153
20
-3.4774211023622046
11
12.9416980314960632
21
-3.4843816141732282
0
LINE
8
BLACK
6
CONTINUOUS
10
12.9416980314960632
20
-3.4843816141732282
11
12.9479018503937002
21
-3.4905854330708661
0
LINE
8
BLACK
6
CONTINUOUS
10
12.9479018503937002
20
-3.4905854330708661
11
12.9548623622047234
21
-3.4959264566929131
0
LINE
8
BLACK
6
CONTINUOUS
10
12.9548623622047234
20
-3.4959264566929131
11
12.9624604724409451
21
-3.5003131889763779
0
LINE
8
BLACK
6
CONTINUOUS
10
12.9624604724409451
20
-3.5003131889763779
11
12.9705661417322826
21
-3.5036707086614172
0
LINE
8
BLACK
6
CONTINUOUS
10
12.9705661417322826
20
-3.5036707086614172
11
12.9790407480314958
21
-3.5059414566929132
0
LINE
8
BLACK
6
CONTINUOUS
10
12.9790407480314958
20
-3.5059414566929132
11
12.9877392125984255
21
-3.5070866141732284
0
LINE
8
BLACK
6
CONTINUOUS
10
12.9877392125984255
20
-3.5070866141732284
11
12.9965127559055116
21
-3.5070866141732284
0
LINE
8
BLACK
6
CONTINUOUS
10
12.9965127559055116
20
-3.5070866141732284
11
13.0052112204724413
21
-3.5059414566929132
0
LINE
8
BLACK
6
CONTINUOUS
10
13.0052112204724413
20
-3.5059414566929132
11
13.0136858267716526
21
-3.5036707086614172
0
LINE
8
BLACK
6
CONTINUOUS
10
13.0136858267716526
20
-3.5036707086614172
11
13.0217914960629919
21
-3.5003131889763779
0
LINE
8
BLACK
6
CONTINUOUS
10
13.0217914960629919
20
-3.5003131889763779
11
13.0293896062992118
21
-3.4959264566929131
0
LINE
8
BLACK
6
CONTINUOUS
10
13.0293896062992118
20
-3.4959264566929131
11
13.0363501181102368
21
-3.4905854330708661
0
LINE
8
BLACK
6
CONTINUOUS
10
13.0363501181102368
20
-3.4905854330708661
11
13.0425539370078738
21
-3.4843816141732282
0
LINE
8
BLACK
6
CONTINUOUS
10
13.0425539370078738
20
-3.4843816141732282
11
13.0478949606299217
21
-3.4774211023622046
0
LINE
8
BLACK
6
CONTINUOUS
10
13.0478949606299217
20
-3.4774211023622046
11
13.052281692913386
21
-3.4698229921259842
0
LINE
8
BLACK
6
CONTINUOUS
10
13.052281692913386
20
-3.4698229921259842
11
13.0556392125984253
21
-3.4617173228346454
0
LINE
8
BLACK
6
CONTINUOUS
10
13.0556392125984253
20
-3.4617173228346454
11
13.0579099606299209
21
-3.4532427165354331
0
LINE
8
BLACK
6
CONTINUOUS
10
13.0579099606299209
20
-3.4532427165354331
11
13.0590551181102352
21
-3.4445442519685039
0
LINE
8
BLACK
6
CONTINUOUS
10
13.0590551181102352
20
-3.4445442519685039
11
13.0590551181102352
21
-3.4357707086614173
0
LINE
8
BLACK
6
CONTINUOUS
10
13.0590551181102352
20
-3.4357707086614173
11
13.0579099606299209
21
-3.4270722440944881
0
LINE
8
BLACK
6
CONTINUOUS
10
13.0579099606299209
20
-3.4270722440944881
11
13.0556392125984253
21
-3.4185976377952754
0
LINE
8
BLACK
6
CONTINUOUS
10
13.0556392125984253
20
-3.4185976377952754
11
13.052281692913386
21
-3.410491968503937
0
LINE
8
BLACK
6
CONTINUOUS
10
13.052281692913386
20
-3.410491968503937
11
13.0478949606299217
21
-3.4028938582677166
0
LINE
8
BLACK
6
CONTINUOUS
10
13.0478949606299217
20
-3.4028938582677166
11
13.0425539370078738
21
-3.395933346456693
0
LINE
8
BLACK
6
CONTINUOUS
10
13.0425539370078738
20
-3.395933346456693
11
13.0363501181102368
21
-3.3897295275590551
0
LINE
8
BLACK
6
CONTINUOUS
10
13.0363501181102368
20
-3.3897295275590551
11
13.0293896062992118
21
-3.3843885039370076
0
LINE
8
BLACK
6
CONTINUOUS
10
13.0293896062992118
20
-3.3843885039370076
11
13.0217914960629919
21
-3.3800017716535433
0
LINE
8
BLACK
6
CONTINUOUS
10
13.0217914960629919
20
-3.3800017716535433
11
13.0136858267716526
21
-3.376644251968504
0
LINE
8
BLACK
6
CONTINUOUS
10
13.0136858267716526
20
-3.376644251968504
11
13.0052112204724413
21
-3.374373503937008
0
LINE
8
BLACK
6
CONTINUOUS
10
13.0052112204724413
20
-3.374373503937008
11
12.9965127559055116
21
-3.3732283464566928
0
LINE
8
BLACK
6
CONTINUOUS
10
12.9965127559055116
20
-3.3732283464566928
11
12.9877392125984255
21
-3.3732283464566928
0
LINE
8
BLACK
6
CONTINUOUS
10
12.9877392125984255
20
-3.3732283464566928
11
12.9790407480314958
21
-3.374373503937008
0
LINE
8
BLACK
6
CONTINUOUS
10
12.9790407480314958
20
-3.374373503937008
11
12.9705661417322826
21
-3.376644251968504
0
LINE
8
BLACK
6
CONTINUOUS
10
12.9705661417322826
20
-3.376644251968504
11
12.9624604724409451
21
-3.3800017716535433
0
LINE
8
BLACK
6
CONTINUOUS
10
12.9624604724409451
20
-3.3800017716535433
11
12.9548623622047234
21
-3.3843885039370076
0
LINE
8
BLACK
6
CONTINUOUS
10
12.9548623622047234
20
-3.3843885039370076
11
12.9479018503937002
21
-3.3897295275590551
0
LINE
8
BLACK
6
CONTINUOUS
10
12.9479018503937002
20
-3.3897295275590551
11
12.9416980314960632
21
-3.395933346456693
0
LINE
8
BLACK
6
CONTINUOUS
10
12.9416980314960632
20
-3.395933346456693
11
12.9363570078740153
21
-3.4028938582677166
0
LINE
8
BLACK
6
CONTINUOUS
10
12.9363570078740153
20
-3.4028938582677166
11
12.931970275590551
21
-3.410491968503937
0
LINE
8
BLACK
6
CONTINUOUS
10
12.931970275590551
20
-3.410491968503937
11
12.9286127559055117
21
-3.4185976377952754
0
LINE
8
BLACK
6
CONTINUOUS
10
12.9286127559055117
20
-3.4185976377952754
11
12.9263420078740161
21
-3.4270722440944881
0
LINE
8
BLACK
6
CONTINUOUS
10
12.9263420078740161
20
-3.4270722440944881
11
12.9251968503937
21
-3.4357707086614173
0
LINE
8
BLACK
6
CONTINUOUS
10
12.9251968503937
20
-3.4357707086614173
11
12.9251968503937
21
-3.4445442519685039
0
LINE
8
BLACK
6
CONTINUOUS
10
13.0059512992125974
20
-3.1344325196850393
11
13.0149051574803138
21
-3.1368317322834645
0
LINE
8
BLACK
6
CONTINUOUS
10
13.0149051574803138
20
-3.1368317322834645
11
13.0234692913385821
21
-3.1403790944881891
0
LINE
8
BLACK
6
CONTINUOUS
10
13.0234692913385821
20
-3.1403790944881891
11
13.0314970866141735
21
-3.1450139763779528
0
LINE
8
BLACK
6
CONTINUOUS
10
13.0314970866141735
20
-3.1450139763779528
11
13.0388512598425201
21
-3.1506570078740155
0
LINE
8
BLACK
6
CONTINUOUS
10
13.0388512598425201
20
-3.1506570078740155
11
13.0454059842519676
21
-3.1572117322834643
0
LINE
8
BLACK
6
CONTINUOUS
10
13.0454059842519676
20
-3.1572117322834643
11
13.0510490157480312
21
-3.1645659055118109
0
LINE
8
BLACK
6
CONTINUOUS
10
13.0510490157480312
20
-3.1645659055118109
11
13.0556838976377954
21
-3.1725937007874014
0
LINE
8
BLACK
6
CONTINUOUS
10
13.0556838976377954
20
-3.1725937007874014
11
13.0592312598425195
21
-3.1811578346456693
0
LINE
8
BLACK
6
CONTINUOUS
10
13.0592312598425195
20
-3.1811578346456693
11
13.0616304724409442
21
-3.1901116929133857
0
LINE
8
BLACK
6
CONTINUOUS
10
13.0616304724409442
20
-3.1901116929133857
11
13.0628403937007871
21
-3.1993021259842518
0
LINE
8
BLACK
6
CONTINUOUS
10
13.0628403937007871
20
-3.1993021259842518
11
13.0628403937007871
21
-3.2085718897637796
0
LINE
8
BLACK
6
CONTINUOUS
10
13.0628403937007871
20
-3.2085718897637796
11
13.0616304724409442
21
-3.2177623228346457
0
LINE
8
BLACK
6
CONTINUOUS
10
13.0616304724409442
20
-3.2177623228346457
11
13.0592312598425195
21
-3.2267161811023621
0
LINE
8
BLACK
6
CONTINUOUS
10
13.0592312598425195
20
-3.2267161811023621
11
13.0556838976377954
21
-3.23528031496063
0
LINE
8
BLACK
6
CONTINUOUS
10
13.0556838976377954
20
-3.23528031496063
11
13.0510490157480312
21
-3.2433081102362205
0
LINE
8
BLACK
6
CONTINUOUS
10
13.0510490157480312
20
-3.2433081102362205
11
13.0454059842519676
21
-3.2506622834645666
0
LINE
8
BLACK
6
CONTINUOUS
10
13.0454059842519676
20
-3.2506622834645666
11
13.0388512598425201
21
-3.2572170078740155
0
LINE
8
BLACK
6
CONTINUOUS
10
13.0388512598425201
20
-3.2572170078740155
11
13.0314970866141735
21
-3.2628600393700786
0
LINE
8
BLACK
6
CONTINUOUS
10
13.0314970866141735
20
-3.2628600393700786
11
13.0234692913385821
21
-3.2674949212598423
0
LINE
8
BLACK
6
CONTINUOUS
10
13.0234692913385821
20
-3.2674949212598423
11
13.0149051574803138
21
-3.2710422834645669
0
LINE
8
BLACK
6
CONTINUOUS
10
13.0149051574803138
20
-3.2710422834645669
11
13.0059512992125974
21
-3.2734414960629921
0
LINE
8
BLACK
6
CONTINUOUS
10
13.0059512992125974
20
-3.2734414960629921
11
12.9967608661417326
21
-3.2746514173228345
0
LINE
8
BLACK
6
CONTINUOUS
10
12.9967608661417326
20
-3.2746514173228345
11
12.9874911023622044
21
-3.2746514173228345
0
LINE
8
BLACK
6
CONTINUOUS
10
12.9874911023622044
20
-3.2746514173228345
11
12.9783006692913379
21
-3.2734414960629921
0
LINE
8
BLACK
6
CONTINUOUS
10
12.9783006692913379
20
-3.2734414960629921
11
12.9693468110236214
21
-3.2710422834645669
0
LINE
8
BLACK
6
CONTINUOUS
10
12.9693468110236214
20
-3.2710422834645669
11
12.9607826771653531
21
-3.2674949212598423
0
LINE
8
BLACK
6
CONTINUOUS
10
12.9607826771653531
20
-3.2674949212598423
11
12.9527548818897635
21
-3.2628600393700786
0
LINE
8
BLACK
6
CONTINUOUS
10
12.9527548818897635
20
-3.2628600393700786
11
12.9454007086614169
21
-3.2572170078740155
0
LINE
8
BLACK
6
CONTINUOUS
10
12.9454007086614169
20
-3.2572170078740155
11
12.9388459842519676
21
-3.2506622834645666
0
LINE
8
BLACK
6
CONTINUOUS
10
12.9388459842519676
20
-3.2506622834645666
11
12.9332029527559058
21
-3.2433081102362205
0
LINE
8
BLACK
6
CONTINUOUS
10
12.9332029527559058
20
-3.2433081102362205
11
12.9285680708661417
21
-3.23528031496063
0
LINE
8
BLACK
6
CONTINUOUS
10
12.9285680708661417
20
-3.23528031496063
11
12.9250207086614175
21
-3.2267161811023621
0
LINE
8
BLACK
6
CONTINUOUS
10
12.9250207086614175
20
-3.2267161811023621
11
12.922621496062991
21
-3.2177623228346457
0
LINE
8
BLACK
6
CONTINUOUS
10
12.922621496062991
20
-3.2177623228346457
11
12.9214115748031499
21
-3.2085718897637796
0
LINE
8
BLACK
6
CONTINUOUS
10
12.9214115748031499
20
-3.2085718897637796
11
12.9214115748031499
21
-3.1995502362204724
0
LINE
8
BLACK
6
CONTINUOUS
10
12.9214115748031499
20
-3.1995502362204724
11
12.9214115748031499
21
-3.1993021259842518
0
LINE
8
BLACK
6
CONTINUOUS
10
12.9214115748031499
20
-3.1993021259842518
11
12.922621496062991
21
-3.1901116929133857
0
LINE
8
BLACK
6
CONTINUOUS
10
12.922621496062991
20
-3.1901116929133857
11
12.9250207086614175
21
-3.1811578346456693
0
LINE
8
BLACK
6
CONTINUOUS
10
12.9250207086614175
20
-3.1811578346456693
11
12.9285680708661417
21
-3.1725937007874014
0
LINE
8
BLACK
6
CONTINUOUS
10
12.9285680708661417
20
-3.1725937007874014
11
12.9332029527559058
21
-3.1645659055118109
0
LINE
8
BLACK
6
CONTINUOUS
10
12.9332029527559058
20
-3.1645659055118109
11
12.9388459842519676
21
-3.1572117322834643
0
LINE
8
BLACK
6
CONTINUOUS
10
12.9388459842519676
20
-3.1572117322834643
11
12.9454007086614169
21
-3.1506570078740155
0
LINE
8
BLACK
6
CONTINUOUS
10
12.9454007086614169
20
-3.1506570078740155
11
12.9527548818897635
21
-3.1450139763779528
0
LINE
8
BLACK
6
CONTINUOUS
10
12.9527548818897635
20
-3.1450139763779528
11
12.9607826771653531
21
-3.1403790944881891
0
LINE
8
BLACK
6
CONTINUOUS
10
12.9607826771653531
20
-3.1403790944881891
11
12.9693468110236214
21
-3.1368317322834645
0
LINE
8
BLACK
6
CONTINUOUS
10
12.9693468110236214
20
-3.1368317322834645
11
12.9783006692913379
21
-3.1344325196850393
0
LINE
8
BLACK
6
CONTINUOUS
10
12.9783006692913379
20
-3.1344325196850393
11
12.9874911023622044
21
-3.1332225984251969
0
LINE
8
BLACK
6
CONTINUOUS
10
12.9874911023622044
20
-3.1332225984251969
11
12.9967608661417326
21
-3.1332225984251969
0
LINE
8
BLACK
6
CONTINUOUS
10
12.9967608661417326
20
-3.1332225984251969
11
13.0059512992125974
21
-3.1344325196850393
0
LINE
8
BLACK
6
CONTINUOUS
10
12.9251968503937
20
-3.208323779527559
11
12.9263420078740161
21
-3.2170222440944882
0
LINE
8
BLACK
6
CONTINUOUS
10
12.9263420078740161
20
-3.2170222440944882
11
12.9286127559055117
21
-3.2254968503937009
0
LINE
8
BLACK
6
CONTINUOUS
10
12.9286127559055117
20
-3.2254968503937009
11
12.931970275590551
21
-3.2336025196850393
0
LINE
8
BLACK
6
CONTINUOUS
10
12.931970275590551
20
-3.2336025196850393
11
12.9363570078740153
21
-3.2412006299212597
0
LINE
8
BLACK
6
CONTINUOUS
10
12.9363570078740153
20
-3.2412006299212597
11
12.9416980314960632
21
-3.2481611417322833
0
LINE
8
BLACK
6
CONTINUOUS
10
12.9416980314960632
20
-3.2481611417322833
11
12.9479018503937002
21
-3.2543649606299212
0
LINE
8
BLACK
6
CONTINUOUS
10
12.9479018503937002
20
-3.2543649606299212
11
12.9548623622047234
21
-3.2597059842519682
0
LINE
8
BLACK
6
CONTINUOUS
10
12.9548623622047234
20
-3.2597059842519682
11
12.9624604724409451
21
-3.264092716535433
0
LINE
8
BLACK
6
CONTINUOUS
10
12.9624604724409451
20
-3.264092716535433
11
12.9705661417322826
21
-3.2674502362204723
0
LINE
8
BLACK
6
CONTINUOUS
10
12.9705661417322826
20
-3.2674502362204723
11
12.9790407480314958
21
-3.2697209842519683
0
LINE
8
BLACK
6
CONTINUOUS
10
12.9790407480314958
20
-3.2697209842519683
11
12.9877392125984255
21
-3.2708661417322835
0
LINE
8
BLACK
6
CONTINUOUS
10
12.9877392125984255
20
-3.2708661417322835
11
12.9965127559055116
21
-3.2708661417322835
0
LINE
8
BLACK
6
CONTINUOUS
10
12.9965127559055116
20
-3.2708661417322835
11
13.0052112204724413
21
-3.2697209842519683
0
LINE
8
BLACK
6
CONTINUOUS
10
13.0052112204724413
20
-3.2697209842519683
11
13.0136858267716526
21
-3.2674502362204723
0
LINE
8
BLACK
6
CONTINUOUS
10
13.0136858267716526
20
-3.2674502362204723
11
13.0217914960629919
21
-3.264092716535433
0
LINE
8
BLACK
6
CONTINUOUS
10
13.0217914960629919
20
-3.264092716535433
11
13.0293896062992118
21
-3.2597059842519682
0
LINE
8
BLACK
6
CONTINUOUS
10
13.0293896062992118
20
-3.2597059842519682
11
13.0363501181102368
21
-3.2543649606299212
0
LINE
8
BLACK
6
CONTINUOUS
10
13.0363501181102368
20
-3.2543649606299212
11
13.0425539370078738
21
-3.2481611417322833
0
LINE
8
BLACK
6
CONTINUOUS
10
13.0425539370078738
20
-3.2481611417322833
11
13.0478949606299217
21
-3.2412006299212597
0
LINE
8
BLACK
6
CONTINUOUS
10
13.0478949606299217
20
-3.2412006299212597
11
13.052281692913386
21
-3.2336025196850393
0
LINE
8
BLACK
6
CONTINUOUS
10
13.052281692913386
20
-3.2336025196850393
11
13.0556392125984253
21
-3.2254968503937009
0
LINE
8
BLACK
6
CONTINUOUS
10
13.0556392125984253
20
-3.2254968503937009
11
13.0579099606299209
21
-3.2170222440944882
0
LINE
8
BLACK
6
CONTINUOUS
10
13.0579099606299209
20
-3.2170222440944882
11
13.0590551181102352
21
-3.208323779527559
0
LINE
8
BLACK
6
CONTINUOUS
10
13.0590551181102352
20
-3.208323779527559
11
13.0590551181102352
21
-3.1995502362204724
0
LINE
8
BLACK
6
CONTINUOUS
10
13.0590551181102352
20
-3.1995502362204724
11
13.0579099606299209
21
-3.1908517716535432
0
LINE
8
BLACK
6
CONTINUOUS
10
13.0579099606299209
20
-3.1908517716535432
11
13.0556392125984253
21
-3.1823771653543305
0
LINE
8
BLACK
6
CONTINUOUS
10
13.0556392125984253
20
-3.1823771653543305
11
13.052281692913386
21
-3.1742714960629921
0
LINE
8
BLACK
6
CONTINUOUS
10
13.052281692913386
20
-3.1742714960629921
11
13.0478949606299217
21
-3.1666733858267717
0
LINE
8
BLACK
6
CONTINUOUS
10
13.0478949606299217
20
-3.1666733858267717
11
13.0425539370078738
21
-3.1597128740157481
0
LINE
8
BLACK
6
CONTINUOUS
10
13.0425539370078738
20
-3.1597128740157481
11
13.0363501181102368
21
-3.1535090551181102
0
LINE
8
BLACK
6
CONTINUOUS
10
13.0363501181102368
20
-3.1535090551181102
11
13.0293896062992118
21
-3.1481680314960627
0
LINE
8
BLACK
6
CONTINUOUS
10
13.0293896062992118
20
-3.1481680314960627
11
13.0217914960629919
21
-3.1437812992125984
0
LINE
8
BLACK
6
CONTINUOUS
10
13.0217914960629919
20
-3.1437812992125984
11
13.0136858267716526
21
-3.1404237795275591
0
LINE
8
BLACK
6
CONTINUOUS
10
13.0136858267716526
20
-3.1404237795275591
11
13.0052112204724413
21
-3.1381530314960631
0
LINE
8
BLACK
6
CONTINUOUS
10
13.0052112204724413
20
-3.1381530314960631
11
12.9965127559055116
21
-3.1370078740157479
0
LINE
8
BLACK
6
CONTINUOUS
10
12.9965127559055116
20
-3.1370078740157479
11
12.9877392125984255
21
-3.1370078740157479
0
LINE
8
BLACK
6
CONTINUOUS
10
12.9877392125984255
20
-3.1370078740157479
11
12.9790407480314958
21
-3.1381530314960631
0
LINE
8
BLACK
6
CONTINUOUS
10
12.9790407480314958
20
-3.1381530314960631
11
12.9705661417322826
21
-3.1404237795275591
0
LINE
8
BLACK
6
CONTINUOUS
10
12.9705661417322826
20
-3.1404237795275591
11
12.9624604724409451
21
-3.1437812992125984
0
LINE
8
BLACK
6
CONTINUOUS
10
12.9624604724409451
20
-3.1437812992125984
11
12.9548623622047234
21
-3.1481680314960627
0
LINE
8
BLACK
6
CONTINUOUS
10
12.9548623622047234
20
-3.1481680314960627
11
12.9479018503937002
21
-3.1535090551181102
0
LINE
8
BLACK
6
CONTINUOUS
10
12.9479018503937002
20
-3.1535090551181102
11
12.9416980314960632
21
-3.1597128740157481
0
LINE
8
BLACK
6
CONTINUOUS
10
12.9416980314960632
20
-3.1597128740157481
11
12.9363570078740153
21
-3.1666733858267717
0
LINE
8
BLACK
6
CONTINUOUS
10
12.9363570078740153
20
-3.1666733858267717
11
12.931970275590551
21
-3.1742714960629921
0
LINE
8
BLACK
6
CONTINUOUS
10
12.931970275590551
20
-3.1742714960629921
11
12.9286127559055117
21
-3.1823771653543305
0
LINE
8
BLACK
6
CONTINUOUS
10
12.9286127559055117
20
-3.1823771653543305
11
12.9263420078740161
21
-3.1908517716535432
0
LINE
8
BLACK
6
CONTINUOUS
10
12.9263420078740161
20
-3.1908517716535432
11
12.9251968503937
21
-3.1995502362204724
0
LINE
8
BLACK
6
CONTINUOUS
10
12.9251968503937
20
-3.1995502362204724
11
12.9251968503937
21
-3.208323779527559
0
LINE
8
BLACK
6
CONTINUOUS
10
2.2198891732283466
20
-1.3541570866141732
11
2.2295837795275588
21
-1.3573070472440945
0
LINE
8
BLACK
6
CONTINUOUS
10
2.2295837795275588
20
-1.3573070472440945
11
2.2386662598425198
21
-1.3619348031496064
0
LINE
8
BLACK
6
CONTINUOUS
10
2.2386662598425198
20
-1.3619348031496064
11
2.2469129527559053
21
-1.367926377952756
0
LINE
8
BLACK
6
CONTINUOUS
10
2.2469129527559053
20
-1.367926377952756
11
2.254120866141732
21
-1.3751342913385827
0
LINE
8
BLACK
6
CONTINUOUS
10
2.254120866141732
20
-1.3751342913385827
11
2.2601124409448818
21
-1.3833809842519684
0
LINE
8
BLACK
6
CONTINUOUS
10
2.2601124409448818
20
-1.3833809842519684
11
2.2647401968503935
21
-1.3924634645669292
0
LINE
8
BLACK
6
CONTINUOUS
10
2.2647401968503935
20
-1.3924634645669292
11
2.267890157480315
21
-1.4021580708661416
0
LINE
8
BLACK
6
CONTINUOUS
10
2.267890157480315
20
-1.4021580708661416
11
2.2694848031496062
21
-1.4122260629921259
0
LINE
8
BLACK
6
CONTINUOUS
10
2.2694848031496062
20
-1.4122260629921259
11
2.2694848031496062
21
-1.4224196062992125
0
LINE
8
BLACK
6
CONTINUOUS
10
2.2694848031496062
20
-1.4224196062992125
11
2.267890157480315
21
-1.4324875984251968
0
LINE
8
BLACK
6
CONTINUOUS
10
2.267890157480315
20
-1.4324875984251968
11
2.2647401968503935
21
-1.4421822047244095
0
LINE
8
BLACK
6
CONTINUOUS
10
2.2647401968503935
20
-1.4421822047244095
11
2.2601124409448818
21
-1.45126468503937
0
LINE
8
BLACK
6
CONTINUOUS
10
2.2601124409448818
20
-1.45126468503937
11
2.254120866141732
21
-1.4595113779527558
0
LINE
8
BLACK
6
CONTINUOUS
10
2.254120866141732
20
-1.4595113779527558
11
2.2469129527559053
21
-1.4667192913385827
0
LINE
8
BLACK
6
CONTINUOUS
10
2.2469129527559053
20
-1.4667192913385827
11
2.2386662598425198
21
-1.4727108661417323
0
LINE
8
BLACK
6
CONTINUOUS
10
2.2386662598425198
20
-1.4727108661417323
11
2.2295837795275588
21
-1.477338622047244
0
LINE
8
BLACK
6
CONTINUOUS
10
2.2295837795275588
20
-1.477338622047244
11
2.2198891732283466
21
-1.4804885826771652
0
LINE
8
BLACK
6
CONTINUOUS
10
2.2198891732283466
20
-1.4804885826771652
11
2.2098211811023623
21
-1.4820832283464567
0
LINE
8
BLACK
6
CONTINUOUS
10
2.2098211811023623
20
-1.4820832283464567
11
2.1996276377952757
21
-1.4820832283464567
0
LINE
8
BLACK
6
CONTINUOUS
10
2.1996276377952757
20
-1.4820832283464567
11
2.1895596456692914
21
-1.4804885826771652
0
LINE
8
BLACK
6
CONTINUOUS
10
2.1895596456692914
20
-1.4804885826771652
11
2.1798650393700787
21
-1.477338622047244
0
LINE
8
BLACK
6
CONTINUOUS
10
2.1798650393700787
20
-1.477338622047244
11
2.1707825590551182
21
-1.4727108661417323
0
LINE
8
BLACK
6
CONTINUOUS
10
2.1707825590551182
20
-1.4727108661417323
11
2.1625358661417322
21
-1.4667192913385827
0
LINE
8
BLACK
6
CONTINUOUS
10
2.1625358661417322
20
-1.4667192913385827
11
2.1553279527559055
21
-1.4595113779527558
0
LINE
8
BLACK
6
CONTINUOUS
10
2.1553279527559055
20
-1.4595113779527558
11
2.1493363779527557
21
-1.45126468503937
0
LINE
8
BLACK
6
CONTINUOUS
10
2.1493363779527557
20
-1.45126468503937
11
2.144708622047244
21
-1.4421822047244095
0
LINE
8
BLACK
6
CONTINUOUS
10
2.144708622047244
20
-1.4421822047244095
11
2.141558661417323
21
-1.4324875984251968
0
LINE
8
BLACK
6
CONTINUOUS
10
2.141558661417323
20
-1.4324875984251968
11
2.1399640157480313
21
-1.4224196062992125
0
LINE
8
BLACK
6
CONTINUOUS
10
2.1399640157480313
20
-1.4224196062992125
11
2.1399640157480313
21
-1.412520157480315
0
LINE
8
BLACK
6
CONTINUOUS
10
2.1399640157480313
20
-1.412520157480315
11
2.1399640157480313
21
-1.4122260629921259
0
LINE
8
BLACK
6
CONTINUOUS
10
2.1399640157480313
20
-1.4122260629921259
11
2.141558661417323
21
-1.4021580708661416
0
LINE
8
BLACK
6
CONTINUOUS
10
2.141558661417323
20
-1.4021580708661416
11
2.144708622047244
21
-1.3924634645669292
0
LINE
8
BLACK
6
CONTINUOUS
10
2.144708622047244
20
-1.3924634645669292
11
2.1493363779527557
21
-1.3833809842519684
0
LINE
8
BLACK
6
CONTINUOUS
10
2.1493363779527557
20
-1.3833809842519684
11
2.1553279527559055
21
-1.3751342913385827
0
LINE
8
BLACK
6
CONTINUOUS
10
2.1553279527559055
20
-1.3751342913385827
11
2.1625358661417322
21
-1.367926377952756
0
LINE
8
BLACK
6
CONTINUOUS
10
2.1625358661417322
20
-1.367926377952756
11
2.1707825590551182
21
-1.3619348031496064
0
LINE
8
BLACK
6
CONTINUOUS
10
2.1707825590551182
20
-1.3619348031496064
11
2.1798650393700787
21
-1.3573070472440945
0
LINE
8
BLACK
6
CONTINUOUS
10
2.1798650393700787
20
-1.3573070472440945
11
2.1895596456692914
21
-1.3541570866141732
0
LINE
8
BLACK
6
CONTINUOUS
10
2.1895596456692914
20
-1.3541570866141732
11
2.1996276377952757
21
-1.3525624409448818
0
LINE
8
BLACK
6
CONTINUOUS
10
2.1996276377952757
20
-1.3525624409448818
11
2.2098211811023623
21
-1.3525624409448818
0
LINE
8
BLACK
6
CONTINUOUS
10
2.2098211811023623
20
-1.3525624409448818
11
2.2198891732283466
21
-1.3541570866141732
0
LINE
8
BLACK
6
CONTINUOUS
10
2.1437007874015745
20
-1.4221255118110236
11
2.1452033858267714
21
-1.4316125590551181
0
LINE
8
BLACK
6
CONTINUOUS
10
2.1452033858267714
20
-1.4316125590551181
11
2.1481716141732283
21
-1.4407477952755905
0
LINE
8
BLACK
6
CONTINUOUS
10
2.1481716141732283
20
-1.4407477952755905
11
2.1525323228346456
21
-1.4493061811023622
0
LINE
8
BLACK
6
CONTINUOUS
10
2.1525323228346456
20
-1.4493061811023622
11
2.158178188976378
21
-1.4570770472440944
0
LINE
8
BLACK
6
CONTINUOUS
10
2.158178188976378
20
-1.4570770472440944
11
2.1649701968503936
21
-1.4638690551181102
0
LINE
8
BLACK
6
CONTINUOUS
10
2.1649701968503936
20
-1.4638690551181102
11
2.172741062992126
21
-1.4695149212598424
0
LINE
8
BLACK
6
CONTINUOUS
10
2.172741062992126
20
-1.4695149212598424
11
2.1812994488188977
21
-1.4738756299212599
0
LINE
8
BLACK
6
CONTINUOUS
10
2.1812994488188977
20
-1.4738756299212599
11
2.1904346850393699
21
-1.4768438582677166
0
LINE
8
BLACK
6
CONTINUOUS
10
2.1904346850393699
20
-1.4768438582677166
11
2.1999217322834643
21
-1.4783464566929134
0
LINE
8
BLACK
6
CONTINUOUS
10
2.1999217322834643
20
-1.4783464566929134
11
2.2095270866141732
21
-1.4783464566929134
0
LINE
8
BLACK
6
CONTINUOUS
10
2.2095270866141732
20
-1.4783464566929134
11
2.2190141338582676
21
-1.4768438582677166
0
LINE
8
BLACK
6
CONTINUOUS
10
2.2190141338582676
20
-1.4768438582677166
11
2.2281493700787403
21
-1.4738756299212599
0
LINE
8
BLACK
6
CONTINUOUS
10
2.2281493700787403
20
-1.4738756299212599
11
2.236707755905512
21
-1.4695149212598424
0
LINE
8
BLACK
6
CONTINUOUS
10
2.236707755905512
20
-1.4695149212598424
11
2.2444786220472439
21
-1.4638690551181102
0
LINE
8
BLACK
6
CONTINUOUS
10
2.2444786220472439
20
-1.4638690551181102
11
2.2512706299212599
21
-1.4570770472440944
0
LINE
8
BLACK
6
CONTINUOUS
10
2.2512706299212599
20
-1.4570770472440944
11
2.2569164960629919
21
-1.4493061811023622
0
LINE
8
BLACK
6
CONTINUOUS
10
2.2569164960629919
20
-1.4493061811023622
11
2.2612772047244092
21
-1.4407477952755905
0
LINE
8
BLACK
6
CONTINUOUS
10
2.2612772047244092
20
-1.4407477952755905
11
2.2642454330708661
21
-1.4316125590551181
0
LINE
8
BLACK
6
CONTINUOUS
10
2.2642454330708661
20
-1.4316125590551181
11
2.265748031496063
21
-1.4221255118110236
0
LINE
8
BLACK
6
CONTINUOUS
10
2.265748031496063
20
-1.4221255118110236
11
2.265748031496063
21
-1.412520157480315
0
LINE
8
BLACK
6
CONTINUOUS
10
2.265748031496063
20
-1.412520157480315
11
2.2642454330708661
21
-1.4030331102362203
0
LINE
8
BLACK
6
CONTINUOUS
10
2.2642454330708661
20
-1.4030331102362203
11
2.2612772047244092
21
-1.3938978740157479
0
LINE
8
BLACK
6
CONTINUOUS
10
2.2612772047244092
20
-1.3938978740157479
11
2.2569164960629919
21
-1.3853394881889765
0
LINE
8
BLACK
6
CONTINUOUS
10
2.2569164960629919
20
-1.3853394881889765
11
2.2512706299212599
21
-1.3775686220472441
0
LINE
8
BLACK
6
CONTINUOUS
10
2.2512706299212599
20
-1.3775686220472441
11
2.2444786220472439
21
-1.3707766141732283
0
LINE
8
BLACK
6
CONTINUOUS
10
2.2444786220472439
20
-1.3707766141732283
11
2.236707755905512
21
-1.365130748031496
0
LINE
8
BLACK
6
CONTINUOUS
10
2.236707755905512
20
-1.365130748031496
11
2.2281493700787403
21
-1.3607700393700788
0
LINE
8
BLACK
6
CONTINUOUS
10
2.2281493700787403
20
-1.3607700393700788
11
2.2190141338582676
21
-1.3578018110236221
0
LINE
8
BLACK
6
CONTINUOUS
10
2.2190141338582676
20
-1.3578018110236221
11
2.2095270866141732
21
-1.3562992125984252
0
LINE
8
BLACK
6
CONTINUOUS
10
2.2095270866141732
20
-1.3562992125984252
11
2.1999217322834643
21
-1.3562992125984252
0
LINE
8
BLACK
6
CONTINUOUS
10
2.1999217322834643
20
-1.3562992125984252
11
2.1904346850393699
21
-1.3578018110236221
0
LINE
8
BLACK
6
CONTINUOUS
10
2.1904346850393699
20
-1.3578018110236221
11
2.1812994488188977
21
-1.3607700393700788
0
LINE
8
BLACK
6
CONTINUOUS
10
2.1812994488188977
20
-1.3607700393700788
11
2.172741062992126
21
-1.365130748031496
0
LINE
8
BLACK
6
CONTINUOUS
10
2.172741062992126
20
-1.365130748031496
11
2.1649701968503936
21
-1.3707766141732283
0
LINE
8
BLACK
6
CONTINUOUS
10
2.1649701968503936
20
-1.3707766141732283
11
2.158178188976378
21
-1.3775686220472441
0
LINE
8
BLACK
6
CONTINUOUS
10
2.158178188976378
20
-1.3775686220472441
11
2.1525323228346456
21
-1.3853394881889765
0
LINE
8
BLACK
6
CONTINUOUS
10
2.1525323228346456
20
-1.3853394881889765
11
2.1481716141732283
21
-1.3938978740157479
0
LINE
8
BLACK
6
CONTINUOUS
10
2.1481716141732283
20
-1.3938978740157479
11
2.1452033858267714
21
-1.4030331102362203
0
LINE
8
BLACK
6
CONTINUOUS
10
2.1452033858267714
20
-1.4030331102362203
11
2.1437007874015745
21
-1.412520157480315
0
LINE
8
BLACK
6
CONTINUOUS
10
2.1437007874015745
20
-1.412520157480315
11
2.1437007874015745
21
-1.4221255118110236
0
LINE
8
BLACK
6
CONTINUOUS
10
7.8102105905511809
20
-1.3551141338582677
11
7.8197583070866141
21
-1.3582163779527558
0
LINE
8
BLACK
6
CONTINUOUS
10
7.8197583070866141
20
-1.3582163779527558
11
7.8287031496062989
21
-1.3627740157480315
0
LINE
8
BLACK
6
CONTINUOUS
10
7.8287031496062989
20
-1.3627740157480315
11
7.8368249212598426
21
-1.3686748031496063
0
LINE
8
BLACK
6
CONTINUOUS
10
7.8368249212598426
20
-1.3686748031496063
11
7.8439236220472441
21
-1.3757735039370078
0
LINE
8
BLACK
6
CONTINUOUS
10
7.8439236220472441
20
-1.3757735039370078
11
7.8498244094488188
21
-1.3838952755905511
0
LINE
8
BLACK
6
CONTINUOUS
10
7.8498244094488188
20
-1.3838952755905511
11
7.8543820472440942
21
-1.3928401181102361
0
LINE
8
BLACK
6
CONTINUOUS
10
7.8543820472440942
20
-1.3928401181102361
11
7.8574842913385821
21
-1.4023878346456693
0
LINE
8
BLACK
6
CONTINUOUS
10
7.8574842913385821
20
-1.4023878346456693
11
7.8590547637795272
21
-1.4123033070866142
0
LINE
8
BLACK
6
CONTINUOUS
10
7.8590547637795272
20
-1.4123033070866142
11
7.8590547637795272
21
-1.4223423622047244
0
LINE
8
BLACK
6
CONTINUOUS
10
7.8590547637795272
20
-1.4223423622047244
11
7.8574842913385821
21
-1.4322578346456694
0
LINE
8
BLACK
6
CONTINUOUS
10
7.8574842913385821
20
-1.4322578346456694
11
7.8543820472440942
21
-1.4418055511811023
0
LINE
8
BLACK
6
CONTINUOUS
10
7.8543820472440942
20
-1.4418055511811023
11
7.8498244094488188
21
-1.4507503937007873
0
LINE
8
BLACK
6
CONTINUOUS
10
7.8498244094488188
20
-1.4507503937007873
11
7.8439236220472441
21
-1.4588721653543306
0
LINE
8
BLACK
6
CONTINUOUS
10
7.8439236220472441
20
-1.4588721653543306
11
7.8368249212598426
21
-1.4659708661417323
0
LINE
8
BLACK
6
CONTINUOUS
10
7.8368249212598426
20
-1.4659708661417323
11
7.8287031496062989
21
-1.471871653543307
0
LINE
8
BLACK
6
CONTINUOUS
10
7.8287031496062989
20
-1.471871653543307
11
7.8197583070866141
21
-1.4764292913385826
0
LINE
8
BLACK
6
CONTINUOUS
10
7.8197583070866141
20
-1.4764292913385826
11
7.8102105905511809
21
-1.4795315354330709
0
LINE
8
BLACK
6
CONTINUOUS
10
7.8102105905511809
20
-1.4795315354330709
11
7.8002951181102365
21
-1.4811020078740158
0
LINE
8
BLACK
6
CONTINUOUS
10
7.8002951181102365
20
-1.4811020078740158
11
7.7902560629921256
21
-1.4811020078740158
0
LINE
8
BLACK
6
CONTINUOUS
10
7.7902560629921256
20
-1.4811020078740158
11
7.7803405905511811
21
-1.4795315354330709
0
LINE
8
BLACK
6
CONTINUOUS
10
7.7803405905511811
20
-1.4795315354330709
11
7.7707928740157479
21
-1.4764292913385826
0
LINE
8
BLACK
6
CONTINUOUS
10
7.7707928740157479
20
-1.4764292913385826
11
7.7618480314960632
21
-1.471871653543307
0
LINE
8
BLACK
6
CONTINUOUS
10
7.7618480314960632
20
-1.471871653543307
11
7.7537262598425194
21
-1.4659708661417323
0
LINE
8
BLACK
6
CONTINUOUS
10
7.7537262598425194
20
-1.4659708661417323
11
7.7466275590551179
21
-1.4588721653543306
0
LINE
8
BLACK
6
CONTINUOUS
10
7.7466275590551179
20
-1.4588721653543306
11
7.7407267716535433
21
-1.4507503937007873
0
LINE
8
BLACK
6
CONTINUOUS
10
7.7407267716535433
20
-1.4507503937007873
11
7.7361691338582679
21
-1.4418055511811023
0
LINE
8
BLACK
6
CONTINUOUS
10
7.7361691338582679
20
-1.4418055511811023
11
7.7330668897637791
21
-1.4322578346456694
0
LINE
8
BLACK
6
CONTINUOUS
10
7.7330668897637791
20
-1.4322578346456694
11
7.7314964173228349
21
-1.4223423622047244
0
LINE
8
BLACK
6
CONTINUOUS
10
7.7314964173228349
20
-1.4223423622047244
11
7.7314964173228349
21
-1.412442716535433
0
LINE
8
BLACK
6
CONTINUOUS
10
7.7314964173228349
20
-1.412442716535433
11
7.7314964173228349
21
-1.4123033070866142
0
LINE
8
BLACK
6
CONTINUOUS
10
7.7314964173228349
20
-1.4123033070866142
11
7.7330668897637791
21
-1.4023878346456693
0
LINE
8
BLACK
6
CONTINUOUS
10
7.7330668897637791
20
-1.4023878346456693
11
7.7361691338582679
21
-1.3928401181102361
0
LINE
8
BLACK
6
CONTINUOUS
10
7.7361691338582679
20
-1.3928401181102361
11
7.7407267716535433
21
-1.3838952755905511
0
LINE
8
BLACK
6
CONTINUOUS
10
7.7407267716535433
20
-1.3838952755905511
11
7.7466275590551179
21
-1.3757735039370078
0
LINE
8
BLACK
6
CONTINUOUS
10
7.7466275590551179
20
-1.3757735039370078
11
7.7537262598425194
21
-1.3686748031496063
0
LINE
8
BLACK
6
CONTINUOUS
10
7.7537262598425194
20
-1.3686748031496063
11
7.7618480314960632
21
-1.3627740157480315
0
LINE
8
BLACK
6
CONTINUOUS
10
7.7618480314960632
20
-1.3627740157480315
11
7.7707928740157479
21
-1.3582163779527558
0
LINE
8
BLACK
6
CONTINUOUS
10
7.7707928740157479
20
-1.3582163779527558
11
7.7803405905511811
21
-1.3551141338582677
0
LINE
8
BLACK
6
CONTINUOUS
10
7.7803405905511811
20
-1.3551141338582677
11
7.7902560629921256
21
-1.3535436614173229
0
LINE
8
BLACK
6
CONTINUOUS
10
7.7902560629921256
20
-1.3535436614173229
11
7.8002951181102365
21
-1.3535436614173229
0
LINE
8
BLACK
6
CONTINUOUS
10
7.8002951181102365
20
-1.3535436614173229
11
7.8102105905511809
21
-1.3551141338582677
0
LINE
8
BLACK
6
CONTINUOUS
10
7.7332677165354333
20
-1.4222029527559055
11
7.7347945669291338
21
-1.4318430314960631
0
LINE
8
BLACK
6
CONTINUOUS
10
7.7347945669291338
20
-1.4318430314960631
11
7.7378106299212597
21
-1.4411255905511811
0
LINE
8
BLACK
6
CONTINUOUS
10
7.7378106299212597
20
-1.4411255905511811
11
7.7422416929133853
21
-1.4498220472440944
0
LINE
8
BLACK
6
CONTINUOUS
10
7.7422416929133853
20
-1.4498220472440944
11
7.7479786220472437
21
-1.4577182283464567
0
LINE
8
BLACK
6
CONTINUOUS
10
7.7479786220472437
20
-1.4577182283464567
11
7.7548801968503938
21
-1.4646198031496063
0
LINE
8
BLACK
6
CONTINUOUS
10
7.7548801968503938
20
-1.4646198031496063
11
7.7627763779527559
21
-1.4703567322834645
0
LINE
8
BLACK
6
CONTINUOUS
10
7.7627763779527559
20
-1.4703567322834645
11
7.7714728346456692
21
-1.4747877952755906
0
LINE
8
BLACK
6
CONTINUOUS
10
7.7714728346456692
20
-1.4747877952755906
11
7.7807553937007876
21
-1.4778038582677164
0
LINE
8
BLACK
6
CONTINUOUS
10
7.7807553937007876
20
-1.4778038582677164
11
7.7903954724409443
21
-1.4793307086614174
0
LINE
8
BLACK
6
CONTINUOUS
10
7.7903954724409443
20
-1.4793307086614174
11
7.8001557086614168
21
-1.4793307086614174
0
LINE
8
BLACK
6
CONTINUOUS
10
7.8001557086614168
20
-1.4793307086614174
11
7.8097957874015744
21
-1.4778038582677164
0
LINE
8
BLACK
6
CONTINUOUS
10
7.8097957874015744
20
-1.4778038582677164
11
7.8190783464566929
21
-1.4747877952755906
0
LINE
8
BLACK
6
CONTINUOUS
10
7.8190783464566929
20
-1.4747877952755906
11
7.8277748031496062
21
-1.4703567322834645
0
LINE
8
BLACK
6
CONTINUOUS
10
7.8277748031496062
20
-1.4703567322834645
11
7.8356709842519683
21
-1.4646198031496063
0
LINE
8
BLACK
6
CONTINUOUS
10
7.8356709842519683
20
-1.4646198031496063
11
7.8425725590551183
21
-1.4577182283464567
0
LINE
8
BLACK
6
CONTINUOUS
10
7.8425725590551183
20
-1.4577182283464567
11
7.8483094881889759
21
-1.4498220472440944
0
LINE
8
BLACK
6
CONTINUOUS
10
7.8483094881889759
20
-1.4498220472440944
11
7.8527405511811024
21
-1.4411255905511811
0
LINE
8
BLACK
6
CONTINUOUS
10
7.8527405511811024
20
-1.4411255905511811
11
7.8557566141732282
21
-1.4318430314960631
0
LINE
8
BLACK
6
CONTINUOUS
10
7.8557566141732282
20
-1.4318430314960631
11
7.8572834645669287
21
-1.4222029527559055
0
LINE
8
BLACK
6
CONTINUOUS
10
7.8572834645669287
20
-1.4222029527559055
11
7.8572834645669287
21
-1.412442716535433
0
LINE
8
BLACK
6
CONTINUOUS
10
7.8572834645669287
20
-1.412442716535433
11
7.8557566141732282
21
-1.4028026377952756
0
LINE
8
BLACK
6
CONTINUOUS
10
7.8557566141732282
20
-1.4028026377952756
11
7.8527405511811024
21
-1.3935200787401574
0
LINE
8
BLACK
6
CONTINUOUS
10
7.8527405511811024
20
-1.3935200787401574
11
7.8483094881889759
21
-1.3848236220472441
0
LINE
8
BLACK
6
CONTINUOUS
10
7.8483094881889759
20
-1.3848236220472441
11
7.8425725590551183
21
-1.376927440944882
0
LINE
8
BLACK
6
CONTINUOUS
10
7.8425725590551183
20
-1.376927440944882
11
7.8356709842519683
21
-1.3700258661417322
0
LINE
8
BLACK
6
CONTINUOUS
10
7.8356709842519683
20
-1.3700258661417322
11
7.8277748031496062
21
-1.3642889370078739
0
LINE
8
BLACK
6
CONTINUOUS
10
7.8277748031496062
20
-1.3642889370078739
11
7.8190783464566929
21
-1.3598578740157481
0
LINE
8
BLACK
6
CONTINUOUS
10
7.8190783464566929
20
-1.3598578740157481
11
7.8097957874015744
21
-1.356841811023622
0
LINE
8
BLACK
6
CONTINUOUS
10
7.8097957874015744
20
-1.356841811023622
11
7.8001557086614168
21
-1.3553149606299213
0
LINE
8
BLACK
6
CONTINUOUS
10
7.8001557086614168
20
-1.3553149606299213
11
7.7903954724409443
21
-1.3553149606299213
0
LINE
8
BLACK
6
CONTINUOUS
10
7.7903954724409443
20
-1.3553149606299213
11
7.7807553937007876
21
-1.356841811023622
0
LINE
8
BLACK
6
CONTINUOUS
10
7.7807553937007876
20
-1.356841811023622
11
7.7714728346456692
21
-1.3598578740157481
0
LINE
8
BLACK
6
CONTINUOUS
10
7.7714728346456692
20
-1.3598578740157481
11
7.7627763779527559
21
-1.3642889370078739
0
LINE
8
BLACK
6
CONTINUOUS
10
7.7627763779527559
20
-1.3642889370078739
11
7.7548801968503938
21
-1.3700258661417322
0
LINE
8
BLACK
6
CONTINUOUS
10
7.7548801968503938
20
-1.3700258661417322
11
7.7479786220472437
21
-1.376927440944882
0
LINE
8
BLACK
6
CONTINUOUS
10
7.7479786220472437
20
-1.376927440944882
11
7.7422416929133853
21
-1.3848236220472441
0
LINE
8
BLACK
6
CONTINUOUS
10
7.7422416929133853
20
-1.3848236220472441
11
7.7378106299212597
21
-1.3935200787401574
0
LINE
8
BLACK
6
CONTINUOUS
10
7.7378106299212597
20
-1.3935200787401574
11
7.7347945669291338
21
-1.4028026377952756
0
LINE
8
BLACK
6
CONTINUOUS
10
7.7347945669291338
20
-1.4028026377952756
11
7.7332677165354333
21
-1.412442716535433
0
LINE
8
BLACK
6
CONTINUOUS
10
7.7332677165354333
20
-1.412442716535433
11
7.7332677165354333
21
-1.4222029527559055
0
LINE
8
BLACK
6
CONTINUOUS
10
13.4401318503937013
20
-1.3551141338582677
11
13.4496795669291327
21
-1.3582163779527558
0
LINE
8
BLACK
6
CONTINUOUS
10
13.4496795669291327
20
-1.3582163779527558
11
13.4586244094488183
21
-1.3627740157480315
0
LINE
8
BLACK
6
CONTINUOUS
10
13.4586244094488183
20
-1.3627740157480315
11
13.4667461811023621
21
-1.3686748031496063
0
LINE
8
BLACK
6
CONTINUOUS
10
13.4667461811023621
20
-1.3686748031496063
11
13.4738448818897627
21
-1.3757735039370078
0
LINE
8
BLACK
6
CONTINUOUS
10
13.4738448818897627
20
-1.3757735039370078
11
13.4797456692913382
21
-1.3838952755905511
0
LINE
8
BLACK
6
CONTINUOUS
10
13.4797456692913382
20
-1.3838952755905511
11
13.4843033070866145
21
-1.3928401181102361
0
LINE
8
BLACK
6
CONTINUOUS
10
13.4843033070866145
20
-1.3928401181102361
11
13.4874055511811015
21
-1.4023878346456693
0
LINE
8
BLACK
6
CONTINUOUS
10
13.4874055511811015
20
-1.4023878346456693
11
13.4889760236220475
21
-1.4123033070866142
0
LINE
8
BLACK
6
CONTINUOUS
10
13.4889760236220475
20
-1.4123033070866142
11
13.4889760236220475
21
-1.4223423622047244
0
LINE
8
BLACK
6
CONTINUOUS
10
13.4889760236220475
20
-1.4223423622047244
11
13.4874055511811015
21
-1.4322578346456694
0
LINE
8
BLACK
6
CONTINUOUS
10
13.4874055511811015
20
-1.4322578346456694
11
13.4843033070866145
21
-1.4418055511811023
0
LINE
8
BLACK
6
CONTINUOUS
10
13.4843033070866145
20
-1.4418055511811023
11
13.4797456692913382
21
-1.4507503937007873
0
LINE
8
BLACK
6
CONTINUOUS
10
13.4797456692913382
20
-1.4507503937007873
11
13.4738448818897627
21
-1.4588721653543306
0
LINE
8
BLACK
6
CONTINUOUS
10
13.4738448818897627
20
-1.4588721653543306
11
13.4667461811023621
21
-1.4659708661417323
0
LINE
8
BLACK
6
CONTINUOUS
10
13.4667461811023621
20
-1.4659708661417323
11
13.4586244094488183
21
-1.471871653543307
0
LINE
8
BLACK
6
CONTINUOUS
10
13.4586244094488183
20
-1.471871653543307
11
13.4496795669291327
21
-1.4764292913385826
0
LINE
8
BLACK
6
CONTINUOUS
10
13.4496795669291327
20
-1.4764292913385826
11
13.4401318503937013
21
-1.4795315354330709
0
LINE
8
BLACK
6
CONTINUOUS
10
13.4401318503937013
20
-1.4795315354330709
11
13.430216377952755
21
-1.4811020078740158
0
LINE
8
BLACK
6
CONTINUOUS
10
13.430216377952755
20
-1.4811020078740158
11
13.420177322834645
21
-1.4811020078740158
0
LINE
8
BLACK
6
CONTINUOUS
10
13.420177322834645
20
-1.4811020078740158
11
13.4102618503937006
21
-1.4795315354330709
0
LINE
8
BLACK
6
CONTINUOUS
10
13.4102618503937006
20
-1.4795315354330709
11
13.4007141338582674
21
-1.4764292913385826
0
LINE
8
BLACK
6
CONTINUOUS
10
13.4007141338582674
20
-1.4764292913385826
11
13.3917692913385817
21
-1.471871653543307
0
LINE
8
BLACK
6
CONTINUOUS
10
13.3917692913385817
20
-1.471871653543307
11
13.3836475196850397
21
-1.4659708661417323
0
LINE
8
BLACK
6
CONTINUOUS
10
13.3836475196850397
20
-1.4659708661417323
11
13.3765488188976374
21
-1.4588721653543306
0
LINE
8
BLACK
6
CONTINUOUS
10
13.3765488188976374
20
-1.4588721653543306
11
13.3706480314960618
21
-1.4507503937007873
0
LINE
8
BLACK
6
CONTINUOUS
10
13.3706480314960618
20
-1.4507503937007873
11
13.3660903937007873
21
-1.4418055511811023
0
LINE
8
BLACK
6
CONTINUOUS
10
13.3660903937007873
20
-1.4418055511811023
11
13.3629881496062985
21
-1.4322578346456694
0
LINE
8
BLACK
6
CONTINUOUS
10
13.3629881496062985
20
-1.4322578346456694
11
13.3614176771653543
21
-1.4223423622047244
0
LINE
8
BLACK
6
CONTINUOUS
10
13.3614176771653543
20
-1.4223423622047244
11
13.3614176771653543
21
-1.412442716535433
0
LINE
8
BLACK
6
CONTINUOUS
10
13.3614176771653543
20
-1.412442716535433
11
13.3614176771653543
21
-1.4123033070866142
0
LINE
8
BLACK
6
CONTINUOUS
10
13.3614176771653543
20
-1.4123033070866142
11
13.3629881496062985
21
-1.4023878346456693
0
LINE
8
BLACK
6
CONTINUOUS
10
13.3629881496062985
20
-1.4023878346456693
11
13.3660903937007873
21
-1.3928401181102361
0
LINE
8
BLACK
6
CONTINUOUS
10
13.3660903937007873
20
-1.3928401181102361
11
13.3706480314960618
21
-1.3838952755905511
0
LINE
8
BLACK
6
CONTINUOUS
10
13.3706480314960618
20
-1.3838952755905511
11
13.3765488188976374
21
-1.3757735039370078
0
LINE
8
BLACK
6
CONTINUOUS
10
13.3765488188976374
20
-1.3757735039370078
11
13.3836475196850397
21
-1.3686748031496063
0
LINE
8
BLACK
6
CONTINUOUS
10
13.3836475196850397
20
-1.3686748031496063
11
13.3917692913385817
21
-1.3627740157480315
0
LINE
8
BLACK
6
CONTINUOUS
10
13.3917692913385817
20
-1.3627740157480315
11
13.4007141338582674
21
-1.3582163779527558
0
LINE
8
BLACK
6
CONTINUOUS
10
13.4007141338582674
20
-1.3582163779527558
11
13.4102618503937006
21
-1.3551141338582677
0
LINE
8
BLACK
6
CONTINUOUS
10
13.4102618503937006
20
-1.3551141338582677
11
13.420177322834645
21
-1.3535436614173229
0
LINE
8
BLACK
6
CONTINUOUS
10
13.420177322834645
20
-1.3535436614173229
11
13.430216377952755
21
-1.3535436614173229
0
LINE
8
BLACK
6
CONTINUOUS
10
13.430216377952755
20
-1.3535436614173229
11
13.4401318503937013
21
-1.3551141338582677
0
LINE
8
BLACK
6
CONTINUOUS
10
13.3631889763779519
20
-1.4222029527559055
11
13.3647158267716524
21
-1.4318430314960631
0
LINE
8
BLACK
6
CONTINUOUS
10
13.3647158267716524
20
-1.4318430314960631
11
13.36773188976378
21
-1.4411255905511811
0
LINE
8
BLACK
6
CONTINUOUS
10
13.36773188976378
20
-1.4411255905511811
11
13.3721629527559056
21
-1.4498220472440944
0
LINE
8
BLACK
6
CONTINUOUS
10
13.3721629527559056
20
-1.4498220472440944
11
13.3778998818897641
21
-1.4577182283464567
0
LINE
8
BLACK
6
CONTINUOUS
10
13.3778998818897641
20
-1.4577182283464567
11
13.3848014566929123
21
-1.4646198031496063
0
LINE
8
BLACK
6
CONTINUOUS
10
13.3848014566929123
20
-1.4646198031496063
11
13.3926976377952744
21
-1.4703567322834645
0
LINE
8
BLACK
6
CONTINUOUS
10
13.3926976377952744
20
-1.4703567322834645
11
13.4013940944881895
21
-1.4747877952755906
0
LINE
8
BLACK
6
CONTINUOUS
10
13.4013940944881895
20
-1.4747877952755906
11
13.4106766535433071
21
-1.4778038582677164
0
LINE
8
BLACK
6
CONTINUOUS
10
13.4106766535433071
20
-1.4778038582677164
11
13.4203167322834638
21
-1.4793307086614174
0
LINE
8
BLACK
6
CONTINUOUS
10
13.4203167322834638
20
-1.4793307086614174
11
13.4300769685039363
21
-1.4793307086614174
0
LINE
8
BLACK
6
CONTINUOUS
10
13.4300769685039363
20
-1.4793307086614174
11
13.4397170472440948
21
-1.4778038582677164
0
LINE
8
BLACK
6
CONTINUOUS
10
13.4397170472440948
20
-1.4778038582677164
11
13.4489996062992123
21
-1.4747877952755906
0
LINE
8
BLACK
6
CONTINUOUS
10
13.4489996062992123
20
-1.4747877952755906
11
13.4576960629921256
21
-1.4703567322834645
0
LINE
8
BLACK
6
CONTINUOUS
10
13.4576960629921256
20
-1.4703567322834645
11
13.4655922440944877
21
-1.4646198031496063
0
LINE
8
BLACK
6
CONTINUOUS
10
13.4655922440944877
20
-1.4646198031496063
11
13.4724938188976378
21
-1.4577182283464567
0
LINE
8
BLACK
6
CONTINUOUS
10
13.4724938188976378
20
-1.4577182283464567
11
13.4782307480314962
21
-1.4498220472440944
0
LINE
8
BLACK
6
CONTINUOUS
10
13.4782307480314962
20
-1.4498220472440944
11
13.4826618110236218
21
-1.4411255905511811
0
LINE
8
BLACK
6
CONTINUOUS
10
13.4826618110236218
20
-1.4411255905511811
11
13.4856778740157477
21
-1.4318430314960631
0
LINE
8
BLACK
6
CONTINUOUS
10
13.4856778740157477
20
-1.4318430314960631
11
13.4872047244094482
21
-1.4222029527559055
0
LINE
8
BLACK
6
CONTINUOUS
10
13.4872047244094482
20
-1.4222029527559055
11
13.4872047244094482
21
-1.412442716535433
0
LINE
8
BLACK
6
CONTINUOUS
10
13.4872047244094482
20
-1.412442716535433
11
13.4856778740157477
21
-1.4028026377952756
0
LINE
8
BLACK
6
CONTINUOUS
10
13.4856778740157477
20
-1.4028026377952756
11
13.4826618110236218
21
-1.3935200787401574
0
LINE
8
BLACK
6
CONTINUOUS
10
13.4826618110236218
20
-1.3935200787401574
11
13.4782307480314962
21
-1.3848236220472441
0
LINE
8
BLACK
6
CONTINUOUS
10
13.4782307480314962
20
-1.3848236220472441
11
13.4724938188976378
21
-1.376927440944882
0
LINE
8
BLACK
6
CONTINUOUS
10
13.4724938188976378
20
-1.376927440944882
11
13.4655922440944877
21
-1.3700258661417322
0
LINE
8
BLACK
6
CONTINUOUS
10
13.4655922440944877
20
-1.3700258661417322
11
13.4576960629921256
21
-1.3642889370078739
0
LINE
8
BLACK
6
CONTINUOUS
10
13.4576960629921256
20
-1.3642889370078739
11
13.4489996062992123
21
-1.3598578740157481
0
LINE
8
BLACK
6
CONTINUOUS
10
13.4489996062992123
20
-1.3598578740157481
11
13.4397170472440948
21
-1.356841811023622
0
LINE
8
BLACK
6
CONTINUOUS
10
13.4397170472440948
20
-1.356841811023622
11
13.4300769685039363
21
-1.3553149606299213
0
LINE
8
BLACK
6
CONTINUOUS
10
13.4300769685039363
20
-1.3553149606299213
11
13.4203167322834638
21
-1.3553149606299213
0
LINE
8
BLACK
6
CONTINUOUS
10
13.4203167322834638
20
-1.3553149606299213
11
13.4106766535433071
21
-1.356841811023622
0
LINE
8
BLACK
6
CONTINUOUS
10
13.4106766535433071
20
-1.356841811023622
11
13.4013940944881895
21
-1.3598578740157481
0
LINE
8
BLACK
6
CONTINUOUS
10
13.4013940944881895
20
-1.3598578740157481
11
13.3926976377952744
21
-1.3642889370078739
0
LINE
8
BLACK
6
CONTINUOUS
10
13.3926976377952744
20
-1.3642889370078739
11
13.3848014566929123
21
-1.3700258661417322
0
LINE
8
BLACK
6
CONTINUOUS
10
13.3848014566929123
20
-1.3700258661417322
11
13.3778998818897641
21
-1.376927440944882
0
LINE
8
BLACK
6
CONTINUOUS
10
13.3778998818897641
20
-1.376927440944882
11
13.3721629527559056
21
-1.3848236220472441
0
LINE
8
BLACK
6
CONTINUOUS
10
13.3721629527559056
20
-1.3848236220472441
11
13.36773188976378
21
-1.3935200787401574
0
LINE
8
BLACK
6
CONTINUOUS
10
13.36773188976378
20
-1.3935200787401574
11
13.3647158267716524
21
-1.4028026377952756
0
LINE
8
BLACK
6
CONTINUOUS
10
13.3647158267716524
20
-1.4028026377952756
11
13.3631889763779519
21
-1.412442716535433
0
LINE
8
BLACK
6
CONTINUOUS
10
13.3631889763779519
20
-1.412442716535433
11
13.3631889763779519
21
-1.4222029527559055
0
LINE
8
BLACK
6
CONTINUOUS
10
13.4645669291338574
20
-1.1791338582677164
11
13.4809852755905517
21
-1.1798129133858268
0
LINE
8
BLACK
6
CONTINUOUS
10
13.4809852755905517
20
-1.1798129133858268
11
13.4972914566929134
21
-1.1818454724409448
0
LINE
8
BLACK
6
CONTINUOUS
10
13.4972914566929134
20
-1.1818454724409448
11
13.5133740944881886
21
-1.1852176771653542
0
LINE
8
BLACK
6
CONTINUOUS
10
13.5133740944881886
20
-1.1852176771653542
11
13.5291233070866141
21
-1.1899064173228346
0
LINE
8
BLACK
6
CONTINUOUS
10
13.5291233070866141
20
-1.1899064173228346
11
13.5444315748031485
21
-1.1958797244094488
0
LINE
8
BLACK
6
CONTINUOUS
10
13.5444315748031485
20
-1.1958797244094488
11
13.5591942519685045
21
-1.2030967716535432
0
LINE
8
BLACK
6
CONTINUOUS
10
13.5591942519685045
20
-1.2030967716535432
11
13.5733105511811019
21
-1.2115082283464567
0
LINE
8
BLACK
6
CONTINUOUS
10
13.5733105511811019
20
-1.2115082283464567
11
13.5866840157480304
21
-1.2210566929133857
0
LINE
8
BLACK
6
CONTINUOUS
10
13.5866840157480304
20
-1.2210566929133857
11
13.5992233070866142
21
-1.2316769291338583
0
LINE
8
BLACK
6
CONTINUOUS
10
13.5992233070866142
20
-1.2316769291338583
11
13.6108427559055123
21
-1.2432963779527559
0
LINE
8
BLACK
6
CONTINUOUS
10
13.6108427559055123
20
-1.2432963779527559
11
13.6214629921259842
21
-1.2558356692913386
0
LINE
8
BLACK
6
CONTINUOUS
10
13.6214629921259842
20
-1.2558356692913386
11
13.6310114566929137
21
-1.2692091338582676
0
LINE
8
BLACK
6
CONTINUOUS
10
13.6310114566929137
20
-1.2692091338582676
11
13.6394229133858271
21
-1.2833254330708661
0
LINE
8
BLACK
6
CONTINUOUS
10
13.6394229133858271
20
-1.2833254330708661
11
13.6466399606299209
21
-1.2980881102362205
0
LINE
8
BLACK
6
CONTINUOUS
10
13.6466399606299209
20
-1.2980881102362205
11
13.6526132677165357
21
-1.3133963779527558
0
LINE
8
BLACK
6
CONTINUOUS
10
13.6526132677165357
20
-1.3133963779527558
11
13.6573020078740157
21
-1.3291455905511811
0
LINE
8
BLACK
6
CONTINUOUS
10
13.6573020078740157
20
-1.3291455905511811
11
13.6606742125984244
21
-1.3452282283464567
0
LINE
8
BLACK
6
CONTINUOUS
10
13.6606742125984244
20
-1.3452282283464567
11
13.6627067716535429
21
-1.3615344094488189
0
LINE
8
BLACK
6
CONTINUOUS
10
13.6627067716535429
20
-1.3615344094488189
11
13.6633858267716537
21
-1.3779527559055118
0
LINE
8
BLACK
6
CONTINUOUS
10
13.6633858267716537
20
-1.3779527559055118
11
13.6633858267716537
21
-9.2519685039370074
0
LINE
8
BLACK
6
CONTINUOUS
10
13.6633858267716537
20
-9.2519685039370074
11
13.6627067716535429
21
-9.2683868503936999
0
LINE
8
BLACK
6
CONTINUOUS
10
13.6627067716535429
20
-9.2683868503936999
11
13.6606742125984244
21
-9.2846930314960634
0
LINE
8
BLACK
6
CONTINUOUS
10
13.6606742125984244
20
-9.2846930314960634
11
13.6573020078740157
21
-9.3007756692913386
0
LINE
8
BLACK
6
CONTINUOUS
10
13.6573020078740157
20
-9.3007756692913386
11
13.6526132677165357
21
-9.3165248818897641
0
LINE
8
BLACK
6
CONTINUOUS
10
13.6526132677165357
20
-9.3165248818897641
11
13.6466399606299209
21
-9.3318331496062985
0
LINE
8
BLACK
6
CONTINUOUS
10
13.6466399606299209
20
-9.3318331496062985
11
13.6394229133858271
21
-9.3465958267716527
0
LINE
8
BLACK
6
CONTINUOUS
10
13.6394229133858271
20
-9.3465958267716527
11
13.6310114566929137
21
-9.3607121259842518
0
LINE
8
BLACK
6
CONTINUOUS
10
13.6310114566929137
20
-9.3607121259842518
11
13.6214629921259842
21
-9.3740855905511804
0
LINE
8
BLACK
6
CONTINUOUS
10
13.6214629921259842
20
-9.3740855905511804
11
13.6108427559055123
21
-9.3866248818897642
0
LINE
8
BLACK
6
CONTINUOUS
10
13.6108427559055123
20
-9.3866248818897642
11
13.5992233070866142
21
-9.3982443307086605
0
LINE
8
BLACK
6
CONTINUOUS
10
13.5992233070866142
20
-9.3982443307086605
11
13.5866840157480304
21
-9.4088645669291342
0
LINE
8
BLACK
6
CONTINUOUS
10
13.5866840157480304
20
-9.4088645669291342
11
13.5733105511811019
21
-9.4184130314960619
0
LINE
8
BLACK
6
CONTINUOUS
10
13.5733105511811019
20
-9.4184130314960619
11
13.5591942519685045
21
-9.4268244881889753
0
LINE
8
BLACK
6
CONTINUOUS
10
13.5591942519685045
20
-9.4268244881889753
11
13.5444315748031485
21
-9.4340415354330709
0
LINE
8
BLACK
6
CONTINUOUS
10
13.5444315748031485
20
-9.4340415354330709
11
13.5291233070866141
21
-9.4400148425196857
0
LINE
8
BLACK
6
CONTINUOUS
10
13.5291233070866141
20
-9.4400148425196857
11
13.5133740944881886
21
-9.4447035826771657
0
LINE
8
BLACK
6
CONTINUOUS
10
13.5133740944881886
20
-9.4447035826771657
11
13.4972914566929134
21
-9.4480757874015744
0
LINE
8
BLACK
6
CONTINUOUS
10
13.4972914566929134
20
-9.4480757874015744
11
13.4809852755905517
21
-9.4501083464566928
0
LINE
8
BLACK
6
CONTINUOUS
10
13.4809852755905517
20
-9.4501083464566928
11
13.4645669291338574
21
-9.4507874015748037
0
LINE
8
BLACK
6
CONTINUOUS
10
13.4645669291338574
20
-9.4507874015748037
11
2.1653543307086616
21
-9.4507874015748037
0
LINE
8
BLACK
6
CONTINUOUS
10
2.1653543307086616
20
-9.4507874015748037
11
2.1489359842519686
21
-9.4501083464566928
0
LINE
8
BLACK
6
CONTINUOUS
10
2.1489359842519686
20
-9.4501083464566928
11
2.132629803149606
21
-9.4480757874015744
0
LINE
8
BLACK
6
CONTINUOUS
10
2.132629803149606
20
-9.4480757874015744
11
2.1165471653543309
21
-9.4447035826771657
0
LINE
8
BLACK
6
CONTINUOUS
10
2.1165471653543309
20
-9.4447035826771657
11
2.1007979527559053
21
-9.4400148425196857
0
LINE
8
BLACK
6
CONTINUOUS
10
2.1007979527559053
20
-9.4400148425196857
11
2.08548968503937
21
-9.4340415354330709
0
LINE
8
BLACK
6
CONTINUOUS
10
2.08548968503937
20
-9.4340415354330709
11
2.0707270078740159
21
-9.4268244881889753
0
LINE
8
BLACK
6
CONTINUOUS
10
2.0707270078740159
20
-9.4268244881889753
11
2.0566107086614172
21
-9.4184130314960619
0
LINE
8
BLACK
6
CONTINUOUS
10
2.0566107086614172
20
-9.4184130314960619
11
2.0432372440944881
21
-9.4088645669291342
0
LINE
8
BLACK
6
CONTINUOUS
10
2.0432372440944881
20
-9.4088645669291342
11
2.0306979527559053
21
-9.3982443307086605
0
LINE
8
BLACK
6
CONTINUOUS
10
2.0306979527559053
20
-9.3982443307086605
11
2.0190785039370076
21
-9.3866248818897642
0
LINE
8
BLACK
6
CONTINUOUS
10
2.0190785039370076
20
-9.3866248818897642
11
2.0084582677165352
21
-9.3740855905511804
0
LINE
8
BLACK
6
CONTINUOUS
10
2.0084582677165352
20
-9.3740855905511804
11
1.9989098031496062
21
-9.3607121259842518
0
LINE
8
BLACK
6
CONTINUOUS
10
1.9989098031496062
20
-9.3607121259842518
11
1.9904983464566928
21
-9.3465958267716527
0
LINE
8
BLACK
6
CONTINUOUS
10
1.9904983464566928
20
-9.3465958267716527
11
1.9832812992125983
21
-9.3318331496062985
0
LINE
8
BLACK
6
CONTINUOUS
10
1.9832812992125983
20
-9.3318331496062985
11
1.9773079921259842
21
-9.3165248818897641
0
LINE
8
BLACK
6
CONTINUOUS
10
1.9773079921259842
20
-9.3165248818897641
11
1.972619251968504
21
-9.3007756692913386
0
LINE
8
BLACK
6
CONTINUOUS
10
1.972619251968504
20
-9.3007756692913386
11
1.9692470472440944
21
-9.2846930314960634
0
LINE
8
BLACK
6
CONTINUOUS
10
1.9692470472440944
20
-9.2846930314960634
11
1.9672144881889764
21
-9.2683868503936999
0
LINE
8
BLACK
6
CONTINUOUS
10
1.9672144881889764
20
-9.2683868503936999
11
1.9665354330708662
21
-9.2519685039370074
0
LINE
8
BLACK
6
CONTINUOUS
10
1.9665354330708662
20
-9.2519685039370074
11
1.9665354330708662
21
-1.3779527559055118
0
LINE
8
BLACK
6
CONTINUOUS
10
1.9665354330708662
20
-1.3779527559055118
11
1.9672144881889764
21
-1.3615344094488189
0
LINE
8
BLACK
6
CONTINUOUS
10
1.9672144881889764
20
-1.3615344094488189
11
1.9692470472440944
21
-1.3452282283464567
0
LINE
8
BLACK
6
CONTINUOUS
10
1.9692470472440944
20
-1.3452282283464567
11
1.972619251968504
21
-1.3291455905511811
0
LINE
8
BLACK
6
CONTINUOUS
10
1.972619251968504
20
-1.3291455905511811
11
1.9773079921259842
21
-1.3133963779527558
0
LINE
8
BLACK
6
CONTINUOUS
10
1.9773079921259842
20
-1.3133963779527558
11
1.9832812992125983
21
-1.2980881102362205
0
LINE
8
BLACK
6
CONTINUOUS
10
1.9832812992125983
20
-1.2980881102362205
11
1.9904983464566928
21
-1.2833254330708661
0
LINE
8
BLACK
6
CONTINUOUS
10
1.9904983464566928
20
-1.2833254330708661
11
1.9989098031496062
21
-1.2692091338582676
0
LINE
8
BLACK
6
CONTINUOUS
10
1.9989098031496062
20
-1.2692091338582676
11
2.0084582677165352
21
-1.2558356692913386
0
LINE
8
BLACK
6
CONTINUOUS
10
2.0084582677165352
20
-1.2558356692913386
11
2.0190785039370076
21
-1.2432963779527559
0
LINE
8
BLACK
6
CONTINUOUS
10
2.0190785039370076
20
-1.2432963779527559
11
2.0306979527559053
21
-1.2316769291338583
0
LINE
8
BLACK
6
CONTINUOUS
10
2.0306979527559053
20
-1.2316769291338583
11
2.0432372440944881
21
-1.2210566929133857
0
LINE
8
BLACK
6
CONTINUOUS
10
2.0432372440944881
20
-1.2210566929133857
11
2.0566107086614172
21
-1.2115082283464567
0
LINE
8
BLACK
6
CONTINUOUS
10
2.0566107086614172
20
-1.2115082283464567
11
2.0707270078740159
21
-1.2030967716535432
0
LINE
8
BLACK
6
CONTINUOUS
10
2.0707270078740159
20
-1.2030967716535432
11
2.08548968503937
21
-1.1958797244094488
0
LINE
8
BLACK
6
CONTINUOUS
10
2.08548968503937
20
-1.1958797244094488
11
2.1007979527559053
21
-1.1899064173228346
0
LINE
8
BLACK
6
CONTINUOUS
10
2.1007979527559053
20
-1.1899064173228346
11
2.1165471653543309
21
-1.1852176771653542
0
LINE
8
BLACK
6
CONTINUOUS
10
2.1165471653543309
20
-1.1852176771653542
11
2.132629803149606
21
-1.1818454724409448
0
LINE
8
BLACK
6
CONTINUOUS
10
2.132629803149606
20
-1.1818454724409448
11
2.1489359842519686
21
-1.1798129133858268
0
LINE
8
BLACK
6
CONTINUOUS
10
2.1489359842519686
20
-1.1798129133858268
11
2.1653543307086616
21
-1.1791338582677164
0
LINE
8
BLACK
6
CONTINUOUS
10
2.1653543307086616
20
-1.1791338582677164
11
13.4645669291338574
21
-1.1791338582677164
0
LINE
8
BLACK
6
CONTINUOUS
10
2.1653543307086616
20
-1.1830708661417322
11
2.156845590551181
21
-1.1830708661417322
0
LINE
8
BLACK
6
CONTINUOUS
10
2.156845590551181
20
-1.1830708661417322
11
2.1398929133858267
21
-1.1845540157480314
0
LINE
8
BLACK
6
CONTINUOUS
10
2.1398929133858267
20
-1.1845540157480314
11
2.1231339763779529
21
-1.187509094488189
0
LINE
8
BLACK
6
CONTINUOUS
10
2.1231339763779529
20
-1.187509094488189
11
2.1066963779527557
21
-1.1919135039370079
0
LINE
8
BLACK
6
CONTINUOUS
10
2.1066963779527557
20
-1.1919135039370079
11
2.0907051968503936
21
-1.1977338188976379
0
LINE
8
BLACK
6
CONTINUOUS
10
2.0907051968503936
20
-1.1977338188976379
11
2.0752821653543307
21
-1.2049257086614173
0
LINE
8
BLACK
6
CONTINUOUS
10
2.0752821653543307
20
-1.2049257086614173
11
2.0605446062992128
21
-1.2134344488188975
0
LINE
8
BLACK
6
CONTINUOUS
10
2.0605446062992128
20
-1.2134344488188975
11
2.0466047244094487
21
-1.2231952755905511
0
LINE
8
BLACK
6
CONTINUOUS
10
2.0466047244094487
20
-1.2231952755905511
11
2.0335685826771654
21
-1.2341338582677166
0
LINE
8
BLACK
6
CONTINUOUS
10
2.0335685826771654
20
-1.2341338582677166
11
2.0215354330708659
21
-1.2461670078740157
0
LINE
8
BLACK
6
CONTINUOUS
10
2.0215354330708659
20
-1.2461670078740157
11
2.0105968503937008
21
-1.2592031496062992
0
LINE
8
BLACK
6
CONTINUOUS
10
2.0105968503937008
20
-1.2592031496062992
11
2.000836023622047
21
-1.273143031496063
0
LINE
8
BLACK
6
CONTINUOUS
10
2.000836023622047
20
-1.273143031496063
11
1.9923272834645669
21
-1.287880590551181
0
LINE
8
BLACK
6
CONTINUOUS
10
1.9923272834645669
20
-1.287880590551181
11
1.9851353937007874
21
-1.303303622047244
0
LINE
8
BLACK
6
CONTINUOUS
10
1.9851353937007874
20
-1.303303622047244
11
1.9793150787401574
21
-1.3192948031496063
0
LINE
8
BLACK
6
CONTINUOUS
10
1.9793150787401574
20
-1.3192948031496063
11
1.9749106692913385
21
-1.3357324015748031
0
LINE
8
BLACK
6
CONTINUOUS
10
1.9749106692913385
20
-1.3357324015748031
11
1.971955590551181
21
-1.3524913385826771
0
LINE
8
BLACK
6
CONTINUOUS
10
1.971955590551181
20
-1.3524913385826771
11
1.9704724409448819
21
-1.3694440157480314
0
LINE
8
BLACK
6
CONTINUOUS
10
1.9704724409448819
20
-1.3694440157480314
11
1.9704724409448819
21
-1.3779527559055118
0
LINE
8
BLACK
6
CONTINUOUS
10
1.9704724409448819
20
-1.3779527559055118
11
1.9704724409448819
21
-9.2519685039370074
0
LINE
8
BLACK
6
CONTINUOUS
10
1.9704724409448819
20
-9.2519685039370074
11
1.9704724409448819
21
-9.2604772440944885
0
LINE
8
BLACK
6
CONTINUOUS
10
1.9704724409448819
20
-9.2604772440944885
11
1.971955590551181
21
-9.2774299212598414
0
LINE
8
BLACK
6
CONTINUOUS
10
1.971955590551181
20
-9.2774299212598414
11
1.9749106692913385
21
-9.2941888582677166
0
LINE
8
BLACK
6
CONTINUOUS
10
1.9749106692913385
20
-9.2941888582677166
11
1.9793150787401574
21
-9.3106264566929138
0
LINE
8
BLACK
6
CONTINUOUS
10
1.9793150787401574
20
-9.3106264566929138
11
1.9851353937007874
21
-9.326617637795275
0
LINE
8
BLACK
6
CONTINUOUS
10
1.9851353937007874
20
-9.326617637795275
11
1.9923272834645669
21
-9.3420406692913378
0
LINE
8
BLACK
6
CONTINUOUS
10
1.9923272834645669
20
-9.3420406692913378
11
2.000836023622047
21
-9.3567782283464567
0
LINE
8
BLACK
6
CONTINUOUS
10
2.000836023622047
20
-9.3567782283464567
11
2.0105968503937008
21
-9.3707181102362203
0
LINE
8
BLACK
6
CONTINUOUS
10
2.0105968503937008
20
-9.3707181102362203
11
2.0215354330708659
21
-9.3837542519685044
0
LINE
8
BLACK
6
CONTINUOUS
10
2.0215354330708659
20
-9.3837542519685044
11
2.0335685826771654
21
-9.3957874015748022
0
LINE
8
BLACK
6
CONTINUOUS
10
2.0335685826771654
20
-9.3957874015748022
11
2.0466047244094487
21
-9.4067259842519686
0
LINE
8
BLACK
6
CONTINUOUS
10
2.0466047244094487
20
-9.4067259842519686
11
2.0605446062992128
21
-9.4164868110236224
0
LINE
8
BLACK
6
CONTINUOUS
10
2.0605446062992128
20
-9.4164868110236224
11
2.0752821653543307
21
-9.4249955511811017
0
LINE
8
BLACK
6
CONTINUOUS
10
2.0752821653543307
20
-9.4249955511811017
11
2.0907051968503936
21
-9.4321874409448814
0
LINE
8
BLACK
6
CONTINUOUS
10
2.0907051968503936
20
-9.4321874409448814
11
2.1066963779527557
21
-9.4380077559055113
0
LINE
8
BLACK
6
CONTINUOUS
10
2.1066963779527557
20
-9.4380077559055113
11
2.1231339763779529
21
-9.4424121653543303
0
LINE
8
BLACK
6
CONTINUOUS
10
2.1231339763779529
20
-9.4424121653543303
11
2.1398929133858267
21
-9.4453672440944878
0
LINE
8
BLACK
6
CONTINUOUS
10
2.1398929133858267
20
-9.4453672440944878
11
2.156845590551181
21
-9.4468503937007871
0
LINE
8
BLACK
6
CONTINUOUS
10
2.156845590551181
20
-9.4468503937007871
11
2.1653543307086616
21
-9.4468503937007871
0
LINE
8
BLACK
6
CONTINUOUS
10
2.1653543307086616
20
-9.4468503937007871
11
13.4645669291338574
21
-9.4468503937007871
0
LINE
8
BLACK
6
CONTINUOUS
10
13.4645669291338574
20
-9.4468503937007871
11
13.4730756692913385
21
-9.4468503937007871
0
LINE
8
BLACK
6
CONTINUOUS
10
13.4730756692913385
20
-9.4468503937007871
11
13.4900283464566932
21
-9.4453672440944878
0
LINE
8
BLACK
6
CONTINUOUS
10
13.4900283464566932
20
-9.4453672440944878
11
13.5067872834645666
21
-9.4424121653543303
0
LINE
8
BLACK
6
CONTINUOUS
10
13.5067872834645666
20
-9.4424121653543303
11
13.5232248818897638
21
-9.4380077559055113
0
LINE
8
BLACK
6
CONTINUOUS
10
13.5232248818897638
20
-9.4380077559055113
11
13.539216062992125
21
-9.4321874409448814
0
LINE
8
BLACK
6
CONTINUOUS
10
13.539216062992125
20
-9.4321874409448814
11
13.5546390944881878
21
-9.4249955511811017
0
LINE
8
BLACK
6
CONTINUOUS
10
13.5546390944881878
20
-9.4249955511811017
11
13.5693766535433067
21
-9.4164868110236224
0
LINE
8
BLACK
6
CONTINUOUS
10
13.5693766535433067
20
-9.4164868110236224
11
13.5833165354330703
21
-9.4067259842519686
0
LINE
8
BLACK
6
CONTINUOUS
10
13.5833165354330703
20
-9.4067259842519686
11
13.5963526771653545
21
-9.3957874015748022
0
LINE
8
BLACK
6
CONTINUOUS
10
13.5963526771653545
20
-9.3957874015748022
11
13.608385826771654
21
-9.3837542519685044
0
LINE
8
BLACK
6
CONTINUOUS
10
13.608385826771654
20
-9.3837542519685044
11
13.6193244094488186
21
-9.3707181102362203
0
LINE
8
BLACK
6
CONTINUOUS
10
13.6193244094488186
20
-9.3707181102362203
11
13.6290852362204724
21
-9.3567782283464567
0
LINE
8
BLACK
6
CONTINUOUS
10
13.6290852362204724
20
-9.3567782283464567
11
13.6375939763779517
21
-9.3420406692913378
0
LINE
8
BLACK
6
CONTINUOUS
10
13.6375939763779517
20
-9.3420406692913378
11
13.6447858661417314
21
-9.326617637795275
0
LINE
8
BLACK
6
CONTINUOUS
10
13.6447858661417314
20
-9.326617637795275
11
13.6506061811023613
21
-9.3106264566929138
0
LINE
8
BLACK
6
CONTINUOUS
10
13.6506061811023613
20
-9.3106264566929138
11
13.6550105905511803
21
-9.2941888582677166
0
LINE
8
BLACK
6
CONTINUOUS
10
13.6550105905511803
20
-9.2941888582677166
11
13.6579656692913378
21
-9.2774299212598414
0
LINE
8
BLACK
6
CONTINUOUS
10
13.6579656692913378
20
-9.2774299212598414
11
13.6594488188976371
21
-9.2604772440944885
0
LINE
8
BLACK
6
CONTINUOUS
10
13.6594488188976371
20
-9.2604772440944885
11
13.6594488188976371
21
-9.2519685039370074
0
LINE
8
BLACK
6
CONTINUOUS
10
13.6594488188976371
20
-9.2519685039370074
11
13.6594488188976371
21
-1.3779527559055118
0
LINE
8
BLACK
6
CONTINUOUS
10
13.6594488188976371
20
-1.3779527559055118
11
13.6594488188976371
21
-1.3694440157480314
0
LINE
8
BLACK
6
CONTINUOUS
10
13.6594488188976371
20
-1.3694440157480314
11
13.6579656692913378
21
-1.3524913385826771
0
LINE
8
BLACK
6
CONTINUOUS
10
13.6579656692913378
20
-1.3524913385826771
11
13.6550105905511803
21
-1.3357324015748031
0
LINE
8
BLACK
6
CONTINUOUS
10
13.6550105905511803
20
-1.3357324015748031
11
13.6506061811023613
21
-1.3192948031496063
0
LINE
8
BLACK
6
CONTINUOUS
10
13.6506061811023613
20
-1.3192948031496063
11
13.6447858661417314
21
-1.303303622047244
0
LINE
8
BLACK
6
CONTINUOUS
10
13.6447858661417314
20
-1.303303622047244
11
13.6375939763779517
21
-1.287880590551181
0
LINE
8
BLACK
6
CONTINUOUS
10
13.6375939763779517
20
-1.287880590551181
11
13.6290852362204724
21
-1.273143031496063
0
LINE
8
BLACK
6
CONTINUOUS
10
13.6290852362204724
20
-1.273143031496063
11
13.6193244094488186
21
-1.2592031496062992
0
LINE
8
BLACK
6
CONTINUOUS
10
13.6193244094488186
20
-1.2592031496062992
11
13.608385826771654
21
-1.2461670078740157
0
LINE
8
BLACK
6
CONTINUOUS
10
13.608385826771654
20
-1.2461670078740157
11
13.5963526771653545
21
-1.2341338582677166
0
LINE
8
BLACK
6
CONTINUOUS
10
13.5963526771653545
20
-1.2341338582677166
11
13.5833165354330703
21
-1.2231952755905511
0
LINE
8
BLACK
6
CONTINUOUS
10
13.5833165354330703
20
-1.2231952755905511
11
13.5693766535433067
21
-1.2134344488188975
0
LINE
8
BLACK
6
CONTINUOUS
10
13.5693766535433067
20
-1.2134344488188975
11
13.5546390944881878
21
-1.2049257086614173
0
LINE
8
BLACK
6
CONTINUOUS
10
13.5546390944881878
20
-1.2049257086614173
11
13.539216062992125
21
-1.1977338188976379
0
LINE
8
BLACK
6
CONTINUOUS
10
13.539216062992125
20
-1.1977338188976379
11
13.5232248818897638
21
-1.1919135039370079
0
LINE
8
BLACK
6
CONTINUOUS
10
13.5232248818897638
20
-1.1919135039370079
11
13.5067872834645666
21
-1.187509094488189
0
LINE
8
BLACK
6
CONTINUOUS
10
13.5067872834645666
20
-1.187509094488189
11
13.4900283464566932
21
-1.1845540157480314
0
LINE
8
BLACK
6
CONTINUOUS
10
13.4900283464566932
20
-1.1845540157480314
11
13.4730756692913385
21
-1.1830708661417322
0
LINE
8
BLACK
6
CONTINUOUS
10
13.4730756692913385
20
-1.1830708661417322
11
13.4645669291338574
21
-1.1830708661417322
0
LINE
8
BLACK
6
CONTINUOUS
10
13.4645669291338574
20
-1.1830708661417322
11
2.1653543307086616
21
-1.1830708661417322
  0
ENDSEC
  0
EOF
